<svg width="260" height="103" viewBox="0 0 260 103" fill="none" xmlns="http://www.w3.org/2000/svg">
<g clip-path="url(#clip0_73_2)">
<path d="M41.4888 103L45.5306 95.5861C45.6071 95.4583 45.6709 95.3051 45.6835 95.1388C45.7219 94.6403 45.3649 94.193 44.8804 94.1162C36.6438 92.8764 28.981 89.259 22.7334 83.6731C22.5549 83.507 22.3254 83.4303 22.0959 83.4303C21.8537 83.4303 21.6114 83.5196 21.4202 83.7114L8.10907 97.0435L5.9288 94.8576L19.2272 81.5255C19.5842 81.1676 19.5969 80.5926 19.2654 80.2092C13.6809 73.9458 10.0598 66.2635 8.82306 57.9934C8.77207 57.6867 8.58082 57.4181 8.30031 57.2775C8.1728 57.2137 8.01982 57.1753 7.87957 57.1753C7.72656 57.1753 7.5608 57.2137 7.42056 57.2904L0 61.3808V41.5808L7.4333 45.6329C7.57357 45.7096 7.7393 45.748 7.89231 45.748C8.03256 45.748 8.18557 45.7096 8.31308 45.6457C8.59357 45.5051 8.78481 45.2366 8.83583 44.9299C11.6408 26.4849 26.4693 11.6575 44.8804 8.87093C45.3777 8.79424 45.7345 8.34689 45.6964 7.84837C45.6835 7.66941 45.62 7.50324 45.5306 7.37542L41.5017 0H61.2514L57.2353 7.38814C57.1459 7.51596 57.0821 7.6822 57.0695 7.84837C57.0311 8.34689 57.3756 8.79424 57.8727 8.87093C64.0437 9.81683 70.0108 12.1305 75.2255 15.6073L69.2076 21.6405C65.8415 22.3563 62.0293 23.8263 58.1533 25.9099C51.9184 29.2587 45.5561 34.0904 39.7803 39.8808C37.5363 42.1177 35.4326 44.4569 33.5073 46.8472C32.8697 45.9269 32.2832 44.9937 31.7223 44.0863C33.5454 41.8749 35.5091 39.7147 37.5618 37.6694C40.6982 34.5251 44.026 31.6362 47.4431 29.0797C47.6982 28.8882 47.8385 28.5812 47.8256 28.2617C47.813 27.9421 47.6343 27.6483 47.3666 27.4819C46.4486 26.9196 45.5178 26.3956 44.5998 25.9099C42.4961 24.7849 35.1775 21.1036 29.032 21.1036C26.4309 21.1036 24.4292 21.7938 23.0777 23.136C20.4384 25.7819 20.3747 31.2911 22.9119 38.2575C25.6277 45.6841 30.9827 53.8646 38.0081 61.3041C38.1865 61.4959 38.4288 61.5981 38.6839 61.5981H38.6965C38.9516 61.5981 39.1938 61.4956 39.3722 61.3167L44.4214 56.255C44.7146 55.9609 44.7911 55.5008 44.5872 55.1302C44.0005 54.0181 43.6818 52.7654 43.6818 51.5129C43.6818 47.269 47.1244 43.8177 51.3575 43.8177C52.6196 43.8177 53.8692 44.1247 54.9655 44.7254C55.1058 44.8019 55.259 44.8405 55.4119 44.8405C55.6542 44.8405 55.9093 44.7381 56.0877 44.5591L61.1494 39.4974C61.3281 39.3184 61.43 39.0627 61.43 38.8071C61.43 38.5514 61.3152 38.2959 61.1368 38.1296C59.4793 36.5575 57.7707 35.062 56.0493 33.6558C56.9802 33.0424 57.9236 32.4543 58.8671 31.9048C60.3972 33.183 61.9145 34.5377 63.3934 35.931C63.5721 36.11 63.8143 36.1996 64.0565 36.1996C64.2988 36.1996 64.541 36.11 64.7323 35.9184L86.3437 14.265C86.5221 14.0861 86.6243 13.8433 86.6243 13.5876C86.6243 13.332 86.5221 13.0891 86.3437 12.9101L81.4477 8.00174L100.815 4.14145L83.513 21.4871C83.1562 21.845 83.1434 22.4202 83.4749 22.8036C89.034 29.0542 92.6421 36.6981 93.8917 44.9299C93.9426 45.2366 94.1339 45.5178 94.4145 45.6584C94.5548 45.7351 94.7077 45.7606 94.8606 45.7606C95.0138 45.7606 95.1541 45.7225 95.2941 45.6457L102.715 41.5554V61.3424L95.2941 57.2265C95.1541 57.1498 94.9883 57.1114 94.8351 57.1114C94.5674 57.1114 94.2997 57.2265 94.1213 57.431C93.9936 57.5845 93.9172 57.7632 93.8917 57.955C93.8536 58.3001 89.7734 88.7221 57.7833 94.0908C57.2862 94.1675 56.9421 94.6148 56.993 95.1133C57.0185 95.3945 57.1588 95.6373 57.3627 95.7908L61.2514 102.962H41.4888V103ZM44.7017 80.7077C44.5617 80.7077 44.4085 80.7458 44.2811 80.8099C39.9844 82.9317 35.968 84.2738 32.3342 84.7978C31.9262 84.8617 31.6075 85.1686 31.5311 85.5778C31.4546 85.9867 31.6459 86.3956 32.0027 86.5875C37.8933 89.8598 44.5872 91.5853 51.3575 91.5853C58.1278 91.5853 64.8216 89.8598 70.712 86.5875C71.0691 86.383 71.2603 85.9867 71.1839 85.5778C71.1072 85.1686 70.7885 84.8617 70.3805 84.7978C66.7466 84.2738 62.7305 82.9317 58.4336 80.8099C58.3062 80.7458 58.1533 80.7077 58.013 80.7077C57.8346 80.7077 57.6559 80.7587 57.503 80.8483C57.2224 81.0273 57.0566 81.3339 57.0566 81.6664V86.1783C55.1823 86.4852 53.2699 86.6385 51.3575 86.6385C49.4448 86.6385 47.5195 86.4852 45.6326 86.1657V81.6535C45.6326 81.3211 45.4668 81.0144 45.1865 80.8354C45.0333 80.7332 44.8549 80.6948 44.6762 80.6948L44.7017 80.7077ZM47.2901 58.1852C47.0479 58.1852 46.7928 58.2874 46.6144 58.4664L41.5652 63.5281C41.3869 63.707 41.2849 63.9627 41.2849 64.2184C41.2849 64.4741 41.3995 64.7298 41.5907 64.8959C52.4922 75.224 65.051 81.8963 73.5937 81.8963C75.8757 81.8963 77.6991 81.4107 79.0251 80.452C79.0634 80.4265 79.1015 80.4008 79.127 80.3624C79.4969 80.0045 79.8666 79.6339 80.2236 79.2505C80.2491 79.2248 80.2746 79.1864 80.3001 79.1609C84.7116 73.2299 78.2984 60.6904 75.3403 55.5904C75.1745 55.3092 74.8942 55.1302 74.5626 55.1174C74.5497 55.1174 74.5242 55.1174 74.5116 55.1174C74.2056 55.1174 73.925 55.258 73.7466 55.5008C71.2094 58.9008 68.3406 62.2244 65.1913 65.369C63.1257 67.4395 60.971 69.3952 58.778 71.223C57.86 70.6606 56.9421 70.0598 56.0112 69.4336C58.3955 67.4908 60.7414 65.3816 62.9728 63.1447C70.8904 55.2067 76.883 46.3742 79.8411 38.283C81.6771 33.234 82.1744 28.7985 81.2055 25.7819C81.1033 25.4624 80.8484 25.2195 80.5169 25.1428C80.4404 25.13 80.3639 25.1172 80.2875 25.1172C80.0324 25.1172 79.7901 25.2195 79.6115 25.3985L66.9124 38.117C66.5428 38.4875 66.5428 39.0756 66.8998 39.459C68.3023 40.9417 69.6537 42.4628 70.9288 43.9967C70.3805 44.9428 69.794 45.8757 69.1821 46.8089C67.7794 45.0834 66.275 43.3705 64.7068 41.7088C64.5281 41.517 64.2859 41.4148 64.0311 41.4148H64.0182C63.7633 41.4148 63.5211 41.517 63.3424 41.6959L58.2935 46.7579C58.0001 47.0517 57.9236 47.5118 58.1278 47.8953C58.7271 49.0074 59.0329 50.2601 59.0329 51.5255C59.0329 55.7693 55.5903 59.2206 51.3575 59.2206C50.0951 59.2206 48.8329 58.9011 47.7236 58.3129C47.5833 58.2362 47.4304 58.1978 47.2773 58.1978L47.2901 58.1852ZM38.671 66.8259C38.4288 66.8259 38.1865 66.9155 37.9953 67.1073L25.2962 79.8255C25.0667 80.0557 24.9647 80.4008 25.0412 80.7332C25.1177 81.0528 25.3599 81.3211 25.6787 81.4233C26.6732 81.7429 27.8463 81.9092 29.1594 81.9092C33.367 81.9092 38.8497 80.2089 44.5872 77.1285C45.4668 76.6554 46.3976 76.1314 47.354 75.5435C47.6217 75.3775 47.8001 75.0834 47.813 74.7638C47.8256 74.4443 47.6853 74.1373 47.4304 73.9458C44.6636 71.8749 41.9352 69.5613 39.3213 67.0816C39.1429 66.9026 38.9006 66.8133 38.6584 66.8133L38.671 66.8259ZM28.165 55.079C27.8463 55.0919 27.5531 55.2708 27.3873 55.5391C25.5002 58.6837 23.9829 61.7897 22.8992 64.7679C21.0632 69.8041 20.5787 74.227 21.5222 77.2436C21.6242 77.5631 21.8792 77.8059 22.2107 77.8827C22.2872 77.8956 22.3637 77.9082 22.4402 77.9082C22.6952 77.9082 22.9374 77.8059 23.1159 77.627L35.8023 64.9214C36.1719 64.5506 36.1719 63.9627 35.8151 63.5793C33.3415 60.959 31.0337 58.2362 28.9681 55.4624C28.7897 55.2196 28.4965 55.079 28.2033 55.079C28.1904 55.079 28.1778 55.079 28.1523 55.079H28.165ZM17.2126 31.5595C16.8684 31.5595 16.5496 31.7384 16.3711 32.058C13.0943 37.9764 11.3476 44.6997 11.3476 51.5C11.3476 58.3001 13.0816 65.0365 16.3711 70.9546C16.5369 71.2616 16.8684 71.4532 17.1999 71.4532C17.2509 71.4532 17.3146 71.4532 17.3784 71.4405C17.7864 71.3638 18.0924 71.0443 18.1561 70.6351C18.6789 66.9794 20.0177 62.9402 22.1469 58.6325C22.2872 58.3384 22.2744 57.9808 22.0959 57.6993C21.9174 57.4181 21.6114 57.252 21.2799 57.252H16.7281C16.4221 55.3602 16.2564 53.4302 16.2564 51.5129C16.2564 49.5955 16.4094 47.6908 16.7154 45.8118H21.2672C21.5987 45.8118 21.9047 45.6457 22.0832 45.3645C22.2617 45.0834 22.2744 44.7381 22.1342 44.4314C20.0049 40.0982 18.6661 36.059 18.1434 32.4033C18.0924 31.9941 17.7736 31.6746 17.3656 31.5978C17.3019 31.5978 17.2509 31.5852 17.1871 31.5852L17.2126 31.5595ZM81.4477 57.2392C81.1161 57.2392 80.8101 57.4055 80.6317 57.6867C80.453 57.9679 80.4404 58.3258 80.5807 58.6196C82.6973 62.9273 84.0487 66.9539 84.5713 70.5967C84.6352 71.0059 84.9412 71.3254 85.3493 71.4022C85.4128 71.4022 85.4638 71.4148 85.5277 71.4148C85.8718 71.4148 86.1908 71.2358 86.3692 70.9163C89.646 65.0108 91.38 58.2874 91.38 51.4871C91.38 44.6871 89.6459 37.989 86.3818 32.0837C86.2163 31.7768 85.8847 31.5852 85.5405 31.5852C85.4893 31.5852 85.4257 31.5852 85.3619 31.5978C84.9539 31.6746 84.648 31.9941 84.5842 32.4033C84.0614 36.0461 82.7227 40.0853 80.6062 44.4059C80.4659 44.6997 80.4785 45.0576 80.6572 45.3388C80.8355 45.62 81.1416 45.7863 81.4732 45.7863H85.9995C86.3053 47.6653 86.4585 49.5827 86.4585 51.4871C86.4585 53.3919 86.3053 55.3347 85.9866 57.2265H81.4603L81.4477 57.2392ZM57.0821 21.3848C57.0821 21.7171 57.2479 22.024 57.5285 22.2029C57.6814 22.3051 57.86 22.3435 58.0384 22.3435C58.1787 22.3435 58.3316 22.3051 58.4591 22.2412C62.7815 20.1066 66.8234 18.7517 70.4827 18.2404C70.8904 18.1893 71.2094 17.8697 71.2858 17.4734C71.3623 17.0644 71.171 16.6554 70.814 16.4636C64.8981 13.1658 58.1787 11.4146 51.3701 11.4146C44.5617 11.4146 37.8424 13.1658 31.9262 16.4636C31.5691 16.6682 31.3779 17.0772 31.4546 17.4734C31.5311 17.8824 31.8497 18.1892 32.2578 18.2531C35.9171 18.7644 39.9589 20.1194 44.294 22.254C44.4214 22.3179 44.5743 22.3563 44.7146 22.3563C44.893 22.3563 45.0716 22.3052 45.2246 22.2157C45.5052 22.0367 45.6709 21.7299 45.6709 21.3976V16.8215C47.545 16.5147 49.4577 16.3614 51.3701 16.3614C53.2828 16.3614 55.208 16.5147 57.095 16.8343V21.4104L57.0821 21.3848Z" fill="white"/>
<path d="M155.028 90.1155C133.417 90.1155 117.123 73.4982 117.123 51.4488C117.123 26.0631 136.197 12.7823 155.028 12.7823C171.667 12.7823 187.554 23.9923 190.436 37.5033H173.771C171.31 32.1986 164.566 26.7149 155.028 26.7149C140.544 26.7149 131.9 39.2801 131.9 51.4362C131.9 65.765 142.138 76.1572 156.24 76.1572C171.757 76.1572 176.308 63.5793 177.061 61.0612L177.43 59.834H155.819L163.163 46.0034H191.456C191.749 47.7421 192.042 51.2443 192.042 53.9669C192.042 65.2152 187.987 74.6359 180.337 81.1805C173.707 86.8432 164.476 90.1026 155.016 90.1026L155.028 90.1155Z" fill="#F5F4F3"/>
<path d="M237.534 89.016V73.1658H199.883V63.3618L226.174 13.8942H242.456L217.759 60.3325H237.534V42.1816H251.878V60.3325H260V73.1658H251.878V89.016H237.534Z" fill="#F5F4F3"/>
</g>
<defs>
<clipPath id="clip0_73_2">
<rect width="260" height="103" fill="white"/>
</clipPath>
</defs>
</svg>
