<svg width="128" height="69" viewBox="0 0 128 69" fill="none" xmlns="http://www.w3.org/2000/svg">
<g clip-path="url(#clip0_1_344)">
<path d="M0 38.9262H9.74317L15.1979 11.9895H5.45341L0 38.9262Z" fill="white"/>
<path d="M6.31482 7.75982H16.0541L17.6256 0H7.87461L6.31482 7.75982Z" fill="white"/>
<path d="M13.5973 46.5113H23.3405L29.2528 17.3591H36.3627L37.4819 11.9899H30.3119L30.5576 10.7451C31.0165 8.44854 31.7605 5.77739 35.4344 5.77739C37.6114 5.77739 39.6981 6.01425 41.7219 6.86773L42.8307 1.19462C40.5776 0.401858 38.2024 -0.00227082 35.8096 9.59722e-06C27.9794 9.59722e-06 22.5861 4.67547 20.6119 11.9899H17.228L16.1704 17.3591H19.5043L13.5973 46.5113Z" fill="white"/>
<path d="M44.4638 39.5268C55.9694 39.5268 63.9528 28.9865 63.9528 20.3886C63.9528 14.1272 58.051 11.3892 52.4406 11.3892C39.8158 11.3892 32.9465 22.7238 32.9465 30.5287C32.9465 36.7901 38.9085 39.5268 44.4638 39.5268Z" fill="white"/>
<path d="M75.2013 39.5268C86.7069 39.5268 94.6903 28.9865 94.6903 20.3886C94.6903 14.1272 88.7767 11.3892 83.1715 11.3892C70.5533 11.3892 63.6735 22.7238 63.6735 30.5287C63.6735 36.7901 69.6419 39.5268 75.196 39.5268" fill="white"/>
<path d="M110.531 38.9254H120.22L128 0.600098H118.256L115.934 11.9888C114.64 11.7081 113.321 11.5567 111.997 11.5369C102.452 11.5369 93.7723 23.7135 93.7723 32.4156C93.7723 35.9956 96.093 39.5254 100.032 39.5254C105.631 39.5254 109.506 36.7769 111.124 34.2011H111.728L110.531 38.9254Z" fill="white"/>
<path d="M80.5144 59.2269C73.3888 65.3119 63.8627 68.4362 53.509 67.7913C40.4539 66.9867 31.4024 56.8493 29.5824 46.5664H30.2021C33.1387 53.1315 40.2878 59.1934 49.2597 60.1897C58.0197 61.1591 68.7538 57.1892 74.644 51.5224L68.036 46.5098L87.6584 46.5664L83.4354 67.3999L80.5144 59.2269Z" fill="white"/>
</g>
<defs>
<clipPath id="clip0_1_344">
<rect width="128" height="69" fill="white"/>
</clipPath>
</defs>
</svg>
