<svg width="259" height="37" viewBox="0 0 259 37" fill="none" xmlns="http://www.w3.org/2000/svg">
<g clip-path="url(#clip0_1_152)">
<path d="M25.0803 3.72729L-0.198486 18.1345H50.3591L25.0803 3.72729ZM45.5319 21.9955C44.1471 21.3027 42.6172 20.9443 41.0678 20.9443C39.5184 20.9443 37.9884 21.3027 36.6037 21.9955C35.5143 22.5498 34.3039 22.8366 33.0741 22.8366C31.8442 22.8366 30.6386 22.5498 29.5444 21.9955C28.1597 21.3027 26.6297 20.9443 25.0803 20.9443C23.531 20.9443 22.001 21.3027 20.6162 21.9955C19.522 22.5498 18.3164 22.8366 17.0866 22.8366C15.8568 22.8366 14.6512 22.5498 13.5569 21.9955C12.1722 21.3027 10.6422 20.9443 9.09284 20.9443C7.54348 20.9443 6.01348 21.3027 4.62874 21.9955C3.97995 22.3396 3.27789 22.5833 2.55163 22.7219L5.05966 24.1554C5.23396 24.079 5.40342 23.9977 5.5632 23.9213C6.65744 23.367 7.86304 23.0803 9.09284 23.0803C10.3226 23.0803 11.5282 23.367 12.6225 23.9213C14.0072 24.6142 15.5372 24.9725 17.0866 24.9725C18.6359 24.9725 20.1659 24.6142 21.5507 23.9213C22.6449 23.367 23.8505 23.0803 25.0803 23.0803C26.3101 23.0803 27.5157 23.367 28.61 23.9213C29.9947 24.6142 31.5247 24.9725 33.0741 24.9725C34.6234 24.9725 36.1534 24.6142 37.5382 23.9213C38.6324 23.367 39.838 23.0803 41.0678 23.0803C42.2976 23.0803 43.5032 23.367 44.5974 23.9213C44.7621 23.9977 44.9267 24.0742 45.101 24.1554L47.609 22.7219C46.8827 22.5881 46.1807 22.3396 45.5319 21.9955ZM36.5989 27.1038C35.5046 27.6581 34.299 27.9448 33.0692 27.9448C31.8442 27.9448 30.6338 27.6581 29.5396 27.1038C28.1548 26.4109 26.6248 26.0525 25.0755 26.0525C23.5261 26.0525 21.9961 26.4109 20.6114 27.1038C19.5171 27.6581 18.3115 27.9448 17.0817 27.9448C15.8568 27.9448 14.6463 27.6581 13.5521 27.1038C12.177 26.3822 10.6422 26.0238 9.088 26.0573C8.84591 26.0573 8.61835 26.0573 8.40047 26.0764L13.9298 29.235C14.8787 29.7845 15.9536 30.076 17.0478 30.0856H17.0769C18.6311 30.1238 20.1708 29.7606 21.541 29.0391C22.6352 28.4848 23.8408 28.198 25.0706 28.198C26.3004 28.198 27.506 28.4848 28.6003 29.0391C29.9705 29.7606 31.5102 30.119 33.0644 30.0856H33.0886C34.1877 30.076 35.2625 29.7797 36.2067 29.235L41.736 26.0764C41.5084 26.062 41.2808 26.0573 41.0533 26.0573C39.5039 26.0238 37.9691 26.3822 36.5989 27.1038ZM30.7597 32.3506L25.0803 35.5952L30.7597 32.3506ZM19.4009 32.3506L25.0803 35.5952L30.7597 32.3506C29.0021 31.4713 27.0557 31.0078 25.0803 31.0078C23.1049 31.0078 21.1633 31.4713 19.4009 32.3506Z" fill="white"/>
<path d="M85.4415 26.7615C84.5216 28.9166 81.9022 33.9341 77.4187 33.9341H72.514C70.4127 33.9341 70.1948 32.6773 70.1513 29.3563V8.17314C70.1948 4.81385 70.4127 3.54754 72.514 3.54754H72.8675V2.67307H63V3.54276H63.3534C65.5032 3.54276 65.7162 4.88075 65.7162 8.16836V29.3563C65.7162 32.6104 65.5032 33.9341 63.3534 33.9341H63V34.8038H84.449L86.3179 26.9431L86.4099 26.5465H85.5287L85.4415 26.7615ZM111.771 3.54754H112.124C114.274 3.54754 114.487 4.88552 114.487 8.17314V24.6781C114.487 29.0648 112.885 34.2972 105.239 34.2972C101.201 34.2972 98.4901 30.6512 98.4901 25.2229V8.16836C98.5385 4.58448 98.8435 3.54276 100.853 3.54276H101.206V2.6683H91.334V3.53798H91.6874C93.8371 3.53798 94.0502 4.87597 94.0502 8.16358V24.6733C94.0502 32.4862 100.078 35.2577 105.239 35.2577C107.767 35.3629 110.246 34.5553 112.221 32.9927C113.335 31.9223 114.197 30.6178 114.749 29.1795C115.296 27.7411 115.519 26.2025 115.397 24.6686V8.1588C115.397 4.87119 115.611 3.53321 117.76 3.53321H118.114V2.66352H111.781L111.771 3.54754ZM143.092 20.7788H143.446C145.445 20.7788 145.765 21.8253 145.809 25.3997V32.2855C144.061 33.3511 142.095 34.0201 140.052 34.2495C137.868 34.431 135.694 33.8337 133.917 32.5722C131.937 31.0526 130.315 29.1269 129.158 26.9288C128.001 24.7307 127.342 22.3127 127.226 19.8375C126.519 11.2887 131.08 3.83903 137.408 3.22738C139.626 3.08403 141.838 3.6001 143.76 4.70394C145.14 5.59752 146.307 6.77781 147.179 8.16358C148.05 9.54935 148.607 11.1024 148.81 12.7175V13.0472H149.619V12.8513H149.604L148.307 3.81992C148.321 3.81992 148.331 3.81036 148.341 3.8008L148.292 3.71957L148.244 3.63833C147.89 3.84381 147.3 3.75302 146.443 3.54276C143.484 2.69219 140.41 2.29557 137.326 2.36247C132.988 2.70652 128.95 4.69438 126.054 7.90076C124.597 9.60191 123.507 11.5802 122.854 13.7162C122.2 15.8522 121.997 18.0933 122.258 20.3058C122.384 22.6472 123.033 24.9361 124.161 27.0005C125.289 29.0648 126.868 30.8567 128.785 32.2473C132.111 34.4884 136.13 35.511 140.139 35.1383C141.131 35.0379 142.119 34.8707 143.092 34.6461L143.175 34.6317C145.441 34.1635 148.007 33.633 148.965 34.2542C149.082 34.3259 149.178 34.431 149.241 34.5553C149.304 34.6795 149.328 34.8133 149.319 34.9519V35.2768H150.229V25.4092C150.229 22.1216 150.442 20.7884 152.592 20.7884H152.945V19.9187H143.087L143.092 20.7788ZM212.053 3.54754H212.407C215.346 3.54754 217.394 6.91161 217.394 11.7283V27.507L199.136 2.80209L199.029 2.67307H191.316V3.54276H191.67C192.962 3.54276 194.526 4.69438 196.313 6.96895V25.7581C196.313 30.57 194.279 33.9341 191.374 33.9341H191.021V34.8038H202.559V33.9341H202.205C199.271 33.9341 197.218 30.57 197.218 25.7581V8.14447C199.14 10.6675 204.791 18.208 209.366 24.3102L210.315 25.5765C214.063 30.5796 217.021 34.5266 217.166 34.6939L217.273 34.8181H218.304V11.7236C218.304 6.90683 220.338 3.54276 223.243 3.54276H223.596V2.67307H212.058L212.053 3.54754ZM259.323 17.2284C259.193 14.82 258.515 12.4738 257.338 10.3617C256.162 8.24959 254.52 6.4242 252.535 5.01932C249.906 3.18915 246.803 2.14266 243.588 2.01364C240.373 1.88462 237.192 2.67307 234.422 4.28821C231.653 5.90335 229.416 8.27349 227.978 11.1119C226.54 13.9504 225.964 17.1424 226.317 20.2962C226.482 24.3675 228.264 28.2142 231.28 31.0049C234.292 33.7955 238.296 35.3007 242.426 35.2052C243.026 35.2052 243.622 35.1765 244.208 35.1192C248.555 34.799 252.603 32.8207 255.503 29.6048C256.961 27.9036 258.045 25.9301 258.704 23.8036C259.357 21.6772 259.57 19.4409 259.323 17.2284ZM244.145 34.2495C243.902 34.2734 243.651 34.2829 243.375 34.2829C241.419 34.2542 239.516 33.633 237.928 32.5005C235.962 30.9857 234.355 29.0696 233.217 26.881C232.074 24.6924 231.425 22.2889 231.319 19.8327C230.563 11.2457 235.134 3.8008 241.506 3.22738C241.782 3.19871 242.063 3.18437 242.329 3.18437C244.251 3.21305 246.12 3.81992 247.684 4.92853C249.659 6.44332 251.276 8.36906 252.424 10.5624C253.571 12.7605 254.225 15.1737 254.332 17.6441C255.077 26.1881 250.511 33.6378 244.14 34.2495H244.145ZM185.734 33.9341C183.327 33.9341 182.141 30.8806 181.095 28.1855L181.071 28.1186C180.049 25.6051 173.731 8.25915 171.818 3.00279L171.693 2.6683H170.811L161.651 27.182C160.092 31.3632 158.179 33.4515 155.463 33.9389L155.177 33.9866V34.8133H165.04V33.9436H164.687C164.435 33.9484 164.183 33.8959 163.951 33.7955C163.718 33.6952 163.51 33.5422 163.345 33.3559C162.164 32.0705 162.067 28.8115 163.127 25.7819C163.229 25.5 163.534 24.6733 163.955 23.5552L165.142 20.387C166.43 16.9274 168.085 12.4929 169.378 9.03327C170.012 10.7774 171.494 14.7962 173.039 19.006L173.92 21.4048H167.882L167.577 22.2841H171.688C174.094 22.2841 175.28 25.3375 176.331 28.0326L176.355 28.0995C176.413 28.2477 176.496 28.4484 176.588 28.6968C176.825 29.3467 177.018 29.8819 177.14 30.2307C177.822 32.1613 177.963 33.203 177.595 33.6091C177.386 33.8385 176.975 33.9389 176.263 33.9389H175.91V34.8085H186.082V33.9389L185.734 33.9341Z" fill="white"/>
</g>
<defs>
<clipPath id="clip0_1_152">
<rect width="259" height="37" fill="white"/>
</clipPath>
</defs>
</svg>
