<svg xmlns="http://www.w3.org/2000/svg" width="42" height="24" viewBox="0 0 42 24" fill="none"><path d="M39.08 2.03308C36.9672 0.813883 34.266 1.53664 33.0468 3.64942L25.6864 16.3991C24.4672 18.5119 25.19 21.2131 27.3027 22.4323C29.4155 23.6515 32.1167 22.9288 33.3359 20.816L40.6964 8.06627C41.9156 5.95348 41.1928 3.25227 39.08 2.03308Z" fill="#3A506B"></path><path d="M33.3343 16.3991L25.9739 3.64942C24.7547 1.53664 22.0535 0.813883 19.9407 2.03308C17.8279 3.25227 17.1051 5.95348 18.3243 8.06627L25.6848 20.816C26.904 22.9288 29.6052 23.6515 31.718 22.4323C33.8307 21.2131 34.5535 18.5119 33.3343 16.3991Z" fill="#5BC0BE"></path><path d="M4.92515 23.0252C7.3645 23.0252 9.34199 21.0477 9.34199 18.6084C9.34199 16.169 7.3645 14.1915 4.92515 14.1915C2.48579 14.1915 0.508301 16.169 0.508301 18.6084C0.508301 21.0477 2.48579 23.0252 4.92515 23.0252Z" fill="#5BC0BE"></path><path d="M15.0116 6.08055L13.6084 3.64946C12.7908 2.23315 11.3058 1.44031 9.77854 1.44031C9.0295 1.44031 8.27024 1.63158 7.57377 2.03311C6.83641 2.45801 6.27281 3.06687 5.89318 3.76335C5.60116 4.29921 3.89282 8.77446 3.89282 8.77446C4.22573 8.22838 5.9545 7.9495 6.85685 9.62571L10.8838 16.5992L13.3179 20.8146C14.1355 22.2309 15.6205 23.0237 17.1463 23.0237C17.8953 23.0237 18.6546 22.8324 19.351 22.4309C21.4638 21.2117 22.188 18.5105 20.9674 16.3977L15.0101 6.07909L15.0116 6.08055Z" fill="#5BC0BE"></path></svg>