<svg width="576" height="92" viewBox="0 0 576 92" fill="none" xmlns="http://www.w3.org/2000/svg">
<path d="M157.468 38.8736C160.822 43.0175 162.401 47.9507 162.401 54.0679C162.401 67.2888 153.718 75.3793 139.708 75.3793C125.698 75.3793 117.41 67.2888 117.41 53.4759C117.41 40.0576 126.29 31.7698 140.103 31.7698C147.799 31.7698 153.718 34.3351 157.468 38.8736ZM129.447 53.8706C129.447 62.1583 133.196 66.4995 140.103 66.4995C147.009 66.4995 150.561 62.1583 150.561 53.4759C150.561 44.9908 147.009 40.8469 139.905 40.8469C132.802 40.8469 129.447 45.1881 129.447 53.8706Z" fill="white"/>
<path d="M168.913 29.7966C168.913 20.5221 172.662 16.5756 181.147 16.5756H195.552V25.6527H185.488C181.936 25.6527 180.555 27.034 180.555 30.3885V32.3618H190.816V41.4389H180.555V74.7873H168.913V29.7966Z" fill="white"/>
<path d="M203.84 16.7729H215.482V28.0206H203.84V16.7729ZM215.482 32.3618V74.7873H203.84V32.3618H215.482Z" fill="white"/>
<path d="M260.473 41.4389H246.462C237.78 41.4389 234.031 44.9908 234.031 53.6732C234.031 58.2118 235.609 61.7637 238.569 63.7369C240.74 65.3156 243.108 65.9076 247.844 65.9076H260.473V74.9846H244.489C236.004 74.9846 231.466 73.406 227.716 69.0648C223.967 64.9209 222.191 59.9877 222.191 53.4759C222.191 45.9774 224.362 40.2549 228.703 36.5057C232.255 33.5458 236.596 32.3618 244.489 32.3618H260.473V41.4389Z" fill="white"/>
<path d="M268.958 16.7729H280.6V28.0206H268.958V16.7729ZM280.798 32.3618V74.7873H269.155V32.3618H280.798Z" fill="white"/>
<path d="M339.207 74.7873V16.5756H350.849V74.7873H339.207Z" fill="white"/>
<path d="M330.327 42.4255C328.946 38.0843 325.788 34.7298 322.039 33.5458C319.276 32.7565 317.698 32.5591 310.594 32.5591H295.597V41.6362H310.594C317.698 41.6362 319.474 43.2148 319.474 49.1347H305.266C300.925 49.1347 297.57 49.5293 295.597 50.1213C291.059 51.6999 287.901 56.4358 287.901 62.3557C287.901 66.6969 289.677 70.4461 292.835 72.6167C295.4 74.59 297.57 74.7873 306.647 74.7873H325.394C328.551 74.7873 331.313 72.222 331.313 68.8675V50.9106C331.313 46.3721 331.116 44.7935 330.327 42.4255ZM306.056 65.7102C301.517 65.7102 299.741 64.7236 299.741 61.961C299.741 60.185 300.728 58.8037 302.306 58.2118C303.293 58.0144 303.293 58.0144 306.056 58.0144H319.474V65.7102H306.056Z" fill="white"/>
<path d="M363.281 30.3885C363.281 20.7195 367.424 16.5756 377.094 16.5756H387.947V23.2847H378.277C372.95 23.2847 371.766 24.4687 371.766 29.9939V32.3618H382.421V39.071H371.766V74.7873H363.281V30.3885Z" fill="white"/>
<path d="M447.934 32.3618C455.038 32.3618 458.393 33.1511 460.958 35.5191C463.523 37.6897 464.312 40.8469 464.312 47.3587V51.5026H456.419V47.3587C456.419 41.2416 454.643 39.4656 448.724 39.4656H445.369V74.7873H437.081V32.3618H447.934Z" fill="white"/>
<path d="M510.29 32.3618C520.748 32.3618 522.524 32.7565 525.681 35.3217C528.839 37.887 529.825 41.2416 529.825 48.5427V74.7873H521.34V48.5427C521.34 41.4389 518.972 39.071 511.671 39.071H505.159V74.7873H496.674V39.071H480.888V74.7873H472.6V32.3618H510.29Z" fill="white"/>
<path d="M573.237 36.3084C570.87 33.3485 567.318 32.3618 559.819 32.3618H542.652V39.071H557.846C566.331 39.071 567.515 40.2549 567.515 48.9374H552.518C547.19 48.9374 544.23 49.5293 542.06 50.7133C538.508 52.6866 536.534 57.0278 536.534 62.1583C536.534 66.3022 538.113 69.8541 540.876 72.0247C543.836 74.1953 546.203 74.7873 554.491 74.7873H571.856C574.224 74.7873 576 72.814 576 70.6434V47.9507C576 41.6362 575.408 38.8736 573.237 36.3084ZM553.505 68.0782C547.585 68.0782 545.217 66.4995 545.217 61.961C545.217 57.4225 547.387 55.6465 553.505 55.6465H567.712V68.0782H553.505Z" fill="white"/>
<path d="M426.426 36.3084C424.058 33.3485 420.506 32.3618 413.007 32.3618H395.84V39.071H411.034C419.519 39.071 420.703 40.2549 420.703 48.9374H405.509C400.181 48.9374 397.221 49.5293 395.05 50.7133C391.498 52.6866 389.525 57.0278 389.525 62.1583C389.525 66.3022 391.104 69.8541 393.866 72.0247C396.826 74.1953 399.194 74.7873 407.482 74.7873H424.847C427.215 74.7873 428.991 72.814 428.991 70.6434V47.9507C428.991 41.6362 428.399 38.8736 426.426 36.3084ZM406.495 68.0782C400.576 68.0782 398.208 66.4995 398.208 61.961C398.208 57.4225 400.378 55.6465 406.495 55.6465H420.703V68.0782H406.495Z" fill="white"/>
<path d="M44.7934 39.2683C44.7934 40.8469 45.1881 42.4255 45.5827 43.8068L46.5694 47.3587L90.5735 35.9137C89.1922 29.2046 86.2323 23.0874 82.0884 17.7595L55.0545 24.8634C49.1346 26.6393 44.7934 32.5591 44.7934 39.2683Z" fill="white"/>
<path d="M50.1213 61.961L57.4224 89.7842C75.1819 85.0483 88.7975 69.8541 91.1655 51.3053L50.1213 61.961Z" fill="white"/>
<path d="M29.7965 43.4122C29.0072 40.8469 28.4152 37.887 28.4152 34.9271C28.4152 23.6794 36.111 14.2076 46.7667 11.445L68.2754 5.91984C61.5663 2.17062 53.8705 0 45.7801 0C20.5221 0 0 20.5221 0 45.7801C0 69.8541 18.5488 89.5869 42.2282 91.3628L30.5858 46.5694C30.3885 45.3855 29.9938 44.3988 29.7965 43.4122Z" fill="white"/>
</svg>
