<svg width="868" height="184" viewBox="0 0 868 184" fill="none" xmlns="http://www.w3.org/2000/svg">
<path d="M92.1284 32.0651H0V49.7551H37.2655V179.114H54.885V49.7605H92.1284V32.0651ZM328.333 151.165H345.952C346.096 154.818 347.643 158.274 350.268 160.808C352.892 163.341 356.392 164.757 360.032 164.757C363.673 164.757 367.172 163.341 369.797 160.808C372.422 158.274 373.968 154.818 374.112 151.165C374.202 149.145 373.873 147.128 373.146 145.242C372.679 144.147 371.937 143.192 370.993 142.47C366.907 139.932 362.399 138.157 357.686 137.229C350.882 135.756 344.438 132.938 338.73 128.939C335.29 126.162 332.552 122.609 330.738 118.568C328.925 114.528 328.087 110.114 328.294 105.687C328.404 97.3092 331.795 89.3125 337.732 83.4275C343.67 77.5425 351.676 74.2425 360.019 74.2425C368.361 74.2425 376.367 77.5425 382.305 83.4275C388.242 89.3125 391.633 97.3092 391.743 105.687H374.112C374.188 103.782 373.879 101.883 373.205 100.101C372.531 98.3197 371.507 96.6935 370.192 95.3196C368.877 93.9457 367.299 92.8525 365.553 92.1059C363.808 91.3592 361.93 90.9744 360.032 90.9744C358.135 90.9744 356.257 91.3592 354.511 92.1059C352.766 92.8525 351.188 93.9457 349.873 95.3196C348.558 96.6935 347.533 98.3197 346.859 100.101C346.186 101.883 345.877 103.782 345.952 105.687C346.156 111.659 347.388 113.001 349.624 115.003C353.523 117.492 357.845 119.239 362.373 120.155C367.524 121.403 372.524 123.214 377.282 125.556C382.609 128.236 386.855 132.675 389.308 138.127C391.217 142.477 392.137 147.2 392 151.952C391.863 156.703 390.673 161.365 388.517 165.597C386.36 169.828 383.292 173.524 379.534 176.415C375.777 179.306 371.425 181.319 366.795 182.308C362.165 183.297 357.374 183.237 352.77 182.132C348.166 181.027 343.866 178.906 340.181 175.922C336.497 172.938 333.521 169.166 331.47 164.882C329.42 160.597 328.346 155.907 328.327 151.154L328.333 151.165ZM670.199 179.119V105.731C670.199 101.975 668.713 98.3736 666.069 95.718C663.425 93.0624 659.839 91.5707 656.099 91.5707C652.36 91.5707 648.774 93.0624 646.13 95.718C643.485 98.3736 642 101.975 642 105.731V179.119H624.369V105.731C624.479 97.3535 627.87 89.3569 633.808 83.4719C639.745 77.5869 647.752 74.2872 656.094 74.2872C664.436 74.2872 672.442 77.5869 678.38 83.4719C684.317 89.3569 687.708 97.3535 687.818 105.731V179.119H670.199ZM279.82 165.311C276.084 165.308 272.503 163.817 269.861 161.165C267.219 158.513 265.733 154.916 265.728 151.165V137.595H279.82C288.231 137.595 296.299 134.24 302.248 128.268C308.198 122.296 311.542 114.195 311.547 105.747C311.56 99.5567 309.759 93.4989 306.368 88.3292C306.279 88.2017 306.207 88.0575 306.125 87.9244C306.042 87.7913 306.042 87.8191 306.003 87.7637C303.093 83.4864 299.186 79.9875 294.623 77.5714C290.06 75.1553 284.978 73.8951 279.82 73.9C279.676 73.9 279.538 73.9 279.394 73.9C271.057 74.0094 263.097 77.4132 257.241 83.3741C251.384 89.335 248.101 97.373 248.103 105.747V151.165C248.103 159.614 251.445 167.717 257.394 173.692C263.343 179.667 271.412 183.023 279.825 183.023C288.238 183.023 296.307 179.667 302.256 173.692C308.205 167.717 311.547 159.614 311.547 151.165H293.922C293.916 154.915 292.43 158.51 289.79 161.161C287.149 163.813 283.57 165.305 279.836 165.311H279.82ZM265.728 119.888V105.742C265.73 101.988 267.215 98.3883 269.857 95.7329C272.499 93.0774 276.082 91.5833 279.82 91.5789C280.746 91.5804 281.671 91.6714 282.58 91.8507H282.68C283.52 92.0254 284.343 92.2778 285.137 92.6048L285.325 92.6768C285.535 92.7656 285.739 92.8712 285.943 92.971C286.147 93.0708 286.363 93.1593 286.562 93.2702C286.619 93.3024 286.674 93.3378 286.727 93.3758C288.649 94.4587 290.292 95.9779 291.525 97.8121C291.575 97.8786 291.614 97.9563 291.658 98.0284C291.862 98.3389 292.055 98.6492 292.21 98.9764C292.315 99.165 292.392 99.3593 292.486 99.5312C292.58 99.7031 292.707 99.9635 292.801 100.191C292.895 100.418 292.994 100.712 293.083 100.973C293.143 101.145 293.221 101.317 293.27 101.494C293.32 101.672 293.392 101.965 293.452 102.198C293.513 102.431 293.574 102.631 293.618 102.853C293.662 103.075 293.695 103.319 293.723 103.546C293.751 103.773 293.811 104.023 293.833 104.256C293.856 104.489 293.834 104.716 293.867 104.944C293.9 105.171 293.905 105.448 293.905 105.709C293.905 109.461 292.425 113.06 289.788 115.718C287.151 118.375 283.572 119.875 279.836 119.888H265.728ZM713.433 32.1094H731.058V51.308H713.433V32.1094ZM713.433 77.7762H731.058V179.125H713.433V77.7762ZM581.096 32.1094H598.727V51.308H581.096V32.1094ZM581.096 77.7762H598.721V179.125H581.096V77.7762ZM555.47 179.125V105.731C555.477 100.306 554.103 94.9692 551.477 90.228C548.852 85.4868 545.063 81.4985 540.471 78.6423C535.878 75.786 530.635 74.1568 525.239 73.9092C519.843 73.6615 514.474 74.8035 509.641 77.2272V32.0982H492.016V179.119H509.641V105.731C509.641 101.975 511.127 98.372 513.771 95.716C516.416 93.0599 520.003 91.5677 523.743 91.5677C527.483 91.5677 531.07 93.0599 533.715 95.716C536.36 98.372 537.845 101.975 537.845 105.731V179.119L555.47 179.125ZM209.264 32.104V77.2272C204.432 74.8035 199.062 73.6615 193.666 73.9092C188.27 74.1568 183.027 75.786 178.434 78.6423C173.842 81.4985 170.053 85.4868 167.428 90.228C164.802 94.9692 163.428 100.306 163.435 105.731V151.165C163.435 159.615 166.777 167.719 172.727 173.694C178.676 179.669 186.745 183.026 195.159 183.026C203.573 183.026 211.642 179.669 217.592 173.694C223.541 167.719 226.884 159.615 226.884 151.165V32.0982L209.264 32.104ZM209.264 151.171C209.264 154.925 207.779 158.526 205.135 161.181C202.492 163.836 198.906 165.328 195.168 165.328C191.429 165.328 187.843 163.836 185.2 161.181C182.556 158.526 181.071 154.925 181.071 151.171V105.731C181.071 101.976 182.556 98.3751 185.2 95.72C187.843 93.065 191.429 91.5734 195.168 91.5734C198.906 91.5734 202.492 93.065 205.135 95.72C207.779 98.3751 209.264 101.976 209.264 105.731V151.171ZM410.141 151.171V105.747C410.141 97.298 413.483 89.1947 419.432 83.2201C425.381 77.2454 433.45 73.8888 441.863 73.8888C450.276 73.8888 458.345 77.2454 464.294 83.2201C470.242 89.1947 473.585 97.298 473.585 105.747H456.004C456.004 101.991 454.518 98.389 451.873 95.7329C449.229 93.0768 445.642 91.5846 441.902 91.5846C438.161 91.5846 434.574 93.0768 431.93 95.7329C429.285 98.389 427.799 101.991 427.799 105.747V151.165C427.799 154.921 429.285 158.524 431.93 161.18C434.574 163.836 438.161 165.328 441.902 165.328C445.642 165.328 449.229 163.836 451.873 161.18C454.518 158.524 456.004 154.921 456.004 151.165H473.623C473.623 159.614 470.281 167.717 464.332 173.692C458.383 179.667 450.315 183.023 441.902 183.023C433.488 183.023 425.42 179.667 419.471 173.692C413.522 167.717 410.18 159.614 410.18 151.165L410.141 151.171ZM78.8047 151.171V105.747C78.8047 97.298 82.1469 89.1947 88.0958 83.2201C94.0448 77.2454 102.113 73.8888 110.526 73.8888C118.94 73.8888 127.008 77.2454 132.957 83.2201C138.906 89.1947 142.248 97.298 142.248 105.747V151.165C142.248 159.614 138.906 167.717 132.957 173.692C127.008 179.667 118.94 183.023 110.526 183.023C102.113 183.023 94.0448 179.667 88.0958 173.692C82.1469 167.717 78.8047 159.614 78.8047 151.165V151.171ZM96.4297 151.171C96.5028 154.878 98.0204 158.408 100.657 161.004C103.293 163.599 106.837 165.053 110.529 165.053C114.221 165.053 117.766 163.599 120.402 161.004C123.038 158.408 124.556 154.878 124.629 151.171V105.747C124.666 103.864 124.329 101.993 123.637 100.242C122.945 98.4913 121.912 96.8971 120.599 95.5521C119.286 94.2072 117.719 93.1385 115.99 92.4091C114.261 91.6797 112.405 91.3044 110.529 91.3044C108.654 91.3044 106.797 91.6797 105.068 92.4091C103.339 93.1385 101.772 94.2072 100.459 95.5521C99.1463 96.8971 98.1137 98.4913 97.4218 100.242C96.7299 101.993 96.3926 103.864 96.4297 105.747V151.171Z" fill="white"/>
<path d="M866.25 20.9911C865.211 17.6848 863.065 14.8413 860.176 12.9443C854.063 9.93914 847.758 7.34574 841.303 5.18091C838.47 4.75562 835.576 5.02861 832.871 5.97631C830.166 6.92402 827.731 8.51812 825.776 10.6211C821.127 14.5565 817.265 19.3438 814.396 24.7284C799.907 1.13807 785.501 -1.50153 779.61 0.566923C772.297 4.02819 765.209 7.95136 758.39 12.3124C756.342 14.4031 756.066 23.575 764.193 40.6716C771.421 55.8773 794.159 77.3329 807.229 85.9339C802.052 88.546 796.367 89.9864 790.576 90.1539C791.901 94.0634 801.536 95.9711 805.573 96.1763C817.328 96.7807 839.205 86.7488 853.5 67.4173C859.549 59.656 863.979 50.7503 866.526 41.2318C868.577 34.6176 868.482 27.52 866.255 20.9633M769.262 12.6116C771.707 11.2841 774.534 10.8474 777.263 11.3752C791.465 15.0574 804.943 29.897 811.586 38.2208C815.164 43.062 815.738 45.1804 817.875 44.8754C822.706 44.16 820.635 39.2189 820.635 39.2189C820.481 38.7309 820.321 38.265 820.161 37.7936L820.249 37.6606C835.814 13.5379 847.067 11.3752 847.067 11.3752C855.698 18.3126 848.348 51.1525 833.782 67.1567C831.329 69.8627 828.71 72.4131 825.942 74.7929C822.9 77.141 819.711 79.2899 816.395 81.2258C785.827 59.776 767.76 15.0849 769.262 12.6116Z" fill="white"/>
</svg>
