<svg width="78" height="83" viewBox="0 0 78 83" fill="none" xmlns="http://www.w3.org/2000/svg">
<path fill-rule="evenodd" clip-rule="evenodd" d="M32.8591 35.7301L35.8258 42.9371C36.1346 43.686 35.8178 44.542 35.1041 44.9133L32.8767 46.0718C32.4799 46.2782 32.059 46.3039 31.6398 46.1486C31.2189 45.9934 30.9181 45.6974 30.7453 45.2814L27.4026 37.207L32.8591 35.7301ZM51.5313 57.4073L77.4858 80.1246C77.6042 79.7758 77.6714 79.4046 77.6714 79.0174V35.9093C77.6714 35.5236 77.6058 35.1556 77.4906 34.81L51.5313 57.4073ZM38.9365 63.8671L74.9063 32.5569C74.7063 32.5201 74.5047 32.4977 74.2951 32.4977H65.323C65.4238 35.706 63.3244 38.7143 60.1337 39.5784C57.231 40.3641 54.2083 39.1719 52.5586 36.7701C47.5837 34.8371 41.5911 34.3299 36.0946 34.7059L38.9445 41.6282C39.9254 44.0092 38.9189 46.7679 36.6499 47.9473L34.4225 49.1041C33.1856 49.7458 31.7806 49.8338 30.4749 49.3505C29.1724 48.8673 28.1643 47.888 27.6298 46.5966L24.0647 37.9847C19.6723 38.4919 15.3742 36.2789 13.1548 32.4977H3.37791C3.37151 32.4977 3.36512 32.4977 3.35872 32.4977L38.9365 63.8671ZM40.0326 67.4179L48.9471 59.6587L74.8968 82.3697C74.7015 82.4065 74.4999 82.4273 74.2951 82.4273H3.3763C3.3731 82.4273 3.37149 82.4273 3.36829 82.4273L29.0412 59.6683L37.8212 67.4099C38.1396 67.6915 38.5332 67.8291 38.9301 67.8291C39.3237 67.8291 39.7158 67.6915 40.0326 67.4179ZM26.4745 57.4073L0.36483 80.5519C0.134408 80.0895 0 79.5695 0 79.0174V35.9093C0 35.3604 0.131185 34.8435 0.361607 34.3827L26.4745 57.4073ZM66.8576 24.5481L72.1653 25.9851C73.0134 26.2139 73.8855 25.7003 74.1111 24.8426C74.3367 23.9849 73.8294 23.1048 72.9813 22.876L67.6737 21.4391C66.8256 21.2102 65.9519 21.7239 65.7279 22.5815C65.5006 23.4392 66.0095 24.3193 66.8576 24.5481ZM64.3021 8.73061L68.1873 4.80709C68.8081 4.17983 68.813 3.1621 68.1921 2.53324C67.5729 1.90438 66.5631 1.89963 65.9407 2.52689L62.0555 6.45207C61.4362 7.07773 61.4314 8.09696 62.0507 8.72583C62.67 9.35469 63.6813 9.35947 64.3021 8.73061ZM68.9665 15.9521L73.9974 14.592C74.8519 14.36 75.3592 13.4735 75.1304 12.6111C74.9015 11.7486 74.0231 11.2364 73.1702 11.4685L68.1377 12.8302C67.2848 13.0606 66.7776 13.9471 67.0064 14.8096C67.2352 15.6721 68.1137 16.1841 68.9665 15.9521ZM59.0744 21.4102C59.2649 21.3846 59.4553 21.3479 59.6441 21.2967C61.9371 20.6758 63.2988 18.2948 62.6844 15.9794C62.0699 13.6639 59.7129 12.2894 57.4199 12.9102C57.2295 12.9614 57.0454 13.0255 56.8694 13.0991L54.1156 2.7189C53.5987 0.769917 51.5969 -0.398247 49.6671 0.125003C47.8702 0.611449 46.7197 2.41486 47.0237 4.26944C43.6554 8.89228 37.938 13.4335 30.9085 16.7218L34.7985 31.384C42.5176 30.6896 49.7279 31.7664 54.9348 34.0691C55.5957 35.786 57.4599 36.7702 59.2601 36.2837C61.1818 35.7637 62.3435 33.7314 61.8283 31.7904L59.0744 21.4102ZM31.6078 32.5378L24.7944 34.3811C20.6548 35.5012 16.3599 32.9969 15.251 28.8157C14.1405 24.6345 16.6208 20.2965 20.7604 19.1764L27.5738 17.3331C28.9196 22.4008 30.2637 27.4701 31.6078 32.5378Z" fill="#E50914"/>
</svg>
