<svg viewBox="32 32 32 32" fill="none" xmlns="http://www.w3.org/2000/svg">
<g>
<path d="M45.2381 42.6699C39.9285 42.6699 35.5553 46.3249 35.5553 50.8173C35.5553 52.6128 36.2546 54.4379 37.5286 55.8524L35.7272 57.914C35.6383 58.0136 35.585 58.1362 35.5613 58.2666C35.5435 58.3976 35.5613 58.5315 35.6205 58.6518C35.6738 58.7721 35.7628 58.874 35.8694 58.9457C35.982 59.0174 36.1124 59.0559 36.2427 59.0559H45.9314C49.8543 59.0559 54.9268 55.6764 54.9268 50.8173C54.9268 46.3249 50.5535 42.6699 45.2381 42.6699ZM41.0663 52.0789C40.3019 52.0789 39.6856 51.4614 39.6856 50.7023C39.6856 49.9432 40.3019 49.3252 41.0663 49.3252C41.8248 49.3252 42.4411 49.9432 42.4411 50.7023C42.4411 51.4614 41.8248 52.0789 41.0663 52.0789ZM45.2381 52.0789C44.4796 52.0789 43.8633 51.4614 43.8633 50.7023C43.8633 49.9432 44.4796 49.3252 45.2381 49.3252C45.9966 49.3252 46.6188 49.9432 46.6188 50.7023C46.6188 51.4614 45.9966 52.0789 45.2381 52.0789ZM49.4158 52.0789C48.6573 52.0789 48.041 51.4614 48.041 50.7023C48.041 49.9432 48.6573 49.3252 49.4158 49.3252C50.1743 49.3252 50.7964 49.9432 50.7964 50.7023C50.7964 51.4614 50.1743 52.0789 49.4158 52.0789Z" fill="#E50914"/>
<path d="M58.8908 49.5638L57.2672 47.6729C58.4227 46.3669 59.0568 44.7752 59.0568 43.1278C59.0568 38.9519 55.0391 35.5547 50.1029 35.5547C45.6408 35.5547 41.8542 38.3357 41.1846 41.9551C42.429 41.532 43.8215 41.2914 45.2378 41.2914C51.2702 41.2914 56.2242 45.5029 56.2953 50.701H58.3694C58.956 50.701 59.2701 50.0083 58.8908 49.5638Z" fill="#E50914"/>
</g>
<defs>
<filter id="filter0_d_179_1225" x="-3.05176e-05" y="-3.05176e-05" width="94.6114" height="94.6114" filterUnits="userSpaceOnUse" color-interpolation-filters="sRGB">
<feFlood flood-opacity="0" result="BackgroundImageFix"/>
<feColorMatrix in="SourceAlpha" type="matrix" values="0 0 0 0 0 0 0 0 0 0 0 0 0 0 0 0 0 0 127 0" result="hardAlpha"/>
<feOffset/>
<feGaussianBlur stdDeviation="17.7774"/>
<feColorMatrix type="matrix" values="0 0 0 0 1 0 0 0 0 0.718468 0 0 0 0 0.718468 0 0 0 0.05 0"/>
<feBlend mode="normal" in2="BackgroundImageFix" result="effect1_dropShadow_179_1225"/>
<feBlend mode="normal" in="SourceGraphic" in2="effect1_dropShadow_179_1225" result="shape"/>
</filter>
</defs>
</svg>
