<svg width="103" height="103" viewBox="0 0 103 103" fill="none" xmlns="http://www.w3.org/2000/svg">
<path d="M33.5367 50.9179L39.2904 45.1411C40.5227 43.9046 40.5227 41.9026 39.2904 40.666L31.1225 32.4645C29.8901 31.228 27.8965 31.228 26.6642 32.4645L20.9106 38.2413L33.5367 50.9179Z" fill="#E50914"/>
<path d="M61.1566 62.6149C59.9243 61.3784 57.9307 61.3784 56.6984 62.6149L50.9448 68.3917L63.5708 81.0683L69.3245 75.2915C70.5569 74.055 70.5569 72.053 69.3245 70.8164L61.1566 62.6149Z" fill="#E50914"/>
<path d="M62.5507 28.25C62.4203 28.1533 62.29 28.0396 62.1933 27.8924C59.3248 23.6445 54.5763 21.1062 49.4703 21.041C49.4051 21.041 49.3569 21.0578 49.2917 21.0578C49.2265 21.0578 49.1781 21.041 49.1129 21.041C44.009 21.1062 39.2606 23.6445 36.3901 27.8924C36.2933 28.0396 36.1651 28.1364 36.0347 28.25C39.1954 32.09 43.9439 34.5483 49.2917 34.5483C54.6416 34.5483 59.39 32.09 62.5507 28.25Z" fill="#E50914"/>
<path d="M43.4886 18.7771C43.0029 18.3376 42.5655 17.8329 42.1765 17.263C41.2028 15.8162 40.6855 14.1402 40.6855 12.399C40.6855 7.63158 44.5423 3.75794 49.2907 3.75794C54.0392 3.75794 57.8981 7.63158 57.8981 12.399C57.8981 14.1234 57.3786 15.8162 56.407 17.2483C56.0327 17.8014 55.5806 18.3061 55.0927 18.7603C58.7897 19.9653 62.0303 22.2912 64.3793 25.4982C65.7084 23.0399 66.4717 20.2408 66.4717 17.263C66.4717 7.72829 58.7729 0 49.276 0C39.777 0 32.0781 7.72829 32.0781 17.263C32.0781 20.2576 32.8562 23.0399 34.1705 25.4982C36.5532 22.308 39.8106 19.9821 43.4886 18.7771Z" fill="#E50914"/>
<path d="M49.1774 17.8357H49.291C49.291 17.8357 49.373 17.8357 49.4046 17.8357C51.1563 17.8042 52.7756 16.9251 53.764 15.4762C54.3801 14.5656 54.7039 13.5078 54.7039 12.4164C54.7039 9.42391 52.273 6.98242 49.291 6.98242C46.309 6.98242 43.8779 9.42391 43.8779 12.4164C43.8779 13.5078 44.2018 14.5656 44.818 15.4762C45.8064 16.9251 47.4277 17.8042 49.1774 17.8357Z" fill="#E50914"/>
<path d="M87.1834 55.7825H87.379C88.8048 55.7509 90.1339 55.036 90.9435 53.8478C91.4461 53.0991 91.7048 52.2369 91.7048 51.341C91.7048 48.8848 89.7112 46.8828 87.2654 46.8828C84.8176 46.8828 82.8408 48.8848 82.8408 51.341C82.8408 52.2369 83.0995 53.0991 83.6189 53.8478C84.4285 55.036 85.7576 55.7509 87.1834 55.7825Z" fill="#E50914"/>
<path d="M87.2788 40.666C79.1109 40.666 72.4824 47.3218 72.4824 55.5233C72.4824 58.0132 73.1155 60.3222 74.1837 62.3893C76.1605 59.7375 78.8354 57.784 81.8657 56.7115C81.5419 56.3855 81.2349 56.0279 80.9742 55.6368C80.1162 54.3519 79.6619 52.8547 79.6619 51.3237C79.6619 47.1094 83.0813 43.6606 87.2788 43.6606C91.4783 43.6606 94.9125 47.0947 94.9125 51.3237C94.9125 52.8547 94.4603 54.3519 93.6002 55.62C93.3415 56.0111 93.0325 56.3687 92.6939 56.6947C95.7389 57.7672 98.4138 59.7207 100.376 62.3725C101.444 60.3222 102.077 57.9964 102.077 55.5065C102.077 47.3218 95.4487 40.666 87.2788 40.666Z" fill="#E50914"/>
<path d="M87.4431 58.9902C87.3948 58.9902 87.3464 59.007 87.2981 59.007C87.2497 59.007 87.2013 58.9902 87.1529 58.9902C82.8251 59.0386 78.8211 61.2025 76.3901 64.7817C76.2933 64.9289 76.1629 65.0425 76.0347 65.1413C78.758 68.3462 82.7936 70.3797 87.2981 70.3797C91.8194 70.3797 95.855 68.3462 98.5783 65.1413C98.45 65.0425 98.3196 64.9289 98.2229 64.7817C95.7751 61.1856 91.7563 59.0386 87.4431 58.9902Z" fill="#E50914"/>
<path d="M77.7184 28.1391C77.6532 28.2211 77.5732 28.2695 77.4912 28.3347C79.6804 30.5323 82.6792 31.8822 86.0166 31.8822C89.3561 31.8822 92.3696 30.5153 94.542 28.3177C94.462 28.2525 94.38 28.2043 94.3148 28.1223C92.3065 25.5188 89.2909 24.0215 86.0166 24.0215C82.7423 24.0215 79.7288 25.5356 77.7184 28.1391Z" fill="#E50914"/>
<path d="M81.0894 21.7602C80.9274 21.5815 80.7824 21.3859 80.6373 21.1735C79.8907 20.0674 79.5016 18.814 79.5016 17.4976C79.5016 13.9016 82.4184 10.9721 86.0018 10.9721C89.5831 10.9721 92.5 13.9016 92.5 17.4976C92.5 18.7993 92.111 20.0674 91.3813 21.1735C91.2362 21.3859 91.091 21.5815 90.9291 21.7602C93.0509 22.5909 94.9478 23.941 96.4556 25.7474C97.444 23.9893 98.0601 21.9726 98.0601 19.8066C98.0601 13.1192 92.6619 7.7168 86.0166 7.7168C79.3566 7.7168 73.9751 13.136 73.9751 19.8066C73.9751 21.9726 74.5744 23.9893 75.5796 25.7474C77.0875 23.941 78.9675 22.5909 81.0894 21.7602Z" fill="#E50914"/>
<path d="M86.0178 20.8284C87.1197 20.8284 88.1417 20.2921 88.7579 19.3794C89.1301 18.8264 89.3257 18.1765 89.3257 17.5078C89.3257 15.6698 87.8326 14.1895 86.0178 14.1895C84.203 14.1895 82.7119 15.6866 82.7119 17.5078C82.7119 18.1765 82.9075 18.8264 83.2966 19.3794C83.9106 20.2921 84.9327 20.8284 86.0178 20.8284Z" fill="#E50914"/>
<path d="M51.9173 58.8597C52.1108 58.9417 52.3212 58.9901 52.5336 58.9901C53.1476 58.9901 53.749 58.6157 54.0077 58.0143L57.2336 50.2523C57.4439 49.7645 57.3787 49.1946 57.0864 48.7383C56.7962 48.2988 56.2937 48.0232 55.7574 48.0232H51.6251L53.6671 42.7175C53.9909 41.8868 53.5703 40.9595 52.7606 40.6503C51.9489 40.3265 51.009 40.7491 50.702 41.5629L47.7999 49.0305C47.6064 49.5184 47.6715 50.0736 47.9786 50.511C48.2709 50.9505 48.7735 51.2113 49.2908 51.2113H53.36L51.0572 56.7609C50.7166 57.5747 51.1056 58.5169 51.9173 58.8597Z" fill="#E50914"/>
<path d="M13.9272 24.3751C14.2658 24.7642 14.7853 24.9766 15.3195 24.9114C15.8389 24.8462 16.2932 24.537 16.535 24.0659L18.415 20.4362L22.2402 25.0585C22.564 25.4328 23.0183 25.6431 23.4725 25.6431C23.83 25.6431 24.1855 25.5296 24.4925 25.2689C25.1739 24.699 25.2705 23.6916 24.7048 23.0082L19.3403 16.5311C18.9996 16.1252 18.4633 15.896 17.946 15.9612C17.4118 16.0116 16.9408 16.3355 16.6968 16.8087L14.7853 20.4846L11.0567 16.222C10.4742 15.5554 9.46905 15.4901 8.80452 16.0748C8.13999 16.6615 8.07486 17.6709 8.65948 18.3375L13.9272 24.3751Z" fill="#E50914"/>
<path d="M82.6947 82.1232L78.7075 83.2608L79.2269 77.5998C79.309 76.7207 78.6592 75.9405 77.7844 75.8585C76.9095 75.7765 76.1314 76.4284 76.0494 77.3053L75.3218 85.2965C75.2734 85.8159 75.4837 86.3374 75.8874 86.6781C76.2933 87.0209 76.8443 87.1345 77.3469 86.9873L81.2521 85.8664L80.5392 91.8366C80.4425 92.7157 81.0586 93.5127 81.9334 93.6115C81.9986 93.6115 82.0638 93.6263 82.129 93.6263C82.9218 93.6263 83.62 93.0249 83.7167 92.211L84.7051 83.8476C84.7703 83.3114 84.56 82.7898 84.1542 82.4323C83.7651 82.1063 83.2141 81.976 82.6947 82.1232Z" fill="#E50914"/>
<path d="M39.5969 79.7849C34.9788 84.4219 27.4756 84.9412 22.5631 80.6302C19.7431 78.1571 18.3508 74.7399 18.3508 71.3058C18.334 68.1493 19.5327 64.9927 21.9469 62.568L31.2987 53.1784L18.6748 40.5039L8.8371 50.3815C-2.9457 62.2106 -2.9457 81.3789 8.8371 93.1911L8.85186 93.2079C20.6347 105.039 39.7273 105.039 51.4932 93.2079L61.333 83.3304L48.7068 70.656L39.5969 79.7849Z" fill="#E50914"/>
</svg>
