<svg width="425" height="85" viewBox="0 0 425 85" fill="none" xmlns="http://www.w3.org/2000/svg">
<g clip-path="url(#clip0_1_612)">
<g opacity="0.9">
<path fill-rule="evenodd" clip-rule="evenodd" d="M425 17H409.867C409.867 17 401.27 46.6104 399.706 50.1773C399.706 50.1773 390.095 24.0186 388.653 17H373.135C373.135 17 380.594 42.6427 392.594 65.1859L392.563 65.2861C391.618 67.6412 389.949 69.6354 387.797 70.9811C386.765 71.6368 385.612 72.1468 384.397 72.4746C383.141 72.8086 381.878 72.8845 380.587 72.8996C379.889 72.9148 375.193 72.8905 375.193 72.8905V85C375.193 85 383.35 85 383.35 84.9939C383.52 84.9939 383.693 84.9636 383.863 84.9636H384.294V84.9332C385.478 84.8755 386.644 84.748 387.764 84.5021C392.698 83.4589 397.117 80.7384 400.271 76.8036L400.283 76.8248C413.598 60.9389 425 17 425 17ZM260.549 52.0564C258.758 54.6064 256.196 55.8905 252.887 55.8905C249.563 55.8905 246.998 54.6064 245.176 52.0564C243.355 49.5004 242.45 46.0457 242.45 41.6955C242.45 37.3423 243.355 33.9211 245.179 31.4348C247.001 28.9395 249.563 27.6948 252.89 27.6948C256.199 27.6948 258.755 28.9395 260.549 31.4348C262.331 33.9211 263.227 37.3423 263.227 41.6955C263.227 46.0487 262.331 49.5004 260.549 52.0564ZM271.035 22.7679C268.778 20.4722 266.07 18.6695 263.081 17.4736C259.988 16.2168 256.594 15.5823 252.887 15.5823C249.244 15.5823 245.875 16.2168 242.799 17.4736C239.795 18.6726 237.069 20.4745 234.788 22.7679C232.548 25.0446 230.79 27.792 229.527 31.0068C228.258 34.2246 227.627 37.7825 227.627 41.6955C227.627 45.6116 228.234 49.1937 229.473 52.4329C230.705 55.6811 232.432 58.4679 234.646 60.7629C236.856 63.07 239.503 64.8459 242.599 66.1057C245.68 67.3625 249.111 68 252.89 68C256.724 68 260.179 67.3625 263.272 66.1027C266.271 64.9051 268.982 63.0851 271.226 60.7629C273.436 58.4679 275.124 55.678 276.296 52.4329C277.47 49.1937 278.05 45.6086 278.05 41.6955C278.05 37.7825 277.443 34.2216 276.198 31.0068C274.969 27.792 273.242 25.0446 271.035 22.7679ZM320.869 22.103C319.169 20.0327 316.862 18.4207 313.935 17.2762C311.021 16.1379 307.363 15.5823 302.97 15.5823C298.635 15.5823 294.513 15.8829 290.572 16.5021C286.641 17.1184 283.432 17.7862 280.931 18.4936V68H295.594V28.4386C296.513 28.305 297.555 28.1866 298.745 28.0925C299.919 28.0014 301.037 27.9529 302.084 27.9529C305.496 27.9529 307.815 28.9273 309.075 30.8762C310.32 32.8191 310.945 36.1402 310.945 40.8091V68H325.592V39.0545C325.592 35.5512 325.231 32.3698 324.515 29.5011C323.786 26.6475 322.578 24.1886 320.869 22.103ZM205.56 9.24678C203.925 12.5883 202.336 15.9522 200.794 19.3375C199.146 22.95 197.507 26.6536 195.886 30.43C194.267 34.2095 192.737 37.7704 191.32 41.0975C189.899 37.7704 188.375 34.2064 186.745 30.43C185.153 26.7144 183.52 23.0167 181.845 19.3375C180.298 15.9545 178.709 12.5906 177.079 9.24678C175.799 6.60514 174.456 3.99372 173.054 1.41464H157.037V68H172.316V28.9789L174.132 32.7341C175.546 36.0036 176.967 39.27 178.351 42.5395C179.751 45.8059 181.105 48.9236 182.395 51.9046L185.704 59.5425H196.268C197.173 57.4266 198.278 54.8827 199.577 51.9046C200.873 48.9236 202.218 45.8029 203.611 42.5395C205.002 39.27 206.407 36.0036 207.846 32.7341C208.405 31.4348 208.951 30.1841 209.473 28.9789V68H224.749V1.41768H209.586C209.586 1.41768 207.033 6.24446 205.557 9.24678" fill="white"/>
<path fill-rule="evenodd" clip-rule="evenodd" d="M342.671 33.2259C343.063 32.0951 343.671 31.0515 344.463 30.1537C345.228 29.2734 346.187 28.56 347.331 28.0196C348.497 27.4853 349.878 27.2152 351.484 27.2152C353.148 27.2152 354.538 27.5096 355.664 28.0773C356.719 28.5933 357.656 29.3207 358.417 30.2143C359.179 31.1078 359.748 32.1484 360.09 33.2714C360.446 34.4098 360.661 35.5786 360.719 36.7746H341.764C341.95 35.5648 342.255 34.3761 342.674 33.2259M355.713 55.8875C351.603 55.8875 348.336 55.0375 345.892 53.3314C343.458 51.6284 342.086 49.3303 341.764 46.4343H374.285C374.346 45.6662 374.41 44.8041 374.48 43.8236C374.528 42.8521 374.577 41.9445 374.577 41.1278C374.577 32.7402 372.488 26.3803 368.323 22.0696C364.149 17.7468 358.469 15.5823 351.284 15.5823C348.203 15.5844 345.149 16.1651 342.283 17.2944C339.369 18.4237 336.788 20.0995 334.548 22.3034C332.295 24.5073 330.483 27.2637 329.099 30.5757C327.724 33.8907 327.034 37.7582 327.034 42.1661C327.034 45.8302 327.566 49.2332 328.628 52.3873C329.623 55.4491 331.299 58.2453 333.531 60.5655C335.744 62.8787 338.534 64.688 341.9 66.0116C345.27 67.3382 349.226 68 353.788 68C355.588 68 357.379 67.9059 359.174 67.7146C360.971 67.5325 362.653 67.2866 364.231 67.0012C365.801 66.7189 367.227 66.3941 368.511 66.0116C368.924 65.8902 369.267 65.7627 369.635 65.6443V53.4407C368.041 54.1328 365.98 54.7066 363.454 55.1771C360.931 55.6568 358.348 55.8875 355.713 55.8875ZM61.5461 22.103C59.837 20.0327 57.5329 18.4207 54.6155 17.2762C51.7012 16.1378 48.0463 15.5823 43.6475 15.5823C39.3186 15.5823 35.1839 15.8828 31.2496 16.5021C27.3184 17.1184 24.1066 17.7862 21.6112 18.4936V68H36.2677V28.4386C37.1845 28.305 38.2318 28.1866 39.4188 28.0925C40.5966 28.0014 41.7046 27.9528 42.758 27.9528C46.1702 27.9528 48.4955 28.9273 49.7463 30.8762C50.9879 32.8191 51.6071 36.1402 51.6071 40.8091V68H66.2696V39.0545C66.2696 35.5512 65.9084 32.3698 65.1889 29.5011C64.4604 26.6475 63.2461 24.1886 61.5461 22.103ZM135.208 52.0564C133.423 54.6064 130.867 55.8905 127.546 55.8905C124.237 55.8905 121.665 54.6064 119.835 52.0564C118.022 49.5003 117.112 46.0457 117.112 41.6955C117.112 37.3423 118.022 33.9211 119.835 31.4348C121.665 28.9394 124.237 27.6948 127.546 27.6948C130.867 27.6948 133.423 28.9394 135.208 31.4348C136.999 33.9211 137.885 37.3423 137.885 41.6955C137.885 46.0487 136.999 49.5003 135.208 52.0564ZM145.681 22.7678C143.432 20.4694 140.729 18.6661 137.743 17.4736C134.655 16.2168 131.255 15.5823 127.543 15.5823C123.906 15.5823 120.542 16.2168 117.458 17.4736C114.456 18.6728 111.731 20.4746 109.453 22.7678C107.212 25.0446 105.455 27.792 104.189 31.0068C102.92 34.2246 102.288 37.7825 102.288 41.6955C102.288 45.6116 102.896 49.1937 104.14 52.4328C105.37 55.6811 107.1 58.4678 109.31 60.7628C111.514 63.07 114.167 64.8459 117.264 66.1057C120.348 67.3625 123.775 68 127.546 68C131.383 68 134.849 67.3625 137.94 66.1027C140.937 64.9059 143.646 63.0858 145.887 60.7628C148.094 58.4678 149.791 55.678 150.963 52.4328C152.135 49.1937 152.712 45.6086 152.712 41.6955C152.712 37.7825 152.092 34.2216 150.854 31.0068C149.63 27.792 147.903 25.0446 145.678 22.7678M0 68H14.4075V1.41766H0V68Z" fill="white"/>
<path fill-rule="evenodd" clip-rule="evenodd" d="M87.043 17.2246C87.0716 16.2723 87.3573 15.3453 87.8698 14.5421C88.3823 13.7389 89.1026 13.0892 89.9542 12.662C90.0435 12.6129 90.1346 12.5673 90.2275 12.5254C90.2426 12.5193 90.2548 12.5193 90.273 12.5071C90.4764 12.4252 90.6737 12.3554 90.865 12.2946C92.1157 11.9 93.336 11.9546 94.6292 11.9546H105.169V0H89.8025C80.0517 0 72.1346 7.57714 72.0587 16.9605L72.0769 16.9575C72.0344 17.9896 72.0344 68 72.0344 68H87.0309V34.7893H103.135V22.9409H87.043V17.2246Z" fill="white"/>
</g>
</g>
<defs>
<clipPath id="clip0_1_612">
<rect width="425" height="85" fill="white"/>
</clipPath>
</defs>
</svg>
