<svg width="96" height="96" viewBox="0 0 96 96" fill="none" xmlns="http://www.w3.org/2000/svg">
<path d="M28.8025 11.4152C29.4057 11.8219 30.1009 12.0728 30.826 12.1459C31.5511 12.2193 32.2826 12.1123 32.9563 11.8349C38.6352 9.50648 44.7867 8.56065 50.904 9.07549C57.0191 9.59011 62.9268 11.5509 68.1372 14.7958C69.3308 15.5273 70.4772 16.3298 71.5745 17.1993L67.4806 21.2941C67.271 21.5024 67.1298 21.7678 67.0721 22.0568C67.0143 22.3458 67.0442 22.6454 67.1576 22.9175C67.2688 23.1898 67.4593 23.4225 67.7053 23.5861C67.9512 23.75 68.2378 23.8372 68.5329 23.8372H83.4306C83.6273 23.8372 83.8198 23.7987 84.0016 23.7239C84.1812 23.649 84.346 23.5393 84.485 23.4011C84.624 23.2627 84.7331 23.0984 84.808 22.9177C84.8828 22.7367 84.9213 22.5432 84.9213 22.3475V7.44905C84.9213 7.15452 84.8336 6.86641 84.6689 6.62151C84.5064 6.3766 84.2732 6.1856 84.0016 6.07287C83.7299 5.96015 83.4306 5.93064 83.1397 5.98817C82.8509 6.0455 82.5857 6.18752 82.3782 6.39585L77.9399 10.8347C76.7207 9.83587 75.4225 8.87486 74.0664 7.9671C67.5662 3.64884 60.1057 0.991452 52.3371 0.2285C44.5707 -0.534452 36.7358 0.61992 29.5191 3.59066C28.7106 3.93011 28.024 4.50163 27.5427 5.23271C27.0615 5.96379 26.8091 6.8215 26.8177 7.69653C26.8177 8.43167 26.9974 9.1557 27.3439 9.80443C27.6904 10.4532 28.1908 11.0065 28.8025 11.4152Z" fill="#E50914"/>
<path d="M11.4144 66.5459C11.8208 65.9415 12.071 65.2459 12.1459 64.5212C12.2186 63.7964 12.1117 63.0644 11.8336 62.3909C9.50648 56.7114 8.56112 50.5603 9.07446 44.4439C9.58994 38.3274 11.5514 32.4208 14.794 27.2104C15.5276 26.0179 16.3297 24.8704 17.2002 23.7738L21.2941 27.8679C21.5016 28.0762 21.7668 28.2183 22.0577 28.2758C22.3465 28.3331 22.6459 28.3038 22.9175 28.1909C23.1891 28.0781 23.4223 27.8874 23.587 27.6422C23.7495 27.3973 23.8372 27.1092 23.8372 26.8147V11.9163C23.8372 11.7208 23.7988 11.527 23.7239 11.3463C23.649 11.1653 23.54 11.001 23.4009 10.8629C23.2619 10.7245 23.0993 10.6147 22.9175 10.5399C22.7378 10.465 22.5433 10.4265 22.3465 10.4265H7.44887C7.15369 10.4265 6.86703 10.514 6.62105 10.6776C6.37722 10.8413 6.18475 11.074 6.07353 11.3463C5.96017 11.6183 5.93027 11.918 5.98802 12.207C6.04577 12.4959 6.18689 12.7614 6.39651 12.9697L10.8348 17.4094C9.83377 18.6314 8.87125 19.9284 7.96649 21.2809C3.64802 27.7815 0.991525 35.2427 0.227932 43.0095C-0.533523 50.7765 0.619269 58.612 3.59022 65.8288C3.93031 66.6356 4.50141 67.323 5.23292 67.804C5.96443 68.2851 6.82222 68.5377 7.69704 68.5298C8.43069 68.5306 9.15575 68.3499 9.80384 68.0038C10.4519 67.658 11.0059 67.157 11.4144 66.5459Z" fill="#E50914"/>
<path d="M66.5479 83.9317C65.9447 83.5251 65.2496 83.2741 64.5245 83.2008C63.7994 83.1276 63.0679 83.2346 62.3941 83.512C56.7153 85.8404 50.5638 86.7862 44.4465 86.2714C38.3313 85.7566 32.4236 83.796 27.2132 80.5511C26.0218 79.8196 24.8732 79.0171 23.776 78.1476L27.8699 74.0529C28.0795 73.8445 28.2206 73.5791 28.2784 73.2901C28.3361 73.0009 28.3062 72.7015 28.1949 72.4292C28.0816 72.1571 27.8913 71.9244 27.6453 71.7608C27.3993 71.597 27.1127 71.5097 26.8175 71.5097H11.92C11.7232 71.5097 11.5307 71.5482 11.3489 71.6228C11.1692 71.6977 11.0045 71.8074 10.8654 71.9458C10.7264 72.0842 10.6173 72.2485 10.5425 72.4292C10.4676 72.6099 10.4292 72.8037 10.4292 72.9994V87.8976C10.4292 88.1924 10.5168 88.4805 10.6815 88.7254C10.8441 88.9703 11.0772 89.1613 11.3489 89.274C11.6205 89.3868 11.92 89.4163 12.2109 89.3587C12.4996 89.3012 12.7648 89.1594 12.9722 88.951L17.4105 84.5122C18.6297 85.5108 19.9281 86.4718 21.2842 87.3798C27.7843 91.6981 35.2449 94.3552 43.0134 95.1184C50.7798 95.8814 58.6146 94.7268 65.8313 91.756C66.6398 91.4168 67.3265 90.8453 67.8077 90.1142C68.289 89.3831 68.5413 88.5254 68.5328 87.6504C68.5328 86.9152 68.3532 86.1912 68.0067 85.5425C67.6602 84.8937 67.1597 84.3404 66.5479 83.9317Z" fill="#E50914"/>
<path d="M84.5149 77.9353C85.5159 76.7146 86.4761 75.4176 87.383 74.0639C91.7015 67.5631 94.3581 60.1021 95.1217 52.3353C95.8832 44.5682 94.7303 36.7327 91.7593 29.516C91.4192 28.7092 90.8481 28.0218 90.1166 27.5407C89.3851 27.0597 88.5274 26.8071 87.6526 26.815C86.9211 26.8135 86.2003 26.9921 85.5543 27.335C84.9084 27.6778 84.3566 28.1747 83.948 28.7813C83.5395 29.3879 83.2849 30.0858 83.21 30.8135C83.1352 31.5414 83.24 32.2763 83.5159 32.9539C85.8431 38.6334 86.7885 44.7845 86.2752 50.9009C85.7597 57.0174 83.7983 62.924 80.5557 68.1344C79.8221 69.3268 79.02 70.4744 78.1494 71.5708L74.0555 67.4769C73.8481 67.2683 73.5828 67.1265 73.292 67.069C73.0032 67.0115 72.7037 67.041 72.432 67.1537C72.1604 67.2666 71.9273 67.4574 71.7626 67.7025C71.6 67.9474 71.5123 68.2356 71.5123 68.5301V83.4283C71.5123 83.624 71.5509 83.8178 71.6258 83.9985C71.7006 84.1792 71.8097 84.3435 71.9487 84.4819C72.0878 84.6203 72.2502 84.73 72.432 84.8049C72.6138 84.8797 72.8064 84.9182 73.0032 84.9182H87.9007C88.1958 84.9182 88.4825 84.8308 88.7285 84.6671C88.9723 84.5035 89.1648 84.2708 89.276 83.9985C89.3894 83.7262 89.4194 83.4268 89.3616 83.1378C89.3039 82.8488 89.1626 82.5834 88.953 82.3751L84.5149 77.9353Z" fill="#E50914"/>
<path d="M69.9278 38.5941C66.7988 26.9091 60.3306 18.8047 55.2243 20.207C54.3195 20.4631 53.5087 20.9717 52.8822 21.672C41.1769 29.2439 33.2162 34.3373 29.2247 36.8214C26.6615 38.502 24.7026 40.9584 23.6356 43.8313C22.5686 46.7041 22.4489 49.8442 23.2947 52.7889C24.1387 55.7355 25.9059 58.3338 28.3328 60.2042C30.7616 62.0746 33.7247 63.1195 36.7893 63.184C36.8574 63.184 36.9331 63.1766 37.0013 63.1766C37.0013 63.1766 43.0326 71.7473 45.0375 74.6091C45.3416 75.0385 45.7691 75.3647 46.263 75.5453C46.7569 75.724 47.295 75.7498 47.8036 75.6153C48.8705 75.3278 51.0007 74.7381 52.0677 74.4728C52.462 74.3585 52.8251 74.1539 53.1255 73.8738C53.4258 73.5937 53.6543 73.2455 53.7943 72.8603C53.9362 72.4734 53.9823 72.0606 53.9326 71.6533C53.881 71.2461 53.7354 70.8554 53.5051 70.5145C52.9025 69.6797 51.137 67.1404 51.137 67.1404C52.1598 66.8455 53.0278 66.1656 53.5585 65.2442C54.0892 64.3228 54.2421 63.23 53.9841 62.1981C58.3459 62.0543 62.2821 61.9714 64.2668 61.9383C64.9707 62.0728 65.6968 62.047 66.3897 61.8627C71.5034 60.4936 73.0568 50.2736 69.9278 38.5941ZM38.1585 61.0556C35.4331 61.297 32.7076 60.6207 30.4096 59.1373C28.1117 57.6539 26.374 55.4462 25.4748 52.8627C24.5736 50.281 24.5607 47.4707 25.4379 44.8798C26.3132 42.2907 28.0288 40.0665 30.3138 38.5609C30.7303 38.3011 31.2094 38.0063 31.7161 37.6838C31.6369 41.327 32.0811 44.9627 33.0375 48.4787C34.1966 52.9843 36.2144 57.2245 38.9803 60.9653C38.6929 60.993 38.4183 61.0206 38.1585 61.0556ZM50.5345 65.1833L49.884 65.3529L47.8311 62.4376C49.1653 62.3768 50.5345 62.3216 51.8834 62.2663L51.9866 62.6643C52.1266 63.1895 52.053 63.7515 51.7821 64.2233C51.5094 64.695 51.0616 65.0415 50.5345 65.1833ZM64.5617 59.8983C62.1587 59.4045 58.8656 55.9069 56.2102 50.0874C57.8263 49.3135 59.1218 47.9977 59.8699 46.3687C60.6199 44.7397 60.7747 42.9007 60.3122 41.1685C59.8478 39.4381 58.7938 37.9215 57.3306 36.8859C55.8675 35.8484 54.0892 35.3563 52.3017 35.4927C51.7323 29.5166 52.6574 25.0055 54.3067 23.1517C54.6863 22.6929 55.1948 22.3575 55.7642 22.1861C59.1328 21.2758 64.9725 28.0259 67.9431 39.1212C70.921 50.2312 69.2294 58.9677 65.8479 59.8836C65.4259 59.9886 64.9855 59.9942 64.5617 59.8983Z" fill="#E50914"/>
</svg>
