<svg viewBox="32 32 32 32" fill="none" xmlns="http://www.w3.org/2000/svg">
<g>
<path d="M50.2625 44.624C50.3633 44.7224 50.4877 44.7887 50.624 44.8148C50.7603 44.8415 50.9025 44.8261 51.0269 44.7709L57.9245 41.8158C58.0312 41.7707 58.1201 41.7014 58.1912 41.6125C58.2623 41.5236 58.3098 41.4193 58.3335 41.3073C58.3572 41.1959 58.3512 41.0804 58.3157 40.9713C58.2801 40.8629 58.2208 40.764 58.1438 40.6834L56.6624 39.2055L59.1275 36.7427C59.3645 36.5063 59.4001 36.1359 59.2105 35.8598C59.0268 35.5896 58.6653 35.4781 58.3631 35.6103L51.4654 38.5655C51.3588 38.6099 51.2699 38.6799 51.1988 38.7687C51.1277 38.857 51.0744 38.9619 51.0566 39.0739C51.0329 39.1853 51.0388 39.3009 51.0744 39.4099C51.104 39.5183 51.1632 39.6173 51.2462 39.6979L52.7217 41.1758L50.2625 43.6386C49.99 43.9076 49.984 44.3479 50.2625 44.624ZM45.1011 36.9809L42.636 39.4437L46.5767 43.3843L49.0418 40.9216C49.3144 40.649 49.3144 40.2087 49.0418 39.9361L46.0848 36.9809C45.8123 36.7089 45.3737 36.7089 45.1011 36.9809ZM57.9068 49.7871C58.1793 49.5151 58.1793 49.0743 57.9068 48.8023L54.9498 45.8465C54.6772 45.5745 54.2387 45.5745 53.9662 45.8465L51.501 48.3092L55.4417 52.2499L57.9068 49.7871ZM51.0091 56.683L54.458 53.2348L50.5173 49.2947L47.0685 52.7423C45.7115 54.1005 43.5012 54.1005 42.1442 52.7423C40.7872 51.3847 40.7872 49.175 42.1442 47.8168L45.593 44.3692L41.6524 40.4285L38.2035 43.8768C34.6717 47.4073 34.6717 53.1524 38.2035 56.683C41.7353 60.2136 47.4774 60.2136 51.0091 56.683Z" fill="#E50914"/>
</g>
<defs>
<filter id="filter0_d_179_1208" x="-3.05176e-05" y="-3.05176e-05" width="94.8868" height="94.8848" filterUnits="userSpaceOnUse" color-interpolation-filters="sRGB">
<feFlood flood-opacity="0" result="BackgroundImageFix"/>
<feColorMatrix in="SourceAlpha" type="matrix" values="0 0 0 0 0 0 0 0 0 0 0 0 0 0 0 0 0 0 127 0" result="hardAlpha"/>
<feOffset/>
<feGaussianBlur stdDeviation="17.7774"/>
<feColorMatrix type="matrix" values="0 0 0 0 1 0 0 0 0 0.718468 0 0 0 0 0.718468 0 0 0 0.05 0"/>
<feBlend mode="normal" in2="BackgroundImageFix" result="effect1_dropShadow_179_1208"/>
<feBlend mode="normal" in="SourceGraphic" in2="effect1_dropShadow_179_1208" result="shape"/>
</filter>
</defs>
</svg>
