<svg width="810" height="820" viewBox="0 0 810 820" fill="none" xmlns="http://www.w3.org/2000/svg">
<path d="M807.91 90.0095C807.91 213.084 807.91 336.158 807.91 459.232H806.074C769.351 459.232 734.464 459.232 697.741 459.232C694.068 459.232 692.232 459.232 692.232 453.721V451.884C692.232 334.321 692.232 216.757 692.232 101.031C692.232 99.1941 692.232 97.3572 692.232 95.5202C692.232 86.3356 686.724 80.8248 677.543 80.8248C640.82 80.8248 604.097 80.8248 565.537 80.8248C560.029 80.8248 558.193 82.6617 554.52 86.3356C534.323 106.542 514.125 126.748 493.927 146.954C391.102 249.822 288.277 352.69 185.452 455.558C179.944 461.069 178.107 466.58 178.107 473.927C178.107 497.807 178.107 521.687 178.107 547.404C178.107 562.1 178.107 574.958 178.107 589.654C178.107 595.164 179.944 597.001 185.452 597.001C187.288 597.001 187.288 597.001 189.124 597.001C312.147 597.001 435.17 597.001 558.193 597.001C560.029 597.001 561.865 597.001 563.701 597.001C563.701 598.838 563.701 600.675 563.701 600.675C563.701 639.251 563.701 677.826 563.701 716.402C563.701 721.913 563.701 721.912 569.21 721.912C607.769 721.912 648.164 720.076 686.724 720.076C692.232 720.076 692.232 720.076 692.232 714.565C692.232 677.826 692.232 641.088 690.396 604.349C690.396 598.838 690.396 597.001 697.741 597.001C728.955 597.001 760.17 597.001 789.549 597.001C796.893 597.001 802.402 597.001 809.746 597.001C809.746 641.088 809.746 685.174 809.746 729.26C809.746 732.934 807.91 738.445 807.91 742.119C800.566 786.205 760.17 819.27 716.102 819.27C508.616 819.27 302.966 819.27 95.4803 819.27C86.2995 819.27 75.2825 817.433 66.1017 813.759C27.5424 800.9 1.83616 764.162 1.83616 721.912C1.83616 666.805 1.83616 613.534 1.83616 558.426C0 404.124 0 251.659 0 97.3572C0 93.6833 0 88.1725 0 84.4987C5.50848 44.0863 34.887 12.8585 73.4464 3.67386C78.9549 1.83693 84.4633 1.83693 89.9718 0C89.9718 1.83693 89.9718 3.67386 89.9718 5.51078C89.9718 45.9232 89.9718 86.3356 89.9718 128.585C89.9718 203.899 89.9718 281.05 89.9718 356.364C89.9718 360.038 91.808 363.712 95.4803 367.386C115.678 385.755 134.04 405.961 154.237 426.167C159.746 431.678 159.746 431.678 165.254 426.167C235.028 356.364 304.803 286.561 376.413 216.757C420.481 172.671 462.712 128.585 506.78 84.4987C508.616 82.6617 508.616 80.8248 510.452 78.9879C506.78 78.9879 504.944 78.9879 503.108 78.9879C468.221 78.9879 433.334 78.9879 398.447 78.9879C394.774 78.9879 391.102 80.8248 389.266 82.6617C376.413 90.0095 367.232 101.031 358.051 110.216C299.294 168.997 240.537 227.779 181.78 286.561C179.944 288.398 179.944 288.398 178.107 290.235C178.107 284.724 176.271 281.05 176.271 277.376C176.271 227.779 176.271 178.182 176.271 128.585C176.271 95.5202 176.271 64.2925 174.435 31.2278C174.435 22.0431 174.435 12.8585 174.435 3.67386C176.271 1.83693 176.271 0 179.944 0H181.78C358.051 0 532.486 0 708.758 0C714.266 0 719.775 0 725.283 1.83693C763.842 7.34771 795.057 34.9016 804.238 71.6402C806.074 77.151 806.074 84.4987 807.91 90.0095Z" fill="white"/>
<path d="M563.701 459.231C497.6 459.231 431.498 459.231 365.396 459.231C367.232 453.72 554.521 266.354 565.538 260.843C563.701 326.972 563.701 393.102 563.701 459.231Z" fill="white"/>
</svg>
