<svg width="78" height="78" viewBox="0 0 78 78" fill="none" xmlns="http://www.w3.org/2000/svg">
<mask id="mask0_39_87" style="mask-type:alpha" maskUnits="userSpaceOnUse" x="0" y="0" width="78" height="78">
<rect width="78" height="78" fill="#D9D9D9"/>
</mask>
<g mask="url(#mask0_39_87)">
<path d="M26 48.75H52V47.229C52 45.1555 50.7677 43.4417 48.3031 42.0875C45.8385 40.7333 42.7375 40.0562 39 40.0562C35.2625 40.0562 32.1615 40.7333 29.6969 42.0875C27.2323 43.4417 26 45.1555 26 47.229V48.75ZM43.1844 32.8721C44.349 31.7119 44.9312 30.3171 44.9312 28.6878C44.9312 27.0584 44.3511 25.6615 43.1909 24.4969C42.0306 23.3323 40.6358 22.75 39.0065 22.75C37.3772 22.75 35.9802 23.3301 34.8156 24.4904C33.651 25.6506 33.0688 27.0454 33.0688 28.6747C33.0688 30.3041 33.6489 31.701 34.8091 32.8656C35.9694 34.0302 37.3642 34.6125 38.9935 34.6125C40.6228 34.6125 42.0198 34.0324 43.1844 32.8721ZM26.8125 68.25V61.75H11.375C10.075 61.75 8.9375 61.2625 7.9625 60.2875C6.9875 59.3125 6.5 58.175 6.5 56.875V14.625C6.5 13.325 6.9875 12.1875 7.9625 11.2125C8.9375 10.2375 10.075 9.75 11.375 9.75H66.625C67.925 9.75 69.0625 10.2375 70.0375 11.2125C71.0125 12.1875 71.5 13.325 71.5 14.625V56.875C71.5 58.175 71.0125 59.3125 70.0375 60.2875C69.0625 61.2625 67.925 61.75 66.625 61.75H51.1875V68.25H26.8125ZM11.375 56.875H66.625V14.625H11.375V56.875Z" fill="white"/>
</g>
</svg>
