<svg width="436" height="109" viewBox="0 0 436 109" fill="none" xmlns="http://www.w3.org/2000/svg">
<path d="M417.462 40.9486C417.249 41.6495 416.882 42.1428 416.687 42.3937C416.542 42.5841 416.15 43.0773 415.486 43.536C414.788 44.0206 414.115 44.4879 413.502 44.3061C413.05 44.1677 412.701 43.6485 412.31 42.7052C411.458 40.6543 409.908 39.564 407.72 39.564C404.671 39.564 402.142 40.6197 400.737 43.5879C400.064 45.0071 399.86 46.5387 399.877 48.1223C399.936 54.7163 399.953 61.3103 400.013 67.9043C400.047 71.5994 401.452 73.382 405.071 74.3426C405.565 74.4724 406.17 74.4205 406.136 75.1387C406.093 75.9348 405.454 75.7358 404.978 75.7185C399.068 75.5108 393.158 75.5195 387.257 75.7185C386.788 75.7358 386.115 75.9348 386.081 75.1473C386.047 74.4464 386.669 74.4724 387.163 74.3339C390.756 73.3301 392.128 71.5475 392.102 67.8265C392.068 59.8998 392.008 51.9732 391.94 44.0465C391.915 41.1649 391.242 40.3255 388.406 39.6159C387.87 39.4861 387.103 39.6505 387.146 38.7679C387.188 37.8246 387.997 38.1621 388.491 38.1102C391.872 37.8073 395.099 37.0199 397.969 35.0642C399.136 34.2767 399.843 34.4498 399.8 36.0939C399.749 37.9717 399.792 39.8582 399.97 41.8139C402.287 37.9198 405.557 35.5747 409.849 34.7786C411.398 34.493 412.863 34.3026 414.43 35.0642C416.235 35.9468 417.061 37.5996 417.351 38.2573C417.521 38.7333 417.819 39.7803 417.462 40.9486Z" fill="white"/>
<path d="M17.687 52.0684C18.3938 54.2923 18.3683 56.5163 17.687 58.7402C17.687 56.5076 17.687 54.2923 17.687 52.0684Z" fill="white"/>
<path d="M184.815 42.7571C190.912 40.1438 196.736 37.6602 202.553 35.1507C204.69 34.2334 206.666 34.294 208.437 35.9555C209.782 37.2275 209.612 38.9236 209.518 40.5332C209.425 42.1341 209.672 42.61 211.358 41.8485C216.408 39.564 221.585 37.5564 226.618 35.2286C230.092 33.619 234.188 35.0209 234.06 40.1611C233.83 49.2646 234.112 58.3854 234.205 67.4976C234.248 71.5042 235.585 73.2436 239.391 74.3253C239.877 74.4637 240.507 74.4291 240.473 75.1387C240.439 75.9348 239.766 75.7185 239.306 75.7012C233.396 75.5108 227.486 75.5108 221.577 75.6925C221.117 75.7098 220.469 75.9781 220.342 75.2079C220.223 74.4983 220.776 74.4724 221.296 74.3166C225.085 73.1916 226.43 71.3571 226.396 67.4284C226.32 58.7575 226.235 50.0953 226.141 41.4245C226.107 38.0756 225.042 37.3833 221.943 38.6467C218.298 40.1438 214.679 41.6928 211 43.1119C209.842 43.5619 209.518 44.1677 209.544 45.3965C209.689 53.0289 209.731 60.6527 209.833 68.2851C209.876 71.4782 211.52 73.4772 214.628 74.282C215.19 74.4291 216.161 74.1695 215.999 75.2339C215.863 76.1252 215.054 75.6925 214.551 75.6752C208.786 75.5108 203.029 75.5108 197.264 75.6839C196.762 75.7012 195.962 76.0819 195.893 75.1387C195.825 74.2474 196.634 74.4378 197.154 74.2906C200.262 73.4253 201.939 71.2792 201.914 67.9822C201.854 59.0171 201.752 50.0521 201.641 41.087C201.607 38.1448 200.483 37.4092 197.784 38.5169C193.935 40.1005 190.111 41.736 186.254 43.2764C185.223 43.6917 184.849 44.2282 184.866 45.3792C184.968 52.9337 184.968 60.4882 185.044 68.0514C185.079 71.4177 186.688 73.4339 189.873 74.282C190.392 74.4204 191.201 74.2301 191.15 75.1041C191.099 76.056 190.29 75.6925 189.788 75.6752C184.023 75.5021 178.266 75.5021 172.501 75.6839C172.033 75.7012 171.36 75.9435 171.283 75.1733C171.215 74.4551 171.888 74.5156 172.365 74.3772C175.882 73.3301 177.219 71.5215 177.193 67.7572C177.151 59.9085 177.082 52.051 177.031 44.2023C177.006 40.9139 176.503 40.2476 173.429 39.3563C172.944 39.2178 172.126 39.4515 172.169 38.5083C172.211 37.5217 173.003 37.8852 173.497 37.8506C176.818 37.5823 179.944 36.6477 182.805 34.917C184.27 34.0257 184.908 34.2421 184.84 36.1026C184.755 38.24 184.815 40.3688 184.815 42.7571Z" fill="white"/>
<path d="M75.9764 41.8139C79.0931 37.0545 83.2062 34.5449 88.7158 34.6401C91.3045 34.6834 93.0417 36.2756 93.5441 38.6554C93.9869 40.7928 93.0587 42.8783 91.1598 43.8908C89.9591 44.5311 89.0479 44.9032 88.554 42.8956C88.009 40.6803 86.2037 39.6159 83.93 39.5467C81.0602 39.4602 78.2245 41.3553 76.862 43.8042C76.0105 45.3273 76.0871 46.4263 76.0275 50.4155C75.9253 56.8711 75.772 51.3069 75.9934 66.1044C76.036 68.9168 76.0956 70.9071 77.4326 72.1532C77.8328 72.5253 80.0383 74.0137 81.3157 74.3512C81.7926 74.481 82.4483 74.3945 82.4312 75.1127C82.4312 75.2166 82.4227 75.407 82.2865 75.5541C82.1587 75.6839 81.9969 75.6925 81.9459 75.7012L81.1028 75.7098L63.6032 75.7185C63.3477 75.7185 63.0923 75.7185 62.8453 75.7185C62.7942 75.7098 62.6324 75.6925 62.5132 75.5627C62.4195 75.4589 62.394 75.3464 62.3769 75.2512C62.2407 74.3253 62.9986 74.481 63.5351 74.3426C65.0509 73.9359 67.0435 72.3003 67.2223 72.11C68.9425 70.2408 68.9255 67.6793 68.8914 66.9265C69.0276 55.5557 68.8999 47.1358 68.67 44.3494C68.6019 43.4494 68.4401 42.1341 67.4948 41.1736C67.0776 40.7409 66.0301 39.9448 64.7273 39.6505C64.1567 39.5207 63.2115 39.763 63.3137 38.716C63.3988 37.8419 64.2248 38.1881 64.7358 38.1362C68.1165 37.816 71.3354 37.0545 74.2051 35.0815C75.3803 34.268 76.0445 34.5363 75.9934 36.1372C75.9253 38.015 75.9764 39.9188 75.9764 41.8139Z" fill="white"/>
<path d="M287.59 42.6187C289.931 38.1794 293.099 35.7911 297.28 34.8565C301.147 33.9911 304.033 35.2026 304.987 38.0237C305.728 40.2217 305.038 42.411 303.131 43.6485C301.802 44.5138 300.704 45.1196 300.082 42.7225C299.529 40.5938 297.74 39.564 295.56 39.564C292.605 39.564 290.119 40.5678 288.68 43.3889C287.998 44.7215 287.734 46.1753 287.743 47.681C287.794 54.5692 287.82 61.4575 287.896 68.3457C287.93 71.5648 289.557 73.5291 292.699 74.3166C293.21 74.4464 294.019 74.2128 293.993 75.1127C293.968 76.0992 293.159 75.7185 292.665 75.7012C286.9 75.5281 281.143 75.5281 275.378 75.7012C274.876 75.7185 274.084 76.1079 273.939 75.2252C273.794 74.3339 274.612 74.4724 275.14 74.3339C278.486 73.434 279.977 71.4869 279.96 67.9303C279.917 59.9344 279.849 51.9299 279.764 43.934C279.738 41.1909 279.006 40.3082 276.332 39.6419C275.736 39.4948 274.816 39.6938 274.944 38.6813C275.055 37.8592 275.881 38.1708 276.392 38.1275C279.781 37.8246 282.983 37.0112 285.853 35.0468C286.891 34.3373 287.624 34.4498 287.59 35.9987C287.564 37.9631 287.59 39.9448 287.59 42.6187Z" fill="white"/>
<path d="M330.909 33.4027C332.16 37.8593 333.412 42.3158 334.69 46.8849C333.566 46.7291 333.506 45.8292 333.131 45.2667C330.789 41.6582 328.218 38.2833 324.548 35.9382C321.303 33.8613 317.939 33.7488 314.576 35.4622C310.079 37.7554 309.654 43.311 313.682 46.357C315.64 47.8368 317.948 48.581 320.213 49.3685C323.176 50.4069 326.123 51.4626 328.933 52.8905C335.047 55.9971 337.559 60.4969 336.503 66.3727C335.499 71.9542 330.347 76.3935 324.258 77.0079C320.324 77.4059 316.585 76.3762 312.821 75.5281C311.314 75.1906 310.054 75.0954 309.824 77.3454C308.598 74.8531 308.385 72.3003 307.772 69.8687C307.142 67.3851 306.656 64.8583 306.086 62.2103C306.963 62.3747 306.997 63.0064 307.252 63.4651C309.347 67.3159 311.808 70.8725 315.334 73.5378C319.574 76.7396 324.088 77.0252 328.669 74.4897C333.531 71.7984 333.719 65.8967 329.12 62.7728C325.706 60.4537 321.822 59.1124 318.101 57.4249C315.572 56.274 313.043 55.1404 310.871 53.3491C305.592 49.005 305.311 42.0389 310.216 37.2795C314.235 33.3854 318.987 32.6152 324.215 33.9392C325.561 34.2767 326.915 34.5623 328.243 34.9603C329.606 35.367 330.653 35.393 330.909 33.4027Z" fill="white"/>
<path d="M344.84 72.5167C344.815 74.3945 343.333 75.8223 341.468 75.7617C339.637 75.7012 338.181 74.1695 338.215 72.3349C338.249 70.5523 339.859 68.986 341.613 69.0293C343.376 69.0899 344.866 70.6994 344.84 72.5167Z" fill="white"/>
<path d="M381.568 75.5368C379.848 74.3858 377.975 73.5897 376.05 72.8974C371.171 71.1321 366.095 70.0591 361.148 68.562C359.334 68.0168 357.486 67.5322 355.842 66.5544C355.187 66.165 354.148 65.5592 354.846 64.7198C355.749 63.6295 356.677 62.2709 358.627 63.0757C361.522 64.2612 364.596 64.391 367.679 64.0362C376.867 62.9891 382.769 55.8932 381.577 47.2656C380.912 42.4543 378.136 39.0967 373.904 36.5699C376.987 35.6872 379.601 36.7343 382.266 37.34C383.246 37.565 384.48 38.4217 385.187 37.0025C385.809 35.7391 385.204 34.5449 384.404 33.5325C383.697 32.6412 382.718 32.1219 381.636 31.8364C378.153 30.9364 375.113 31.9575 372.559 34.3286C371.554 35.2632 370.736 35.3584 369.51 35.0468C364.477 33.7575 359.64 34.3978 355.17 37.0631C349.021 40.7322 346.918 47.8195 348.996 53.8337C350.214 57.3557 352.828 59.571 354.284 60.843C354.957 61.4315 355.561 61.8815 355.996 62.1843C353.688 63.0843 351.849 63.8804 350.52 64.4775C350.009 64.7112 349.379 64.9967 348.774 65.6198C347.948 66.4678 347.497 67.5928 347.301 68.8649C347.003 70.8465 348.315 72.0061 349.771 72.9493C351.38 73.9964 353.16 74.6454 354.982 75.1993C356.226 75.58 357.486 75.9435 359.138 76.4367C355.911 76.9473 351.704 78.228 348.204 81.4644C346.177 83.3422 345.828 84.5364 345.717 85.0556C344.823 89.1747 349.507 93.1294 350.171 93.6746C351.883 95.0765 353.628 95.7514 354.727 96.1841C356.575 96.9024 358.065 97.1446 359.674 97.4129C360.075 97.4821 362.927 97.9581 366.002 97.8889C370.2 97.8023 377.2 97.6552 382.249 92.7227C383.569 91.442 386.643 88.4219 386.55 84.1124C386.465 80.876 384.787 77.6915 381.568 75.5368ZM357.758 40.8274C358.55 37.4006 360.96 35.7824 364.511 35.6612C368.318 35.5314 370.796 37.0891 372.039 40.4553C373.155 43.4927 373.112 46.6945 373.172 48.9877C373.206 52.5356 373.138 55.2009 372.371 57.7797C371.324 61.2844 368.922 63.0324 365.201 63.067C361.471 63.1016 358.848 61.4488 357.929 57.9441C356.439 52.2933 356.439 46.5128 357.758 40.8274ZM375.454 94.7043C373.836 95.1889 372.542 95.4053 371.4 95.5957C369.723 95.8812 368.079 96.1581 365.95 96.1062C364.52 96.0716 362.996 96.037 361.131 95.4226C359.691 94.9466 357.375 94.1938 355.783 91.9612C354.488 90.1526 354.31 88.2575 354.25 87.47C353.918 83.048 356.055 79.0501 359.615 77.3886C360.364 77.0425 361.088 76.8002 361.923 76.9992C367.16 78.254 372.49 79.1366 377.6 80.9279C379.329 81.5337 381.015 82.2346 382.496 83.3249C385.375 85.4364 385.587 88.0584 383.084 90.6112C380.972 92.7746 378.264 93.865 375.454 94.7043Z" fill="white"/>
<path d="M60.1969 74.3166C59.1495 73.9359 57.2079 72.7071 57.0632 72.5946C56.4075 72.1186 55.6496 71.1667 55.3515 69.0899C55.5474 50.4155 55.6836 31.7412 55.7688 13.0669C55.7688 12.7813 55.7773 10.9987 55.7773 10.7217C55.343 10.7217 54.9002 10.7217 54.4659 10.7217C51.9367 13.5082 48.4709 13.638 45.1243 14.1572C44.5026 14.2524 43.4126 13.6899 43.353 14.8062C43.3104 15.6543 44.3238 15.4639 44.9199 15.6283C47.3468 16.2946 48.1303 17.2898 48.1558 19.8772C48.2154 24.5328 48.2495 29.1884 48.275 33.8527C48.2921 36.6131 48.275 39.3736 48.275 42.385C47.151 41.113 46.2909 40.0399 45.3201 39.0707C41.5221 35.2545 37.0429 33.645 31.7632 35.0728C31.4992 35.142 28.2292 35.9641 25.2147 38.3092C22.643 40.3082 17.8061 46.5993 17.4059 55.348C17.2611 58.4374 16.9375 65.464 22.0299 71.011C22.7963 71.8503 27.2159 76.4973 33.9603 76.6185C33.9603 76.6185 41.1389 76.7483 47.3468 70.5264C47.7385 70.137 48.1473 69.7043 48.1473 69.7043C48.3346 69.5139 48.4879 69.3408 48.6071 69.2197C48.6071 70.4917 48.5816 71.7119 48.6157 72.932C48.6582 74.5762 49.612 75.606 51.1107 75.6839C54.0912 75.831 57.0802 75.7271 60.0692 75.7185C60.495 75.7185 60.9974 75.8223 61.0144 75.156C61.0314 74.5935 60.6482 74.481 60.1969 74.3166ZM40.1511 74.2387C38.8908 74.8012 35.0162 76.5406 31.8058 74.732C30.0005 73.7109 29.0553 71.9975 28.3996 70.535C27.4032 68.2851 26.8923 65.8967 26.6794 63.4651C26.0918 56.8191 25.7427 50.1473 27.3096 43.5879C28.1782 39.9361 30.0175 37.4871 32.4445 36.3708C36.4128 34.5536 41.0878 37.1929 41.5221 37.4439C42.7825 38.1708 43.6085 38.9756 44.2642 39.6246C46.5378 41.8572 47.7385 44.2629 48.3687 45.8205C48.4113 49.0742 48.4539 52.3366 48.4964 55.5903C48.4964 58.3335 48.4964 61.068 48.4964 63.8112C48.0707 65.265 46.0354 71.5907 40.1511 74.2387Z" fill="white"/>
<path d="M168.286 74.2993C165.654 73.4772 164.879 72.4388 164.854 69.6523C164.803 64.2439 164.769 58.8441 164.743 53.4356C164.735 50.7703 164.726 48.105 164.36 45.457C163.798 41.3985 162.504 37.5823 158.399 36.0766C151.51 33.5498 144.629 33.9825 138.098 37.4698C135.662 38.7765 134.24 41.0264 133.789 43.8302C133.67 44.5484 133.525 45.2234 134.623 45.5003C137.825 46.3138 140.721 47.8454 143.514 49.8617C144.127 48.8665 143.573 48.2348 143.343 47.5599C142.798 45.9416 142.373 44.3148 142.356 42.5841C142.322 38.2919 144.672 35.9987 149.466 35.6785C153.903 35.3843 155.87 36.9852 156.449 41.3899C156.926 44.9984 156.798 48.6329 156.909 52.2587C156.943 53.5222 156.585 53.8943 155.342 53.8683C151.697 53.7904 148.053 53.8596 144.399 53.8337C142.415 53.8164 140.457 54.0673 138.6 54.751C134.257 56.3346 131.473 59.32 131.09 64.14C130.698 69.0639 132.733 72.7936 137.016 75.0954C141.002 77.2415 145.234 77.4925 149.534 76.1512C153.375 74.957 155.623 72.1532 156.866 68.3284C157.028 69.9379 156.926 71.4782 157.054 72.9926C157.19 74.6454 158.093 75.6752 159.847 75.6752C162.546 75.6839 165.246 75.7012 167.937 75.6666C168.448 75.6579 169.231 76.0906 169.418 75.2512C169.623 74.4031 168.822 74.4724 168.286 74.2993ZM155.691 68.6658C154.984 70.6562 153.954 72.4128 152.302 73.7368C147.721 77.4059 142.143 75.5368 140.721 69.8254C139.963 66.7621 139.92 63.6554 140.746 60.5921C141.768 56.7845 144.008 55.1144 147.891 55.0971C148.989 55.0971 150.079 55.0971 151.178 55.0971C151.544 55.0971 151.91 55.0971 152.276 55.0971C156.943 55.0971 156.909 55.0971 156.968 59.9344C157.003 62.9286 156.687 65.8448 155.691 68.6658Z" fill="white"/>
<path d="M249.482 51.2722C256.627 51.3328 263.78 51.2982 270.925 51.2982C274.552 51.2982 274.552 51.2982 273.769 47.5945C272.151 40.0053 267.467 34.9517 260.978 33.7834C253.408 32.4162 246.519 35.5141 242.397 42.1255C237.501 49.9829 237.748 61.4575 243.164 68.9774C245.488 72.2052 248.273 74.4983 251.509 75.7271C252.625 76.1512 256.184 77.354 260.246 76.5319C269.554 74.6628 273.156 63.8631 273.3 63.3872C272.858 64.4516 272.117 65.9486 270.925 67.5236C269.707 69.1245 267.51 72.0061 263.584 73.157C261.787 73.6849 259.829 73.7714 257.683 73.3561C252.301 72.309 249.704 68.2938 248.494 63.2141C247.703 59.8825 247.643 56.4817 247.583 53.0635C247.566 51.5318 248.12 51.2636 249.482 51.2722ZM247.881 49.0137C248.248 45.4571 248.801 41.9697 250.581 38.8111C252.267 35.8343 254.753 34.3546 258.177 34.6661C261.481 34.969 263.431 37.0199 264.546 39.9794C265.636 42.8697 265.653 45.9157 265.594 48.9617C265.568 50.1732 264.921 50.2079 264.035 50.1992C261.557 50.1732 259.071 50.1905 256.593 50.1905C254.115 50.1905 251.628 50.1819 249.15 50.1992C248.324 50.2079 247.762 50.1559 247.881 49.0137Z" fill="white"/>
<path d="M128.211 49.3252C128.177 49.1175 128.109 48.6762 127.981 48.2521C125.469 39.8582 121.961 36.9506 121.961 36.9506C120.53 35.7737 118.818 34.8565 116.741 34.2421C109.826 32.1912 103.729 33.8959 98.7642 39.2005C90.7595 47.7502 91.1767 63.5256 99.5391 71.7205C100.433 72.6032 105.364 77.3194 112.355 76.7136C119.04 76.1339 125.026 70.9071 127.624 63.3353C127.24 64.1574 126.661 65.2563 125.784 66.4332C125.094 67.3592 119.363 74.5762 112.219 73.4945C107.382 72.759 103.925 69.0033 102.554 63.0237C101.838 59.8998 101.813 56.7153 101.685 53.5308C101.608 51.6443 102.222 51.2376 104.01 51.2636C111.521 51.3761 119.04 51.2636 126.559 51.3415C126.917 51.3415 127.871 51.4107 128.203 50.8742C128.407 50.5713 128.339 50.1386 128.211 49.3252ZM119.73 48.7194C119.713 49.8704 119.321 50.2598 118.188 50.2252C115.71 50.1559 113.241 50.2165 110.763 50.1992C106.079 50.1819 103.729 50.1646 103.337 50.2165C103.124 50.2425 102.494 50.3203 102.153 49.9482C101.847 49.6108 101.915 49.0483 101.983 48.7454C102 46.383 102.392 42.835 104.384 39.3736C105.228 37.9112 106.215 36.2583 108.217 35.3064C109.409 34.744 110.763 34.5363 112.295 34.6834C115.881 35.0382 117.797 37.3487 118.853 40.6111C119.704 43.2504 119.772 45.9676 119.73 48.7194Z" fill="white"/>
<path d="M21.8597 91.0179C21.8767 92.065 22.5324 92.4977 23.2988 92.4977C23.8438 92.4977 24.1759 92.4025 24.4654 92.2814L24.5932 92.8352C24.3207 92.9563 23.8608 93.1034 23.1966 93.1034C21.9022 93.1034 21.1273 92.2381 21.1273 90.9487C21.1273 89.6593 21.8767 88.6469 23.0944 88.6469C24.4654 88.6469 24.8316 89.8757 24.8316 90.6545C24.8316 90.8103 24.8146 90.9401 24.8061 91.0179H21.8597ZM24.0993 90.4641C24.1078 89.9709 23.9034 89.2007 23.0433 89.2007C22.2684 89.2007 21.9363 89.9276 21.8682 90.4641H24.0993Z" fill="white"/>
<path d="M36.3021 92.8525C36.1063 92.9563 35.6634 93.1034 35.0929 93.1034C33.8241 93.1034 32.998 92.2294 32.998 90.9227C32.998 89.6074 33.8837 88.6555 35.2547 88.6555C35.706 88.6555 36.1062 88.768 36.3106 88.8719L36.1403 89.469C35.9615 89.3651 35.672 89.2699 35.2547 89.2699C34.2924 89.2699 33.773 89.9882 33.773 90.8881C33.773 91.8746 34.3946 92.4804 35.2291 92.4804C35.6634 92.4804 35.953 92.3679 36.1659 92.264L36.3021 92.8525Z" fill="white"/>
<path d="M48.471 90.8449C48.471 92.4285 47.398 93.1121 46.3761 93.1121C45.2436 93.1121 44.3665 92.2641 44.3665 90.9141C44.3665 89.4863 45.2861 88.6469 46.4528 88.6469C47.6535 88.6469 48.471 89.5382 48.471 90.8449ZM45.1329 90.8881C45.1329 91.8227 45.6608 92.5323 46.4102 92.5323C47.1426 92.5323 47.6876 91.8314 47.6876 90.8708C47.6876 90.1439 47.3299 89.2267 46.4272 89.2267C45.5246 89.2267 45.1329 90.0747 45.1329 90.8881Z" fill="white"/>
<path d="M56.8504 92.2208C57.0803 92.3679 57.472 92.5323 57.8552 92.5323C58.4088 92.5323 58.6727 92.2467 58.6727 91.9006C58.6727 91.5285 58.4599 91.3295 57.8893 91.1131C57.1314 90.8362 56.7823 90.4209 56.7823 89.9016C56.7823 89.2094 57.3273 88.6469 58.2299 88.6469C58.6557 88.6469 59.0304 88.768 59.2603 88.9151L59.073 89.4776C58.9112 89.3738 58.6046 89.2267 58.2129 89.2267C57.7616 89.2267 57.5061 89.4949 57.5061 89.8065C57.5061 90.1612 57.7616 90.317 58.3066 90.5334C59.0389 90.8189 59.4051 91.1824 59.4051 91.8227C59.4051 92.5756 58.8345 93.1034 57.8382 93.1034C57.3784 93.1034 56.9526 92.991 56.6545 92.8092L56.8504 92.2208Z" fill="white"/>
<path d="M67.8185 92.2208C68.0484 92.3679 68.4401 92.5323 68.8234 92.5323C69.3769 92.5323 69.6409 92.2467 69.6409 91.9006C69.6409 91.5285 69.428 91.3295 68.8574 91.1131C68.0995 90.8362 67.7504 90.4209 67.7504 89.9016C67.7504 89.2094 68.2954 88.6469 69.198 88.6469C69.6238 88.6469 69.9985 88.768 70.2284 88.9151L70.0411 89.4776C69.8793 89.3738 69.5727 89.2267 69.181 89.2267C68.7297 89.2267 68.4742 89.4949 68.4742 89.8065C68.4742 90.1612 68.7297 90.317 69.2747 90.5334C70.007 90.8189 70.3732 91.1824 70.3732 91.8227C70.3732 92.5756 69.8027 93.1034 68.7978 93.1034C68.338 93.1034 67.9122 92.991 67.6141 92.8092L67.8185 92.2208Z" fill="white"/>
<path d="M79.7319 87.5479C79.7404 87.8161 79.553 88.0238 79.2465 88.0238C78.974 88.0238 78.7866 87.8161 78.7866 87.5479C78.7866 87.2709 78.9825 87.0633 79.2635 87.0633C79.553 87.0633 79.7319 87.2709 79.7319 87.5479ZM78.8803 93.0169V88.7507H79.6467V93.0169H78.8803Z" fill="white"/>
<path d="M88.3326 92.2208C88.5625 92.3679 88.9542 92.5323 89.3374 92.5323C89.8909 92.5323 90.1549 92.2467 90.1549 91.9006C90.1549 91.5285 89.942 91.3295 89.3715 91.1131C88.6136 90.8362 88.2645 90.4209 88.2645 89.9016C88.2645 89.2094 88.8095 88.6469 89.7121 88.6469C90.1379 88.6469 90.5126 88.768 90.7425 88.9151L90.5552 89.4776C90.3934 89.3738 90.0868 89.2267 89.6951 89.2267C89.2438 89.2267 88.9883 89.4949 88.9883 89.8065C88.9883 90.1612 89.2438 90.317 89.7888 90.5334C90.5211 90.8189 90.8873 91.1824 90.8873 91.8227C90.8873 92.5756 90.3167 93.1034 89.3204 93.1034C88.8605 93.1034 88.4348 92.991 88.1367 92.8092L88.3326 92.2208Z" fill="white"/>
<path d="M100.314 87.5219V88.7507H101.404V89.3392H100.314V91.641C100.314 92.1689 100.459 92.4717 100.885 92.4717C101.081 92.4717 101.234 92.4458 101.327 92.4198L101.362 92.9996C101.217 93.0602 100.978 93.1034 100.68 93.1034C100.323 93.1034 100.042 92.9909 99.8543 92.7746C99.6414 92.5496 99.5562 92.1689 99.5562 91.667V89.3392H98.9091V88.7507H99.5562V87.7296L100.314 87.5219Z" fill="white"/>
<path d="M110.167 91.0179C110.184 92.065 110.839 92.4977 111.606 92.4977C112.151 92.4977 112.483 92.4025 112.772 92.2814L112.9 92.8352C112.628 92.9563 112.168 93.1034 111.504 93.1034C110.209 93.1034 109.434 92.2381 109.434 90.9487C109.434 89.6593 110.184 88.6469 111.401 88.6469C112.772 88.6469 113.139 89.8757 113.139 90.6545C113.139 90.8103 113.122 90.9401 113.113 91.0179H110.167ZM112.406 90.4641C112.415 89.9709 112.21 89.2007 111.35 89.2007C110.575 89.2007 110.243 89.9276 110.175 90.4641H112.406Z" fill="white"/>
<path d="M121.62 89.9016C121.62 89.4603 121.612 89.0969 121.586 88.7421H122.259L122.293 89.4257H122.319C122.548 89.019 122.94 88.6382 123.638 88.6382C124.209 88.6382 124.643 88.993 124.831 89.4949H124.848C124.975 89.2526 125.146 89.0709 125.316 88.9411C125.571 88.7507 125.844 88.6382 126.244 88.6382C126.798 88.6382 127.624 89.0103 127.624 90.4901V93.0083H126.874V90.5939C126.874 89.7718 126.576 89.2786 125.963 89.2786C125.529 89.2786 125.188 89.6074 125.061 89.9882C125.026 90.092 125.001 90.2391 125.001 90.3776V93.0169H124.252V90.4555C124.252 89.7718 123.954 89.2786 123.374 89.2786C122.898 89.2786 122.548 89.668 122.429 90.0574C122.387 90.1699 122.37 90.3083 122.37 90.4382V93.0169H121.62V89.9016Z" fill="white"/>
<path d="M138.711 93.0169L138.651 92.4804H138.626C138.387 92.8179 137.936 93.1121 137.34 93.1121C136.488 93.1121 136.054 92.5063 136.054 91.8833C136.054 90.8535 136.957 90.291 138.583 90.2997V90.2132C138.583 89.8584 138.49 89.2267 137.63 89.2267C137.238 89.2267 136.829 89.3478 136.54 89.5468L136.369 89.0363C136.718 88.8113 137.221 88.6555 137.749 88.6555C139.035 88.6555 139.35 89.5468 139.35 90.4035V91.9958C139.35 92.3679 139.367 92.7313 139.418 93.0169H138.711ZM138.592 90.8362C137.757 90.8189 136.812 90.966 136.812 91.7968C136.812 92.2987 137.144 92.541 137.536 92.541C138.081 92.541 138.43 92.1862 138.549 91.8227C138.575 91.7448 138.592 91.6583 138.592 91.5718V90.8362Z" fill="white"/>
<path d="M161.082 86.7517V91.9092C161.082 92.29 161.09 92.7227 161.116 93.0083H160.426L160.392 92.264H160.375C160.136 92.74 159.625 93.1034 158.944 93.1034C157.931 93.1034 157.147 92.2294 157.147 90.9314C157.139 89.5122 158.007 88.6382 159.029 88.6382C159.668 88.6382 160.102 88.9497 160.298 89.2872H160.315V86.7344H161.082V86.7517ZM160.315 90.4814C160.315 90.3862 160.307 90.2564 160.281 90.1526C160.17 89.6593 159.753 89.2526 159.183 89.2526C158.391 89.2526 157.922 89.9622 157.922 90.9054C157.922 91.7708 158.34 92.489 159.166 92.489C159.677 92.489 160.145 92.1429 160.281 91.5631C160.307 91.4593 160.315 91.3468 160.315 91.2256V90.4814Z" fill="white"/>
<path d="M170.304 91.0179C170.321 92.065 170.977 92.4977 171.743 92.4977C172.288 92.4977 172.62 92.4025 172.91 92.2814L173.038 92.8352C172.765 92.9563 172.305 93.1034 171.641 93.1034C170.347 93.1034 169.572 92.2381 169.572 90.9487C169.572 89.6593 170.321 88.6469 171.539 88.6469C172.91 88.6469 173.276 89.8757 173.276 90.6545C173.276 90.8103 173.259 90.9401 173.25 91.0179H170.304ZM172.544 90.4641C172.552 89.9709 172.348 89.2007 171.488 89.2007C170.713 89.2007 170.381 89.9276 170.313 90.4641H172.544Z" fill="white"/>
<path d="M191.533 91.0179C191.551 92.065 192.206 92.4977 192.973 92.4977C193.518 92.4977 193.85 92.4025 194.139 92.2814L194.267 92.8352C193.995 92.9563 193.535 93.1034 192.87 93.1034C191.576 93.1034 190.801 92.2381 190.801 90.9487C190.801 89.6593 191.551 88.6469 192.768 88.6469C194.139 88.6469 194.505 89.8757 194.505 90.6545C194.505 90.8103 194.488 90.9401 194.48 91.0179H191.533ZM193.773 90.4641C193.782 89.9709 193.577 89.2007 192.717 89.2007C191.942 89.2007 191.61 89.9276 191.542 90.4641H193.773Z" fill="white"/>
<path d="M203.319 88.7421L203.915 89.6593C204.068 89.9016 204.205 90.118 204.341 90.3516H204.367C204.503 90.1007 204.648 89.8757 204.784 89.642L205.371 88.7334H206.197L204.767 90.8016L206.24 93.0082H205.371L204.758 92.0477C204.596 91.7968 204.452 91.5631 204.307 91.3035H204.29C204.154 91.5545 204 91.7881 203.847 92.0477L203.242 93.0082H202.399L203.89 90.8276L202.468 88.7334H203.319V88.7421Z" fill="white"/>
<path d="M214.5 90.1353C214.5 89.5901 214.483 89.1488 214.466 88.7421H215.156L215.19 89.4776H215.207C215.522 88.9584 216.016 88.6469 216.697 88.6469C217.711 88.6469 218.477 89.5209 218.477 90.8189C218.477 92.3506 217.557 93.1121 216.569 93.1121C216.016 93.1121 215.531 92.8612 215.275 92.4458H215.258V94.7649H214.5V90.1353ZM215.258 91.2776C215.258 91.3901 215.275 91.4939 215.292 91.5977C215.428 92.1343 215.888 92.5064 216.442 92.5064C217.251 92.5064 217.719 91.8314 217.719 90.8535C217.719 89.9968 217.276 89.2699 216.467 89.2699C215.948 89.2699 215.462 89.6507 215.309 90.2305C215.284 90.3257 215.258 90.4382 215.258 90.5507V91.2776Z" fill="white"/>
<path d="M227.393 91.0179C227.41 92.065 228.074 92.4977 228.832 92.4977C229.377 92.4977 229.709 92.4025 229.999 92.2814L230.126 92.8352C229.854 92.9563 229.394 93.1034 228.73 93.1034C227.435 93.1034 226.66 92.2381 226.66 90.9487C226.66 89.6593 227.41 88.6469 228.628 88.6469C229.999 88.6469 230.365 89.8757 230.365 90.6545C230.365 90.8103 230.348 90.9401 230.339 91.0179H227.393ZM229.632 90.4641C229.641 89.9709 229.437 89.2007 228.576 89.2007C227.802 89.2007 227.469 89.9276 227.401 90.4641H229.632Z" fill="white"/>
<path d="M238.838 90.0747C238.838 89.5728 238.829 89.1401 238.804 88.7421H239.476L239.502 89.5815H239.536C239.723 89.0103 240.183 88.6469 240.703 88.6469C240.788 88.6469 240.847 88.6555 240.916 88.6728V89.4084C240.839 89.3911 240.762 89.3824 240.652 89.3824C240.115 89.3824 239.732 89.7978 239.63 90.3776C239.613 90.4814 239.596 90.6112 239.596 90.741V93.0169H238.838V90.0747Z" fill="white"/>
<path d="M250.087 87.5479C250.095 87.8161 249.908 88.0238 249.602 88.0238C249.329 88.0238 249.142 87.8161 249.142 87.5479C249.142 87.2709 249.338 87.0633 249.619 87.0633C249.908 87.0633 250.087 87.2709 250.087 87.5479ZM249.235 93.0169V88.7507H250.002V93.0169H249.235Z" fill="white"/>
<path d="M259.216 91.0179C259.233 92.065 259.888 92.4977 260.655 92.4977C261.2 92.4977 261.532 92.4025 261.821 92.2813L261.949 92.8352C261.677 92.9563 261.217 93.1034 260.553 93.1034C259.258 93.1034 258.483 92.2381 258.483 90.9487C258.483 89.6593 259.233 88.6469 260.45 88.6469C261.821 88.6469 262.188 89.8757 262.188 90.6545C262.188 90.8102 262.171 90.94 262.162 91.0179H259.216ZM261.455 90.4641C261.464 89.9708 261.259 89.2007 260.399 89.2007C259.624 89.2007 259.292 89.9276 259.224 90.4641H261.455ZM260.697 86.8988L261.532 88.1623H260.953L260.45 87.3229H260.433L259.931 88.1623H259.36L260.186 86.8988H260.697Z" fill="white"/>
<path d="M270.669 89.9016C270.669 89.4603 270.661 89.0969 270.635 88.7421H271.308L271.35 89.4517H271.367C271.58 89.0449 272.066 88.6469 272.756 88.6469C273.335 88.6469 274.237 89.0017 274.237 90.4641V93.0169H273.471V90.5593C273.471 89.8757 273.215 89.2959 272.5 89.2959C271.998 89.2959 271.606 89.6593 271.478 90.092C271.444 90.1872 271.427 90.317 271.427 90.4555V93.0256H270.661V89.9016H270.669Z" fill="white"/>
<path d="M286.006 92.8525C285.81 92.9563 285.367 93.1034 284.797 93.1034C283.528 93.1034 282.702 92.2294 282.702 90.9227C282.702 89.6074 283.587 88.6555 284.958 88.6555C285.41 88.6555 285.81 88.768 286.014 88.8719L285.844 89.469C285.665 89.3651 285.376 89.2699 284.958 89.2699C283.996 89.2699 283.477 89.9882 283.477 90.8881C283.477 91.8746 284.098 92.4804 284.933 92.4804C285.367 92.4804 285.657 92.3679 285.87 92.264L286.006 92.8525Z" fill="white"/>
<path d="M295.271 87.5479C295.279 87.8161 295.092 88.0238 294.785 88.0238C294.513 88.0238 294.326 87.8161 294.326 87.5479C294.326 87.2709 294.521 87.0633 294.802 87.0633C295.092 87.0633 295.271 87.2709 295.271 87.5479ZM294.419 93.0169V88.7507H295.186V93.0169H294.419Z" fill="white"/>
<path d="M306.307 93.0169L306.247 92.4804H306.222C305.984 92.8179 305.532 93.1121 304.936 93.1121C304.085 93.1121 303.65 92.5063 303.65 91.8833C303.65 90.8535 304.553 90.291 306.179 90.2997V90.2132C306.179 89.8584 306.086 89.2267 305.226 89.2267C304.834 89.2267 304.425 89.3478 304.127 89.5468L303.957 89.0363C304.306 88.8113 304.808 88.6555 305.336 88.6555C306.622 88.6555 306.937 89.5468 306.937 90.4035V91.9958C306.937 92.3679 306.954 92.7313 307.005 93.0169H306.307ZM306.188 90.8362C305.353 90.8189 304.408 90.966 304.408 91.7968C304.408 92.2987 304.74 92.541 305.132 92.541C305.677 92.541 306.026 92.1862 306.145 91.8227C306.171 91.7448 306.188 91.6583 306.188 91.5718V90.8362Z" fill="white"/>
<path d="M315.581 92.2208C315.802 92.3679 316.202 92.5323 316.585 92.5323C317.139 92.5323 317.403 92.2467 317.403 91.9006C317.403 91.5285 317.19 91.3295 316.619 91.1131C315.862 90.8362 315.512 90.4209 315.512 89.9016C315.512 89.2094 316.057 88.6469 316.96 88.6469C317.386 88.6469 317.761 88.768 317.991 88.9151L317.803 89.4776C317.641 89.3738 317.335 89.2267 316.943 89.2267C316.492 89.2267 316.236 89.4949 316.236 89.8065C316.236 90.1612 316.492 90.317 317.037 90.5334C317.769 90.8189 318.135 91.1824 318.135 91.8227C318.135 92.5756 317.565 93.1034 316.568 93.1034C316.109 93.1034 315.683 92.991 315.385 92.8092L315.581 92.2208Z" fill="white"/>
</svg>
