<svg width="88" height="88" viewBox="0 0 88 88" fill="none" xmlns="http://www.w3.org/2000/svg">
<path d="M31.1099 77.5137V82.8417H23.3759C21.9508 82.8417 20.7979 83.9946 20.7979 85.4197C20.7979 86.8447 21.9508 87.9977 23.3759 87.9977H64.6239C66.049 87.9977 67.2038 86.8447 67.2038 85.4197C67.2038 83.9946 66.049 82.8417 64.6239 82.8417H56.89V77.5137H31.1099Z" fill="#E50914"/>
<path d="M2.57988 72.3604H85.422C86.8471 72.3604 88 71.2075 88 69.7824V13.0644C88 11.6393 86.8471 10.4863 85.422 10.4863H80.0939V54.3144C80.0939 58.5783 76.6238 62.0484 72.3599 62.0484H15.6418C11.376 62.0484 7.90783 58.5783 7.90783 54.3144V10.4863H2.57988C1.15479 10.4863 0 11.6393 0 13.0644V69.7824C0 71.2075 1.15479 72.3604 2.57988 72.3604Z" fill="#E50914"/>
<path d="M59.8505 39.9693L53.2334 37.7617L55.4391 44.3806L59.8505 39.9693Z" fill="#E50914"/>
<path d="M74.9366 2.57803C74.9366 1.15295 73.7836 0 72.3585 0H15.6404C14.2153 0 13.0625 1.15295 13.0625 2.57803V20.7961H74.9366V2.57803ZM23.3745 13.062C21.9494 13.062 20.7965 11.9072 20.7965 10.484C20.7965 9.06082 21.9494 7.90604 23.3745 7.90604C24.7977 7.90604 25.9525 9.06082 25.9525 10.484C25.9525 11.9072 24.7977 13.062 23.3745 13.062ZM33.6865 13.062C32.2633 13.062 31.1085 11.9072 31.1085 10.484C31.1085 9.06082 32.2633 7.90604 33.6865 7.90604C35.1097 7.90604 36.2646 9.06082 36.2646 10.484C36.2646 11.9072 35.1097 13.062 33.6865 13.062ZM43.9986 13.062C42.5754 13.062 41.4205 11.9072 41.4205 10.484C41.4205 9.06082 42.5754 7.90604 43.9986 7.90604C45.4217 7.90604 46.5766 9.06082 46.5766 10.484C46.5766 11.9072 45.4217 13.062 43.9986 13.062Z" fill="#E50914"/>
<path d="M13.0625 54.3111C13.0625 55.7362 14.2153 56.8891 15.6404 56.8891H72.3585C73.7836 56.8891 74.9366 55.7362 74.9366 54.3111V25.9512H13.0625V54.3111ZM47.3325 31.8632C48.0281 31.179 49.0487 30.9295 49.971 31.2413L65.4391 36.3974C66.2858 36.679 66.9304 37.3802 67.1307 38.2515C67.3386 39.119 67.0816 40.0338 66.4465 40.6651L63.1124 43.9991L66.4465 47.3312C67.4539 48.3386 67.4539 49.9697 66.4465 50.9771C65.4391 51.9845 63.808 51.9845 62.8006 50.9771L59.4666 47.645L56.1345 50.9771C55.5127 51.5989 54.6074 51.8692 53.7172 51.6651C52.8515 51.459 52.1465 50.8184 51.8648 49.9697L46.7069 34.5017C46.4008 33.5755 46.6427 32.553 47.3325 31.8632ZM23.3745 31.1072H38.8425C40.2676 31.1072 41.4205 32.262 41.4205 33.6852C41.4205 35.1102 40.2676 36.2651 38.8425 36.2651H23.3745C21.9494 36.2651 20.7965 35.1102 20.7965 33.6852C20.7965 32.262 21.9494 31.1072 23.3745 31.1072ZM23.3745 41.4211H38.8425C40.2676 41.4211 41.4205 42.574 41.4205 43.9991C41.4205 45.4242 40.2676 46.5771 38.8425 46.5771H23.3745C21.9494 46.5771 20.7965 45.4242 20.7965 43.9991C20.7965 42.574 21.9494 41.4211 23.3745 41.4211Z" fill="#E50914"/>
</svg>
