<svg width="66" height="66" viewBox="0 0 66 66" fill="none" xmlns="http://www.w3.org/2000/svg">
<mask id="mask0_38_75" style="mask-type:alpha" maskUnits="userSpaceOnUse" x="0" y="0" width="66" height="66">
<rect width="66" height="66" fill="#D9D9D9"/>
</mask>
<g mask="url(#mask0_38_75)">
<path d="M30.0437 44.9623L45.375 29.6311L42.4187 26.6748L30.0437 39.0498L23.5812 32.5873L20.625 35.5436L30.0437 44.9623ZM23.3406 58.4373C20.3385 57.154 17.726 55.4008 15.5031 53.1779C13.2802 50.955 11.5156 48.3425 10.2094 45.3404C8.90312 42.3383 8.25 39.1247 8.25 35.6996C8.25 32.274 8.90312 29.0657 10.2094 26.0746C11.5156 23.0831 13.2802 20.4644 15.5031 18.2186C17.726 15.9727 20.3385 14.2081 23.3406 12.9248C26.3427 11.6415 29.5396 10.9998 32.9312 10.9998C36.3229 10.9998 39.5198 11.6415 42.5219 12.9248C45.524 14.2081 48.1479 15.9727 50.3937 18.2186C52.6396 20.4644 54.4042 23.0831 55.6875 26.0746C56.9708 29.0657 57.6125 32.274 57.6125 35.6996C57.6125 39.1247 56.9708 42.3383 55.6875 45.3404C54.4042 48.3425 52.6396 50.955 50.3937 53.1779C48.1479 55.4008 45.524 57.154 42.5219 58.4373C39.5198 59.7206 36.3229 60.3623 32.9312 60.3623C29.5396 60.3623 26.3427 59.7206 23.3406 58.4373ZM14.7125 6.39355L17.6 9.28105L6.325 20.1436L3.4375 17.2561L14.7125 6.39355ZM51.15 6.39355L62.425 17.2561L59.5375 20.1436L48.2625 9.28105L51.15 6.39355ZM32.934 56.2373C38.6613 56.2373 43.5187 54.2426 47.5062 50.2533C51.4937 46.2635 53.4875 41.4052 53.4875 35.6783C53.4875 29.951 51.4928 25.0936 47.5035 21.1061C43.5137 17.1186 38.6554 15.1248 32.9285 15.1248C27.2012 15.1248 22.3437 17.1195 18.3562 21.1088C14.3687 25.0986 12.375 29.9569 12.375 35.6838C12.375 41.4111 14.3697 46.2686 18.359 50.2561C22.3488 54.2436 27.2071 56.2373 32.934 56.2373Z" fill="white"/>
</g>
</svg>
