<svg width="441" height="112" viewBox="0 0 441 112" fill="none" xmlns="http://www.w3.org/2000/svg">
<g clip-path="url(#clip0_493_2)">
<path d="M342.134 54.7737L351.159 23.2992C351.569 22.4817 352.39 21.2554 353.62 22.0729L359.774 24.1167C360.594 24.5255 361.825 25.343 361.005 26.5693L351.979 58.0438C351.569 58.8613 350.749 60.0875 349.518 59.27L343.365 57.2262C342.544 57.2262 342.134 56.4087 342.134 54.7737Z" fill="white"/>
<path d="M304.392 39.2408H311.366C312.187 39.2408 313.418 40.0584 313.418 41.2846V89.5182C313.418 90.3357 312.597 91.562 311.366 91.562H304.392C303.572 91.562 302.341 90.7445 302.341 89.5182V41.2846C302.341 40.0584 303.162 39.2408 304.392 39.2408Z" fill="white"/>
<path d="M107.481 111.182C107.891 112 108.712 112.409 110.353 112L116.916 108.73C117.737 108.321 118.147 107.504 117.737 106.277C103.789 79.708 79.1749 62.1314 70.56 57.2263C69.7395 56.8175 69.3293 55.1825 69.7395 54.3649C70.9702 50.2774 76.7135 30.2482 79.5851 17.9854C82.867 3.27006 75.893 -3.67885 60.3042 1.63502C39.3823 9.8102 19.2809 20.8467 0.820443 33.1095C-2.2471e-05 33.927 -2.2471e-05 35.1533 0.41021 36.3795L4.51254 42.5109C4.92277 43.3284 6.5637 43.3284 7.38416 42.9197C25.4344 30.6569 44.7153 20.4379 64.8167 12.2628C68.919 11.0365 70.56 11.0365 69.3293 15.9416C66.4576 28.6131 59.8939 49.4598 59.4837 51.5036C57.0223 59.2701 57.4325 61.7226 63.586 64.9927C63.9963 65.8102 93.1228 83.7956 107.481 111.182Z" fill="white"/>
<path d="M42.2539 39.2408H49.2279C50.0483 39.2408 51.279 40.0584 51.279 41.2846V89.5182C51.279 90.3357 50.4586 91.562 49.2279 91.562H42.2539C41.4335 91.562 40.2028 90.7445 40.2028 89.5182V41.2846C40.2028 40.0584 41.4335 39.2408 42.2539 39.2408Z" fill="white"/>
<path d="M369.619 111.182C370.03 112 370.85 112.409 372.491 112L379.055 108.73C379.875 108.321 380.285 107.504 379.875 106.277C366.338 79.708 341.313 62.1314 332.698 57.2263C331.878 56.8175 331.468 55.1825 331.878 54.3649C333.109 50.2774 338.852 30.2482 341.724 17.9854C345.005 3.27006 338.032 -3.67885 322.443 1.63502C307.674 7.76641 292.906 15.5328 278.958 23.708C278.138 24.1168 277.727 25.7518 278.548 26.5693L282.24 32.7007C282.65 33.5182 284.291 33.5182 285.112 33.1095C298.649 25.343 312.187 18.3941 326.545 12.2628C330.647 11.0365 332.288 11.0365 331.058 15.9416C328.186 28.6131 321.622 49.4598 321.212 52.3211C318.751 60.0876 319.161 62.5401 325.314 65.8102C326.135 65.8102 354.851 83.7956 369.619 111.182Z" fill="white"/>
<path d="M304.392 39.2408H311.366C312.187 39.2408 313.418 40.0584 313.418 41.2846V89.5182C313.418 90.3357 312.597 91.562 311.366 91.562H304.392C303.572 91.562 302.341 90.7445 302.341 89.5182V41.2846C302.341 40.0584 303.162 39.2408 304.392 39.2408Z" fill="white"/>
<path d="M228.91 32.7007L231.371 24.5255C231.781 23.708 232.602 22.4817 233.833 23.2993L239.576 24.5255C240.396 24.9343 241.627 25.7518 240.807 26.9781L238.345 35.1533C237.935 36.3796 237.114 37.1971 236.294 36.7883L230.14 34.7445C229.32 34.7445 228.91 33.5182 228.91 32.7007Z" fill="white"/>
<path d="M350.339 15.9416L352.8 7.76639C353.21 6.94887 354.031 5.72259 355.261 6.54011L361.005 7.76639C361.825 8.17515 363.056 8.99267 362.235 10.2189L359.774 18.3941C359.364 19.2116 358.543 20.4379 357.313 19.6204L351.159 17.5766C350.749 17.9854 350.339 16.7591 350.339 15.9416Z" fill="white"/>
<path d="M281.419 43.7372C277.317 40.4671 271.164 43.3284 269.113 44.146L264.6 46.5985C263.78 47.0073 263.779 46.5985 263.369 46.1898C262.959 44.9635 262.139 43.7372 260.908 42.9197C256.395 39.6496 250.652 44.146 248.191 46.1898L234.243 57.635C231.781 60.0876 232.192 57.2262 233.012 56.8175L236.294 44.5547C236.704 43.7372 235.884 42.1022 235.063 42.1022L228.91 40.0584C228.089 39.6496 226.859 40.4671 226.448 41.2846L218.654 69.0803C217.423 71.9416 218.654 75.2117 221.526 76.4379C223.987 77.2555 226.448 76.8467 228.089 75.2117L250.242 57.2263C252.703 54.7737 252.293 57.635 252.293 58.0438L247.37 75.6204C246.96 76.4379 247.78 77.6642 248.601 78.073L254.754 80.1168C255.575 80.5255 257.216 79.708 257.216 78.8905L262.139 60.4963C262.549 59.6788 262.959 58.4525 264.6 58.0438L273.625 53.9562C274.446 53.5474 274.446 53.9562 274.446 54.7737L269.523 77.2554C269.523 78.073 269.933 79.708 270.753 79.708L276.907 80.9343C277.727 80.9343 279.368 80.5255 279.368 79.708L284.291 57.2263C284.291 53.9562 285.522 47.0073 281.419 43.7372Z" fill="white"/>
<path d="M161.221 24.1168L158.76 17.9854C158.35 17.1679 157.529 16.7591 156.299 17.1679C148.914 20.0292 120.608 30.2482 117.737 31.4744C110.352 34.3357 108.712 37.1971 107.891 41.2847L107.071 44.146C106.25 47.8248 104.199 51.0949 102.148 53.9562C96.4046 58.8613 93.1227 56.4087 93.1227 51.9124C93.1227 45.781 96.4046 41.2847 102.968 37.6058C103.789 37.1971 104.199 36.3795 103.789 35.1533L100.917 29.4306C100.507 28.6131 99.6864 28.2044 98.0455 28.6131C84.9181 35.562 82.0464 44.9635 82.8669 51.9124C82.8669 64.5839 96.4046 71.9416 108.301 61.3139C112.404 57.2263 115.275 52.3211 116.096 47.0073L116.916 44.5547C117.326 42.1022 117.737 42.1022 121.019 40.8759C124.3 39.6496 151.786 29.4306 159.17 26.5693C160.811 26.1606 161.632 24.9343 161.221 24.1168Z" fill="white"/>
<path d="M213.731 87.8832L185.425 60.0876C184.605 59.27 184.605 58.8613 185.835 57.635C192.399 54.7737 200.193 51.0949 212.09 44.5547C212.911 44.146 213.321 42.5109 212.911 41.6934L210.039 35.9708C209.629 35.1533 207.988 34.7445 207.167 35.1533C197.732 40.0584 187.886 44.9635 178.451 49.0511C174.759 50.2773 174.759 49.8686 175.99 46.5985C181.733 32.7007 189.117 19.6204 198.963 8.17515C199.783 7.35763 199.783 6.13136 198.963 5.31384L194.45 1.22625C193.63 0.817488 192.399 0.817488 191.579 1.22625C178.861 15.9416 169.016 33.927 163.272 52.3211C162.862 54.3649 160.811 55.5912 159.17 56.4087C149.325 60.4963 139.069 63.3576 128.813 65.8102C126.762 66.219 124.711 65.8102 127.582 62.5401C130.864 58.8613 134.556 55.1825 139.069 52.3211C139.889 51.9124 141.94 50.2773 141.53 51.9124C141.53 51.9124 141.53 52.3211 141.53 52.7299C141.53 53.5474 141.94 54.7737 142.761 55.1825L148.914 57.2262C149.735 57.635 150.966 56.8175 151.376 56L153.427 48.6423C154.247 45.781 153.427 42.5109 150.966 40.8759C147.684 38.0146 143.992 38.4233 139.069 40.8759C131.685 44.9635 125.121 50.2773 119.788 56.8175C111.583 66.6277 112.814 77.2554 124.711 77.2554C126.762 77.2554 128.403 77.2554 130.454 76.8467C138.659 74.8029 146.863 72.7591 154.658 69.8978C157.529 69.0803 157.939 69.0803 157.119 71.9416C155.068 78.8905 153.427 85.4306 152.196 91.562C151.786 93.6058 151.376 94.8321 150.966 96.4671C150.555 97.2847 151.376 98.5109 152.196 98.9197L158.35 100.146C159.17 100.146 160.401 99.7372 160.811 98.9197C161.221 96.8759 161.632 95.6496 162.042 94.0146C164.093 86.2482 166.144 77.2555 169.426 67.854C169.836 65.8102 170.246 64.5839 171.887 64.1752H172.298C174.349 63.7664 174.759 63.7664 175.99 64.9927L207.167 95.6496C207.988 96.4671 209.219 96.4671 210.039 95.6496L214.552 91.1533C215.372 90.3357 215.372 88.7007 213.731 87.8832Z" fill="white"/>
<path d="M441 24.1168L438.539 17.9854C438.128 17.1679 437.308 16.7591 436.077 17.1679C428.693 20.0292 400.387 30.2482 397.515 31.4744C390.131 34.3357 388.49 37.1971 387.67 41.2847L386.849 44.146C386.029 47.8248 383.978 51.0949 381.927 53.9562C376.183 58.8613 372.901 56.4087 372.901 51.9124C372.901 45.3722 377.004 39.6496 382.747 37.6058C383.568 37.1971 383.978 36.3795 383.567 35.1533L380.696 29.4306C380.286 28.6131 379.465 28.2044 378.234 28.6131C365.107 35.562 362.235 44.9635 363.056 51.9124C363.056 64.5839 376.594 71.9416 388.49 61.3139C392.593 57.2263 395.464 52.3211 396.285 47.0073L397.105 44.5547C397.515 42.1022 397.515 42.1022 401.208 40.8759C404.9 39.6496 431.975 29.4306 439.359 26.5693C441 26.1606 441.41 24.9343 441 24.1168Z" fill="white"/>
</g>
<defs>
<clipPath id="clip0_493_2">
<rect width="441" height="112" fill="white"/>
</clipPath>
</defs>
</svg>
