<svg width="67" height="77" viewBox="0 0 67 77" fill="none" xmlns="http://www.w3.org/2000/svg">
<path d="M66.7105 19.0429C62.3685 19.0429 58.3619 17.6028 55.145 15.1741C51.4549 12.3881 48.8036 8.30314 47.8666 3.59452C47.6347 2.43029 47.5109 1.23004 47.4984 0H35.0946L35.0789 52.5218C35.0789 57.4906 31.8464 61.704 27.3665 63.1863C26.066 63.6157 24.662 63.8194 23.2 63.7395C21.3323 63.6376 19.5836 63.0735 18.0637 62.1631C14.828 60.2249 12.6342 56.7118 12.5747 52.6911C12.4823 46.4077 17.556 41.2854 23.8268 41.2854C25.0647 41.2854 26.254 41.4875 27.3665 41.8558V29.2451C26.1929 29.0712 24.9973 28.9803 23.7892 28.9803C16.9245 28.9803 10.5048 31.8368 5.91684 36.9842C2.44766 40.8733 0.366767 45.8357 0.0455464 51.0379C-0.37439 57.8729 2.12329 64.3709 6.96823 69.1642C7.67962 69.8677 8.42705 70.5211 9.20895 71.1244C13.3629 74.3241 18.4413 76.0587 23.7892 76.0587C24.9973 76.0587 26.1929 75.9693 27.3665 75.7954C32.3634 75.0542 36.9733 72.765 40.6102 69.1642C45.0806 64.7407 47.5501 58.8679 47.5767 52.6174L47.5141 24.8609C49.6467 26.5077 51.9782 27.8709 54.4806 28.9286C58.3729 30.5723 62.4986 31.4059 66.7465 31.4043V19.0413L66.7105 19.0429Z" fill="#E50914"/>
</svg>
