<svg width="93" height="93" viewBox="0 0 93 93" fill="none" xmlns="http://www.w3.org/2000/svg">
<path d="M15.191 0C12.1869 0 9.25083 0.891724 6.75285 2.56029C4.25486 4.22886 2.30783 6.60224 1.15717 9.3767C0.00844431 12.1512 -0.291378 15.206 0.294664 18.1517C0.880707 21.0995 2.32734 23.8058 4.4515 25.93C6.57566 28.0542 9.282 29.5007 12.2278 30.0868C15.1736 30.6728 18.2283 30.371 21.0028 29.2223C23.7792 28.0716 26.1507 26.1247 27.8192 23.6267C29.4878 21.1306 30.3795 18.1926 30.3795 15.1884C30.3756 11.1621 28.7732 7.30118 25.9248 4.45469C23.0783 1.60625 19.2174 0.00584096 15.191 0ZM15.191 7.63803C16.001 7.63803 16.7935 7.87752 17.4691 8.32727C18.1428 8.77703 18.6684 9.41758 18.9779 10.1652C19.2895 10.9148 19.3713 11.7384 19.2136 12.5347C19.0559 13.3291 18.6645 14.0592 18.092 14.6336C17.5177 15.206 16.7876 15.5973 15.9932 15.755C15.1969 15.9127 14.3733 15.831 13.6237 15.5194C12.8761 15.2099 12.2356 14.6842 11.7858 14.0105C11.3361 13.3349 11.0966 12.5425 11.0966 11.7325C11.0986 10.6461 11.5308 9.60644 12.2979 8.83933C13.065 8.07222 14.1046 7.63998 15.191 7.63803ZM15.191 28.2079C13.4388 28.2079 11.704 27.8536 10.0939 27.1643C8.48178 26.4751 7.02734 25.4686 5.81631 24.2011C6.599 22.3631 7.90546 20.7938 9.57208 19.6918C11.2387 18.5898 13.1915 18.0018 15.191 18.0018C17.1887 18.0018 19.1434 18.5898 20.81 19.6918C22.4766 20.7938 23.7812 22.3631 24.5639 24.2011C23.3529 25.4686 21.8985 26.4751 20.2883 27.1643C18.6762 27.8536 16.9433 28.2079 15.191 28.2079Z" fill="#E50914"/>
<path d="M77.3898 0C74.3856 0 71.4496 0.891724 68.9516 2.56029C66.4536 4.22886 64.5065 6.60224 63.3578 9.3767C62.2072 12.1512 61.9074 15.206 62.4934 18.1517C63.0795 21.0995 64.5261 23.8058 66.6503 25.93C68.7744 28.0542 71.4806 29.5007 74.4264 30.0868C77.3722 30.6728 80.4271 30.371 83.2015 29.2223C85.9779 28.0716 88.3494 26.1247 90.018 23.6267C91.6866 21.1306 92.5782 18.1926 92.5782 15.1884C92.5743 11.1621 90.9719 7.30118 88.1254 4.45469C85.277 1.60625 81.4162 0.00584096 77.3898 0ZM77.3898 7.63803C78.1997 7.63803 78.9921 7.87752 79.6677 8.32727C80.3414 8.77703 80.8671 9.41758 81.1786 10.1652C81.4882 10.9148 81.5699 11.7384 81.4122 12.5347C81.2545 13.3291 80.8632 14.0592 80.2908 14.6336C79.7164 15.206 78.9863 15.5973 78.1919 15.755C77.3956 15.9127 76.572 15.831 75.8244 15.5194C75.0748 15.2099 74.4342 14.6842 73.9845 14.0105C73.5347 13.3349 73.2952 12.5425 73.2952 11.7325C73.2972 10.6461 73.7294 9.60644 74.4965 8.83933C75.2636 8.07222 76.3034 7.63998 77.3898 7.63803ZM77.3898 28.2079C75.6375 28.2079 73.9028 27.8536 72.2926 27.1643C70.6825 26.4751 69.2261 25.4686 68.0151 24.2011C68.7978 22.3631 70.1042 20.7938 71.7708 19.6918C73.4374 18.5898 75.3922 18.0018 77.3898 18.0018C79.3874 18.0018 81.3422 18.5898 83.0088 19.6918C84.6754 20.7938 85.9798 22.3631 86.7625 24.2011C85.5515 25.4686 84.0971 26.4751 82.487 27.1643C80.8749 27.8536 79.1421 28.2079 77.3898 28.2079Z" fill="#E50914"/>
<path d="M87.7857 29.0836C86.3138 30.1875 84.6744 31.0501 82.9299 31.6361C82.7936 31.6848 82.667 31.7588 82.5599 31.8542C82.4509 31.9515 82.3633 32.0684 82.301 32.1988C82.2387 32.3292 82.2037 32.4714 82.1959 32.6154C82.1882 32.7595 82.2114 32.9055 82.2601 33.0418C85.4103 41.593 85.4103 50.9892 82.2601 59.5423C82.2114 59.6786 82.1882 59.8226 82.1959 59.9667C82.2037 60.1108 82.2387 60.2529 82.301 60.3833C82.3633 60.5138 82.4509 60.6306 82.5599 60.7279C82.667 60.8233 82.7936 60.8973 82.9299 60.946C84.6744 61.534 86.3138 62.3946 87.7857 63.4985C87.92 63.5978 88.0758 63.666 88.2394 63.6952C88.4049 63.7244 88.5723 63.7166 88.7339 63.6699C88.8935 63.6251 89.0434 63.5433 89.1661 63.4304C89.2907 63.3174 89.3861 63.1792 89.4484 63.0235C93.6227 52.2586 93.6227 40.3235 89.4484 29.5587C89.3861 29.4029 89.2907 29.2647 89.1661 29.1518C89.0434 29.0408 88.8935 28.957 88.7339 28.9123C88.5723 28.8655 88.4049 28.8577 88.2394 28.8869C88.0758 28.9161 87.92 28.9843 87.7857 29.0836Z" fill="#E50914"/>
<path d="M59.5397 82.264C50.9866 85.4142 41.5924 85.4142 33.0393 82.264C32.903 82.2153 32.759 82.192 32.6129 82.1998C32.4689 82.2075 32.3266 82.2426 32.1962 82.3049C32.0657 82.3672 31.949 82.4548 31.8517 82.5639C31.7563 82.6709 31.6823 82.7974 31.6355 82.9337C31.0475 84.6782 30.185 86.3176 29.0811 87.7896C28.9818 87.9239 28.9155 88.0797 28.8844 88.2432C28.8552 88.4087 28.863 88.5761 28.9097 88.7377C28.9564 88.8974 29.0383 89.0453 29.1493 89.1699C29.2622 89.2945 29.4004 89.39 29.5562 89.4523C40.321 93.6266 52.258 93.6266 63.0209 89.4523C63.1767 89.39 63.3168 89.2945 63.4278 89.1699C63.5407 89.0453 63.6226 88.8974 63.6693 88.7377C63.7141 88.5761 63.7218 88.4087 63.6926 88.2432C63.6634 88.0797 63.5953 87.9239 63.4979 87.7896C62.394 86.3176 61.5315 84.6782 60.9435 82.9337C60.8967 82.7974 60.8227 82.6709 60.7254 82.5639C60.63 82.4548 60.5132 82.3672 60.3808 82.3049C60.2503 82.2426 60.1102 82.2075 59.9641 82.1998C59.8201 82.192 59.676 82.2153 59.5397 82.264Z" fill="#E50914"/>
<path d="M63.0209 3.13075C52.258 -1.04358 40.321 -1.04358 29.5562 3.13075C29.4004 3.19306 29.2622 3.29044 29.1493 3.4131C29.0383 3.53771 28.9564 3.68567 28.9097 3.84727C28.863 4.00692 28.8552 4.17629 28.8844 4.33983C28.9155 4.50533 28.9818 4.6611 29.0811 4.79545C30.185 6.26737 31.0475 7.90675 31.6355 9.6493C31.6823 9.78754 31.7563 9.9121 31.8517 10.0211C31.949 10.1282 32.0657 10.2159 32.1962 10.2782C32.3266 10.3405 32.4689 10.3774 32.6129 10.3833C32.759 10.3911 32.903 10.3696 33.0393 10.321C41.5924 7.16879 50.9866 7.16879 59.5397 10.321C59.676 10.3696 59.8201 10.3911 59.9641 10.3833C60.1082 10.3774 60.2503 10.3405 60.3808 10.2782C60.5132 10.2159 60.63 10.1282 60.7254 10.0211C60.8227 9.9121 60.8967 9.78754 60.9435 9.6493C61.5315 7.90675 62.394 6.26737 63.4979 4.79545C63.5953 4.6611 63.6634 4.50533 63.6926 4.33983C63.7218 4.17629 63.7141 4.00692 63.6693 3.84727C63.6226 3.68567 63.5407 3.53771 63.4278 3.4131C63.3168 3.29044 63.1767 3.19306 63.0209 3.13075Z" fill="#E50914"/>
<path d="M15.1909 92.5783C18.1951 92.5783 21.1311 91.6866 23.6291 90.018C26.1271 88.3494 28.0742 85.978 29.2229 83.2016C30.3716 80.4271 30.6733 77.3723 30.0873 74.4265C29.5012 71.4808 28.0546 68.7744 25.9305 66.6503C23.8063 64.5261 21.1001 63.0795 18.1543 62.4935C15.2065 61.9074 12.1537 62.2073 9.37728 63.356C6.60283 64.5066 4.23132 66.4536 2.56081 68.9516C0.892245 71.4496 0.00254091 74.3857 0.00254091 77.3899C0.00643488 81.4162 1.60878 85.2771 4.45527 88.1236C7.30371 90.972 11.1626 92.5744 15.1909 92.5783ZM15.1909 69.8394C16.0008 69.8375 16.7934 70.0769 17.469 70.5267C18.1426 70.9764 18.6682 71.617 18.9778 72.3666C19.2893 73.1143 19.3712 73.9398 19.2135 74.7341C19.0557 75.5285 18.6643 76.2606 18.0919 76.833C17.5175 77.4054 16.7874 77.7967 15.993 77.9544C15.1967 78.1122 14.3732 78.0304 13.6236 77.7208C12.876 77.4093 12.2355 76.8836 11.7857 76.21C11.3359 75.5363 11.0965 74.742 11.0965 73.932C11.0984 72.8475 11.5306 71.8059 12.2978 71.0387C13.0649 70.2716 14.1045 69.8394 15.1909 69.8394ZM15.1909 80.2032C17.1885 80.2013 19.1433 80.7893 20.8099 81.8913C22.4765 82.9933 23.783 84.5625 24.5637 86.4005C23.3527 87.668 21.8983 88.6765 20.2882 89.3638C18.6761 90.053 16.9432 90.4074 15.1909 90.4074C13.4386 90.4074 11.7039 90.053 10.0937 89.3638C8.48163 88.6765 7.02719 87.668 5.81616 86.4005C6.59885 84.5625 7.90341 82.9933 9.57003 81.8913C11.2386 80.7893 13.1913 80.2013 15.1909 80.2032Z" fill="#E50914"/>
<path d="M77.3898 62.2014C74.3856 62.2014 71.4496 63.0912 68.9516 64.7597C66.4536 66.4303 64.5065 68.8016 63.3578 71.5761C62.2072 74.3525 61.9074 77.4054 62.4934 80.3531C63.0795 83.2989 64.5261 86.0052 66.6503 88.1294C68.7744 90.2535 71.4806 91.7001 74.4264 92.2862C77.3722 92.8722 80.4271 92.5724 83.2015 91.4218C85.9779 90.273 88.3494 88.326 90.018 85.828C91.6866 83.3301 92.5782 80.394 92.5782 77.3898C92.5743 73.3615 90.9719 69.5026 88.1254 66.6541C85.277 63.8077 81.4162 62.2052 77.3898 62.2014ZM77.3898 69.8394C78.1997 69.8374 78.9921 70.0769 79.6677 70.5267C80.3414 70.9764 80.8671 71.617 81.1786 72.3666C81.4882 73.1142 81.5699 73.9398 81.4122 74.7341C81.2545 75.5285 80.8632 76.2606 80.2908 76.833C79.7164 77.4054 78.9863 77.7967 78.1919 77.9544C77.3956 78.1121 76.572 78.0304 75.8244 77.7208C75.0748 77.4093 74.4342 76.8836 73.9845 76.2099C73.5347 75.5363 73.2952 74.7419 73.2952 73.932C73.2972 72.8475 73.7294 71.8058 74.4965 71.0387C75.2636 70.2716 76.3034 69.8394 77.3898 69.8394ZM77.3898 90.4073C75.6375 90.4073 73.9028 90.053 72.2926 89.3638C70.6825 88.6765 69.2261 87.668 68.0151 86.4005C68.7978 84.5625 70.1042 82.9952 71.7708 81.8932C73.4374 80.7892 75.3922 80.2032 77.3898 80.2032C79.3874 80.2032 81.3422 80.7892 83.0088 81.8932C84.6754 82.9952 85.9798 84.5625 86.7625 86.4005C85.5515 87.668 84.0971 88.6765 82.487 89.3638C80.8749 90.053 79.1421 90.4073 77.3898 90.4073Z" fill="#E50914"/>
<path d="M4.79539 63.4985C6.26731 62.3946 7.90663 61.534 9.64918 60.946C9.78742 60.8973 9.9121 60.8233 10.0211 60.7279C10.1282 60.6306 10.2158 60.5138 10.2781 60.3833C10.3404 60.2529 10.3774 60.1108 10.3832 59.9667C10.391 59.8226 10.3696 59.6786 10.321 59.5423C7.16879 50.9892 7.16879 41.593 10.321 33.0418C10.3696 32.9055 10.391 32.7595 10.3832 32.6154C10.3774 32.4714 10.3404 32.3292 10.2781 32.1988C10.2158 32.0684 10.1282 31.9515 10.0211 31.8542C9.9121 31.7588 9.78742 31.6848 9.64918 31.6361C7.90663 31.0501 6.26731 30.1875 4.79539 29.0836C4.66104 28.9843 4.50527 28.9161 4.33978 28.8869C4.17623 28.8577 4.00686 28.8655 3.84721 28.9123C3.68561 28.957 3.53759 29.0408 3.41298 29.1518C3.29032 29.2647 3.19306 29.4029 3.13075 29.5587C-1.04358 40.3235 -1.04358 52.2586 3.13075 63.0235C3.19306 63.1792 3.29032 63.3174 3.41298 63.4304C3.53759 63.5433 3.68561 63.6251 3.84721 63.6699C4.00686 63.7166 4.17623 63.7244 4.33978 63.6952C4.50527 63.666 4.66104 63.5978 4.79539 63.4985Z" fill="#E50914"/>
<path d="M46.7226 23.4068C33.8646 23.4068 23.3954 33.8762 23.3954 46.7475C23.3954 59.6188 33.8646 70.0903 46.7226 70.0903C59.6028 70.0903 70.2508 59.6188 70.2508 46.7475C70.2508 33.8762 59.6028 23.4068 46.7226 23.4068ZM49.4015 59.246C49.3791 59.2549 49.3567 59.2504 49.3344 59.2593V62.3087C49.3344 63.7418 48.1735 64.9026 46.7226 64.9026C45.2939 64.9026 44.133 63.7418 44.133 62.3087V59.2415C42.4365 58.6633 40.7846 57.5696 39.4006 55.9021C38.4631 54.8038 38.6194 53.1674 39.7132 52.25C40.807 51.328 42.4589 51.4687 43.3741 52.5692C44.7358 54.201 46.2985 54.8507 47.6155 54.373C48.6424 54.0024 49.3344 53.0223 49.3344 51.9352C49.3344 50.5043 48.1512 49.3414 46.7226 49.3414C42.4366 49.3414 38.9543 45.8523 38.9543 41.5619C38.9543 38.4278 40.8071 35.6151 43.709 34.3941C43.843 34.3338 43.9991 34.336 44.133 34.2847V31.1863C44.133 29.7531 45.2939 28.5946 46.7226 28.5946C48.1735 28.5946 49.3344 29.7531 49.3344 31.1863V34.2892C50.6738 34.7423 51.9684 35.4656 53.1515 36.5973C54.1784 37.5929 54.2007 39.2337 53.1962 40.265C52.214 41.2918 50.5621 41.3163 49.5352 40.3207C48.2628 39.0974 46.8789 38.6755 45.7181 39.171C44.7583 39.5773 44.133 40.515 44.133 41.5619C44.133 42.9928 45.2939 44.1558 46.7226 44.1558C51.0308 44.1558 54.5132 47.6448 54.5132 51.9352C54.5132 55.1943 52.4597 58.1321 49.4015 59.246Z" fill="#E50914"/>
</svg>
