<svg width="663" height="162" viewBox="0 0 663 162" fill="none" xmlns="http://www.w3.org/2000/svg">
<path d="M67.9981 159.362H35.0074V34.3603H0V2.27066H67.9981V159.362Z" fill="white"/>
<path d="M86.4466 135.574L136.932 86.2038C153.543 70.0262 161.395 63.0929 161.395 50.7457C161.395 40.1956 151.972 32.3439 140.076 32.3439C124.591 32.3439 116.508 43.7895 117.409 60.6201H83.9738C82.4023 24.7114 106.64 0 140.757 0C172.621 0 195.513 20.875 195.513 49.8215C195.513 71.3666 181.149 88.1972 160.506 107.275L140.757 127.024H195.964V159.338H86.4466V135.574Z" fill="white"/>
<path d="M269.59 34.135H207.652V2.27066H316.493V24.0354L279.238 62.3995C301.685 64.6472 317.839 83.2746 317.839 107.512C317.839 139.151 293.572 161.598 259.941 161.598C228.741 161.598 205.179 141.375 203.162 112.897H236.373C238.17 121.65 246.253 129.277 259.941 129.277C273.852 129.277 283.727 119.853 283.727 106.611C283.727 87.7638 262.182 81.2522 239.516 87.7638V66.444L269.59 34.135Z" fill="white"/>
<path d="M428.933 126.706V159.362H416.575V129.421C416.575 121.448 412.201 116.537 405.02 116.537C399.011 116.537 393.111 120.356 393.111 129.421V159.35H380.881V129.421C380.881 121.332 376.402 116.537 369.191 116.537C363.291 116.537 357.284 120.246 357.284 129.421V159.35H345.151V105.952H357.284V113.463C361.218 106.911 367.99 104.837 373.56 104.837C381.312 104.837 386.778 107.783 390.055 114.231C393.111 108.454 399.774 104.837 407.094 104.837C419.977 104.86 428.933 113.243 428.933 126.706Z" fill="white"/>
<path d="M455.689 88.9136C455.679 90.9958 454.847 92.9897 453.374 94.4623C451.903 95.9346 449.909 96.7666 447.826 96.777C445.832 96.6684 443.952 95.7992 442.579 94.3484C441.206 92.8975 440.438 90.9753 440.438 88.9771C440.438 86.9789 441.206 85.0567 442.579 83.6059C443.952 82.155 445.832 81.2859 447.826 81.1772C449.882 81.2004 451.851 82.0189 453.317 83.4613C454.782 84.9037 455.632 86.8578 455.689 88.9136ZM453.835 105.952V159.362H441.702V105.952H453.835Z" fill="white"/>
<path d="M479.5 159.361H467.367V82.9047H479.5V159.361Z" fill="white"/>
<path d="M542.846 128.89V159.361H530.615V130.421C530.615 122.008 525.478 116.554 517.724 116.554C509.751 116.554 504.512 122.014 504.512 130.421V159.361H492.378V82.9047H504.512V114.364C507.897 108.356 513.577 104.86 520.688 104.86C534.329 104.86 542.846 114.035 542.846 128.89Z" fill="white"/>
<path d="M609.587 105.952V159.362H597.349V149.967C593.53 156.634 586.948 160.453 578.456 160.453C564.254 160.453 552.895 148.002 552.895 132.605C552.895 117.207 564.254 104.872 578.456 104.872C586.977 104.872 593.53 108.691 597.349 115.358V105.952H609.587ZM597.349 132.605C597.349 123.43 590.362 116.427 581.078 116.427C576.778 116.427 572.651 118.136 569.61 121.177C566.569 124.219 564.859 128.344 564.859 132.645C564.859 136.947 566.569 141.072 569.61 144.113C572.651 147.155 576.778 148.863 581.078 148.863C590.362 148.875 597.349 141.89 597.349 132.605Z" fill="white"/>
<path d="M618.976 142.213H630.663C631.101 146.91 635.69 149.967 641.699 149.967C647.592 149.967 651.089 147.459 651.089 143.744C651.089 132.275 620.177 141.56 620.177 121.24C620.177 111.961 627.936 104.86 640.398 104.86C651.427 104.86 661.043 110.759 662.245 121.569H649.994C649.453 117.964 645.737 115.017 640.174 115.017C635.366 115.017 631.981 117.092 631.981 120.477C631.981 131.293 663 121.35 663 143.634C663 153.248 654.154 160.453 642.357 160.453C629.242 160.453 620.067 153.688 618.976 142.213Z" fill="white"/>
</svg>
