<svg width="129" height="166" viewBox="0 0 129 166" fill="none" xmlns="http://www.w3.org/2000/svg">
<path d="M30 15.5V0L64.5 28L98 0V43L64.5 71.5L41 53V67L64.5 86L98 57.5V72.5L64.5 101.5L30 72.5V29L64.5 57.5L87 38V24L64.5 43L30 15.5Z" fill="white"/>
<path d="M5.99943 118.67H13.094L18.522 152H13.2844L12.3322 145.382V145.477H6.38034L5.42805 152H0.571374L5.99943 118.67ZM11.7132 140.953L9.38005 124.479H9.28483L6.99933 140.953H11.7132ZM21.0631 118.67H28.8242C31.5224 118.67 33.4905 119.305 34.7284 120.574C35.9664 121.812 36.5854 123.733 36.5854 126.336V128.383C36.5854 131.843 35.4427 134.033 33.1572 134.954V135.049C34.4269 135.43 35.3157 136.208 35.8236 137.382C36.3632 138.557 36.633 140.128 36.633 142.096V147.953C36.633 148.905 36.6648 149.683 36.7283 150.286C36.7917 150.857 36.9505 151.429 37.2044 152H31.8716C31.6811 151.46 31.5541 150.952 31.4907 150.476C31.4272 150 31.3954 149.143 31.3954 147.905V141.81C31.3954 140.287 31.1415 139.223 30.6336 138.62C30.1575 138.017 29.3163 137.716 28.11 137.716H26.3007V152H21.0631V118.67ZM28.2053 132.954C29.2528 132.954 30.0305 132.684 30.5384 132.145C31.078 131.605 31.3478 130.7 31.3478 129.431V126.86C31.3478 125.653 31.1256 124.78 30.6812 124.241C30.2686 123.701 29.602 123.431 28.6814 123.431H26.3007V132.954H28.2053ZM40.267 118.67H47.7425L51.0755 142.525H51.1707L54.5037 118.67H61.9792V152H57.0273V126.764H56.932L53.1229 152H48.7424L44.9332 126.764H44.838V152H40.267V118.67ZM70.6967 137.811L64.364 118.67H69.9349L73.506 130.907H73.6012L77.1723 118.67H82.267L75.9343 137.811V152H70.6967V137.811ZM92.2523 118.67H100.156C102.854 118.67 104.823 119.305 106.061 120.574C107.299 121.812 107.917 123.733 107.917 126.336V127.669C107.917 129.383 107.632 130.78 107.06 131.859C106.521 132.938 105.68 133.716 104.537 134.192V134.287C107.14 135.176 108.441 137.493 108.441 141.239V144.096C108.441 146.667 107.759 148.635 106.394 150C105.061 151.333 103.093 152 100.49 152H92.2523V118.67ZM99.5373 132.24C100.585 132.24 101.363 131.97 101.87 131.431C102.41 130.891 102.68 129.986 102.68 128.717V126.86C102.68 125.653 102.458 124.78 102.013 124.241C101.601 123.701 100.934 123.431 100.013 123.431H97.4899V132.24H99.5373ZM100.49 147.239C101.41 147.239 102.093 147 102.537 146.524C102.981 146.016 103.204 145.159 103.204 143.953V141.049C103.204 139.525 102.934 138.477 102.394 137.906C101.886 137.303 101.029 137.001 99.823 137.001H97.4899V147.239H100.49ZM111.503 118.67H119.264C121.962 118.67 123.93 119.305 125.168 120.574C126.406 121.812 127.025 123.733 127.025 126.336V128.383C127.025 131.843 125.882 134.033 123.597 134.954V135.049C124.867 135.43 125.755 136.208 126.263 137.382C126.803 138.557 127.073 140.128 127.073 142.096V147.953C127.073 148.905 127.104 149.683 127.168 150.286C127.231 150.857 127.39 151.429 127.644 152H122.311C122.121 151.46 121.994 150.952 121.93 150.476C121.867 150 121.835 149.143 121.835 147.905V141.81C121.835 140.287 121.581 139.223 121.073 138.62C120.597 138.017 119.756 137.716 118.55 137.716H116.74V152H111.503V118.67ZM118.645 132.954C119.692 132.954 120.47 132.684 120.978 132.145C121.518 131.605 121.787 130.7 121.787 129.431V126.86C121.787 125.653 121.565 124.78 121.121 124.241C120.708 123.701 120.042 123.431 119.121 123.431H116.74V132.954H118.645Z" fill="white"/>
</svg>
