<svg width="202" height="21" viewBox="0 0 202 21" fill="none" xmlns="http://www.w3.org/2000/svg">
<g clip-path="url(#clip0_1_280)">
<path fill-rule="evenodd" clip-rule="evenodd" d="M12.4921 0H5.9966C2.69798 0 0 2.67116 0 5.93697C0 9.20279 2.69798 11.8739 5.9966 11.8739H6.15644H7.67254H7.83239C9.38239 11.8739 10.6563 13.14 10.6563 14.6698C10.6563 16.2044 9.37755 17.4656 7.83239 17.4656H1.33688V20.602H7.83239C11.131 20.602 13.829 17.9308 13.829 14.665C13.829 11.3992 11.131 8.72802 7.83239 8.72802H7.67254H6.15644H5.9966C4.44659 8.72802 3.17267 7.46198 3.17267 5.93218C3.17267 4.39758 4.45143 3.13633 5.9966 3.13633H12.4921V0ZM183.071 0C188.389 0 192.792 3.87486 193.557 8.93423H201.995V12.0706H193.557C192.792 17.1251 188.389 21.0048 183.071 21.0048C177.214 21.0048 172.463 16.3051 172.463 10.5024C172.467 4.6997 177.214 0 183.071 0ZM190.341 8.93423H186.49V12.0706H190.341C189.614 15.3843 186.636 17.8637 183.075 17.8637C178.968 17.8637 175.64 14.5691 175.64 10.5024C175.64 6.43572 178.968 3.14113 183.075 3.14113C186.636 3.13633 189.614 5.62046 190.341 8.93423ZM160.876 3.13633V0H154.705H151.538H145.362V3.13633H151.533V21H154.701V3.13633H160.876ZM130.293 3.13633V0H122.257H120.673H119.089H116.628V3.13633H119.089V21H120.673H122.257H130.293V17.8637H122.257V12.0706H130.293V8.93423H122.257V3.13633H130.293ZM103.967 21V17.8637H95.931V3.13633V0H92.7632H90.3025V3.13633H92.7632V21H94.3471H95.931H103.967ZM66.8635 0C72.7196 0 77.4714 4.6997 77.4714 10.5024C77.4714 16.3003 72.7245 21.0048 66.8635 21.0048C61.0074 21.0048 56.2556 16.3051 56.2556 10.5024C56.2605 4.6997 61.0074 0 66.8635 0ZM66.8635 3.13633C70.971 3.13633 74.2987 6.43092 74.2987 10.4976C74.2987 14.5643 70.971 17.8589 66.8635 17.8589C62.756 17.8589 59.4283 14.5643 59.4283 10.4976C59.4283 6.43572 62.756 3.13633 66.8635 3.13633ZM27.4933 0H30.0411H33.2089H38.8083C42.1069 0 44.8049 2.91573 44.8049 6.47408C44.8049 13.164 38.1544 13.6052 33.2089 12.6652V21H30.0411V3.42407H27.4933V0ZM33.2138 9.23156C36.12 10.0564 41.6419 10.6079 41.6419 6.47408C41.6419 4.80041 40.3632 3.42407 38.818 3.42407H33.2138V9.23156Z" fill="white"/>
</g>
<defs>
<clipPath id="clip0_1_280">
<rect width="202" height="21" fill="white"/>
</clipPath>
</defs>
</svg>
