<svg width="358" height="409" viewBox="0 0 358 409" fill="none" xmlns="http://www.w3.org/2000/svg">
<path d="M229.809 347.649V75.7686L208.793 100.595H128.915L214.108 0H291.086V347.649H229.809ZM145.583 347.649L73.4359 260.515L61.4381 274.702V347.649H0.161041V0H61.4381V180.313L120.139 110.993H200.016L199.855 111.235L113.375 213.2L224.656 347.649H145.583Z" fill="white"/>
<path fill-rule="evenodd" clip-rule="evenodd" d="M358 324.596C358 337.573 347.532 348.052 334.568 348.052C321.604 348.052 311.136 337.573 311.136 324.596C311.136 311.619 321.604 301.14 334.568 301.14C347.452 301.14 357.919 311.619 358 324.596Z" fill="white"/>
<path d="M95.3378 407.055C93.4858 405.846 92.0364 403.992 91.3923 401.816C90.9091 399.478 90.6676 397.06 90.7481 394.642V373.926H94.2105V394.481C94.2105 396.012 94.2105 397.544 94.3716 398.994C94.4521 400.203 94.8547 401.332 95.5794 402.38C96.3041 403.428 97.2704 404.234 98.3977 404.717C99.6055 405.282 100.894 405.604 102.263 405.604C103.39 405.604 104.437 405.362 105.484 404.879C106.53 404.395 107.416 403.75 108.141 402.863C108.865 401.977 109.429 400.929 109.671 399.8C109.912 398.027 110.073 396.254 109.993 394.481V373.846H113.375V394.4C113.455 396.899 113.133 399.397 112.489 401.816C111.845 403.75 110.637 405.523 108.946 406.733C107.094 408.183 104.839 408.909 102.504 408.828C99.9276 409.151 97.4314 408.425 95.3378 407.055ZM172.558 403.831C169.176 400.526 167.244 396.012 167.324 391.256C167.324 384.808 170.626 378.843 176.182 375.619C178.839 374.007 181.979 373.12 185.12 373.12C189.951 372.959 194.621 374.894 198.003 378.279C205.009 385.292 205.009 396.657 198.003 403.669C194.621 407.055 190.032 408.989 185.281 408.909C180.53 409.07 175.94 407.216 172.558 403.831ZM178.114 378.44C175.94 379.73 174.088 381.503 172.8 383.76C171.511 386.017 170.787 388.596 170.867 391.256C170.867 399.156 177.229 405.604 185.12 405.685C185.2 405.685 185.2 405.685 185.281 405.685C187.857 405.685 190.354 405.04 192.608 403.75C194.782 402.541 196.634 400.687 197.842 398.511C199.13 396.254 199.775 393.674 199.775 391.095C199.855 388.516 199.13 386.017 197.842 383.76C196.634 381.503 194.782 379.73 192.528 378.521C190.354 377.15 187.857 376.425 185.281 376.425C182.785 376.425 180.288 377.15 178.114 378.44ZM19.1642 408.909C13.4471 409.151 7.97166 406.732 4.26766 402.46C1.4494 399.317 0 395.206 0 390.934C0 384.486 3.54296 378.521 9.17948 375.377C12.1588 373.765 15.4602 373.04 18.8421 373.04C21.6604 373.04 24.3981 373.604 26.9748 374.571C29.7126 375.861 32.2087 377.554 34.3023 379.649L31.6451 382.148C29.8736 380.375 27.78 378.924 25.4449 377.876C23.3513 376.909 21.0967 376.425 18.8421 376.425C16.1849 376.425 13.5277 377.07 11.2731 378.44C8.93792 379.649 7.0054 381.503 5.63653 383.76C2.89879 388.193 2.97931 393.836 5.71705 398.269C7.08593 400.607 9.01844 402.46 11.4341 403.75C13.9303 405.12 16.668 405.765 19.4863 405.765C22.7072 405.846 25.928 404.798 28.4242 402.783C30.7593 400.848 32.2893 398.108 32.6919 395.045H21.7409V391.74H36.3959C36.6374 396.415 34.9465 400.929 31.7256 404.314C28.5047 407.458 24.076 409.151 19.5668 408.989L19.1642 408.909ZM287.785 408.103V377.231H282.471L284.484 373.926H291.167V408.103H287.785ZM260.81 408.103L245.833 392.143V408.103H242.29V373.926H245.833V386.742L259.441 373.926H264.031L247.605 389.241L265.319 408.103H260.81ZM131.331 408.103V373.926H138.095C140.752 373.846 143.329 374.007 145.986 374.491C147.838 374.894 149.529 375.941 150.737 377.392C152.025 379.004 152.669 381.02 152.589 383.035C152.669 385.05 152.025 387.065 150.817 388.677C149.529 390.208 147.758 391.256 145.825 391.74C142.926 392.224 140.027 392.385 137.129 392.304H134.713V408.183L131.331 408.103ZM134.713 388.838L140.43 388.919C142.202 388.999 143.892 388.758 145.583 388.355C146.63 387.952 147.516 387.226 148.08 386.259C148.724 385.292 149.046 384.244 148.965 383.115C148.965 381.987 148.643 380.858 148.08 379.972C147.516 379.085 146.63 378.36 145.664 377.957C144.054 377.473 142.363 377.231 140.672 377.312H134.632L134.713 388.838ZM70.1345 408.103L57.8952 392.224H55.9627V408.103H52.5807V373.926H59.3446C61.9213 373.846 64.498 374.007 67.0747 374.41C71.1008 375.297 73.9995 378.843 73.919 383.035C73.919 384.727 73.5164 386.501 72.6307 387.952C71.745 389.402 70.3761 390.45 68.8462 391.095C66.6721 391.901 64.4175 392.224 62.1629 392.143L74.4022 408.022L70.1345 408.103ZM55.9627 388.919L61.8407 388.999C63.5317 389.08 65.3032 388.838 66.9136 388.355C69.0072 387.468 70.4566 385.372 70.3761 383.115C70.3761 381.987 70.054 380.939 69.4903 380.052C68.9267 379.166 68.0409 378.44 67.0747 378.037C65.4642 377.554 63.7733 377.312 62.0823 377.392H56.0432V388.919H55.9627Z" fill="white"/>
</svg>
