<svg width="238" height="72" viewBox="0 0 238 72" fill="none" xmlns="http://www.w3.org/2000/svg">
<path d="M45.2908 2.10536L37.8624 15.0849C37.859 15.0908 37.8541 15.0957 37.8482 15.0992C37.8423 15.1026 37.8357 15.1044 37.8289 15.1044C37.8221 15.1044 37.8154 15.1026 37.8095 15.0992C37.8036 15.0957 37.7988 15.0908 37.7954 15.0849L30.3669 2.10536C30.3635 2.09943 30.3617 2.09271 30.3617 2.08586C30.3617 2.07902 30.3635 2.07229 30.3669 2.06636C30.3703 2.06044 30.3752 2.05551 30.3811 2.05209C30.3869 2.04867 30.3936 2.04688 30.4004 2.04688H45.2574C45.2641 2.04688 45.2708 2.04867 45.2767 2.05209C45.2826 2.05551 45.2874 2.06044 45.2908 2.06636C45.2942 2.07229 45.296 2.07902 45.296 2.08586C45.296 2.09271 45.2942 2.09943 45.2908 2.10536Z" fill="white"/>
<path d="M183.964 2.04688H198.775C198.784 2.04676 198.793 2.04905 198.801 2.05351C198.808 2.05797 198.815 2.06444 198.819 2.07225C198.824 2.08007 198.826 2.08894 198.826 2.09796C198.826 2.10698 198.823 2.11582 198.819 2.12356L191.414 15.0667C191.409 15.0745 191.403 15.081 191.395 15.0856C191.387 15.0901 191.379 15.0925 191.37 15.0925C191.361 15.0925 191.352 15.0901 191.344 15.0856C191.337 15.081 191.33 15.0745 191.326 15.0667L183.921 2.12356C183.916 2.11582 183.914 2.10698 183.914 2.09796C183.913 2.08894 183.916 2.08007 183.92 2.07225C183.925 2.06444 183.931 2.05797 183.939 2.05351C183.947 2.04905 183.956 2.04676 183.964 2.04688Z" fill="white"/>
<path d="M173.692 26.0135L157.819 5.89771C157.776 5.84313 157.79 5.81583 157.859 5.81583H183.948C183.981 5.81578 184.014 5.82477 184.044 5.84189C184.073 5.85901 184.097 5.88365 184.114 5.91331L191.314 18.4977C191.35 18.561 191.387 18.561 191.423 18.4977L198.644 5.87432C198.666 5.83533 198.699 5.81583 198.743 5.81583H224.855C224.94 5.81583 224.957 5.85049 224.905 5.9198L209.759 26.0551C209.741 26.0798 209.731 26.1097 209.73 26.1407C209.729 26.1717 209.738 26.2022 209.756 26.228L224.931 48.8339C224.937 48.8435 224.941 48.8548 224.941 48.8663C224.942 48.8779 224.939 48.8894 224.934 48.8996C224.929 48.9098 224.921 48.9182 224.911 48.9241C224.901 48.9299 224.89 48.9329 224.879 48.9327C218.553 48.9344 212.216 48.9288 205.867 48.9158C201.722 48.908 198.175 47.1158 195.796 43.6834C195.485 43.2329 195.14 42.6849 194.762 42.0394C193.63 40.1072 192.514 38.1638 191.412 36.2092C191.408 36.2018 191.402 36.1956 191.395 36.1913C191.388 36.187 191.38 36.1848 191.371 36.1848C191.363 36.1848 191.354 36.187 191.347 36.1913C191.339 36.1956 191.333 36.2018 191.329 36.2092L184.082 48.8729C184.059 48.9119 184.026 48.9314 183.981 48.9314H157.857C157.846 48.9315 157.835 48.9286 157.825 48.9229C157.816 48.9173 157.808 48.909 157.803 48.8992C157.798 48.8893 157.796 48.8783 157.797 48.8672C157.797 48.8561 157.801 48.8455 157.808 48.8365L173.7 26.2644C173.726 26.2277 173.739 26.1834 173.738 26.1382C173.737 26.0929 173.721 26.0491 173.692 26.0135Z" fill="white"/>
<path d="M4.38265 16.1246C5.16697 10.9507 9.23409 6.82435 14.347 5.97179C14.9411 5.87302 15.7967 5.82276 16.9137 5.82103C21.4264 5.81323 25.9289 5.81237 30.421 5.81843C30.4519 5.81837 30.4822 5.82652 30.5089 5.84204C30.5356 5.85756 30.5577 5.87991 30.573 5.90681L37.7683 18.4847C37.7744 18.4955 37.7832 18.5045 37.7938 18.5108C37.8045 18.517 37.8166 18.5203 37.8289 18.5203C37.8412 18.5203 37.8533 18.517 37.8639 18.5108C37.8745 18.5045 37.8833 18.4955 37.8894 18.4847L45.1015 5.87562C45.1238 5.83576 45.1578 5.81583 45.2033 5.81583H71.3485C71.3914 5.81583 71.4129 5.83749 71.4129 5.88081V48.8664C71.4129 48.8836 71.4061 48.9001 71.394 48.9123C71.382 48.9245 71.3656 48.9314 71.3485 48.9314H51.5474C51.5132 48.9314 51.4804 48.9177 51.4563 48.8933C51.4321 48.8689 51.4186 48.8359 51.4186 48.8014V36.0753C51.4188 36.0674 51.4163 36.0596 51.4115 36.0533C51.4068 36.047 51.4 36.0424 51.3924 36.0405C51.3848 36.0385 51.3767 36.0392 51.3695 36.0425C51.3624 36.0458 51.3565 36.0514 51.3529 36.0584L44.5683 48.8703C44.5469 48.911 44.5134 48.9314 44.4679 48.9314H31.204C31.1499 48.9314 31.1104 48.9075 31.0855 48.8599L24.2997 36.0415C24.2969 36.0351 24.2919 36.0298 24.2856 36.0267C24.2793 36.0236 24.2722 36.0228 24.2654 36.0245C24.2586 36.0262 24.2526 36.0303 24.2485 36.0361C24.2444 36.0418 24.2425 36.0488 24.243 36.0558L24.2443 48.8664C24.2443 48.9097 24.2229 48.9314 24.1799 48.9314H4.31568C4.29826 48.9314 4.28156 48.9244 4.26924 48.9119C4.25692 48.8995 4.25 48.8827 4.25 48.8651C4.24914 38.8241 4.24957 28.774 4.25129 18.7148C4.25129 17.5676 4.29508 16.7042 4.38265 16.1246Z" fill="white"/>
<path d="M81.287 48.3972C82.4448 46.3009 83.6336 44.2228 84.8068 42.1368C90.1472 32.6486 95.4919 23.1625 100.841 13.6786C101.285 12.8902 102.016 11.7444 103.035 10.2411C103.11 10.1311 103.286 9.91879 103.562 9.60428C105.256 7.68211 107.801 6.42276 110.262 5.98479C110.876 5.87562 111.731 5.8206 112.826 5.81973C116.981 5.81627 121.137 5.81497 125.291 5.81583C125.332 5.81583 125.361 5.83403 125.38 5.87042L148.178 48.8625C148.203 48.9084 148.19 48.9314 148.138 48.9314H121.988C121.942 48.9314 121.908 48.911 121.885 48.8703L114.63 36.191C114.61 36.1546 114.589 36.155 114.567 36.1923L107.342 48.8235C107.323 48.8563 107.296 48.8836 107.264 48.9025C107.231 48.9215 107.194 48.9314 107.157 48.9314H81.072C81.0674 48.9314 81.0629 48.9305 81.0588 48.9286C81.0547 48.9267 81.051 48.9239 81.0481 48.9205C81.0451 48.917 81.043 48.9129 81.0418 48.9085C81.0405 48.9041 81.0403 48.8995 81.0411 48.895C81.0771 48.6818 81.2072 48.5415 81.287 48.3972Z" fill="white"/>
<path d="M236.098 9.95258C236.098 11.0528 235.665 12.108 234.894 12.886C234.123 13.664 233.077 14.101 231.987 14.101C230.897 14.101 229.851 13.664 229.08 12.886C228.309 12.108 227.876 11.0528 227.876 9.95258C227.876 8.85235 228.309 7.79717 229.08 7.01919C229.851 6.2412 230.897 5.80414 231.987 5.80414C233.077 5.80414 234.123 6.2412 234.894 7.01919C235.665 7.79717 236.098 8.85235 236.098 9.95258ZM232.072 13.2149C232.473 13.2043 232.868 13.1091 233.235 12.9347C233.601 12.7604 233.931 12.5104 234.207 12.1988C234.483 11.8873 234.699 11.5205 234.842 11.1192C234.985 10.7179 235.053 10.2901 235.042 9.86015C235.031 9.43021 234.941 9.00656 234.777 8.6134C234.613 8.22024 234.379 7.86527 234.087 7.56875C233.796 7.27223 233.452 7.03997 233.078 6.88523C232.703 6.7305 232.303 6.65631 231.902 6.66691C231.501 6.67752 231.106 6.7727 230.739 6.94703C230.373 7.12135 230.042 7.37141 229.767 7.68293C229.491 7.99444 229.275 8.36131 229.132 8.76258C228.989 9.16385 228.921 9.59168 228.932 10.0216C228.943 10.4516 229.033 10.8752 229.197 11.2684C229.361 11.6615 229.595 12.0165 229.887 12.313C230.178 12.6095 230.521 12.8418 230.896 12.9965C231.271 13.1513 231.671 13.2255 232.072 13.2149Z" fill="white"/>
<path d="M233.003 10.0825C233.702 10.4711 233.671 11.3224 233.898 12.0099C233.915 12.0628 233.896 12.0888 233.841 12.0879L232.943 12.0827C232.921 12.0827 232.9 12.0755 232.883 12.062C232.866 12.0486 232.854 12.0298 232.848 12.0086C232.778 11.7266 232.689 11.5044 232.632 11.1885C232.523 10.5656 232.12 10.3342 231.422 10.4945C231.385 10.5023 231.367 10.5253 231.367 10.5634V12.006C231.367 12.0597 231.34 12.0866 231.286 12.0866H230.53C230.466 12.0866 230.434 12.0541 230.434 11.9891V8.02912C230.434 7.9884 230.453 7.9637 230.493 7.95504C231.252 7.79908 232.006 7.77655 232.754 7.88746C233.89 8.05511 234.169 9.5393 233.008 10.0046C232.952 10.0271 232.951 10.0531 233.003 10.0825ZM231.398 8.66204L231.401 9.63937C231.401 9.66763 231.412 9.69474 231.432 9.71473C231.452 9.73471 231.479 9.74594 231.507 9.74594L231.919 9.74464C232.132 9.7442 232.337 9.68619 232.488 9.58334C232.639 9.4805 232.724 9.34125 232.724 9.19619V9.10002C232.723 9.02814 232.702 8.95699 232.662 8.89065C232.621 8.82431 232.562 8.76407 232.487 8.71338C232.412 8.66269 232.323 8.62254 232.225 8.59522C232.127 8.5679 232.022 8.55395 231.916 8.55417L231.504 8.55547C231.476 8.55547 231.449 8.5667 231.429 8.58669C231.409 8.60667 231.398 8.63378 231.398 8.66204Z" fill="white"/>
<path d="M107.153 52.5989L114.561 39.648C114.565 39.6413 114.57 39.6357 114.577 39.6319C114.584 39.628 114.592 39.626 114.599 39.626C114.607 39.626 114.615 39.628 114.622 39.6319C114.628 39.6357 114.634 39.6413 114.638 39.648L122.046 52.5989C122.05 52.6059 122.052 52.6139 122.052 52.6221C122.052 52.6302 122.05 52.6383 122.046 52.6453C122.042 52.6524 122.036 52.6582 122.029 52.6621C122.022 52.6661 122.014 52.668 122.006 52.6678H107.193C107.185 52.668 107.177 52.6661 107.17 52.6621C107.163 52.6582 107.157 52.6524 107.153 52.6453C107.148 52.6383 107.146 52.6302 107.146 52.6221C107.146 52.6139 107.149 52.6059 107.153 52.5989Z" fill="white"/>
<path d="M57.3402 60.2629L54.7323 60.2746C54.7191 60.2746 54.7061 60.272 54.694 60.2669C54.6819 60.2618 54.6709 60.2543 54.6617 60.2448C54.6525 60.2354 54.6452 60.2242 54.6403 60.2119C54.6354 60.1996 54.6329 60.1865 54.6331 60.1732L54.6473 58.6799C54.6476 58.6536 54.6582 58.6285 54.6768 58.61C54.6953 58.5915 54.7204 58.5812 54.7464 58.5812H62.0758C62.0889 58.5812 62.1019 58.5838 62.114 58.5889C62.1261 58.594 62.1371 58.6015 62.1463 58.6109C62.1556 58.6204 62.1628 58.6316 62.1678 58.6439C62.1727 58.6561 62.1751 58.6693 62.1749 58.6825L62.1646 60.1719C62.1643 60.1982 62.1537 60.2234 62.1351 60.2419C62.1166 60.2603 62.0915 60.2707 62.0655 60.2707H59.4369C59.4106 60.2707 59.3854 60.2812 59.3668 60.3C59.3482 60.3188 59.3377 60.3442 59.3377 60.3708L59.339 68.2323C59.339 68.2588 59.3286 68.2843 59.31 68.303C59.2914 68.3218 59.2662 68.3324 59.2399 68.3324L57.5386 68.322C57.5255 68.322 57.5126 68.3194 57.5006 68.3143C57.4886 68.3093 57.4776 68.3019 57.4684 68.2927C57.4592 68.2834 57.4519 68.2723 57.4469 68.2602C57.442 68.2481 57.4394 68.235 57.4394 68.2219V60.363C57.4394 60.3364 57.429 60.311 57.4104 60.2922C57.3918 60.2734 57.3665 60.2629 57.3402 60.2629Z" fill="white"/>
<path d="M73.4593 58.5799H71.8134C71.7522 58.5799 71.7027 58.6299 71.7027 58.6916V68.2128C71.7027 68.2745 71.7522 68.3246 71.8134 68.3246H73.4593C73.5205 68.3246 73.5701 68.2745 73.5701 68.2128V58.6916C73.5701 58.6299 73.5205 58.5799 73.4593 58.5799Z" fill="white"/>
<path d="M85.8101 60.2499L83.2987 60.2785C83.2728 60.2788 83.2471 60.274 83.223 60.2642C83.199 60.2544 83.1771 60.24 83.1586 60.2216C83.1402 60.2032 83.1255 60.1813 83.1155 60.1572C83.1055 60.133 83.1004 60.1071 83.1004 60.081V58.6618C83.1004 58.608 83.1274 58.5812 83.1815 58.5812H90.5057C90.5228 58.5812 90.5391 58.588 90.5512 58.6002C90.5633 58.6124 90.5701 58.6289 90.5701 58.6462V60.2083C90.5701 60.2266 90.5629 60.2441 90.5501 60.257C90.5373 60.2699 90.5199 60.2772 90.5018 60.2772L87.7934 60.2551C87.7556 60.2551 87.7367 60.2737 87.7367 60.311V68.1764C87.7367 68.2134 87.7221 68.2489 87.6961 68.2752C87.67 68.3015 87.6347 68.3164 87.5976 68.3168L86.0329 68.3324C86.0115 68.3327 85.9903 68.3287 85.9705 68.3207C85.9507 68.3126 85.9326 68.3006 85.9174 68.2853C85.9022 68.2701 85.8901 68.2519 85.8818 68.2319C85.8736 68.2118 85.8693 68.1903 85.8693 68.1686V60.3084C85.8693 60.2694 85.8496 60.2499 85.8101 60.2499Z" fill="white"/>
<path d="M97.2915 68.1413L100.42 58.6734C100.429 58.6465 100.446 58.6231 100.469 58.6065C100.492 58.5899 100.519 58.5811 100.547 58.5812H103.111C103.14 58.5811 103.167 58.5899 103.19 58.6065C103.213 58.6231 103.23 58.6465 103.239 58.6734L106.419 68.1504C106.425 68.1708 106.427 68.1925 106.424 68.2137C106.421 68.2349 106.413 68.2551 106.4 68.2725C106.388 68.2899 106.371 68.304 106.352 68.3138C106.333 68.3235 106.312 68.3285 106.291 68.3285H104.647C104.618 68.3286 104.591 68.3197 104.568 68.3031C104.545 68.2866 104.528 68.2631 104.519 68.2362L103.956 66.5363C103.947 66.5093 103.93 66.4859 103.907 66.4693C103.884 66.4528 103.857 66.4439 103.829 66.444H99.9123C99.8842 66.4439 99.8567 66.4528 99.8338 66.4693C99.8109 66.4859 99.7938 66.5093 99.7849 66.5363L99.2233 68.2401C99.2143 68.2673 99.197 68.2908 99.1739 68.3074C99.1507 68.324 99.1229 68.3328 99.0946 68.3324L97.4177 68.3194C97.3966 68.3192 97.3757 68.3141 97.3569 68.3042C97.3381 68.2944 97.3219 68.2802 97.3096 68.2628C97.2973 68.2455 97.2892 68.2254 97.2861 68.2043C97.2829 68.1832 97.2848 68.1616 97.2915 68.1413ZM101.781 60.2889C101.284 61.8398 100.782 63.3911 100.274 64.9429C100.259 64.9906 100.276 65.0144 100.326 65.0144H103.41C103.42 65.0145 103.43 65.0122 103.439 65.0077C103.447 65.0033 103.455 64.9968 103.461 64.9888C103.466 64.9808 103.47 64.9715 103.472 64.9617C103.473 64.9519 103.473 64.9419 103.469 64.9325L101.885 60.1303C101.883 60.121 101.877 60.1129 101.869 60.1076C101.861 60.1023 101.852 60.1002 101.842 60.1016C101.833 60.1031 101.824 60.108 101.818 60.1155C101.812 60.1229 101.809 60.1324 101.809 60.142C101.809 60.1854 101.799 60.2343 101.781 60.2889Z" fill="white"/>
<path d="M117.69 60.2681L117.722 68.2258C117.722 68.2943 117.689 68.3285 117.621 68.3285H116.006C115.972 68.3285 115.939 68.3148 115.915 68.2904C115.89 68.266 115.877 68.233 115.877 68.1985V58.6462C115.877 58.6289 115.884 58.6124 115.896 58.6002C115.908 58.588 115.924 58.5812 115.941 58.5812H118.9C118.948 58.5812 118.983 58.6028 119.006 58.6462C120.275 61.0886 121.504 63.5484 122.692 66.0255C122.782 66.2135 122.864 66.4085 122.936 66.6104C122.941 66.6237 122.95 66.6348 122.963 66.6415C122.975 66.6483 122.989 66.6503 123.003 66.6471C123.017 66.6439 123.029 66.6358 123.037 66.6242C123.045 66.6127 123.049 66.5985 123.048 66.5844C123.045 66.5636 123.032 66.5376 123.009 66.5064C122.985 66.4726 122.973 66.4353 122.973 66.3946L122.955 58.6812C122.955 58.6682 122.957 58.6552 122.962 58.6431C122.967 58.6309 122.974 58.6199 122.984 58.6106C122.993 58.6013 123.004 58.5939 123.016 58.5888C123.028 58.5838 123.041 58.5812 123.054 58.5812H124.731C124.757 58.5812 124.781 58.5914 124.799 58.6097C124.817 58.628 124.828 58.6528 124.828 58.6786V68.1946C124.828 68.228 124.814 68.2601 124.791 68.2837C124.768 68.3074 124.736 68.3207 124.703 68.3207L121.808 68.3311C121.783 68.3315 121.759 68.3249 121.738 68.3121C121.717 68.2992 121.699 68.2806 121.688 68.2583C120.826 66.6164 119.974 64.9741 119.131 63.3314C118.624 62.3423 118.181 61.2896 117.72 60.2616C117.718 60.2583 117.716 60.2556 117.713 60.254C117.71 60.2523 117.706 60.2518 117.702 60.2526C117.699 60.2534 117.696 60.2553 117.694 60.2582C117.691 60.261 117.69 60.2645 117.69 60.2681Z" fill="white"/>
<path d="M136.134 58.5799H134.416C134.366 58.5799 134.326 58.6206 134.326 58.6708V68.231C134.326 68.2812 134.366 68.322 134.416 68.322H136.134C136.184 68.322 136.224 68.2812 136.224 68.231V58.6708C136.224 58.6206 136.184 58.5799 136.134 58.5799Z" fill="white"/>
<path d="M148.669 68.3532C146.696 68.1816 145.787 67.6475 145.761 65.4927C145.734 63.2278 145.706 60.9747 145.676 58.7332C145.676 58.7133 145.679 58.6936 145.687 58.6751C145.694 58.6567 145.705 58.6399 145.719 58.6258C145.733 58.6117 145.75 58.6004 145.768 58.5928C145.786 58.5851 145.805 58.5812 145.825 58.5812H147.554C147.598 58.5812 147.621 58.6041 147.621 58.6501C147.625 60.9695 147.626 63.2854 147.623 65.5979C147.623 66.6441 148.356 66.6922 149.233 66.7455C149.94 66.7897 150.55 66.7598 151.063 66.6558C151.856 66.496 151.849 65.841 151.862 65.0859C151.898 62.9484 151.903 60.8105 151.877 58.6721C151.876 58.6115 151.906 58.5812 151.966 58.5812H153.644C153.667 58.5812 153.689 58.5903 153.705 58.6066C153.722 58.6229 153.731 58.645 153.732 58.6683C153.756 60.8724 153.75 63.0814 153.715 65.2951C153.689 66.9807 153.312 68.014 151.579 68.2674C150.613 68.4086 149.643 68.4372 148.669 68.3532Z" fill="white"/>
<path d="M172.699 60.2928C172.433 61.0557 172.204 61.9238 171.947 62.5919C171.249 64.4079 170.536 66.262 169.808 68.1543C169.763 68.2704 169.679 68.3285 169.554 68.3285H168.163C168.138 68.3284 168.113 68.3207 168.092 68.3063C168.071 68.292 168.055 68.2716 168.046 68.2479C167.017 65.5979 165.888 62.9753 165.069 60.2525C165.068 60.2484 165.066 60.2447 165.062 60.2422C165.059 60.2398 165.055 60.2388 165.051 60.2395C165.047 60.2402 165.043 60.2425 165.04 60.2459C165.038 60.2493 165.037 60.2536 165.038 60.2577C165.147 62.9098 165.175 65.5633 165.123 68.218C165.122 68.2475 165.11 68.2756 165.089 68.2963C165.068 68.3169 165.04 68.3285 165.011 68.3285H163.4C163.365 68.3285 163.333 68.3148 163.309 68.2904C163.284 68.266 163.271 68.233 163.271 68.1985V58.6462C163.271 58.6289 163.278 58.6124 163.29 58.6002C163.302 58.588 163.318 58.5812 163.335 58.5812H166.104C166.213 58.5812 166.287 58.6327 166.326 58.7358C167.228 61.1233 168.152 63.3106 168.838 65.6512C168.842 65.6634 168.849 65.6741 168.859 65.6818C168.868 65.6894 168.881 65.6936 168.893 65.6936C168.906 65.6936 168.918 65.6894 168.928 65.6818C168.937 65.6741 168.945 65.6634 168.948 65.6512C169.645 63.2495 170.572 60.9556 171.445 58.6332C171.458 58.5985 171.483 58.5812 171.52 58.5812H174.411C174.475 58.5812 174.508 58.6137 174.508 58.6786V68.2635C174.508 68.2807 174.501 68.2973 174.489 68.3094C174.477 68.3216 174.46 68.3285 174.443 68.3285H172.8C172.771 68.3285 172.742 68.3169 172.722 68.2963C172.701 68.2756 172.688 68.2475 172.688 68.218C172.64 65.5789 172.66 62.9406 172.748 60.3032C172.752 60.1932 172.735 60.1897 172.699 60.2928Z" fill="white"/>
</svg>
