<svg width="95" height="85" viewBox="0 0 95 85" fill="none" xmlns="http://www.w3.org/2000/svg">
<g clip-path="url(#clip0_670_2)">
<path d="M48.9569 60.667L59.6137 50.167V71.4142L48.9569 60.667Z" fill="white"/>
<path d="M81.3047 66.2961H69.1434V55.0213H81.3047C84.3762 55.0213 86.8668 57.5441 86.8668 60.6578C86.8668 63.7714 84.3762 66.2961 81.3047 66.2961Z" fill="white"/>
<path d="M95 9.86657V54.8244C93.0318 49.775 88.1771 46.2007 82.4959 46.2007H50.7822C50.5495 46.2007 50.3259 46.2935 50.1592 46.4589L42.4694 54.1222L34.6826 46.2694C34.6386 46.2248 34.5781 46.2007 34.5158 46.2007H22.3031C22.0906 46.2007 21.9843 46.4589 22.1345 46.6112L36.528 60.5816L22.1345 74.3866C21.9843 74.5371 22.0906 74.7972 22.3031 74.7972H34.6129L42.4383 67.0875L49.8219 74.5352C49.9887 74.7024 50.2141 74.7972 50.4487 74.7972L66.169 74.9402C64.5728 74.9941 63.1543 75.7019 62.0456 76.6661C60.6968 77.7399 59.8263 79.4026 59.8263 81.277V85H9.73311C4.358 85 0 80.5822 0 75.1334V9.86657C0 4.41776 4.358 0 9.73311 0H85.2669C90.642 0 95 4.41776 95 9.86657Z" fill="white"/>
<path d="M95 66.467V75.1334C95 80.5822 90.642 85 85.2669 85H69.0664V74.9402H82.4959C88.1771 74.9402 93.0318 71.4681 95 66.467Z" fill="white"/>
</g>
<defs>
<clipPath id="clip0_670_2">
<rect width="95" height="85" fill="white"/>
</clipPath>
</defs>
</svg>
