<svg width="1041" height="672" viewBox="0 0 1041 672" fill="none" xmlns="http://www.w3.org/2000/svg">
<g clip-path="url(#clip0_9_208)">
<path d="M722.211 71.1182C755.445 71.1182 788.348 77.663 819.053 90.3802C838.389 98.3894 856.611 108.75 873.321 121.192L839.422 118.818L838.563 118.757L838.621 119.619L841.277 157.545C828.648 148.517 814.994 140.933 800.583 134.962C775.734 124.671 749.102 119.374 722.211 119.374C695.316 119.374 668.684 124.67 643.836 134.962C623.643 143.327 604.948 154.858 588.445 169.093L587.833 169.62L607.417 189.204L526.559 194.87L532.224 114.011L553.146 134.933L553.647 135.433L554.175 134.964C575.231 116.264 599.288 101.184 625.371 90.3809C656.072 77.6637 688.979 71.1182 722.211 71.1182Z" fill="url(#paint0_linear_9_208)"/>
<path d="M722.211 71.1182C755.445 71.1182 788.348 77.663 819.053 90.3802C838.389 98.3894 856.611 108.75 873.321 121.192L839.422 118.818L838.563 118.757L838.621 119.619L841.277 157.545C828.648 148.517 814.994 140.933 800.583 134.962C775.734 124.671 749.102 119.374 722.211 119.374C695.316 119.374 668.684 124.67 643.836 134.962C623.643 143.327 604.948 154.858 588.445 169.093L587.833 169.62L607.417 189.204L526.559 194.87L532.224 114.011L553.146 134.933L553.647 135.433L554.175 134.964C575.231 116.264 599.288 101.184 625.371 90.3809C656.072 77.6637 688.979 71.1182 722.211 71.1182Z" fill="url(#paint1_radial_9_208)"/>
<path d="M722.211 71.1182C755.445 71.1182 788.348 77.663 819.053 90.3802C838.389 98.3894 856.611 108.75 873.321 121.192L839.422 118.818L838.563 118.757L838.621 119.619L841.277 157.545C828.648 148.517 814.994 140.933 800.583 134.962C775.734 124.671 749.102 119.374 722.211 119.374C695.316 119.374 668.684 124.67 643.836 134.962C623.643 143.327 604.948 154.858 588.445 169.093L587.833 169.62L607.417 189.204L526.559 194.87L532.224 114.011L553.146 134.933L553.647 135.433L554.175 134.964C575.231 116.264 599.288 101.184 625.371 90.3809C656.072 77.6637 688.979 71.1182 722.211 71.1182Z" stroke="url(#paint2_linear_9_208)" stroke-width="1.50182"/>
<path d="M118.837 214.998L99.2526 195.414L98.7252 196.027C84.4913 212.529 72.9591 231.223 64.5948 251.417C54.3027 276.265 49.0066 302.897 49.0066 329.792C49.0067 356.686 54.3028 383.318 64.5948 408.165C70.565 422.578 78.1494 436.227 87.1777 448.861L49.2517 446.205L48.3899 446.145L48.4503 447.006L50.8245 480.905C38.3821 464.192 28.0219 445.968 20.0124 426.631C7.29533 395.93 0.750798 363.024 0.750732 329.792C0.750732 296.56 7.29598 263.654 20.0131 232.951C30.8166 206.869 45.8965 182.813 64.5962 161.756L65.0658 161.228L64.5656 160.727L43.6438 139.805L124.502 134.139L118.837 214.998Z" fill="url(#paint3_linear_9_208)"/>
<path d="M118.837 214.998L99.2526 195.414L98.7252 196.027C84.4913 212.529 72.9591 231.223 64.5948 251.417C54.3027 276.265 49.0066 302.897 49.0066 329.792C49.0067 356.686 54.3028 383.318 64.5948 408.165C70.565 422.578 78.1494 436.227 87.1777 448.861L49.2517 446.205L48.3899 446.145L48.4503 447.006L50.8245 480.905C38.3821 464.192 28.0219 445.968 20.0124 426.631C7.29533 395.93 0.750798 363.024 0.750732 329.792C0.750732 296.56 7.29598 263.654 20.0131 232.951C30.8166 206.869 45.8965 182.813 64.5962 161.756L65.0658 161.228L64.5656 160.727L43.6438 139.805L124.502 134.139L118.837 214.998Z" fill="url(#paint4_radial_9_208)" stroke="url(#paint5_linear_9_208)" stroke-width="1.50182"/>
<path d="M910.326 538.813L888.91 517.392L888.379 517.862C867.319 536.562 843.263 551.641 817.184 562.444C786.478 575.165 753.576 581.704 720.343 581.704C687.111 581.704 654.204 575.165 623.502 562.445C604.166 554.436 585.943 544.076 569.229 531.633L603.128 534.007L603.99 534.068L603.929 533.206L601.272 495.279C613.906 504.307 627.555 511.893 641.969 517.863C666.816 528.155 693.448 533.451 720.343 533.451C747.24 533.451 773.872 528.155 798.714 517.863C818.908 509.498 837.603 497.967 854.109 483.733L854.72 483.204L854.145 482.633L835.137 463.62L915.993 457.954L910.326 538.813Z" fill="url(#paint6_linear_9_208)"/>
<path d="M910.326 538.813L888.91 517.392L888.379 517.862C867.319 536.562 843.263 551.641 817.184 562.444C786.478 575.165 753.576 581.704 720.343 581.704C687.111 581.704 654.204 575.165 623.502 562.445C604.166 554.436 585.943 544.076 569.229 531.633L603.128 534.007L603.99 534.068L603.929 533.206L601.272 495.279C613.906 504.307 627.555 511.893 641.969 517.863C666.816 528.155 693.448 533.451 720.343 533.451C747.24 533.451 773.872 528.155 798.714 517.863C818.908 509.498 837.603 497.967 854.109 483.733L854.72 483.204L854.145 482.633L835.137 463.62L915.993 457.954L910.326 538.813Z" fill="url(#paint7_radial_9_208)"/>
<path d="M910.326 538.813L888.91 517.392L888.379 517.862C867.319 536.562 843.263 551.641 817.184 562.444C786.478 575.165 753.576 581.704 720.343 581.704C687.111 581.704 654.204 575.165 623.502 562.445C604.166 554.436 585.943 544.076 569.229 531.633L603.128 534.007L603.99 534.068L603.929 533.206L601.272 495.279C613.906 504.307 627.555 511.893 641.969 517.863C666.816 528.155 693.448 533.451 720.343 533.451C747.24 533.451 773.872 528.155 798.714 517.863C818.908 509.498 837.603 497.967 854.109 483.733L854.72 483.204L854.145 482.633L835.137 463.62L915.993 457.954L910.326 538.813Z" stroke="url(#paint8_linear_9_208)" stroke-width="1.50182"/>
<g filter="url(#filter3_d_9_208)">
<path d="M935.634 253.198C941.708 247.125 951.551 247.125 957.625 253.198L1017.25 312.818C1023.31 318.891 1023.31 328.736 1017.25 334.809L956.577 395.475C950.503 401.548 940.661 401.548 934.587 395.475L874.965 335.856C868.891 329.783 868.891 319.937 874.965 313.864L935.634 253.198Z" fill="url(#paint9_radial_9_208)"/>
<path d="M935.634 253.198C941.708 247.125 951.551 247.125 957.625 253.198L1017.25 312.818C1023.31 318.891 1023.31 328.736 1017.25 334.809L956.577 395.475C950.503 401.548 940.661 401.548 934.587 395.475L874.965 335.856C868.891 329.783 868.891 319.937 874.965 313.864L935.634 253.198Z" fill="url(#paint10_radial_9_208)"/>
<path d="M957.093 253.729L1016.71 313.349C1022.49 319.128 1022.49 328.498 1016.71 334.278L956.046 394.944C950.27 400.723 940.893 400.723 935.117 394.944L875.496 335.324C869.72 329.544 869.72 320.175 875.496 314.395L936.165 253.729C941.94 247.95 951.31 247.95 957.093 253.729Z" stroke="url(#paint11_radial_9_208)" stroke-width="1.50182"/>
</g>
<g filter="url(#filter4_d_9_208)">
<path d="M336.313 90.2071L276.693 30.5873C270.62 24.5147 260.774 24.5147 254.702 30.5873L194.036 91.2533C187.963 97.326 187.963 107.172 194.036 113.244L253.655 172.864C259.728 178.937 269.574 178.937 275.647 172.864L336.313 112.198C342.385 106.126 342.385 96.2798 336.313 90.2071Z" fill="url(#paint12_radial_9_208)"/>
<path d="M336.313 90.2071L276.693 30.5873C270.62 24.5147 260.774 24.5147 254.702 30.5873L194.036 91.2533C187.963 97.326 187.963 107.172 194.036 113.244L253.655 172.864C259.728 178.937 269.574 178.937 275.647 172.864L336.313 112.198C342.385 106.126 342.385 96.2798 336.313 90.2071Z" fill="url(#paint13_radial_9_208)"/>
<path d="M335.781 90.7374L276.162 31.1179C270.382 25.3385 261.012 25.3384 255.233 31.1179L194.567 91.7837C188.787 97.5631 188.788 106.933 194.567 112.713L254.186 172.332C259.966 178.112 269.336 178.112 275.116 172.332L335.781 111.667C341.561 105.887 341.561 96.5168 335.781 90.7374Z" stroke="url(#paint14_radial_9_208)" stroke-width="1.50182"/>
</g>
<path d="M345.733 87.6825C348.329 88.6587 350.912 89.6786 353.478 90.7421C379.559 101.545 403.616 116.625 424.673 135.324L425.202 135.794L425.702 135.295L446.622 114.372L452.288 195.23L371.43 189.565L390.443 170.553L391.014 169.981L390.402 169.454C373.9 155.22 355.205 143.688 335.011 135.324C332.827 134.419 330.628 133.555 328.416 132.727L342.63 118.515C351.011 110.134 352.045 97.1909 345.733 87.6825ZM187.717 84.9342C178.156 94.4965 178.157 109.999 187.718 119.561L196.821 128.664C190.543 130.581 184.35 132.802 178.263 135.324C163.85 141.294 150.2 148.878 137.566 157.907L140.223 119.98L140.283 119.118L139.422 119.178L105.524 121.553C122.237 109.111 140.46 98.7506 159.796 90.7414C170.635 86.2516 181.748 82.5322 193.053 79.5977L187.717 84.9342Z" fill="url(#paint15_linear_9_208)"/>
<path d="M345.733 87.6825C348.329 88.6587 350.912 89.6786 353.478 90.7421C379.559 101.545 403.616 116.625 424.673 135.324L425.202 135.794L425.702 135.295L446.622 114.372L452.288 195.23L371.43 189.565L390.443 170.553L391.014 169.981L390.402 169.454C373.9 155.22 355.205 143.688 335.011 135.324C332.827 134.419 330.628 133.555 328.416 132.727L342.63 118.515C351.011 110.134 352.045 97.1909 345.733 87.6825ZM187.717 84.9342C178.156 94.4965 178.157 109.999 187.718 119.561L196.821 128.664C190.543 130.581 184.35 132.802 178.263 135.324C163.85 141.294 150.2 148.878 137.566 157.907L140.223 119.98L140.283 119.118L139.422 119.178L105.524 121.553C122.237 109.111 140.46 98.7506 159.796 90.7414C170.635 86.2516 181.748 82.5322 193.053 79.5977L187.717 84.9342Z" fill="url(#paint16_radial_9_208)"/>
<path d="M345.733 87.6825C348.329 88.6587 350.912 89.6786 353.478 90.7421C379.559 101.545 403.616 116.625 424.673 135.324L425.202 135.794L425.702 135.295L446.622 114.372L452.288 195.23L371.43 189.565L390.443 170.553L391.014 169.981L390.402 169.454C373.9 155.22 355.205 143.688 335.011 135.324C332.827 134.419 330.628 133.555 328.416 132.727L342.63 118.515C351.011 110.134 352.045 97.1909 345.733 87.6825ZM187.717 84.9342C178.156 94.4965 178.157 109.999 187.718 119.561L196.821 128.664C190.543 130.581 184.35 132.802 178.263 135.324C163.85 141.294 150.2 148.878 137.566 157.907L140.223 119.98L140.283 119.118L139.422 119.178L105.524 121.553C122.237 109.111 140.46 98.7506 159.796 90.7414C170.635 86.2516 181.748 82.5322 193.053 79.5977L187.717 84.9342Z" stroke="url(#paint17_linear_9_208)" stroke-width="1.50182"/>
<path d="M522.722 386.313C524.419 391.586 526.332 396.796 528.459 401.929C536.823 422.123 548.354 440.818 562.589 457.321L563.117 457.932L563.688 457.361L582.701 438.347L588.366 519.207L507.508 513.541L528.429 492.62L528.93 492.12L528.46 491.591C509.761 470.535 494.681 446.478 483.877 420.396C481.953 415.751 480.171 411.056 478.531 406.317C487.756 411.114 499.393 409.643 507.137 401.899L522.722 386.313ZM512.314 206.341L512.254 207.203L513.116 207.143L551.042 204.485C542.013 217.118 534.429 230.768 528.459 245.182C526.258 250.494 524.286 255.888 522.546 261.349L508.182 246.987C499.851 238.657 487.013 237.585 477.521 243.769C479.431 238.019 481.55 232.33 483.876 226.715C491.886 207.379 502.246 189.156 514.688 172.444L512.314 206.341Z" fill="url(#paint18_linear_9_208)"/>
<path d="M522.722 386.313C524.419 391.586 526.332 396.796 528.459 401.929C536.823 422.123 548.354 440.818 562.589 457.321L563.117 457.932L563.688 457.361L582.701 438.347L588.366 519.207L507.508 513.541L528.429 492.62L528.93 492.12L528.46 491.591C509.761 470.535 494.681 446.478 483.877 420.396C481.953 415.751 480.171 411.056 478.531 406.317C487.756 411.114 499.393 409.643 507.137 401.899L522.722 386.313ZM512.314 206.341L512.254 207.203L513.116 207.143L551.042 204.485C542.013 217.118 534.429 230.768 528.459 245.182C526.258 250.494 524.286 255.888 522.546 261.349L508.182 246.987C499.851 238.657 487.013 237.585 477.521 243.769C479.431 238.019 481.55 232.33 483.876 226.715C491.886 207.379 502.246 189.156 514.688 172.444L512.314 206.341Z" fill="url(#paint19_radial_9_208)"/>
<path d="M522.722 386.313C524.419 391.586 526.332 396.796 528.459 401.929C536.823 422.123 548.354 440.818 562.589 457.321L563.117 457.932L563.688 457.361L582.701 438.347L588.366 519.207L507.508 513.541L528.429 492.62L528.93 492.12L528.46 491.591C509.761 470.535 494.681 446.478 483.877 420.396C481.953 415.751 480.171 411.056 478.531 406.317C487.756 411.114 499.393 409.643 507.137 401.899L522.722 386.313ZM512.314 206.341L512.254 207.203L513.116 207.143L551.042 204.485C542.013 217.119 534.429 230.768 528.459 245.182C526.258 250.494 524.286 255.888 522.546 261.349L508.182 246.987C499.851 238.657 487.013 237.585 477.521 243.769C479.431 238.019 481.55 232.33 483.876 226.715C491.886 207.379 502.246 189.156 514.688 172.444L512.314 206.341Z" stroke="url(#paint20_linear_9_208)" stroke-width="1.50182"/>
<path d="M472.508 401.899C479.517 408.908 489.716 410.776 498.428 407.512C496.986 411.569 495.441 415.591 493.79 419.577C482.987 445.659 467.907 469.715 449.207 490.771L448.738 491.301L470.159 512.722L389.3 518.387L394.965 437.529L414.55 457.114L415.078 456.502C429.312 439.999 440.844 421.304 449.208 401.11C451.453 395.691 453.459 390.187 455.225 384.615L472.508 401.899ZM462.978 171.624C475.42 188.337 485.782 206.56 493.791 225.896C495.911 231.016 497.857 236.198 499.633 241.432C491.031 238.141 480.946 239.875 473.908 246.64L473.555 246.986L456.273 264.268C454.266 257.529 451.909 250.884 449.208 244.364C443.238 229.95 435.653 216.3 426.624 203.667L464.551 206.324L465.413 206.384L465.353 205.522L462.978 171.624Z" fill="url(#paint21_linear_9_208)"/>
<path d="M472.508 401.899C479.517 408.908 489.716 410.776 498.428 407.512C496.986 411.569 495.441 415.591 493.79 419.577C482.987 445.659 467.907 469.715 449.207 490.771L448.738 491.301L470.159 512.722L389.3 518.387L394.965 437.529L414.55 457.114L415.078 456.502C429.312 439.999 440.844 421.304 449.208 401.11C451.453 395.691 453.459 390.187 455.225 384.615L472.508 401.899ZM462.978 171.624C475.42 188.337 485.782 206.56 493.791 225.896C495.911 231.016 497.857 236.198 499.633 241.432C491.031 238.141 480.946 239.875 473.908 246.64L473.555 246.986L456.273 264.268C454.266 257.529 451.909 250.884 449.208 244.364C443.238 229.95 435.653 216.3 426.624 203.667L464.551 206.324L465.413 206.384L465.353 205.522L462.978 171.624Z" fill="url(#paint22_radial_9_208)"/>
<path d="M472.509 401.899C479.517 408.908 489.716 410.776 498.428 407.512C496.986 411.569 495.441 415.591 493.79 419.577C482.987 445.659 467.907 469.715 449.207 490.771L448.738 491.301L470.159 512.722L389.3 518.387L394.965 437.529L414.55 457.114L415.078 456.502C429.312 439.999 440.844 421.304 449.208 401.11C451.453 395.691 453.459 390.187 455.225 384.615L472.509 401.899ZM462.978 171.624C475.42 188.337 485.782 206.56 493.791 225.896C495.911 231.016 497.857 236.198 499.633 241.432C491.031 238.141 480.946 239.875 473.908 246.64L473.555 246.986L456.273 264.268C454.266 257.529 451.909 250.884 449.208 244.364C443.238 229.95 435.653 216.3 426.624 203.667L464.551 206.324L465.413 206.384L465.353 205.522L462.978 171.624Z" stroke="url(#paint23_linear_9_208)" stroke-width="1.50182"/>
<path d="M142.532 465.118L123.519 484.13L122.948 484.702L123.56 485.23C140.062 499.464 158.757 510.996 178.951 519.36C184.274 521.565 189.68 523.54 195.152 525.283L187.717 532.719C178.156 542.281 178.156 557.783 187.717 567.345L196.042 575.667C183.943 572.648 172.057 568.734 160.485 563.942C134.403 553.139 110.346 538.059 89.2903 519.359L88.7607 518.89L88.2602 519.39L67.338 540.31L61.6733 459.452L142.532 465.118ZM373.738 534.703L373.678 535.564L374.54 535.504L408.436 533.13C391.724 545.572 373.502 555.933 354.166 563.942C349.3 565.958 344.377 567.818 339.408 569.52L342.63 566.299C352.042 556.887 352.189 541.717 343.071 532.125L342.63 531.673L331.861 520.903C333.144 520.402 334.424 519.888 335.698 519.36C350.112 513.39 363.761 505.804 376.394 496.775L373.738 534.703Z" fill="url(#paint24_linear_9_208)"/>
<path d="M142.532 465.118L123.519 484.13L122.948 484.702L123.56 485.23C140.062 499.464 158.757 510.996 178.951 519.36C184.274 521.565 189.68 523.54 195.152 525.283L187.717 532.719C178.156 542.281 178.156 557.783 187.717 567.345L196.042 575.667C183.943 572.648 172.057 568.734 160.485 563.942C134.403 553.139 110.346 538.059 89.2903 519.359L88.7607 518.89L88.2602 519.39L67.338 540.31L61.6733 459.452L142.532 465.118ZM373.738 534.703L373.678 535.564L374.54 535.504L408.436 533.13C391.724 545.572 373.502 555.933 354.166 563.942C349.3 565.958 344.377 567.818 339.408 569.52L342.63 566.299C352.042 556.887 352.189 541.717 343.071 532.125L342.63 531.673L331.861 520.903C333.144 520.402 334.424 519.888 335.698 519.36C350.112 513.39 363.761 505.804 376.394 496.775L373.738 534.703Z" fill="url(#paint25_radial_9_208)"/>
<path d="M142.532 465.118L123.519 484.13L122.948 484.702L123.56 485.23C140.062 499.464 158.757 510.996 178.951 519.36C184.274 521.565 189.68 523.54 195.152 525.283L187.717 532.719C178.156 542.281 178.156 557.783 187.717 567.345L196.042 575.667C183.943 572.648 172.057 568.734 160.485 563.942C134.403 553.139 110.346 538.059 89.2903 519.359L88.7607 518.89L88.2602 519.39L67.338 540.31L61.6733 459.452L142.532 465.118ZM373.738 534.703L373.678 535.564L374.54 535.504L408.436 533.13C391.724 545.572 373.502 555.933 354.166 563.942C349.3 565.958 344.377 567.818 339.408 569.52L342.63 566.299C352.042 556.887 352.189 541.717 343.071 532.125L342.63 531.673L331.861 520.903C333.144 520.401 334.424 519.888 335.698 519.36C350.112 513.39 363.761 505.804 376.394 496.775L373.738 534.703Z" stroke="url(#paint26_linear_9_208)" stroke-width="1.50182"/>
<g filter="url(#filter9_d_9_208)">
<path d="M336.313 537.884L276.693 478.264C270.62 472.191 260.774 472.191 254.702 478.264L194.036 538.93C187.963 545.003 187.963 554.848 194.036 560.921L253.655 620.541C259.728 626.614 269.574 626.614 275.647 620.541L336.313 559.875C342.385 553.802 342.385 543.957 336.313 537.884Z" fill="url(#paint27_radial_9_208)"/>
<path d="M335.781 538.415L276.162 478.795C270.382 473.016 261.012 473.016 255.233 478.795L194.567 539.461C188.788 545.24 188.788 554.611 194.567 560.39L254.186 620.01C259.966 625.789 269.336 625.789 275.116 620.01L335.781 559.344C341.561 553.564 341.561 544.194 335.781 538.415Z" stroke="url(#paint28_radial_9_208)" stroke-width="1.50182"/>
</g>
<g filter="url(#filter10_d_9_208)">
<path d="M561.383 312.817L501.763 253.198C495.69 247.125 485.844 247.125 479.772 253.198L419.106 313.864C413.033 319.936 413.033 329.782 419.106 335.855L478.726 395.475C484.798 401.547 494.644 401.547 500.717 395.475L561.383 334.809C567.455 328.736 567.455 318.89 561.383 312.817Z" fill="url(#paint29_radial_9_208)"/>
<path d="M561.383 312.817L501.763 253.198C495.69 247.125 485.844 247.125 479.772 253.198L419.106 313.864C413.033 319.936 413.033 329.782 419.106 335.855L478.726 395.475C484.798 401.547 494.644 401.547 500.717 395.475L561.383 334.809C567.455 328.736 567.455 318.89 561.383 312.817Z" fill="url(#paint30_radial_9_208)"/>
<path d="M560.851 313.348L501.232 253.728C495.452 247.949 486.082 247.949 480.303 253.728L419.637 314.394C413.858 320.173 413.858 329.544 419.637 335.323L479.257 394.943C485.036 400.722 494.406 400.722 500.186 394.943L560.851 334.277C566.631 328.497 566.631 319.127 560.851 313.348Z" stroke="url(#paint31_radial_9_208)" stroke-width="1.50182"/>
</g>
<path d="M930.542 404.069C938.843 412.374 952.315 412.374 960.615 404.069V404.068L965.947 398.734C963.438 407.229 960.477 415.603 957.08 423.818C949.071 443.155 938.704 461.377 926.265 478.09L928.637 444.193L928.702 443.331L927.836 443.391L889.907 446.047C898.942 433.414 906.522 419.764 912.495 405.351C914.415 400.713 916.161 396.011 917.732 391.259L930.542 404.069ZM933.445 136.992L912.524 157.913L912.022 158.413L912.495 158.943C931.19 179.999 946.27 204.056 957.08 230.138C959.233 235.351 961.219 240.628 963.016 245.959L961.663 244.603C953.355 236.299 939.89 236.299 931.59 244.603L916.656 259.532C915.375 255.855 913.986 252.21 912.495 248.604C904.129 228.41 892.599 209.715 878.363 193.213L877.839 192.6L877.264 193.172L858.256 212.185L852.589 131.326L933.445 136.992Z" fill="url(#paint32_linear_9_208)"/>
<path d="M930.542 404.069C938.843 412.374 952.315 412.374 960.615 404.069V404.068L965.947 398.734C963.438 407.229 960.477 415.603 957.08 423.818C949.071 443.155 938.704 461.377 926.265 478.09L928.637 444.193L928.702 443.331L927.836 443.391L889.907 446.047C898.942 433.414 906.522 419.764 912.495 405.351C914.415 400.713 916.161 396.011 917.732 391.259L930.542 404.069ZM933.445 136.992L912.524 157.913L912.022 158.413L912.495 158.943C931.19 179.999 946.27 204.056 957.08 230.138C959.233 235.351 961.219 240.628 963.016 245.959L961.663 244.603C953.355 236.299 939.89 236.299 931.59 244.603L916.656 259.532C915.375 255.855 913.986 252.21 912.495 248.604C904.129 228.41 892.599 209.715 878.363 193.213L877.839 192.6L877.264 193.172L858.256 212.185L852.589 131.326L933.445 136.992Z" fill="url(#paint33_radial_9_208)" stroke="url(#paint34_linear_9_208)" stroke-width="1.50182"/>
<path d="M951.987 304.53C952.191 304.736 952.453 304.875 952.744 304.93C953.028 304.984 953.326 304.952 953.588 304.838L967.998 298.663C968.217 298.569 968.413 298.423 968.558 298.238C968.711 298.053 968.813 297.834 968.857 297.6C968.9 297.367 968.886 297.126 968.82 296.898C968.748 296.671 968.624 296.464 968.457 296.296L965.365 293.208L970.515 288.062C971.01 287.569 971.083 286.795 970.69 286.216C970.297 285.652 969.555 285.42 968.908 285.695L954.504 291.87C954.286 291.964 954.09 292.11 953.944 292.295C953.791 292.48 953.689 292.699 953.646 292.933C953.602 293.166 953.617 293.407 953.682 293.635C953.755 293.862 953.879 294.069 954.046 294.237L957.13 297.325L951.987 302.471C951.427 303.033 951.413 303.954 951.987 304.53ZM941.199 288.559L936.056 293.705L944.284 301.939L949.434 296.793C950.001 296.224 950.001 295.304 949.434 294.735L943.258 288.559C942.691 287.991 941.767 287.991 941.199 288.559ZM967.962 315.319C968.529 314.75 968.529 313.83 967.962 313.261L961.786 307.085C961.219 306.516 960.295 306.516 959.727 307.085L954.577 312.232L962.812 320.466L967.962 315.319ZM953.551 329.728L960.753 322.524L952.518 314.29L945.317 321.495C942.48 324.332 937.86 324.332 935.023 321.495C932.186 318.657 932.186 314.04 935.023 311.203L942.232 303.998L933.998 295.764L926.789 302.969C919.412 310.346 919.412 322.351 926.789 329.728C934.165 337.106 946.175 337.106 953.551 329.728Z" fill="white"/>
<path d="M917.245 357.84V344.663H920.308C922.454 344.663 923.377 345.661 923.377 347.694V348.503C923.377 349.858 922.948 350.725 922.024 351.101V351.139C923.057 351.459 923.399 352.437 923.399 353.925V356.24C923.399 356.88 923.414 357.35 923.625 357.84H921.515C921.406 357.501 921.326 357.294 921.326 356.221V353.811C921.326 352.588 920.97 352.193 920.031 352.193H919.311V357.84H917.245ZM919.311 350.31H920.068C920.839 350.31 921.312 349.972 921.312 348.918V347.901C921.312 346.96 920.991 346.546 920.257 346.546H919.311V350.31ZM924.832 357.84V344.663H930.485V346.546H926.906V350.028H929.75V351.91H926.906V355.957H930.485V357.84H924.832ZM933.293 357.84V346.546H931.125V344.663H937.526V346.546H935.366V357.84H933.293ZM938.53 357.84V344.663H944.175V346.546H940.603V350.028H943.44V351.91H940.603V355.957H944.175V357.84H938.53ZM945.368 357.84V344.663H947.965L949.98 352.551H950.017V344.663H951.864V357.84H949.733L947.252 348.221H947.216V357.84H945.368ZM959.371 349.105H957.407V347.581C957.407 346.715 956.993 346.357 956.374 346.357C955.756 346.357 955.341 346.715 955.341 347.581V354.941C955.341 355.807 955.756 356.146 956.374 356.146C956.993 356.146 957.407 355.807 957.407 354.941V352.927H959.371V354.79C959.371 356.654 958.484 357.821 956.811 358.009V358.574C957.633 358.574 958.106 358.8 958.106 359.459C958.106 360.475 957.313 360.607 956.185 360.607C955.152 360.607 954.381 360.381 954.381 359.515V359.327H955.771V359.477C955.771 359.76 955.982 359.854 956.185 359.854C956.527 359.854 956.673 359.723 956.673 359.402C956.673 359.045 956.447 358.913 955.982 358.913H955.887V358.009C954.17 357.84 953.268 356.673 953.268 354.79V347.712C953.268 345.68 954.323 344.475 956.316 344.475C958.317 344.475 959.371 345.68 959.371 347.712V349.105ZM961.998 343.854L961.001 343.252C961.474 342.198 961.998 341.67 962.718 341.67C963.227 341.67 963.562 341.859 963.845 342.028C964.071 342.16 964.26 342.273 964.485 342.273C964.784 342.273 964.995 342.066 965.235 341.539L966.239 342.141C965.766 343.195 965.235 343.722 964.522 343.722C964.013 343.722 963.678 343.534 963.394 343.364C963.169 343.233 962.98 343.12 962.754 343.12C962.449 343.12 962.245 343.327 961.998 343.854ZM960.063 357.84L962.209 344.663H965.009L967.155 357.84H965.089L964.711 355.223V355.261H962.354L961.983 357.84H960.063ZM962.601 353.473H964.464L963.547 346.96H963.503L962.601 353.473ZM971.12 358.028C969.083 358.028 967.977 356.824 967.977 354.715V347.788C967.977 345.68 969.083 344.475 971.12 344.475C973.149 344.475 974.262 345.68 974.262 347.788V354.715C974.262 356.824 973.149 358.028 971.12 358.028ZM971.12 356.146C971.774 356.146 972.189 355.788 972.189 354.847V347.656C972.189 346.715 971.774 346.357 971.12 346.357C970.458 346.357 970.043 346.715 970.043 347.656V354.847C970.043 355.788 970.458 356.146 971.12 356.146Z" fill="white"/>
<path d="M224.901 135.229V122.052H230.549V123.935H226.972V127.417H229.815V129.299H226.972V133.346H230.549V135.229H224.901ZM231.74 135.229V122.052H234.338L236.351 129.94H236.389V122.052H238.234V135.229H236.107L233.622 125.61H233.585V135.229H231.74ZM242.709 135.417C240.677 135.417 239.623 134.213 239.623 132.104V125.177C239.623 123.069 240.677 121.864 242.709 121.864C244.742 121.864 245.797 123.069 245.797 125.177V126.306H243.839V125.045C243.839 124.104 243.425 123.746 242.766 123.746C242.107 123.746 241.693 124.104 241.693 125.045V132.254C241.693 133.196 242.107 133.535 242.766 133.535C243.425 133.535 243.839 133.196 243.839 132.254V129.676H242.804V127.794H245.797V132.104C245.797 134.213 244.742 135.417 242.709 135.417ZM246.58 135.229L248.726 122.052H251.531L253.677 135.229H251.606L251.23 132.612V132.65H248.877L248.5 135.229H246.58ZM249.121 130.862H250.985L250.062 124.348H250.025L249.121 130.862ZM255.17 135.304C254.794 135.304 254.512 135.286 254.211 135.229V133.346C254.436 133.403 254.663 133.422 254.888 133.422C255.717 133.422 256.112 133.026 256.112 132.161V122.052H258.183V132.104C258.183 134.269 257.204 135.304 255.17 135.304ZM259.08 135.229L261.226 122.052H264.031L266.177 135.229H264.106L263.73 132.612V132.65H261.377L261 135.229H259.08ZM261.621 130.862H263.485L262.563 124.348H262.525L261.621 130.862ZM267.181 135.229V122.052H270.137L271.454 131.483H271.492L272.81 122.052H275.765V135.229H273.808V125.252H273.77L272.264 135.229H270.532L269.026 125.252H268.988V135.229H267.181ZM277.31 135.229V122.052H282.957V123.935H279.381V127.417H282.223V129.299H279.381V133.346H282.957V135.229H277.31ZM284.148 135.229V122.052H286.746L288.76 129.94H288.798V122.052H290.643V135.229H288.516L286.031 125.61H285.993V135.229H284.148ZM293.801 135.229V123.935H291.636V122.052H298.036V123.935H295.871V135.229H293.801ZM301.958 135.417C299.924 135.417 298.814 134.213 298.814 132.104V125.177C298.814 123.069 299.924 121.864 301.958 121.864C303.991 121.864 305.102 123.069 305.102 125.177V132.104C305.102 134.213 303.991 135.417 301.958 135.417ZM301.958 133.535C302.617 133.535 303.031 133.177 303.031 132.236V125.045C303.031 124.104 302.617 123.746 301.958 123.746C301.299 123.746 300.885 124.104 300.885 125.045V132.236C300.885 133.177 301.299 133.535 301.958 133.535Z" fill="white"/>
<path d="M235.77 582.904L237.916 569.73H240.72L242.866 582.904H240.796L240.419 580.292V580.329H238.067L237.69 582.904H235.77ZM238.311 578.539H240.175L239.252 572.028H239.214L238.311 578.539ZM249.933 584.126C249.162 584.126 248.446 583.849 248.201 582.867C247.806 583.02 247.336 583.093 246.827 583.093C244.794 583.093 243.684 581.893 243.684 579.783V572.85C243.684 570.748 244.794 569.54 246.827 569.54C248.86 569.54 249.97 570.748 249.97 572.85V579.783C249.97 580.685 249.764 581.398 249.387 581.943C249.538 582.213 249.782 582.249 250.159 582.249H250.479V584.126H249.933ZM246.827 581.209C247.486 581.209 247.9 580.852 247.9 579.914V572.719C247.9 571.781 247.486 571.425 246.827 571.425C246.168 571.425 245.754 571.781 245.754 572.719V579.914C245.754 580.852 246.168 581.209 246.827 581.209ZM254.382 583.093C252.35 583.093 251.296 581.893 251.296 579.783V569.73H253.366V579.928C253.366 580.874 253.761 581.209 254.42 581.209C255.079 581.209 255.474 580.874 255.474 579.928V569.73H257.47V579.783C257.47 581.893 256.416 583.093 254.382 583.093ZM258.944 582.904V569.73H261.015V582.904H258.944ZM265.258 583.093C263.225 583.093 262.208 581.893 262.208 579.783V579.026H264.166V579.928C264.166 580.874 264.58 581.209 265.239 581.209C265.898 581.209 266.312 580.874 266.312 579.892C266.312 578.801 265.898 578.103 264.543 576.917C262.811 575.396 262.246 574.32 262.246 572.814C262.246 570.748 263.319 569.54 265.333 569.54C267.347 569.54 268.345 570.748 268.345 572.85V573.396H266.387V572.719C266.387 571.781 266.011 571.425 265.352 571.425C264.693 571.425 264.316 571.781 264.316 572.683C264.316 573.643 264.749 574.342 266.105 575.527C267.837 577.048 268.382 578.103 268.382 579.747C268.382 581.893 267.291 583.093 265.258 583.093ZM269.569 582.904V569.73H271.64V582.904H269.569ZM279.158 574.174H277.2V572.647C277.2 571.781 276.786 571.425 276.165 571.425C275.544 571.425 275.13 571.781 275.13 572.647V580.008C275.13 580.874 275.544 581.209 276.165 581.209C276.786 581.209 277.2 580.874 277.2 580.008V577.993H279.158V579.856C279.158 581.718 278.273 582.889 276.598 583.078V583.638C277.426 583.638 277.897 583.864 277.897 584.526C277.897 585.544 277.106 585.675 275.977 585.675C274.942 585.675 274.17 585.45 274.17 584.584V584.395H275.563V584.54C275.563 584.824 275.77 584.919 275.977 584.919C276.316 584.919 276.466 584.788 276.466 584.468C276.466 584.111 276.241 583.98 275.77 583.98H275.676V583.078C273.963 582.904 273.059 581.74 273.059 579.856V572.778C273.059 570.748 274.114 569.54 276.108 569.54C278.104 569.54 279.158 570.748 279.158 572.778V574.174ZM281.79 568.922L280.792 568.318C281.263 567.264 281.79 566.733 282.506 566.733C283.013 566.733 283.352 566.922 283.635 567.096C283.861 567.227 284.048 567.336 284.275 567.336C284.576 567.336 284.783 567.133 285.028 566.604L286.025 567.205C285.555 568.26 285.028 568.791 284.313 568.791C283.804 568.791 283.465 568.602 283.183 568.427C282.957 568.297 282.769 568.187 282.543 568.187C282.241 568.187 282.035 568.391 281.79 568.922ZM279.851 582.904L281.997 569.73H284.802L286.947 582.904H284.877L284.5 580.292V580.329H282.148L281.771 582.904H279.851ZM282.392 578.539H284.256L283.333 572.028H283.296L282.392 578.539ZM290.908 583.093C288.876 583.093 287.765 581.893 287.765 579.783V572.85C287.765 570.748 288.876 569.54 290.908 569.54C292.941 569.54 294.052 570.748 294.052 572.85V579.783C294.052 581.893 292.941 583.093 290.908 583.093ZM290.908 581.209C291.567 581.209 291.981 580.852 291.981 579.914V572.719C291.981 571.781 291.567 571.425 290.908 571.425C290.25 571.425 289.835 571.781 289.835 572.719V579.914C289.835 580.852 290.25 581.209 290.908 581.209Z" fill="white"/>
<path d="M450.821 357.84V344.663H453.776L455.094 354.094H455.131L456.449 344.663H459.404V357.84H457.446V347.863H457.409L455.903 357.84H454.171L452.665 347.863H452.628V357.84H450.821ZM463.942 358.028C461.909 358.028 460.799 356.824 460.799 354.715V347.788C460.799 345.68 461.909 344.475 463.942 344.475C465.975 344.475 467.086 345.68 467.086 347.788V354.715C467.086 356.824 465.975 358.028 463.942 358.028ZM463.942 356.146C464.601 356.146 465.015 355.788 465.015 354.847V347.656C465.015 346.715 464.601 346.357 463.942 346.357C463.283 346.357 462.869 346.715 462.869 347.656V354.847C462.869 355.788 463.283 356.146 463.942 356.146ZM468.486 357.84V344.663H471.084L473.098 352.551H473.136V344.663H474.981V357.84H472.853L470.368 348.221H470.331V357.84H468.486ZM476.519 357.84V344.663H482.166V346.546H478.59V350.028H481.432V351.91H478.59V355.957H482.166V357.84H476.519ZM484.976 357.84V346.546H482.811V344.663H489.212V346.546H487.047V357.84H484.976ZM490.214 357.84V344.663H492.285V357.84H490.214ZM493.421 357.84V355.995L497.261 346.546H493.61V344.663H499.483V346.508L495.643 355.957H499.483V357.84H493.421ZM500.109 357.84L502.255 344.663H505.06L507.206 357.84H505.135L504.759 355.223V355.261H502.406L502.03 357.84H500.109ZM502.651 353.473H504.514L503.592 346.96H503.555L502.651 353.473ZM514.141 349.105H512.184V347.581C512.184 346.715 511.77 346.357 511.148 346.357C510.527 346.357 510.113 346.715 510.113 347.581V354.941C510.113 355.807 510.527 356.146 511.148 356.146C511.77 356.146 512.184 355.807 512.184 354.941V352.927H514.141V354.79C514.141 356.654 513.257 357.821 511.581 358.009V358.574C512.409 358.574 512.88 358.8 512.88 359.459C512.88 360.475 512.09 360.607 510.96 360.607C509.925 360.607 509.153 360.381 509.153 359.515V359.327H510.546V359.477C510.546 359.76 510.753 359.854 510.96 359.854C511.299 359.854 511.45 359.723 511.45 359.402C511.45 359.045 511.223 358.913 510.753 358.913H510.659V358.009C508.946 357.84 508.042 356.673 508.042 354.79V347.712C508.042 345.68 509.096 344.475 511.092 344.475C513.087 344.475 514.141 345.68 514.141 347.712V349.105ZM516.773 343.854L515.775 343.252C516.246 342.198 516.773 341.67 517.488 341.67C517.997 341.67 518.336 341.859 518.618 342.028C518.843 342.16 519.032 342.273 519.258 342.273C519.559 342.273 519.766 342.066 520.011 341.539L521.008 342.141C520.538 343.195 520.011 343.722 519.295 343.722C518.787 343.722 518.448 343.534 518.166 343.364C517.94 343.233 517.751 343.12 517.526 343.12C517.225 343.12 517.017 343.327 516.773 343.854ZM514.834 357.84L516.98 344.663H519.785L521.931 357.84H519.86L519.484 355.223V355.261H517.131L516.754 357.84H514.834ZM517.375 353.473H519.239L518.317 346.96H518.279L517.375 353.473ZM525.892 358.028C523.858 358.028 522.748 356.824 522.748 354.715V347.788C522.748 345.68 523.858 344.475 525.892 344.475C527.924 344.475 529.035 345.68 529.035 347.788V354.715C529.035 356.824 527.924 358.028 525.892 358.028ZM525.892 356.146C526.55 356.146 526.965 355.788 526.965 354.847V347.656C526.965 346.715 526.55 346.357 525.892 346.357C525.232 346.357 524.819 346.715 524.819 347.656V354.847C524.819 355.788 525.232 356.146 525.892 356.146Z" fill="white"/>
<path d="M260.567 78.6519C249.461 78.6519 240.33 86.2886 240.33 95.6763C240.33 99.4285 241.786 103.242 244.455 106.198L240.686 110.506C240.503 110.713 240.386 110.969 240.346 111.243C240.306 111.516 240.345 111.796 240.46 112.047C240.573 112.298 240.758 112.512 240.99 112.662C241.222 112.811 241.493 112.891 241.769 112.891H262.005C270.205 112.891 280.803 105.831 280.803 95.6763C280.803 86.2886 271.672 78.6519 260.567 78.6519ZM251.839 98.3133C250.253 98.3133 248.962 97.0221 248.962 95.4362C248.962 93.8497 250.253 92.5592 251.839 92.5592C253.425 92.5592 254.716 93.8497 254.716 95.4362C254.716 97.0221 253.425 98.3133 251.839 98.3133ZM260.567 98.3133C258.981 98.3133 257.689 97.0221 257.689 95.4362C257.689 93.8497 258.981 92.5592 260.567 92.5592C262.153 92.5592 263.444 93.8497 263.444 95.4362C263.444 97.0221 262.153 98.3133 260.567 98.3133ZM269.294 98.3133C267.708 98.3133 266.417 97.0221 266.417 95.4362C266.417 93.8497 267.708 92.5592 269.294 92.5592C270.88 92.5592 272.171 93.8497 272.171 95.4362C272.171 97.0221 270.881 98.3133 269.294 98.3133Z" fill="white"/>
<path d="M289.088 93.0605L285.701 89.1083C288.119 86.3804 289.435 83.053 289.435 79.6115C289.435 70.8858 281.045 63.7866 270.733 63.7866C261.408 63.7866 253.486 69.5975 252.087 77.1615C254.689 76.2769 257.607 75.7742 260.567 75.7742C273.165 75.7742 283.515 84.5741 283.667 95.4363H287.996C289.226 95.4363 289.886 93.9887 289.088 93.0605Z" fill="white"/>
<path d="M245.78 537.744L242.312 541.213C241.355 542.171 241.355 543.724 242.312 544.683C243.27 545.64 244.823 545.64 245.78 544.683L249.249 541.213C250.206 540.255 250.206 538.702 249.249 537.744C248.291 536.786 246.738 536.786 245.78 537.744Z" fill="white"/>
<path d="M257.341 549.308L253.872 552.778C252.915 553.735 252.915 555.289 253.872 556.246C254.83 557.205 256.382 557.205 257.341 556.246L260.809 552.778C261.766 551.819 261.766 550.266 260.809 549.308C259.851 548.35 258.299 548.35 257.341 549.308Z" fill="white"/>
<path d="M265.433 559.717L266.589 558.56C267.547 557.602 267.547 556.049 266.589 555.091C265.631 554.133 264.078 554.133 263.121 555.091L261.965 556.247C261.007 557.206 261.007 558.759 261.965 559.717C262.922 560.675 264.475 560.675 265.433 559.717Z" fill="white"/>
<path d="M253.873 541.213L248.093 546.996C247.135 547.954 247.135 549.507 248.093 550.465C249.051 551.423 250.603 551.423 251.561 550.465L257.341 544.683C258.299 543.724 258.299 542.171 257.341 541.213C256.383 540.255 254.831 540.255 253.873 541.213Z" fill="white"/>
<path d="M257.918 516.349L253.72 512.105C253.082 511.467 252.047 511.467 251.408 512.105L237.535 525.982C236.897 526.622 236.897 527.657 237.535 528.296L240.37 531.175C241.266 532.072 241.943 533.167 242.345 534.371L242.89 536.009L243.468 535.431C245.7 533.199 249.33 533.199 251.561 535.431C252.268 536.138 252.725 536.992 252.983 537.891C255.138 536.776 257.849 537.095 259.653 538.9C261.457 540.705 261.776 543.417 260.661 545.572C261.561 545.831 262.414 546.287 263.121 546.995C264.254 548.128 264.805 549.622 264.788 551.11C266.276 551.093 267.769 551.644 268.901 552.778C269.47 553.347 271.214 555.09 271.214 555.09C272.171 556.048 273.724 556.048 274.682 555.09C275.64 554.132 275.64 552.579 274.682 551.621L270.636 547.574C269.997 546.935 269.997 545.899 270.636 545.26C271.274 544.622 272.309 544.622 272.948 545.26L276.994 549.309C277.952 550.266 279.505 550.266 280.462 549.309C281.419 548.351 281.419 546.797 280.462 545.839L276.415 541.791C275.777 541.152 275.777 540.117 276.415 539.479C277.054 538.84 278.09 538.84 278.728 539.479L282.775 543.526C283.732 544.483 285.284 544.483 286.242 543.526C287.2 542.568 287.2 541.015 286.242 540.057L276.299 530.11C273.126 532.208 268.803 531.862 266.011 529.07C265.373 528.432 264.337 528.432 263.699 529.07C260.513 532.259 255.326 532.259 252.139 529.07C250.226 527.158 250.226 524.045 252.139 522.132L257.918 516.349Z" fill="white"/>
<path d="M278.509 511.942C277.871 511.303 276.836 511.303 276.197 511.942L272.739 515.401C272.132 516.008 271.309 516.35 270.45 516.35H264.574C263.273 516.35 262.026 516.867 261.106 517.787L254.45 524.445C253.803 525.093 253.803 526.11 254.45 526.758C256.369 528.678 259.467 528.678 261.386 526.758C263.116 525.028 265.825 524.862 267.743 526.261C270.321 528.142 273.76 528.257 276.017 526L276.415 525.601L287.664 536.853C287.82 536.277 287.822 535.667 287.67 535.101C287.406 534.12 287.789 532.726 288.508 532.008L292.382 528.132C293.02 527.493 293.02 526.458 292.382 525.819L278.509 511.942Z" fill="white"/>
<path d="M501.458 303.757C494.318 303.757 488.51 309.565 488.51 316.704C488.51 323.844 494.318 329.652 501.458 329.652C508.597 329.652 514.501 323.844 514.501 316.704C514.501 309.565 508.597 303.757 501.458 303.757ZM502.934 323.638C502.922 323.642 502.909 323.64 502.896 323.644V325.336C502.896 326.131 502.253 326.775 501.458 326.775C500.662 326.775 500.019 326.131 500.019 325.336V323.635C499.072 323.315 498.164 322.707 497.388 321.782C496.876 321.174 496.955 320.266 497.564 319.756C498.173 319.245 499.083 319.323 499.59 319.933C500.352 320.839 501.213 321.199 501.949 320.934C502.515 320.728 502.896 320.184 502.896 319.582C502.896 318.788 502.251 318.143 501.458 318.143C499.077 318.143 497.142 316.207 497.142 313.827C497.142 312.09 498.176 310.528 499.776 309.852C499.855 309.818 499.939 309.82 500.019 309.791V308.073C500.019 307.277 500.662 306.634 501.458 306.634C502.253 306.634 502.896 307.277 502.896 308.073V309.794C503.641 310.045 504.367 310.445 505.016 311.074C505.587 311.626 505.601 312.536 505.048 313.108C504.495 313.678 503.583 313.691 503.013 313.139C502.313 312.46 501.539 312.227 500.898 312.501C500.365 312.727 500.019 313.247 500.019 313.827C500.019 314.621 500.664 315.266 501.458 315.266C503.838 315.266 505.774 317.202 505.774 319.582C505.774 321.39 504.633 323.019 502.934 323.638Z" fill="white"/>
<path d="M466.835 318.144C466.04 318.144 465.397 318.787 465.397 319.583V334.065C465.397 334.86 466.04 335.503 466.835 335.503H471.151V318.144H466.835Z" fill="white"/>
<path d="M499.516 295.377L489.446 286.745C488.909 286.282 488.111 286.282 487.574 286.745L477.504 295.377C477.046 295.768 476.881 296.403 477.091 296.968C477.299 297.533 477.836 297.907 478.439 297.907H482.755C482.755 310.345 482.755 323.065 482.755 335.503C486.462 335.503 489.024 335.503 492.825 335.503C493.621 335.503 494.264 334.86 494.264 334.065V330.784C489.148 328.158 485.632 322.841 485.632 316.705C485.632 310.571 489.148 305.252 494.264 302.628V297.907H498.58C499.182 297.907 499.721 297.533 499.929 296.968C500.138 296.403 499.974 295.768 499.516 295.377Z" fill="white"/>
<path d="M475.562 306.635C474.767 306.635 474.124 307.278 474.124 308.073V335.503C476.225 335.503 477.838 335.503 479.878 335.503V306.635H475.562Z" fill="white"/>
</g>
<defs>
<filter id="filter3_d_9_208" x="827.758" y="205.992" width="236.691" height="236.689" filterUnits="userSpaceOnUse" color-interpolation-filters="sRGB">
<feFlood flood-opacity="0" result="BackgroundImageFix"/>
<feColorMatrix in="SourceAlpha" type="matrix" values="0 0 0 0 0 0 0 0 0 0 0 0 0 0 0 0 0 0 127 0" result="hardAlpha"/>
<feOffset/>
<feGaussianBlur stdDeviation="18.2494"/>
<feColorMatrix type="matrix" values="0 0 0 0 1 0 0 0 0 0 0 0 0 0 0 0 0 0 0.51 0"/>
<feBlend mode="normal" in2="BackgroundImageFix" result="effect1_dropShadow_9_208"/>
<feBlend mode="normal" in="SourceGraphic" in2="effect1_dropShadow_9_208" result="shape"/>
</filter>
<filter id="filter4_d_9_208" x="146.829" y="-16.6195" width="236.69" height="236.69" filterUnits="userSpaceOnUse" color-interpolation-filters="sRGB">
<feFlood flood-opacity="0" result="BackgroundImageFix"/>
<feColorMatrix in="SourceAlpha" type="matrix" values="0 0 0 0 0 0 0 0 0 0 0 0 0 0 0 0 0 0 127 0" result="hardAlpha"/>
<feOffset/>
<feGaussianBlur stdDeviation="18.2494"/>
<feColorMatrix type="matrix" values="0 0 0 0 1 0 0 0 0 0 0 0 0 0 0 0 0 0 0.51 0"/>
<feBlend mode="normal" in2="BackgroundImageFix" result="effect1_dropShadow_9_208"/>
<feBlend mode="normal" in="SourceGraphic" in2="effect1_dropShadow_9_208" result="shape"/>
</filter>
<filter id="filter9_d_9_208" x="146.829" y="431.058" width="236.689" height="236.689" filterUnits="userSpaceOnUse" color-interpolation-filters="sRGB">
<feFlood flood-opacity="0" result="BackgroundImageFix"/>
<feColorMatrix in="SourceAlpha" type="matrix" values="0 0 0 0 0 0 0 0 0 0 0 0 0 0 0 0 0 0 127 0" result="hardAlpha"/>
<feOffset/>
<feGaussianBlur stdDeviation="18.2494"/>
<feColorMatrix type="matrix" values="0 0 0 0 1 0 0 0 0 0 0 0 0 0 0 0 0 0 0.51 0"/>
<feBlend mode="normal" in2="BackgroundImageFix" result="effect1_dropShadow_9_208"/>
<feBlend mode="normal" in="SourceGraphic" in2="effect1_dropShadow_9_208" result="shape"/>
</filter>
<filter id="filter10_d_9_208" x="371.9" y="205.991" width="236.689" height="236.69" filterUnits="userSpaceOnUse" color-interpolation-filters="sRGB">
<feFlood flood-opacity="0" result="BackgroundImageFix"/>
<feColorMatrix in="SourceAlpha" type="matrix" values="0 0 0 0 0 0 0 0 0 0 0 0 0 0 0 0 0 0 127 0" result="hardAlpha"/>
<feOffset/>
<feGaussianBlur stdDeviation="18.2494"/>
<feColorMatrix type="matrix" values="0 0 0 0 1 0 0 0 0 0 0 0 0 0 0 0 0 0 0.51 0"/>
<feBlend mode="normal" in2="BackgroundImageFix" result="effect1_dropShadow_9_208"/>
<feBlend mode="normal" in="SourceGraphic" in2="effect1_dropShadow_9_208" result="shape"/>
</filter>
<linearGradient id="paint0_linear_9_208" x1="698.798" y1="-54.8908" x2="516.017" y2="244.109" gradientUnits="userSpaceOnUse">
<stop stop-color="#FF0000" stop-opacity="0.5"/>
<stop offset="1" stop-color="#F83535" stop-opacity="0.3"/>
</linearGradient>
<radialGradient id="paint1_radial_9_208" cx="0" cy="0" r="1" gradientUnits="userSpaceOnUse" gradientTransform="translate(699.94 132.994) rotate(90) scale(264.396 740.86)">
<stop stop-color="#FF481F"/>
<stop offset="0.258425" stop-color="#E50914"/>
<stop offset="0.656611" stop-color="#280000"/>
</radialGradient>
<linearGradient id="paint2_linear_9_208" x1="698.637" y1="-54.7715" x2="779.909" y2="309.973" gradientUnits="userSpaceOnUse">
<stop stop-color="#E50914"/>
<stop offset="1" stop-color="#FF7F86" stop-opacity="0"/>
</linearGradient>
<linearGradient id="paint3_linear_9_208" x1="-125.258" y1="306.378" x2="173.742" y2="123.599" gradientUnits="userSpaceOnUse">
<stop stop-color="#FF0000" stop-opacity="0.5"/>
<stop offset="1" stop-color="#F83535" stop-opacity="0.3"/>
</linearGradient>
<radialGradient id="paint4_radial_9_208" cx="0" cy="0" r="1" gradientUnits="userSpaceOnUse" gradientTransform="translate(62.6265 307.522) rotate(90) scale(740.868 264.396)">
<stop stop-color="#FF481F"/>
<stop offset="0.258425" stop-color="#E50914"/>
<stop offset="0.656611" stop-color="#280000"/>
</radialGradient>
<linearGradient id="paint5_linear_9_208" x1="-125.138" y1="306.218" x2="239.605" y2="387.491" gradientUnits="userSpaceOnUse">
<stop stop-color="#E50914"/>
<stop offset="1" stop-color="#FF7F86" stop-opacity="0"/>
</linearGradient>
<linearGradient id="paint6_linear_9_208" x1="743.755" y1="707.713" x2="926.534" y2="408.716" gradientUnits="userSpaceOnUse">
<stop stop-color="#FF0000" stop-opacity="0.5"/>
<stop offset="1" stop-color="#F83535" stop-opacity="0.3"/>
</linearGradient>
<radialGradient id="paint7_radial_9_208" cx="0" cy="0" r="1" gradientUnits="userSpaceOnUse" gradientTransform="translate(742.611 519.829) rotate(90) scale(264.393 740.863)">
<stop stop-color="#FF481F"/>
<stop offset="0.258425" stop-color="#E50914"/>
<stop offset="0.656611" stop-color="#280000"/>
</radialGradient>
<linearGradient id="paint8_linear_9_208" x1="743.916" y1="707.596" x2="662.643" y2="342.852" gradientUnits="userSpaceOnUse">
<stop stop-color="#E50914"/>
<stop offset="1" stop-color="#FF7F86" stop-opacity="0"/>
</linearGradient>
<radialGradient id="paint9_radial_9_208" cx="0" cy="0" r="1" gradientUnits="userSpaceOnUse" gradientTransform="translate(946.103 324.337) rotate(90) scale(125.521 125.522)">
<stop stop-color="#FF481F"/>
<stop offset="0.258425" stop-color="#E50914"/>
<stop offset="0.656611" stop-color="#280000"/>
</radialGradient>
<radialGradient id="paint10_radial_9_208" cx="0" cy="0" r="1" gradientUnits="userSpaceOnUse" gradientTransform="translate(946.103 324.337) rotate(90) scale(323.437 323.439)">
<stop stop-color="#FF481F"/>
<stop offset="0.258425" stop-color="#E50914"/>
<stop offset="0.656611" stop-color="#280000"/>
</radialGradient>
<radialGradient id="paint11_radial_9_208" cx="0" cy="0" r="1" gradientUnits="userSpaceOnUse" gradientTransform="translate(946.138 324.318) rotate(90.2985) scale(82.0712 75.9992)">
<stop stop-color="#E50914"/>
<stop offset="0.475962" stop-color="#F17941" stop-opacity="0.7"/>
<stop offset="1" stop-color="#FF7F86" stop-opacity="0"/>
</radialGradient>
<radialGradient id="paint12_radial_9_208" cx="0" cy="0" r="1" gradientUnits="userSpaceOnUse" gradientTransform="translate(265.174 101.726) rotate(135) scale(96.9231 95.6962)">
<stop stop-color="#FF481F"/>
<stop offset="0.258425" stop-color="#E50914"/>
<stop offset="0.656611" stop-color="#280000"/>
</radialGradient>
<radialGradient id="paint13_radial_9_208" cx="0" cy="0" r="1" gradientUnits="userSpaceOnUse" gradientTransform="translate(265.174 101.726) rotate(135) scale(249.747 246.585)">
<stop stop-color="#FF481F"/>
<stop offset="0.258425" stop-color="#E50914"/>
<stop offset="0.656611" stop-color="#280000"/>
</radialGradient>
<radialGradient id="paint14_radial_9_208" cx="0" cy="0" r="1" gradientUnits="userSpaceOnUse" gradientTransform="translate(265.957 102.017) rotate(90.2985) scale(82.0712 75.9992)">
<stop stop-color="#E50914"/>
<stop offset="0.475962" stop-color="#F17941" stop-opacity="0.7"/>
<stop offset="1" stop-color="#FF7F86" stop-opacity="0"/>
</radialGradient>
<linearGradient id="paint15_linear_9_208" x1="103.041" y1="78.1973" x2="112.71" y2="219.356" gradientUnits="userSpaceOnUse">
<stop stop-color="#FF0000" stop-opacity="0.5"/>
<stop offset="1" stop-color="#F83535" stop-opacity="0.3"/>
</linearGradient>
<radialGradient id="paint16_radial_9_208" cx="0" cy="0" r="1" gradientUnits="userSpaceOnUse" gradientTransform="translate(278.906 137.414) rotate(90) scale(247.05 740.864)">
<stop stop-color="#FF481F"/>
<stop offset="0.258425" stop-color="#E50914"/>
<stop offset="0.656611" stop-color="#280000"/>
</radialGradient>
<linearGradient id="paint17_linear_9_208" x1="103.001" y1="78.2752" x2="205.077" y2="306.744" gradientUnits="userSpaceOnUse">
<stop stop-color="#E50914"/>
<stop offset="1" stop-color="#FF7F86" stop-opacity="0"/>
</linearGradient>
<linearGradient id="paint18_linear_9_208" x1="476.09" y1="169.96" x2="666.074" y2="471.579" gradientUnits="userSpaceOnUse">
<stop stop-color="#FF0000" stop-opacity="0.5"/>
<stop offset="1" stop-color="#F83535" stop-opacity="0.3"/>
</linearGradient>
<radialGradient id="paint19_radial_9_208" cx="0" cy="0" r="1" gradientUnits="userSpaceOnUse" gradientTransform="translate(532.944 345.825) rotate(90) scale(740.861 236.822)">
<stop stop-color="#FF481F"/>
<stop offset="0.258425" stop-color="#E50914"/>
<stop offset="0.656611" stop-color="#280000"/>
</radialGradient>
<linearGradient id="paint20_linear_9_208" x1="476.077" y1="170.19" x2="663.165" y2="215.728" gradientUnits="userSpaceOnUse">
<stop stop-color="#E50914"/>
<stop offset="1" stop-color="#FF7F86" stop-opacity="0"/>
</linearGradient>
<linearGradient id="paint21_linear_9_208" x1="388.491" y1="169.141" x2="578.981" y2="469.694" gradientUnits="userSpaceOnUse">
<stop stop-color="#FF0000" stop-opacity="0.5"/>
<stop offset="1" stop-color="#F83535" stop-opacity="0.3"/>
</linearGradient>
<radialGradient id="paint22_radial_9_208" cx="0" cy="0" r="1" gradientUnits="userSpaceOnUse" gradientTransform="translate(444.466 345.006) rotate(90) scale(740.863 235.728)">
<stop stop-color="#FF481F"/>
<stop offset="0.258425" stop-color="#E50914"/>
<stop offset="0.656611" stop-color="#280000"/>
</radialGradient>
<linearGradient id="paint23_linear_9_208" x1="388.478" y1="169.371" x2="574.536" y2="214.379" gradientUnits="userSpaceOnUse">
<stop stop-color="#E50914"/>
<stop offset="1" stop-color="#FF7F86" stop-opacity="0"/>
</linearGradient>
<linearGradient id="paint24_linear_9_208" x1="60.8649" y1="458.643" x2="70.6243" y2="600.458" gradientUnits="userSpaceOnUse">
<stop stop-color="#FF0000" stop-opacity="0.5"/>
<stop offset="1" stop-color="#F83535" stop-opacity="0.3"/>
</linearGradient>
<radialGradient id="paint25_radial_9_208" cx="0" cy="0" r="1" gradientUnits="userSpaceOnUse" gradientTransform="translate(235.055 517.559) rotate(90) scale(248.295 740.861)">
<stop stop-color="#FF481F"/>
<stop offset="0.258425" stop-color="#E50914"/>
<stop offset="0.656611" stop-color="#280000"/>
</radialGradient>
<linearGradient id="paint26_linear_9_208" x1="60.8248" y1="458.721" x2="163.697" y2="687.897" gradientUnits="userSpaceOnUse">
<stop stop-color="#E50914"/>
<stop offset="1" stop-color="#FF7F86" stop-opacity="0"/>
</linearGradient>
<radialGradient id="paint27_radial_9_208" cx="0" cy="0" r="1" gradientUnits="userSpaceOnUse" gradientTransform="translate(265.174 549.403) rotate(135) scale(249.747 246.585)">
<stop stop-color="#FF481F"/>
<stop offset="0.258425" stop-color="#E50914"/>
<stop offset="0.656611" stop-color="#280000"/>
</radialGradient>
<radialGradient id="paint28_radial_9_208" cx="0" cy="0" r="1" gradientUnits="userSpaceOnUse" gradientTransform="translate(265.957 549.694) rotate(90.2985) scale(82.0712 75.9992)">
<stop stop-color="#E50914"/>
<stop offset="0.475962" stop-color="#F17941" stop-opacity="0.7"/>
<stop offset="1" stop-color="#FF7F86" stop-opacity="0"/>
</radialGradient>
<radialGradient id="paint29_radial_9_208" cx="0" cy="0" r="1" gradientUnits="userSpaceOnUse" gradientTransform="translate(490.244 324.336) rotate(135) scale(96.9231 95.6962)">
<stop stop-color="#FF481F"/>
<stop offset="0.258425" stop-color="#E50914"/>
<stop offset="0.656611" stop-color="#280000"/>
</radialGradient>
<radialGradient id="paint30_radial_9_208" cx="0" cy="0" r="1" gradientUnits="userSpaceOnUse" gradientTransform="translate(490.244 324.336) rotate(135) scale(249.747 246.585)">
<stop stop-color="#FF481F"/>
<stop offset="0.258425" stop-color="#E50914"/>
<stop offset="0.656611" stop-color="#280000"/>
</radialGradient>
<radialGradient id="paint31_radial_9_208" cx="0" cy="0" r="1" gradientUnits="userSpaceOnUse" gradientTransform="translate(491.027 324.628) rotate(90.2985) scale(82.0712 75.9992)">
<stop stop-color="#E50914"/>
<stop offset="0.475962" stop-color="#F17941" stop-opacity="0.7"/>
<stop offset="1" stop-color="#FF7F86" stop-opacity="0"/>
</radialGradient>
<linearGradient id="paint32_linear_9_208" x1="851.782" y1="130.517" x2="1037.02" y2="441.441" gradientUnits="userSpaceOnUse">
<stop stop-color="#FF0000" stop-opacity="0.5"/>
<stop offset="1" stop-color="#F83535" stop-opacity="0.3"/>
</linearGradient>
<radialGradient id="paint33_radial_9_208" cx="0" cy="0" r="1" gradientUnits="userSpaceOnUse" gradientTransform="translate(909.268 304.708) rotate(90) scale(740.863 242.19)">
<stop stop-color="#FF481F"/>
<stop offset="0.258425" stop-color="#E50914"/>
<stop offset="0.656611" stop-color="#280000"/>
</radialGradient>
<linearGradient id="paint34_linear_9_208" x1="851.767" y1="130.748" x2="1048.27" y2="181.316" gradientUnits="userSpaceOnUse">
<stop stop-color="#E50914"/>
<stop offset="1" stop-color="#FF7F86" stop-opacity="0"/>
</linearGradient>
<clipPath id="clip0_9_208">
<rect width="1041" height="671.494" fill="white"/>
</clipPath>
</defs>
</svg>
