<svg viewBox="32 32 32 32" fill="none" xmlns="http://www.w3.org/2000/svg">
<g>
<path d="M39.5415 47.5609L37.9534 49.146C37.5149 49.5833 37.5149 50.2932 37.9534 50.7312C38.3919 51.1685 39.103 51.1685 39.5415 50.7312L41.1237 49.146C41.5622 48.7081 41.5622 47.9988 41.1237 47.5609C40.6852 47.1229 39.98 47.1229 39.5415 47.5609Z" fill="#E50914"/>
<path d="M44.8212 52.8441L43.239 54.4292C42.8005 54.8665 42.8005 55.5764 43.239 56.0144C43.6716 56.4517 44.3827 56.4517 44.8212 56.0144L46.4035 54.4292C46.842 53.9913 46.842 53.282 46.4035 52.8441C45.9709 52.4061 45.2598 52.4061 44.8212 52.8441Z" fill="#E50914"/>
<path d="M48.519 57.5993L49.0464 57.0713C49.4849 56.6334 49.4849 55.9235 49.0464 55.4862C48.6079 55.0489 47.9027 55.0489 47.4642 55.4862L46.9368 56.0148C46.4983 56.4521 46.4983 57.162 46.9368 57.5993C47.3694 58.0372 48.0805 58.0372 48.519 57.5993Z" fill="#E50914"/>
<path d="M43.2388 49.1468L40.596 51.7885C40.1575 52.2264 40.1575 52.9357 40.596 53.3737C41.0345 53.811 41.7456 53.811 42.1782 53.3737L44.8211 50.7319C45.2596 50.294 45.2596 49.5841 44.8211 49.1468C44.3826 48.7089 43.6714 48.7089 43.2388 49.1468Z" fill="#E50914"/>
<path d="M45.0878 37.7868L43.1678 35.8478C42.8775 35.5559 42.4035 35.5559 42.1131 35.8478L35.7725 42.1875C35.4821 42.4796 35.4821 42.9525 35.7725 43.2447L37.0702 44.5602C37.4791 44.9702 37.7872 45.4698 37.9709 46.0203L38.2198 46.7687L38.4806 46.5044C39.4998 45.4852 41.159 45.4852 42.1783 46.5044C42.5042 46.8274 42.7116 47.2179 42.8301 47.6286C43.8138 47.1189 45.0523 47.2647 45.876 48.0896C46.6996 48.9139 46.8477 50.1529 46.3381 51.1378C46.747 51.2557 47.1381 51.4643 47.464 51.7879C47.9796 52.3052 48.2344 52.9878 48.2225 53.6675C48.904 53.6598 49.5855 53.9123 50.101 54.4296C50.3618 54.6897 51.1617 55.4861 51.1617 55.4861C51.5943 55.9241 52.3054 55.9241 52.7439 55.4861C53.1824 55.0488 53.1824 54.3389 52.7439 53.901L50.8951 52.0522C50.6047 51.76 50.6047 51.2871 50.8951 50.995C51.1854 50.7034 51.6595 50.7034 51.9499 50.995L53.7987 52.8444C54.2372 53.2823 54.9483 53.2823 55.3868 52.8444C55.8194 52.4071 55.8194 51.6972 55.3868 51.2593L53.538 49.4104C53.2417 49.1183 53.2417 48.6454 53.538 48.3539C53.8283 48.0617 54.3024 48.0617 54.5928 48.3539L56.4416 50.2027C56.8801 50.6406 57.5853 50.6406 58.0238 50.2027C58.4623 49.7654 58.4623 49.0555 58.0238 48.6182L53.4846 44.0737C52.0328 45.0319 50.0595 44.8742 48.7855 43.5984C48.4892 43.3069 48.0152 43.3069 47.7248 43.5984C46.273 45.055 43.9026 45.055 42.4449 43.5984C41.5738 42.7244 41.5738 41.3022 42.4449 40.4287L45.0878 37.7868Z" fill="#E50914"/>
<path d="M54.4919 35.7736C54.2015 35.4817 53.7275 35.4817 53.4371 35.7736L51.8549 37.354C51.5764 37.6314 51.2031 37.7873 50.812 37.7873H48.1276C47.5291 37.7873 46.9602 38.0235 46.5395 38.4438L43.4996 41.4858C43.2033 41.7815 43.2033 42.2467 43.4996 42.5424C44.3766 43.4194 45.7928 43.4194 46.6698 42.5424C47.458 41.7519 48.6965 41.6766 49.5735 42.3154C50.7527 43.1752 52.3231 43.2274 53.3541 42.1963L53.5378 42.0138L58.6755 47.155C58.7466 46.8913 58.7466 46.6128 58.6755 46.3544C58.557 45.9058 58.7348 45.2694 59.0607 44.9411L60.8325 43.1705C61.1229 42.8784 61.1229 42.4055 60.8325 42.1139L54.4919 35.7736Z" fill="#E50914"/>
</g>
<defs>
<filter id="filter0_d_179_1233" x="-3.05176e-05" y="-3.05176e-05" width="96.605" height="93.4825" filterUnits="userSpaceOnUse" color-interpolation-filters="sRGB">
<feFlood flood-opacity="0" result="BackgroundImageFix"/>
<feColorMatrix in="SourceAlpha" type="matrix" values="0 0 0 0 0 0 0 0 0 0 0 0 0 0 0 0 0 0 127 0" result="hardAlpha"/>
<feOffset/>
<feGaussianBlur stdDeviation="17.7774"/>
<feColorMatrix type="matrix" values="0 0 0 0 1 0 0 0 0 0.718468 0 0 0 0 0.718468 0 0 0 0.05 0"/>
<feBlend mode="normal" in2="BackgroundImageFix" result="effect1_dropShadow_179_1233"/>
<feBlend mode="normal" in="SourceGraphic" in2="effect1_dropShadow_179_1233" result="shape"/>
</filter>
</defs>
</svg>
