<svg width="85" height="85" viewBox="0 0 85 85" fill="none" xmlns="http://www.w3.org/2000/svg">
<path d="M81.9895 0H71.9269C70.5578 0 69.451 1.10682 69.451 2.4743V4.9485H49.1996C48.1748 2.07418 45.4546 0 42.2327 0C39.0108 0 36.2889 2.07418 35.2642 4.9485H15.0127V2.4743C15.0127 1.10682 13.9059 0 12.5385 0H2.4759C1.10679 0 0 1.10682 0 2.4743V12.3713C0 13.7404 1.10679 14.8472 2.4759 14.8472H12.5385C13.9059 14.8472 15.0127 13.7404 15.0127 12.3713V9.86427H25.1753C16.5868 15.2292 10.925 24.6523 10.2479 35.2051C7.27844 36.1774 5.11412 38.942 5.11412 42.2311C5.11412 46.3237 8.44424 49.6538 12.5385 49.6538C16.6311 49.6538 19.9612 46.3237 19.9612 42.2311C19.9612 39.0731 17.9723 36.389 15.1882 35.3183C16.0326 23.5521 24.2423 13.6338 35.6626 10.8054C36.8972 13.1927 39.3633 14.8472 42.2327 14.8472C45.1021 14.8472 47.5665 13.1927 48.8028 10.8054C60.223 13.6338 68.4328 23.5521 69.2772 35.3183C66.4931 36.389 64.5025 39.0731 64.5025 42.2311C64.5025 46.3237 67.8327 49.6538 71.9269 49.6538C76.0195 49.6538 79.3496 46.3237 79.3496 42.2311C79.3496 38.942 77.1853 36.1774 74.2159 35.2051C73.5387 24.6523 67.877 15.262 59.2884 9.897H69.451V12.3713C69.451 13.7404 70.5578 14.8472 71.9269 14.8472H81.9895C83.357 14.8472 84.4637 13.7404 84.4637 12.3713V2.4743C84.4637 1.10682 83.357 0 81.9895 0Z" fill="#E50914"/>
<path d="M59.0685 81.3896C57.7748 77.4299 54.0446 74.3965 49.6569 74.3965H34.8097C30.422 74.3965 26.6934 77.4299 25.3981 81.3896C24.8996 82.9178 26.1982 84.4591 27.8051 84.4591H56.6614C58.2683 84.4591 59.5669 82.9178 59.0685 81.3896Z" fill="#E50914"/>
<path d="M64.0872 50.757L44.7065 21.6875V45.1625C47.5808 46.1873 49.655 48.9091 49.655 52.1311C49.655 56.2236 46.3248 59.5538 42.2323 59.5538C38.138 59.5538 34.8079 56.2236 34.8079 52.1311C34.8079 48.9091 36.8837 46.1873 39.758 45.1625V21.6875L20.3772 50.757C19.7214 51.7392 19.8526 53.046 20.6855 53.8806C25.229 58.4225 28.1328 64.2743 29.2527 70.5526C30.9727 69.8557 32.8419 69.4525 34.8079 69.4525H49.655C51.6209 69.4525 53.4918 69.8541 55.2102 70.5526C56.33 64.2743 59.2338 58.4225 63.7773 53.8806C64.6103 53.046 64.7414 51.7392 64.0872 50.757Z" fill="#E50914"/>
<path d="M42.233 49.6543C40.8672 49.6543 39.7588 50.7644 39.7588 52.1302C39.7588 53.4944 40.8672 54.6044 42.233 54.6044C43.5972 54.6044 44.7073 53.4944 44.7073 52.1302C44.7073 50.7644 43.5972 49.6543 42.233 49.6543Z" fill="#E50914"/>
</svg>
