<svg width="96" height="110" viewBox="0 0 96 110" fill="none" xmlns="http://www.w3.org/2000/svg">
<path d="M53.7374 50.9882C53.7374 47.5989 51.0325 44.8438 47.7094 44.8438C44.3842 44.8438 41.6812 47.5989 41.6812 50.9882C41.6812 54.3755 44.3842 57.1308 47.7094 57.1308C51.0325 57.1308 53.7374 54.3755 53.7374 50.9882Z" fill="#E50914"/>
<path d="M59.2027 75.2523C59.2027 68.7927 54.0475 63.5371 47.7103 63.5371C41.3731 63.5371 36.2158 68.7927 36.2158 75.2523V83.7085H44.5678V90.6657C40.9096 91.9862 38.2828 95.5481 38.2828 99.7241C38.2828 105.022 42.5109 109.332 47.7103 109.332C52.9077 109.332 57.1378 105.022 57.1378 99.7241C57.1378 95.5481 54.511 91.9862 50.8528 90.6657V83.7085H59.2027V75.2523Z" fill="#E50914"/>
<path d="M90.708 68.8743C87.1601 66.7853 82.8196 67.3251 79.8678 69.8917L73.9559 66.414L80.6102 54.6667L73.9559 42.9195L79.8678 39.4419C81.5875 40.9369 83.7768 41.7456 86.0083 41.7456C87.6076 41.7456 89.227 41.3322 90.708 40.4593C95.209 37.8105 96.7562 31.9228 94.1575 27.3334C91.5588 22.7441 85.7815 21.1668 81.2785 23.8157C77.7306 25.9047 76.0208 30.0043 76.7252 33.8933L70.8135 37.371L64.1593 25.6257H50.8527V18.6685C54.5109 17.3461 57.1377 13.7861 57.1377 9.61012C57.1377 4.31041 52.9076 0 47.7102 0C42.5109 0 38.2827 4.31041 38.2827 9.61012C38.2827 13.7861 40.9096 17.3461 44.5678 18.6685V25.6257H31.2593L24.6051 37.373L18.6932 33.8933C19.3996 30.0043 17.6879 25.9047 14.14 23.8157C9.63898 21.1668 3.86173 22.7441 1.26104 27.3334C-1.33765 31.9228 0.209466 37.8105 4.71252 40.4593C6.19347 41.3322 7.81088 41.7456 9.41023 41.7456C11.6417 41.7456 13.833 40.9389 15.5527 39.4419L21.4625 42.9195L14.8083 54.6667L21.4625 66.414L15.5507 69.8917C12.5989 67.3251 8.26038 66.7853 4.71252 68.8743C0.209466 71.5231 -1.33765 77.4128 1.26104 82.0002C3.00487 85.0805 6.18142 86.8042 9.44232 86.8042C11.0397 86.8042 12.6591 86.3888 14.14 85.5179C17.6879 83.4289 19.3996 79.3291 18.6932 75.4401L24.6051 71.9626L29.9308 81.364V75.2536C29.9308 68.5833 33.4866 62.7458 38.7663 59.6013C36.6793 57.3518 35.3971 54.3196 35.3971 50.9884C35.3971 44.0673 40.9195 38.4385 47.7102 38.4385C54.4989 38.4385 60.0234 44.0673 60.0234 50.9884C60.0234 54.3196 58.7391 57.3518 56.6521 59.6013C61.9318 62.7478 65.4877 68.5833 65.4877 75.2536V81.364L70.8135 71.9626L76.7252 75.4401C76.0208 79.3312 77.7326 83.4309 81.2805 85.5179C82.7614 86.3888 84.3788 86.8042 85.9782 86.8042C89.2371 86.8042 92.4136 85.0805 94.1575 82.0002C96.7562 77.4128 95.209 71.5231 90.708 68.8743Z" fill="#E50914"/>
</svg>
