<svg width="84" height="78" viewBox="0 0 84 78" fill="none" xmlns="http://www.w3.org/2000/svg">
<path d="M1.94996 55.4228C0.832737 57.3877 0.176208 59.5877 0.0304841 61.8503C-0.113673 64.113 0.254559 66.3803 1.11167 68.4752C1.96721 70.5718 3.28656 72.438 4.96787 73.9344C6.64762 75.4293 8.64544 76.5121 10.8047 77.0997C12.9639 77.6857 15.2281 77.7609 17.4202 77.319C19.6124 76.8772 21.676 75.9292 23.4498 74.5487C25.222 73.1683 26.6604 71.3913 27.6491 69.3574C28.6379 67.3235 29.1534 65.086 29.155 62.8187C29.155 59.561 28.0973 56.3958 26.1433 53.8104C24.1894 51.2265 21.4504 49.3698 18.3494 48.5268C15.2485 47.6837 11.9611 47.9031 8.99487 49.1488C6.03024 50.3961 3.55292 52.6023 1.94996 55.4228Z" fill="#E50914"/>
<path d="M23.8338 16.9723L7.43433 45.8132C10.0354 44.6882 12.859 44.193 15.6811 44.3654C18.5031 44.5393 21.2468 45.376 23.6943 46.8098C26.1434 48.2451 28.229 50.2382 29.7866 52.6325C31.3441 55.0267 32.3328 57.7547 32.6713 60.6034L39.8133 48.0319C26.2578 24.2569 24.2898 21.9818 23.8338 16.9723Z" fill="#E50914"/>
<path d="M81.8689 55.4234C80.9397 53.8346 54.3004 6.85649 53.7724 6.17175C51.5787 3.06923 48.2881 0.945998 44.5886 0.248715C40.8875 -0.448568 37.0642 0.333374 33.9194 2.42992C30.7746 4.52804 28.5511 7.77785 27.7128 11.5009C26.876 15.2239 27.4903 19.1318 29.4286 22.4051C29.2468 22.4051 28.5182 20.8146 56.6148 70.2136C57.5721 71.8965 58.8461 73.371 60.3644 74.554C61.8843 75.7371 63.6174 76.6051 65.4663 77.1081C67.3169 77.6111 69.2458 77.7395 71.1433 77.4857C73.0424 77.2319 74.8726 76.602 76.5304 75.6305C78.1882 74.6606 79.6423 73.3662 80.8081 71.826C81.9739 70.2841 82.8295 68.526 83.3246 66.6488C83.8198 64.7732 83.9467 62.8161 83.6975 60.8904C83.4484 58.963 82.8263 57.1063 81.8689 55.4234Z" fill="#E50914"/>
</svg>
