<svg width="37" height="60" viewBox="0 0 37 60" fill="none" xmlns="http://www.w3.org/2000/svg">
<mask id="mask0_171_550" style="mask-type:alpha" maskUnits="userSpaceOnUse" x="0" y="22" width="37" height="38">
<rect y="22.4355" width="37" height="37" fill="#D9D9D9"/>
</mask>
<g mask="url(#mask0_171_550)">
<path d="M15.3396 54.8112C14.6459 54.8112 13.9842 54.6635 13.3547 54.368C12.7252 54.0725 12.192 53.6549 11.7552 53.1154L1.77295 40.8206L2.77503 39.857C3.26323 39.3688 3.84135 39.0862 4.50941 39.0091C5.17746 38.932 5.78128 39.0862 6.32087 39.4716L10.7917 42.5935V27.0612C10.7917 26.6244 10.9394 26.2582 11.2349 25.9628C11.5304 25.6673 11.8966 25.5195 12.3334 25.5195C12.7702 25.5195 13.1363 25.6673 13.4318 25.9628C13.7273 26.2582 13.875 26.6244 13.875 27.0612V48.5289L9.59691 45.5227L14.1448 51.1497C14.299 51.3296 14.4789 51.4709 14.6844 51.5737C14.89 51.6765 15.1084 51.7279 15.3396 51.7279H26.2084C27.0563 51.7279 27.7822 51.426 28.386 50.8221C28.9898 50.2183 29.2917 49.4924 29.2917 48.6445V37.8529C29.2917 37.4161 29.4394 37.0499 29.7349 36.7544C30.0304 36.4589 30.3966 36.3112 30.8334 36.3112C31.2702 36.3112 31.6363 36.4589 31.9318 36.7544C32.2273 37.0499 32.375 37.4161 32.375 37.8529V48.6445C32.375 50.3404 31.7712 51.7921 30.5636 52.9997C29.3559 54.2074 27.9042 54.8112 26.2084 54.8112H15.3396ZM16.9584 42.4779V33.2279C16.9584 32.7911 17.1061 32.4249 17.4016 32.1294C17.6971 31.8339 18.0632 31.6862 18.5 31.6862C18.9368 31.6862 19.303 31.8339 19.5985 32.1294C19.894 32.4249 20.0417 32.7911 20.0417 33.2279V42.4779H16.9584ZM23.125 42.4779V34.7695C23.125 34.3327 23.2728 33.9666 23.5683 33.6711C23.8637 33.3756 24.2299 33.2279 24.6667 33.2279C25.1035 33.2279 25.4697 33.3756 25.7651 33.6711C26.0606 33.9666 26.2084 34.3327 26.2084 34.7695V42.4779H23.125Z" fill="white"/>
</g>
<mask id="mask1_171_550" style="mask-type:alpha" maskUnits="userSpaceOnUse" x="4" y="0" width="30" height="30">
<rect x="4.56445" width="29.4355" height="29.4355" fill="#D9D9D9"/>
</mask>
<g mask="url(#mask1_171_550)">
<path d="M15.6025 24.5302L13.8854 22.8131L16.0317 20.6055C13.4152 20.258 11.2587 19.5425 9.56204 18.4591C7.86541 17.3757 7.01709 16.1288 7.01709 14.7183C7.01709 13.0217 8.19758 11.5755 10.5586 10.3797C12.9195 9.18385 15.8273 8.58594 19.2819 8.58594C22.7365 8.58594 25.6443 9.18385 28.0053 10.3797C30.3662 11.5755 31.5467 13.0217 31.5467 14.7183C31.5467 15.9857 30.867 17.1202 29.5077 18.1218C28.1483 19.1235 26.3751 19.8696 24.1878 20.3602V17.8459C25.7618 17.437 26.973 16.9311 27.8213 16.3281C28.6696 15.7251 29.0938 15.1885 29.0938 14.7183C29.0938 14.0642 28.2199 13.2874 26.4721 12.388C24.7244 11.4886 22.3277 11.0389 19.2819 11.0389C16.2361 11.0389 13.8394 11.4886 12.0917 12.388C10.3439 13.2874 9.47005 14.0642 9.47005 14.7183C9.47005 15.2089 9.99131 15.7966 11.0338 16.4814C12.0763 17.1662 13.5583 17.6823 15.4798 18.0298L13.8854 16.4354L15.6025 14.7183L20.5084 19.6243L15.6025 24.5302Z" fill="white"/>
</g>
</svg>
