<svg width="86" height="86" viewBox="0 0 86 86" fill="none" xmlns="http://www.w3.org/2000/svg">
<path d="M62.8581 47.6066L54.6249 43.0268L44.7248 85.3827H67.0864V54.9175C67.0867 53.4218 66.6943 51.955 65.9504 50.6689C65.2065 49.3828 64.1382 48.3249 62.8581 47.6066Z" fill="#E50914"/>
<path d="M30.4952 10.4178C30.4952 8.35772 29.8991 6.345 28.7822 4.63306C27.6653 2.91942 26.0779 1.58599 24.2206 0.796774C22.3634 0.00924465 20.3197 -0.196995 18.348 0.20522C16.3763 0.607435 14.5651 1.59782 13.1437 3.05458C11.7221 4.51134 10.7541 6.36519 10.3618 8.38641C9.96975 10.4059 10.171 12.4998 10.9403 14.4011C11.7096 16.304 13.0124 17.9298 14.6839 19.0739C16.3555 20.2197 18.3206 20.8298 20.3308 20.8298C22.4828 20.8078 24.5708 20.0777 26.2872 18.7477C27.2119 16.8076 28.4567 15.0467 29.9667 13.5409C30.3074 12.5354 30.4859 11.4808 30.4952 10.4178Z" fill="#E50914"/>
<path d="M42.6922 41.6494C50.5513 41.6494 56.9224 35.1228 56.9224 27.0734C56.9224 19.0223 50.5513 12.4957 42.6922 12.4957C34.8332 12.4957 28.4621 19.0223 28.4621 27.0734C28.4621 35.1228 34.8332 41.6494 42.6922 41.6494Z" fill="#E50914"/>
<path d="M75.2177 10.4136C75.2177 7.6522 74.1468 5.00232 72.2407 3.0504C70.3345 1.09847 67.749 0 65.0534 0C62.3577 0 59.7724 1.09847 57.8661 3.0504C55.9599 5.00232 54.889 7.6522 54.889 10.4136C54.8893 11.5053 55.0679 12.5886 55.4176 13.6195C56.92 15.0999 58.1643 16.8322 59.097 18.7435C60.8134 20.0736 62.9013 20.8036 65.0534 20.8256C66.3881 20.8256 67.7098 20.5552 68.943 20.033C70.1764 19.5091 71.2968 18.7419 72.2407 17.7752C73.1845 16.8085 73.9332 15.661 74.444 14.3969C74.9548 13.1345 75.2177 11.7808 75.2177 10.4136Z" fill="#E50914"/>
<path d="M24.3945 27.0763C24.3966 26.1485 24.4713 25.2208 24.6182 24.3065C23.2304 24.756 21.7843 24.9876 20.3287 24.9926C17.4225 24.996 14.5846 24.0885 12.1974 22.3901L5.28554 24.9926C3.72586 25.5909 2.38267 26.6624 1.43747 28.0668C0.492261 29.4711 -0.00949673 31.1391 0.000136145 32.8443V62.4781H14.2303V54.9188C14.2335 52.6762 14.826 50.4741 15.9456 48.5475C17.0652 46.6209 18.6705 45.0375 20.593 43.9643L28.8668 39.3203C25.9896 35.9218 24.4022 31.575 24.3945 27.0763Z" fill="#E50914"/>
<path d="M80.0962 24.9926L73.1844 22.3901C70.7969 24.0885 67.9593 24.996 65.0529 24.9926C63.5975 24.9876 62.1514 24.756 60.7635 24.3065C60.9102 25.2208 60.9851 26.1485 60.9871 27.0763C60.9795 31.575 59.392 35.9218 56.5148 39.3203L64.7886 43.9643C66.7112 45.0375 68.3166 46.6209 69.4362 48.5475C70.5556 50.4741 71.1481 52.6762 71.1515 54.9188V62.4781H85.3816V32.8443C85.3911 31.1391 84.8895 29.4711 83.9441 28.0668C82.9989 26.6624 81.6557 25.5909 80.0962 24.9926Z" fill="#E50914"/>
<path d="M44.7249 49.9789V67.6392L42.692 76.3848L40.6591 67.6392V49.9789C40.6591 49.4263 40.8734 48.8974 41.2545 48.507C41.6358 48.1166 42.1529 47.8969 42.692 47.8969C43.2313 47.8969 43.7482 48.1166 44.1295 48.507C44.5108 48.8974 44.7249 49.4263 44.7249 49.9789Z" fill="#E50914"/>
<path d="M44.7249 49.9789V67.6392L42.692 76.3848L40.6591 67.6392V49.9789C40.6591 49.4263 40.8734 48.8974 41.2545 48.507C41.6358 48.1166 42.1529 47.8969 42.692 47.8969C43.2313 47.8969 43.7482 48.1166 44.1295 48.507C44.5108 48.8974 44.7249 49.4263 44.7249 49.9789Z" fill="#E50914"/>
<path d="M22.5263 47.6066C21.2459 48.3249 20.1779 49.3828 19.4339 50.6689C18.6898 51.955 18.2976 53.4218 18.2979 54.9175V85.3827H40.6594L30.7593 43.0268L22.5263 47.6066Z" fill="#E50914"/>
</svg>
