<svg width="87" height="61" viewBox="0 0 87 61" fill="none" xmlns="http://www.w3.org/2000/svg">
<path d="M9.28092 39.6187C9.28092 25.039 16.3963 9.82542 24.748 9.82542C29.3877 9.82542 33.0998 12.678 38.9773 21.2356C33.41 30.1102 30.0067 35.4983 30.0067 35.4983C22.5825 47.5425 20.1084 50.0779 16.0861 50.0779C12.0653 50.3949 9.28092 46.5915 9.28092 39.6187ZM57.8478 34.2305L52.5892 25.356C51.3513 23.1373 49.8048 20.9186 48.5669 19.017C53.2081 11.7272 56.9202 7.9238 61.5599 7.9238C70.8408 7.9238 78.2649 22.1864 78.2649 39.9357C78.2649 46.5915 76.0994 50.3949 71.7684 50.3949C67.4374 50.3949 65.8909 47.5423 57.8478 34.2305ZM44.5462 12.678C37.741 3.48641 31.8635 0 25.0567 0C10.8275 0 0 19.3339 0 39.6187C0 52.2967 5.87755 60.2203 15.7774 60.2203C22.8912 60.2203 27.8412 56.7339 37.1221 40.2525C37.1221 40.2525 40.8341 33.2797 43.6185 28.5254C44.5462 30.1102 45.4738 31.6949 46.4014 33.5967L50.7324 41.2035C59.0857 55.7831 63.7254 60.5373 72.0771 60.5373C81.6667 60.5373 86.9253 52.2967 86.9253 39.3017C86.6166 17.7492 75.4804 0 62.1788 0C55.0634 0 49.4961 5.70518 44.5462 12.678Z" fill="#E50914"/>
</svg>
