<svg viewBox="32 32 32 32" fill="none" xmlns="http://www.w3.org/2000/svg">
<g>
<path d="M52.8106 43.8633C49.3973 43.8633 46.6182 46.6425 46.6182 50.0593C46.6182 53.4761 49.3973 56.2559 52.8106 56.2559C56.2298 56.2559 59.0564 53.4761 59.0564 50.0593C59.0564 46.6425 56.2298 43.8633 52.8106 43.8633ZM53.5217 53.3771C53.5158 53.3795 53.5099 53.3783 53.5039 53.3807V54.1902C53.5039 54.5706 53.1958 54.8787 52.8106 54.8787C52.4313 54.8787 52.1232 54.5706 52.1232 54.1902V53.3759C51.6728 53.2225 51.2343 52.9321 50.8669 52.4895C50.618 52.1979 50.6595 51.7635 50.9499 51.52C51.2402 51.2752 51.6788 51.3126 51.9217 51.6047C52.2832 52.0379 52.698 52.2103 53.0476 52.0835C53.3202 51.9852 53.5039 51.725 53.5039 51.4364C53.5039 51.0566 53.1898 50.7478 52.8106 50.7478C51.6728 50.7478 50.7484 49.8217 50.7484 48.6827C50.7484 47.8507 51.2403 47.1041 52.0106 46.78C52.0462 46.764 52.0876 46.7645 52.1232 46.7509V45.9284C52.1232 45.548 52.4313 45.2404 52.8106 45.2404C53.1958 45.2404 53.5039 45.548 53.5039 45.9284V46.7521C53.8595 46.8724 54.2031 47.0644 54.5172 47.3648C54.7898 47.6291 54.7957 48.0647 54.5291 48.3384C54.2683 48.611 53.8298 48.6175 53.5572 48.3532C53.2195 48.0285 52.8521 47.9165 52.544 48.048C52.2891 48.1559 52.1232 48.4048 52.1232 48.6827C52.1232 49.0626 52.4313 49.3713 52.8106 49.3713C53.9543 49.3713 54.8787 50.2975 54.8787 51.4364C54.8787 52.3016 54.3336 53.0814 53.5217 53.3771Z" fill="#E50914"/>
<path d="M36.2421 50.748C35.8628 50.748 35.5547 51.0562 35.5547 51.4366V58.3668C35.5547 58.7479 35.8628 59.0554 36.2421 59.0554H38.3102V50.748H36.2421Z" fill="#E50914"/>
<path d="M51.8862 39.8522L47.0626 35.7214C46.8077 35.4991 46.4285 35.4991 46.1678 35.7214L41.3501 39.8522C41.1308 40.0389 41.0538 40.3429 41.1545 40.6131C41.2493 40.8833 41.5101 41.0628 41.7945 41.0628H43.8626C43.8626 47.0153 43.8626 53.1023 43.8626 59.0547C45.6344 59.0547 46.8611 59.0547 48.6803 59.0547C49.0655 59.0547 49.3677 58.7472 49.3677 58.3661V56.7958C46.9203 55.5401 45.2374 52.995 45.2374 50.0588C45.2374 47.1232 46.9203 44.578 49.3677 43.3218V41.0628H51.4358C51.7262 41.0628 51.9809 40.8833 52.0817 40.6131C52.1824 40.3429 52.1054 40.0389 51.8862 39.8522Z" fill="#E50914"/>
<path d="M40.4198 45.2402C40.0405 45.2402 39.7324 45.5478 39.7324 45.9282V59.055C40.7398 59.055 41.5101 59.055 42.4879 59.055V45.2402H40.4198Z" fill="#E50914"/>
</g>
<defs>
<filter id="filter0_d_179_1215" x="-3.05176e-05" y="-3.05176e-05" width="94.6109" height="94.6094" filterUnits="userSpaceOnUse" color-interpolation-filters="sRGB">
<feFlood flood-opacity="0" result="BackgroundImageFix"/>
<feColorMatrix in="SourceAlpha" type="matrix" values="0 0 0 0 0 0 0 0 0 0 0 0 0 0 0 0 0 0 127 0" result="hardAlpha"/>
<feOffset/>
<feGaussianBlur stdDeviation="17.7774"/>
<feColorMatrix type="matrix" values="0 0 0 0 1 0 0 0 0 0.718468 0 0 0 0 0.718468 0 0 0 0.05 0"/>
<feBlend mode="normal" in2="BackgroundImageFix" result="effect1_dropShadow_179_1215"/>
<feBlend mode="normal" in="SourceGraphic" in2="effect1_dropShadow_179_1215" result="shape"/>
</filter>
</defs>
</svg>
