<svg width="78" height="78" viewBox="0 0 78 78" fill="none" xmlns="http://www.w3.org/2000/svg">
<mask id="mask0_38_69" style="mask-type:alpha" maskUnits="userSpaceOnUse" x="0" y="0" width="78" height="78">
<rect width="78" height="78" fill="#D9D9D9"/>
</mask>
<g mask="url(#mask0_38_69)">
<path d="M24.05 50.8625L33.9625 40.95L40.4625 47.45L52.8125 35.1813V41.4375H57.6875V26.8125H43.0625V31.6875H49.3188L40.4625 40.5438L33.9625 34.0437L20.6375 47.45L24.05 50.8625ZM14.625 68.25C13.325 68.25 12.1875 67.7625 11.2125 66.7875C10.2375 65.8125 9.75 64.675 9.75 63.375V14.625C9.75 13.325 10.2375 12.1875 11.2125 11.2125C12.1875 10.2375 13.325 9.75 14.625 9.75H63.375C64.675 9.75 65.8125 10.2375 66.7875 11.2125C67.7625 12.1875 68.25 13.325 68.25 14.625V63.375C68.25 64.675 67.7625 65.8125 66.7875 66.7875C65.8125 67.7625 64.675 68.25 63.375 68.25H14.625ZM14.625 63.375H63.375V14.625H14.625V63.375Z" fill="white"/>
</g>
</svg>
