<svg width="195" height="94" viewBox="0 0 195 94" fill="none" xmlns="http://www.w3.org/2000/svg">
<path d="M6.77952 1H187.871C191.082 1 193.651 3.56867 193.651 6.77952V86.4084C193.651 89.6193 191.082 92.1879 187.871 92.1879H6.77952C3.56867 92.1879 1 89.6193 1 86.4084V6.77952C1 3.56867 3.56867 1 6.77952 1Z" fill="white" stroke="#61CE70" stroke-width="2"/>
<path d="M34.0715 73.565C49.1624 73.565 61.3636 61.3638 61.3636 46.2729C61.3636 31.1819 49.1624 18.9807 34.0715 18.9807C18.9805 18.9807 6.7793 31.1819 6.7793 46.2729C6.7793 61.3638 18.9805 73.565 34.0715 73.565Z" fill="#ADC73E"/>
<path d="M48.1353 42.741L34.0719 56.9329C32.1453 58.8594 28.8703 58.8594 27.008 56.9329L23.4761 53.401L41.0715 35.8056C42.998 33.8791 46.2731 33.8791 48.1353 35.8056C50.1903 37.6679 50.1903 40.8145 48.1353 42.741Z" fill="white"/>
<path opacity="0.5" d="M37.6034 53.401L44.4104 46.594L37.3465 39.4659L30.5396 46.2729L37.6034 53.401Z" fill="url(#paint0_linear_105_132)"/>
<path d="M41.1999 49.8048L34.0719 56.9328C32.1454 58.8593 28.8703 58.8593 27.008 56.9328L19.8799 49.8048C17.9534 47.8783 17.9534 44.6032 19.8799 42.7409C20.9716 41.6492 22.1917 41.2639 23.4119 41.2639C24.632 41.2639 25.8521 41.6492 26.9438 42.7409L30.4757 46.2728L34.0076 49.8048C35.9984 51.7313 39.2734 51.7313 41.1999 49.8048Z" fill="white"/>
<path fill-rule="evenodd" clip-rule="evenodd" d="M73.2439 53.7863C73.3081 53.0799 73.2439 52.5662 73.0513 52.2451C72.7944 51.924 72.4091 51.7313 71.8954 51.7313H71.7027L71.189 55.8412C71.8311 55.8412 72.3449 55.6486 72.666 55.3275C72.987 55.0064 73.1797 54.4927 73.2439 53.7863ZM77.0327 56.0339C76.4547 56.7403 75.6841 57.3182 74.6567 57.7677L77.0327 65.4095H72.0238L70.7394 58.731L69.9046 65.4095H65.2168L67.4644 48.1994H72.8586C74.7209 48.1994 76.0694 48.6489 77.0327 49.6122C77.9317 50.5754 78.317 51.8598 78.1244 53.4652C77.9317 54.4927 77.6107 55.3275 77.0327 56.0339ZM84.4176 57.8319C84.4818 57.1256 84.4819 56.6118 84.2892 56.2907C84.0965 55.9697 83.8397 55.777 83.3902 55.777C83.0691 55.777 82.748 55.9697 82.4911 56.2907C82.2343 56.6118 82.0416 57.1256 81.849 57.8319H84.4176ZM87.3074 54.4927C88.078 55.5201 88.2706 56.9971 88.0138 58.9878C87.9496 59.2447 87.9496 59.3731 87.9496 59.5016C87.9496 59.63 87.8853 59.6942 87.8853 59.8227H81.6563V60.0153C81.5279 60.9144 81.5279 61.5565 81.7205 61.9418C81.849 62.3271 82.17 62.5198 82.6196 62.5198C82.9407 62.5198 83.1975 62.3913 83.4544 62.1987C83.7112 62.006 83.9039 61.6207 84.0323 61.1712H87.6285C87.3074 62.584 86.601 63.6757 85.5735 64.5105C84.5461 65.3453 83.3259 65.7306 81.9132 65.7306C80.2435 65.7306 79.0234 65.1527 78.2528 64.061C77.4822 62.9693 77.2253 61.4281 77.4822 59.3731C77.7391 57.3182 78.3812 55.777 79.4729 54.6211C80.5004 53.4652 81.849 52.9515 83.5186 52.9515C85.3167 52.9515 86.5368 53.4652 87.3074 54.4927ZM94.885 65.2169C94.5639 65.4095 94.1786 65.538 93.8575 65.6022C93.4722 65.6664 93.0227 65.7306 92.6374 65.7306C91.0962 65.7306 90.0045 65.1527 89.2339 63.9968C88.5275 62.8409 88.2706 61.2997 88.5275 59.3089C88.7844 57.3824 89.4266 55.8412 90.454 54.6853C91.4815 53.5294 92.7658 52.9515 94.307 52.9515C94.6923 52.9515 95.0776 53.0157 95.4629 53.0799C95.784 53.1441 96.1693 53.2725 96.4262 53.4652L95.9767 57.1256C95.7198 56.9329 95.3987 56.8687 95.0776 56.8687C94.6281 56.8687 94.2428 57.0613 93.9217 57.5109C93.6006 57.9604 93.408 58.5383 93.2796 59.3089C93.1511 60.0795 93.2153 60.6575 93.408 61.0428C93.6006 61.4281 93.9217 61.6207 94.4355 61.6207C94.5639 61.6207 94.6923 61.6207 94.885 61.5565C95.0776 61.4923 95.2061 61.4281 95.3987 61.3639L94.885 65.2169ZM95.9125 65.4095L98.3527 46.594H102.655L100.215 65.4095H95.9125ZM108.692 59.3731C108.82 58.5383 108.82 57.8962 108.692 57.4466C108.563 56.9971 108.306 56.8045 107.985 56.8045C107.664 56.8045 107.343 56.9971 107.15 57.4466C106.894 57.8962 106.765 58.5383 106.637 59.3731C106.508 60.208 106.508 60.8501 106.637 61.2997C106.765 61.7492 106.958 61.9418 107.343 61.9418C107.728 61.9418 107.985 61.7492 108.242 61.2997C108.371 60.8501 108.563 60.208 108.692 59.3731ZM109.526 53.3368H113.829L112.288 65.4095H107.985L108.178 64.061C107.664 64.6389 107.215 65.0884 106.701 65.3453C106.187 65.6022 105.738 65.7306 105.16 65.7306C104.004 65.7306 103.105 65.1527 102.591 64.061C102.077 62.9693 101.949 61.3639 102.206 59.3731C102.463 57.3182 102.976 55.777 103.811 54.6853C104.582 53.5936 105.609 53.0157 106.829 53.0157C107.343 53.0157 107.857 53.1441 108.242 53.401C108.627 53.6578 109.013 54.1074 109.398 54.6211L109.526 53.3368ZM113.508 65.4095L115.049 53.3368H119.159L118.902 55.1348C119.416 54.4285 119.93 53.9147 120.508 53.5936C121.085 53.2725 121.792 53.0799 122.498 53.0799C123.205 53.0799 123.718 53.2725 124.104 53.5936C124.489 53.9147 124.746 54.4285 124.874 55.1348C125.324 54.4285 125.773 53.9147 126.351 53.5936C126.929 53.2725 127.636 53.0799 128.278 53.0799C129.177 53.0799 129.819 53.3368 130.204 53.9147C130.59 54.4927 130.718 55.2633 130.59 56.355L129.434 65.4095H125.131L126.03 58.4099C126.094 58.0246 126.03 57.7677 125.966 57.5751C125.838 57.3824 125.645 57.3182 125.388 57.3182C125.26 57.3182 125.131 57.3182 125.067 57.3824C124.938 57.4466 124.874 57.5109 124.81 57.6393C124.617 57.8319 124.553 58.153 124.489 58.4741L123.59 65.4095H119.352L120.251 58.3457C120.315 57.9604 120.251 57.7035 120.186 57.5109C120.058 57.3182 119.865 57.254 119.608 57.254C119.48 57.254 119.352 57.254 119.223 57.3182C119.095 57.3824 119.031 57.4466 118.966 57.5751C118.774 57.7677 118.709 58.0888 118.645 58.4099L117.746 65.3453L113.508 65.4095ZM137.974 57.8319C138.039 57.1256 138.039 56.6118 137.846 56.2907C137.653 55.9697 137.397 55.777 136.947 55.777C136.626 55.777 136.305 55.9697 136.048 56.2907C135.791 56.6118 135.598 57.1256 135.406 57.8319H137.974ZM140.864 54.4927C141.635 55.5201 141.827 56.9971 141.571 58.9878C141.571 59.2447 141.506 59.3731 141.506 59.5016C141.506 59.63 141.442 59.7584 141.442 59.8227H135.213V60.0153C135.085 60.9144 135.085 61.5565 135.277 61.9418C135.406 62.3271 135.727 62.5198 136.176 62.5198C136.498 62.5198 136.754 62.3913 137.011 62.1987C137.268 62.006 137.461 61.6207 137.589 61.1712H141.185C140.864 62.584 140.158 63.6757 139.13 64.5105C138.103 65.3453 136.883 65.7306 135.47 65.7306C133.8 65.7306 132.58 65.1527 131.81 64.061C131.039 62.9693 130.782 61.4281 131.039 59.3731C131.296 57.3182 131.938 55.777 133.03 54.6211C134.057 53.4652 135.406 52.9515 137.075 52.9515C138.874 52.9515 140.094 53.4652 140.864 54.4927Z" fill="#A4C929"/>
<path fill-rule="evenodd" clip-rule="evenodd" d="M147.928 59.3732H149.791L149.662 53.0157L147.928 59.3732ZM152.937 48.1352L154.414 65.3453H149.855V62.8409H147.093L146.387 65.3453H141.828L147.736 48.1352H152.937ZM163.212 56.676C163.469 54.878 163.469 53.6579 163.34 53.0157C163.212 52.3735 162.827 52.0524 162.249 52.0524C161.671 52.0524 161.221 52.3735 160.9 53.0157C160.579 53.6579 160.322 54.878 160.065 56.676C159.808 58.4741 159.808 59.6942 159.937 60.3364C160.065 60.9786 160.451 61.2997 161.028 61.2997C161.606 61.2997 162.056 60.9786 162.377 60.3364C162.698 59.6942 162.955 58.4741 163.212 56.676ZM167.129 50.1901C168.028 51.7313 168.285 53.9789 167.9 56.8045C167.707 58.4741 167.322 59.8869 166.808 61.107C166.294 62.2629 165.588 63.2904 164.753 64.1894L166.551 66.3728L162.57 68.2351L161.093 65.7948C161.028 65.7948 160.964 65.7948 160.836 65.7948C160.772 65.7948 160.643 65.7948 160.579 65.7948C158.524 65.7948 157.111 65.0242 156.212 63.483C155.313 61.9418 155.056 59.7585 155.377 56.8687C155.763 54.0432 156.598 51.7956 157.882 50.2544C159.166 48.7132 160.836 47.8783 162.827 47.8783C164.817 47.8141 166.23 48.5847 167.129 50.1901ZM168.542 59.2447L169.955 48.1994H174.642L173.165 59.6942C173.101 60.208 173.165 60.5933 173.294 60.7859C173.422 61.0428 173.679 61.1712 174.064 61.1712C174.45 61.1712 174.707 61.0428 174.964 60.7859C175.156 60.5291 175.285 60.1438 175.349 59.6942L176.826 48.1994H181.578L180.165 59.2447C179.908 61.4923 179.202 63.162 178.11 64.1894C177.018 65.2169 175.477 65.7306 173.487 65.7306C171.496 65.7306 170.083 65.2169 169.312 64.1894C168.542 63.0977 168.285 61.4923 168.542 59.2447ZM180.936 65.4095L183.183 48.1994H187.871L185.624 65.4095H180.936Z" fill="#02793E"/>
<path d="M74.6567 25.5951H76.3263L71.5101 38.888H69.9688L65.2168 25.5951H66.8222L69.9046 34.2001C70.2257 35.1634 70.5468 36.1267 70.7394 37.0899C70.9321 36.1267 71.2532 35.0992 71.5743 34.1359L74.6567 25.5951ZM82.1058 39.0806C80.6288 39.0806 79.4729 38.6311 78.6381 37.7321C77.8033 36.833 77.3538 35.6129 77.3538 34.0075C77.3538 32.4021 77.7391 31.1177 78.5097 30.1545C79.2803 29.1912 80.372 28.7417 81.7205 28.7417C82.9406 28.7417 83.9681 29.127 84.6745 29.9618C85.3809 30.7967 85.7662 31.8883 85.7662 33.2369V34.2001H78.895C78.895 35.3561 79.2161 36.2551 79.794 36.833C80.372 37.411 81.1426 37.7321 82.17 37.7321C83.2617 37.7321 84.2892 37.5394 85.3809 37.0899V38.4385C84.8671 38.6953 84.3534 38.8238 83.8397 38.9522C83.3902 39.0164 82.8122 39.0806 82.1058 39.0806ZM81.7205 30.0261C80.9499 30.0261 80.3078 30.2829 79.794 30.7967C79.3445 31.3104 79.0234 32.0168 78.9592 32.98H84.1608C84.1608 32.0168 83.9681 31.3104 83.5186 30.7967C83.1333 30.2829 82.4911 30.0261 81.7205 30.0261ZM92.8943 28.7417C93.3438 28.7417 93.7291 28.8059 94.1144 28.8701L93.9217 30.2829C93.5364 30.2187 93.1511 30.1545 92.83 30.1545C91.9952 30.1545 91.3531 30.4756 90.7751 31.1177C90.1972 31.7599 89.9403 32.5947 89.9403 33.558V38.888H88.4633V28.9344H89.6834L89.8761 30.7967H89.9403C90.3256 30.1545 90.7751 29.6407 91.2888 29.3197C91.7384 28.9344 92.3163 28.7417 92.8943 28.7417ZM97.4537 38.888H95.9125V28.9344H97.4537V38.888ZM95.8482 26.2373C95.8482 25.9162 95.9125 25.6593 96.1051 25.4667C96.2978 25.274 96.4904 25.2098 96.7473 25.2098C97.0041 25.2098 97.1968 25.274 97.3894 25.4667C97.5821 25.6593 97.6463 25.852 97.6463 26.2373C97.6463 26.5583 97.5821 26.8152 97.3894 27.0079C97.1968 27.2005 97.0041 27.2647 96.7473 27.2647C96.4904 27.2647 96.2978 27.2005 96.1051 27.0079C95.9125 26.8152 95.8482 26.5583 95.8482 26.2373ZM105.16 30.0903H102.591V38.888H101.05V30.0903H99.2517V29.3839L101.05 28.8701V28.2922C101.05 25.852 102.141 24.6318 104.261 24.6318C104.774 24.6318 105.417 24.7603 106.123 24.9529L105.738 26.173C105.16 25.9804 104.646 25.9162 104.261 25.9162C103.683 25.9162 103.297 26.1088 102.976 26.4941C102.719 26.8794 102.591 27.4574 102.591 28.2922V28.9344H105.16V30.0903ZM108.499 38.888H107.022V28.9344H108.499V38.888ZM106.894 26.2373C106.894 25.9162 106.958 25.6593 107.15 25.4667C107.343 25.274 107.536 25.2098 107.793 25.2098C108.049 25.2098 108.242 25.274 108.435 25.4667C108.627 25.6593 108.692 25.852 108.692 26.2373C108.692 26.5583 108.627 26.8152 108.435 27.0079C108.242 27.2005 108.049 27.2647 107.793 27.2647C107.536 27.2647 107.343 27.2005 107.15 27.0079C106.958 26.8152 106.894 26.5583 106.894 26.2373ZM115.691 39.0806C114.278 39.0806 113.123 38.6311 112.352 37.7321C111.581 36.833 111.196 35.6129 111.196 33.9433C111.196 32.2736 111.581 30.9893 112.416 30.0903C113.251 29.1912 114.343 28.7417 115.884 28.7417C116.333 28.7417 116.847 28.8059 117.297 28.8701C117.746 28.9344 118.131 29.0628 118.453 29.2554L118.003 30.5398C117.682 30.4114 117.297 30.2829 116.911 30.2187C116.526 30.1545 116.141 30.0903 115.884 30.0903C113.829 30.0903 112.866 31.3746 112.866 33.9433C112.866 35.1634 113.123 36.1267 113.572 36.7688C114.086 37.411 114.792 37.7321 115.755 37.7321C116.59 37.7321 117.425 37.5394 118.324 37.2183V38.5669C117.554 38.888 116.719 39.0806 115.691 39.0806ZM126.737 38.888L126.415 37.4752H126.351C125.838 38.1174 125.388 38.5027 124.874 38.7595C124.361 38.9522 123.783 39.0806 123.012 39.0806C122.049 39.0806 121.278 38.8238 120.7 38.31C120.122 37.7963 119.865 37.0899 119.865 36.1267C119.865 34.1359 121.471 33.0442 124.682 32.98L126.351 32.9158V32.2736C126.351 31.503 126.159 30.9251 125.838 30.5398C125.516 30.1545 124.938 29.9618 124.232 29.9618C123.397 29.9618 122.434 30.2187 121.407 30.7324L120.957 29.5765C121.471 29.3197 121.984 29.127 122.562 28.9344C123.14 28.8059 123.718 28.6775 124.296 28.6775C125.516 28.6775 126.351 28.9344 126.929 29.4481C127.507 29.9618 127.764 30.7967 127.764 32.0168V38.888H126.737ZM123.269 37.7963C124.232 37.7963 124.938 37.5394 125.452 37.0257C125.966 36.512 126.287 35.8056 126.287 34.8423V33.9433L124.81 34.0075C123.59 34.0717 122.755 34.2644 122.177 34.5854C121.663 34.9065 121.407 35.4203 121.407 36.1267C121.407 36.6404 121.599 37.0899 121.92 37.3468C122.241 37.6679 122.691 37.7963 123.269 37.7963ZM137.718 37.5394H137.653C136.947 38.5669 135.92 39.0806 134.507 39.0806C133.222 39.0806 132.195 38.6311 131.489 37.7321C130.782 36.833 130.397 35.5487 130.397 33.9433C130.397 32.2736 130.782 31.0535 131.489 30.0903C132.195 29.127 133.222 28.7417 134.507 28.7417C135.855 28.7417 136.883 29.2554 137.589 30.2187H137.718L137.653 29.5123L137.589 28.8059V24.7603H139.13V38.888H137.91L137.718 37.5394ZM134.699 37.7963C135.727 37.7963 136.498 37.5394 136.947 36.9615C137.397 36.3835 137.653 35.4845 137.653 34.2644V33.9433C137.653 32.5305 137.397 31.503 136.947 30.9251C136.498 30.3471 135.727 30.0261 134.699 30.0261C133.8 30.0261 133.158 30.3471 132.644 31.0535C132.195 31.7599 131.938 32.7232 131.938 33.9433C131.938 35.2276 132.195 36.1909 132.644 36.833C133.094 37.4752 133.8 37.7963 134.699 37.7963ZM148.506 38.888L148.185 37.4752H148.121C147.607 38.1174 147.158 38.5027 146.644 38.7595C146.13 38.9522 145.552 39.0806 144.781 39.0806C143.818 39.0806 143.048 38.8238 142.47 38.31C141.892 37.7963 141.635 37.0899 141.635 36.1267C141.635 34.1359 143.24 33.0442 146.451 32.98L148.121 32.9158V32.2736C148.121 31.503 147.928 30.9251 147.607 30.5398C147.286 30.1545 146.708 29.9618 146.002 29.9618C145.167 29.9618 144.204 30.2187 143.176 30.7324L142.727 29.5765C143.24 29.3197 143.754 29.127 144.332 28.9344C144.91 28.8059 145.488 28.6775 146.066 28.6775C147.286 28.6775 148.121 28.9344 148.699 29.4481C149.277 29.9618 149.534 30.7967 149.534 32.0168V38.888H148.506ZM145.103 37.7963C146.066 37.7963 146.772 37.5394 147.286 37.0257C147.8 36.512 148.121 35.8056 148.121 34.8423V33.9433L146.58 34.0075C145.359 34.0717 144.525 34.2644 144.011 34.5854C143.497 34.9065 143.24 35.4203 143.24 36.1267C143.24 36.6404 143.433 37.0899 143.754 37.3468C144.011 37.6679 144.46 37.7963 145.103 37.7963ZM162.184 39.0806C161.542 39.0806 160.964 38.9522 160.386 38.6953C159.872 38.4385 159.423 38.0532 159.038 37.6036H158.973C159.038 38.1816 159.102 38.7595 159.102 39.2733V43.3832H157.561V28.9344H158.781L158.973 30.2829H159.038C159.423 29.7692 159.872 29.3197 160.386 29.127C160.9 28.8701 161.478 28.7417 162.184 28.7417C163.533 28.7417 164.496 29.1912 165.267 30.0903C165.973 30.9893 166.358 32.2736 166.358 33.8791C166.358 35.4845 165.973 36.7688 165.267 37.6679C164.496 38.6311 163.533 39.0806 162.184 39.0806ZM161.992 30.0261C160.964 30.0261 160.258 30.2829 159.808 30.8609C159.359 31.4388 159.102 32.3379 159.102 33.558V33.8791C159.102 35.2918 159.359 36.2551 159.808 36.8973C160.258 37.4752 161.028 37.7963 162.056 37.7963C162.891 37.7963 163.597 37.4752 164.047 36.7688C164.56 36.0624 164.753 35.0992 164.753 33.8791C164.753 32.6589 164.496 31.6957 164.047 31.0535C163.533 30.3471 162.891 30.0261 161.992 30.0261ZM177.596 33.8791C177.596 35.4845 177.211 36.7688 176.376 37.6679C175.541 38.5669 174.45 39.0164 172.973 39.0164C172.074 39.0164 171.303 38.8238 170.597 38.3742C169.89 37.9247 169.377 37.3468 168.991 36.5762C168.606 35.8056 168.413 34.9065 168.413 33.8148C168.413 32.2094 168.799 30.9251 169.633 30.0261C170.468 29.127 171.56 28.6775 173.037 28.6775C174.45 28.6775 175.541 29.127 176.376 30.0903C177.147 31.0535 177.596 32.3379 177.596 33.8791ZM170.019 33.8791C170.019 35.1634 170.276 36.1267 170.789 36.7688C171.303 37.411 172.074 37.7963 173.037 37.7963C174 37.7963 174.771 37.4752 175.284 36.833C175.798 36.1909 176.055 35.1634 176.055 33.9433C176.055 32.6589 175.798 31.6957 175.284 31.0535C174.771 30.4114 174 30.0903 173.037 30.0903C172.074 30.0903 171.303 30.4114 170.789 31.0535C170.276 31.6315 170.019 32.5947 170.019 33.8791ZM184.789 28.7417C185.238 28.7417 185.623 28.8059 186.009 28.8701L185.816 30.2829C185.431 30.2187 185.045 30.1545 184.724 30.1545C183.89 30.1545 183.247 30.4756 182.669 31.1177C182.091 31.7599 181.835 32.5947 181.835 33.558V38.888H180.293V28.9344H181.514L181.706 30.7967H181.77C182.156 30.1545 182.605 29.6407 183.119 29.3197C183.568 28.9344 184.146 28.7417 184.789 28.7417Z" fill="#54595F"/>
<defs>
<linearGradient id="paint0_linear_105_132" x1="25.4429" y1="72.1734" x2="37.9513" y2="45.4072" gradientUnits="userSpaceOnUse">
<stop/>
<stop offset="1" stop-opacity="0"/>
</linearGradient>
</defs>
</svg>
