<svg width="163" height="181" viewBox="0 0 163 181" fill="none" xmlns="http://www.w3.org/2000/svg">
<path d="M111.247 56.0747V56.3291C110.776 60.1067 109.972 63.8368 108.843 67.4771V67.5182C107.783 70.613 106.547 73.6667 105.178 76.6549C105.507 76.821 105.869 76.9136 106.239 76.9257H119.06C119.471 76.9238 119.876 76.8222 120.237 76.6302C120.598 76.4312 120.904 76.1496 121.131 75.8093C123.159 72.9115 128.168 64.6367 128.168 56.0664L111.247 56.0747Z" fill="#1984CF" fill-opacity="0.4"/>
<path d="M122.608 89.1387C122.608 89.6654 122.449 90.1804 122.152 90.6186C121.855 91.0568 121.433 91.3988 120.938 91.6015C120.446 91.8056 119.901 91.8572 119.377 91.7492C118.852 91.6502 118.37 91.3985 117.992 91.0268C117.616 90.6523 117.358 90.1792 117.249 89.664C117.148 89.1475 117.204 88.6135 117.409 88.1277C117.614 87.6419 117.958 87.2258 118.401 86.9304C118.847 86.6417 119.369 86.4877 119.903 86.4872C120.259 86.4778 120.612 86.545 120.938 86.6842C121.27 86.8148 121.571 87.0103 121.823 87.2588C122.069 87.4933 122.268 87.772 122.408 88.0798C122.545 88.4163 122.613 88.7762 122.608 89.1387Z" fill="#1984CF" fill-opacity="0.8"/>
<g filter="url(#filter0_i_201_22)">
<path opacity="0.72" d="M125.697 133.434V139.432H125.696V139.431L124.02 137.006L125.697 133.434Z" fill="white"/>
<path opacity="0.92" d="M127.373 137.007L125.697 139.434V133.436L125.702 133.446L127.373 137.007Z" fill="white"/>
<path opacity="0.8" d="M131.122 137.577L125.697 139.43L127.373 137.004L131.122 137.577Z" fill="white"/>
<path opacity="0.6" d="M131.122 137.58L128.409 140.361L125.697 139.434L131.122 137.58Z" fill="white"/>
<path opacity="0.4" d="M129.049 144.284L125.697 142.431V139.432L129.049 144.284Z" fill="white"/>
<path opacity="0.4" d="M125.696 139.432L122.343 144.284L122.983 140.359L125.696 139.432Z" fill="white"/>
<path opacity="0.24" d="M125.696 139.433V139.434L122.983 140.361L120.271 137.58L125.696 139.433Z" fill="white"/>
<path opacity="0.6" d="M125.696 139.429L120.271 137.577L124.02 137.004L125.696 139.429Z" fill="white"/>
<path opacity="0.92" d="M129.049 144.284L129.037 144.265L125.697 139.432L128.409 140.359L129.045 144.26L129.049 144.284Z" fill="white"/>
<path opacity="0.72" d="M125.697 139.432V142.431L122.343 144.284L125.696 139.432H125.697Z" fill="white"/>
</g>
<g filter="url(#filter1_i_201_22)">
<path opacity="0.72" d="M108.516 134.338V144.336H108.515V144.334L105.722 140.292L108.516 134.338Z" fill="white"/>
<path opacity="0.92" d="M111.311 140.292L108.516 144.336V134.34L108.524 134.357L111.311 140.292Z" fill="white"/>
<path opacity="0.8" d="M117.558 141.248L108.516 144.337L111.311 140.293L117.558 141.248Z" fill="white"/>
<path opacity="0.6" d="M117.558 141.246L113.037 145.88L108.516 144.336L117.558 141.246Z" fill="white"/>
<path opacity="0.4" d="M114.104 152.424L108.516 149.335V144.336L114.104 152.424Z" fill="white"/>
<path opacity="0.4" d="M108.514 144.336L102.926 152.424L103.993 145.881L108.514 144.336Z" fill="white"/>
<path opacity="0.92" d="M114.104 152.424L114.083 152.392L108.516 144.336L113.037 145.881L114.097 152.384L114.104 152.424Z" fill="white"/>
<path opacity="0.72" d="M108.516 144.336V149.335L102.926 152.424L108.514 144.336H108.516Z" fill="white"/>
</g>
<g opacity="0.92">
<path d="M7.23828 132.53V47.5293L81.3919 5.0293L155.537 47.5293V132.53L81.3919 175.029L7.23828 132.53Z" fill="url(#paint0_linear_201_22)"/>
<g filter="url(#filter2_i_201_22)">
<path d="M7.23828 132.53V47.5293L81.3919 5.0293L155.537 47.5293V132.53L81.3919 175.029L7.23828 132.53Z" fill="url(#paint1_linear_201_22)" fill-opacity="0.8"/>
</g>
<path d="M5.88209 61.2764V118.783V119.077C5.88175 124.008 5.88156 126.83 6.76744 129.366C7.42715 131.254 8.43894 133 9.74917 134.511C11.5086 136.541 13.9569 137.944 18.2355 140.396L18.4909 140.542L68.9201 169.446L69.1727 169.59C73.4071 172.017 75.8299 173.406 78.4448 173.901C80.3922 174.271 82.3916 174.271 84.3391 173.901C86.9538 173.406 89.3768 172.017 93.611 169.59L93.8634 169.444L144.285 140.542L144.541 140.396C148.819 137.944 151.267 136.541 153.026 134.512C154.336 133 155.348 131.254 156.008 129.366C156.893 126.831 156.893 124.009 156.893 119.078V118.784V61.2756V60.9813C156.893 56.0502 156.893 53.2286 156.008 50.693C155.348 48.8049 154.336 47.0589 153.026 45.5475C151.267 43.5181 148.819 42.1151 144.541 39.6631L144.285 39.5169L93.8634 10.6148L93.611 10.4702C89.3768 8.04264 86.9538 6.65352 84.3391 6.15785C82.3916 5.78856 80.3922 5.78856 78.4448 6.15767C75.8299 6.65335 73.4071 8.04229 69.1727 10.4695L68.9201 10.6143L18.4909 39.5171C18.405 39.5662 18.3199 39.615 18.2355 39.6635C13.9569 42.1153 11.5086 43.5183 9.74917 45.5477C8.43894 47.059 7.42715 48.8051 6.76744 50.6934C5.88156 53.2291 5.88175 56.0507 5.88209 60.9821V61.2764Z" stroke="url(#paint2_linear_201_22)" stroke-width="11.7624"/>
<mask id="mask0_201_22" style="mask-type:alpha" maskUnits="userSpaceOnUse" x="7" y="7" width="149" height="166">
<path d="M14.5108 136.697C10.0128 134.119 7.23828 129.331 7.23828 124.147V55.9111C7.23828 50.7265 10.0128 45.9385 14.5108 43.3606L74.1984 9.15153C78.6542 6.59778 84.1297 6.59796 88.5853 9.15187L148.265 43.3605C152.763 45.9385 155.537 50.7264 155.537 55.9106V124.147C155.537 129.331 152.763 134.119 148.265 136.697L88.5853 170.905C84.1297 173.459 78.6542 173.461 74.1984 170.907L14.5108 136.697Z" fill="black"/>
</mask>
<g mask="url(#mask0_201_22)">
<path d="M193.757 -31.8477L77.8359 18.6195L119.721 -31.8477H193.757Z" fill="url(#paint3_linear_201_22)"/>
<path d="M50.6991 -31.8477L77.8359 18.6195L-44.5752 -31.8477H50.6991Z" fill="url(#paint4_linear_201_22)"/>
<path d="M119.722 -31.8477L77.8363 18.6195L50.6993 -31.8477H119.722Z" fill="url(#paint5_linear_201_22)"/>
<path d="M78.0161 17.6895L146.494 68.328L-9.94263 56.9034L78.0161 17.6895Z" fill="url(#paint6_linear_201_22)"/>
<path d="M205.261 -31.8477L146.268 67.3053L77.8359 18.6195L193.757 -31.8477H205.261Z" fill="url(#paint7_linear_201_22)"/>
<path d="M-44.5752 -31.8477L77.8358 18.6195L-9.7692 56.6181L-67.8777 -31.8477H-44.5752Z" fill="url(#paint8_linear_201_22)"/>
<path d="M146.268 67.3066L225.024 162.6L100.254 180.413L146.268 67.3066Z" fill="url(#paint9_linear_201_22)"/>
<path d="M-47.2297 220.491L-9.76893 56.6211L100.254 180.414L-32.4814 220.491H-47.2297Z" fill="url(#paint10_linear_201_22)"/>
<path d="M-9.76892 56.6211L100.254 180.414L146.269 67.3081L-9.76892 56.6211Z" fill="url(#paint11_linear_201_22)"/>
<g style="mix-blend-mode:screen" opacity="0.96">
<path d="M27.6717 -45.6094H101.408C124.609 -37.2613 143.996 -21.8496 157.345 -1.30075V125.204C137.322 155.706 103.315 175.934 64.5396 175.934C2.88124 175.934 -47.0176 124.883 -47.0176 62.2727C-47.0176 12.1845 -15.8705 -30.1977 27.6717 -45.6094Z" fill="url(#paint12_radial_201_22)"/>
</g>
<g style="mix-blend-mode:screen">
<path d="M65.4796 220.489H2.65165C-7.96715 216.927 -17.996 211.88 -26.8451 205.35V35.2455C-9.73696 22.4802 11.2057 15.0586 33.9181 15.0586C91.1417 15.0586 137.451 62.2602 137.451 120.149C137.451 167.053 107.365 206.834 65.4796 220.489Z" fill="url(#paint13_radial_201_22)"/>
</g>
<g style="mix-blend-mode:screen">
<path d="M-19.6255 -31.8477H129.923C129.923 -29.7696 130.218 -27.6915 130.218 -25.6135C130.218 32.5721 83.9078 79.4768 26.6843 79.4768C10.1661 79.4768 -5.76205 75.6175 -19.6255 68.4927V-31.8477Z" fill="url(#paint14_radial_201_22)"/>
</g>
<g style="mix-blend-mode:screen">
<path d="M-40.2437 220.49C-45.2581 208.02 -47.9127 194.662 -47.9127 180.413C-47.9127 122.227 -1.60302 75.3223 55.6205 75.3223C112.844 75.3223 159.154 122.524 159.154 180.413C159.154 194.662 156.499 208.02 151.485 220.49H-40.2437Z" fill="url(#paint15_radial_201_22)"/>
</g>
<path d="M40.0046 128.01C31.3565 128.01 27.0324 128.01 23.7776 126.22C21.3721 124.898 19.3925 122.918 18.0702 120.513C16.2808 117.258 16.2808 112.934 16.2808 104.286V66.9937C16.2808 61.785 16.2808 59.1807 17.0893 56.8652C17.6918 55.1396 18.6156 53.5441 19.8121 52.1626C21.4178 50.3087 23.6765 49.0121 28.1939 46.419L69.58 22.6616C74.0607 20.0897 76.3011 18.8035 78.6934 18.3495C80.4761 18.0111 82.3065 18.0111 84.0894 18.3495C86.4815 18.8038 88.7219 20.09 93.2024 22.6623L134.582 46.4188C139.099 49.0119 141.358 50.3087 142.963 52.1624C144.16 53.5439 145.083 55.1394 145.686 56.8648C146.494 59.1802 146.494 61.7845 146.494 66.993V104.286C146.494 112.934 146.494 117.258 144.705 120.513C143.382 122.918 141.403 124.898 138.997 126.22C135.743 128.01 131.418 128.01 122.77 128.01H40.0046Z" fill="white"/>
</g>
<mask id="mask1_201_22" style="mask-type:alpha" maskUnits="userSpaceOnUse" x="16" y="18" width="131" height="111">
<path d="M40.0086 128.009C31.3589 128.009 27.0341 128.009 23.779 126.22C21.373 124.897 19.393 122.917 18.0704 120.511C16.2808 117.256 16.2808 112.931 16.2808 104.281V66.9957C16.2808 61.7861 16.2808 59.1813 17.0895 56.8654C17.6919 55.1397 18.6159 53.5438 19.8127 52.1621C21.4186 50.3079 23.6777 49.011 28.1958 46.4175L69.5779 22.6626C74.0595 20.0899 76.3002 18.8037 78.6928 18.3496C80.4759 18.011 82.3067 18.0112 84.0897 18.3496C86.4824 18.8039 88.7231 20.0902 93.2045 22.6631L134.58 46.4173C139.098 49.011 141.357 50.3077 142.963 52.1619C144.159 53.5436 145.083 55.1395 145.686 56.8651C146.494 59.181 146.494 61.7856 146.494 66.995V104.281C146.494 112.931 146.494 117.256 144.705 120.511C143.382 122.917 141.402 124.897 138.996 126.22C135.741 128.009 131.416 128.009 122.766 128.009H40.0086Z" fill="url(#paint16_linear_201_22)"/>
</mask>
<g mask="url(#mask1_201_22)">
<path opacity="0.06" d="M81.3874 15.8809H16.2808V128.009H81.3874V15.8809Z" fill="#495557"/>
<path d="M109.561 56.123H105.078C104.919 57.4776 104.669 58.9306 104.36 60.4493C104.16 61.4097 103.801 63.2485 102.874 66.409C102.407 67.9935 100.595 73.0421 100.211 73.7973C100.145 73.7315 99.46 72.6317 99.1511 72.0898C98.4174 70.8219 97.7623 69.5116 97.1894 68.1659C97.1144 67.9853 96.6135 66.68 96.53 66.4502C96.313 65.859 95.9624 64.8083 95.8037 64.365C94.9391 61.6951 94.3599 58.944 94.0759 56.1559H87.0388V59.6037H90.0606C90.4775 61.8528 91.0862 64.0634 91.8805 66.2121C93.1766 69.8788 95.0221 73.3346 97.3564 76.4651C97.6116 76.8145 97.8905 77.1462 98.1912 77.4586L98.4917 77.8115C98.116 78.5503 97.7404 79.3548 97.3647 80.0936C97.2396 80.3399 97.1144 80.5287 96.9892 80.775C96.2963 82.0147 95.6034 83.3034 94.9106 84.4772H99.0009C99.8357 83.1228 100.754 81.7601 101.505 80.3727C103.751 76.0691 105.663 71.6042 107.223 67.0165C108.324 63.4594 109.106 59.8143 109.561 56.123Z" fill="#1984CF" fill-opacity="0.8"/>
<path d="M97.0978 56.0747C97.2344 60.5496 98.3176 64.9473 100.278 68.9876C100.704 67.7726 101.113 66.5987 101.297 65.9584C102.131 63.0934 102.49 61.3777 102.699 60.3516L102.749 60.1299C103.066 58.5785 103.283 57.2486 103.425 56.0664L97.0978 56.0747Z" fill="#1984CF" fill-opacity="0.4"/>
<path d="M98.1662 89.1378C98.1662 89.6646 98.0077 90.1795 97.7107 90.6177C97.4134 91.0559 96.9912 91.398 96.4967 91.6006C96.0038 91.8047 95.4592 91.8563 94.9357 91.7483C94.4107 91.6492 93.9281 91.3976 93.5501 91.0259C93.1742 90.6514 92.9162 90.1783 92.8072 89.6632C92.7066 89.1467 92.7624 88.6126 92.9671 88.1268C93.1718 87.641 93.5166 87.2249 93.9591 86.9296C94.4805 86.5901 95.105 86.4382 95.7271 86.4997C96.3493 86.561 96.9308 86.8316 97.3731 87.2662C97.8725 87.7666 98.1565 88.4369 98.1662 89.1378Z" fill="#1984CF" fill-opacity="0.8"/>
<path d="M45.0088 78.3921C40.4845 78.3921 37.8467 76.1099 37.8467 70.7411V59.5111H34.6412V55.9976H37.8467V50.9983L42.3042 50.752V55.9976H47.8386V59.5111H42.3042V70.6836C42.3042 73.5815 43.5648 74.6897 45.7602 74.6897C46.6294 74.6914 47.4954 74.5895 48.3395 74.386L48.59 77.8995C47.4273 78.2353 46.2207 78.4013 45.0088 78.3921Z" fill="#1984CF" fill-opacity="0.8"/>
<path d="M62.4136 55.4428C63.4685 55.4279 64.5217 55.5326 65.5523 55.7548L64.9262 59.4489C64.2156 59.2334 63.4744 59.1308 62.7308 59.1452C60.9474 59.1195 59.1821 59.4987 57.5721 60.2534V77.9029H53.1145V57.5361C56.0098 56.146 59.1916 55.4296 62.4136 55.4428Z" fill="#1984CF" fill-opacity="0.8"/>
<path d="M76.1121 78.3938C70.2688 78.3938 67.3805 75.619 67.3805 71.8265C67.3805 67.3279 71.0869 65.1032 76.1121 65.1032C77.6943 65.1107 79.2717 65.2756 80.8201 65.5957V63.8309C80.8201 60.81 79.1506 59.1434 75.6112 59.1434C73.5646 59.1273 71.5345 59.5037 69.6344 60.2516L68.7578 56.7381C71.0919 55.9001 73.5606 55.483 76.0452 55.5068C82.139 55.5068 85.1609 58.5852 85.1609 64.0771V76.4811C82.3482 77.8348 79.2417 78.4914 76.1121 78.3938ZM80.7617 74.1988V68.5183C79.3954 68.1908 77.9941 68.0255 76.588 68.0257C73.8248 68.0257 71.8131 68.9533 71.8131 71.6706C71.8131 73.9527 73.4826 75.1265 76.4626 75.1265C77.9543 75.2011 79.4388 74.8808 80.7617 74.1988Z" fill="#1984CF" fill-opacity="0.8"/>
<path d="M164.58 100.883H-1.8047C-2.80335 100.883 -3.61292 101.692 -3.61292 102.691V128.011C-3.61292 129.01 -2.80335 129.819 -1.8047 129.819H164.58C165.578 129.819 166.388 129.01 166.388 128.011V102.691C166.388 101.692 165.578 100.883 164.58 100.883Z" fill="url(#paint17_linear_201_22)"/>
<path d="M24.1356 119.072V111.205H26.6134C27.0465 111.205 27.4475 111.245 27.8164 111.325C28.1933 111.406 28.518 111.542 28.7907 111.734C29.0634 111.927 29.2758 112.179 29.4281 112.492C29.5806 112.797 29.6568 113.178 29.6568 113.635C29.6568 114.068 29.5806 114.445 29.4281 114.766C29.2758 115.086 29.0634 115.355 28.7907 115.571C28.526 115.78 28.2093 115.936 27.8404 116.041C27.4795 116.137 27.0866 116.185 26.6617 116.185H25.5309V119.072H24.1356ZM25.5309 115.066H26.5534C27.7081 115.066 28.2855 114.589 28.2855 113.635C28.2855 113.138 28.1331 112.797 27.8284 112.612C27.5318 112.42 27.0906 112.324 26.5052 112.324H25.5309V115.066Z" fill="white"/>
<path d="M32.6307 114.886L32.354 115.848H34.3628L34.0861 114.886C33.9578 114.469 33.8335 114.04 33.7133 113.599C33.601 113.158 33.4887 112.721 33.3765 112.288H33.3283C33.2162 112.729 33.1039 113.17 32.9916 113.611C32.8793 114.044 32.759 114.469 32.6307 114.886ZM29.9965 119.072L32.5585 111.205H34.1944L36.7565 119.072H35.2891L34.6756 116.943H32.0292L31.4158 119.072H29.9965Z" fill="white"/>
<path d="M38.2074 119.072V111.205H40.8656C41.2747 111.205 41.6556 111.245 42.0084 111.325C42.3613 111.406 42.666 111.538 42.9225 111.722C43.1791 111.899 43.3796 112.135 43.524 112.432C43.6764 112.729 43.7525 113.098 43.7525 113.539C43.7525 114.14 43.6081 114.625 43.3194 114.994C43.0388 115.363 42.662 115.628 42.1888 115.788L44.0653 119.072H42.5016L40.8056 115.993H39.6026V119.072H38.2074ZM39.6026 114.886H40.7213C41.2587 114.886 41.6676 114.774 41.9482 114.549C42.2369 114.324 42.3812 113.988 42.3812 113.539C42.3812 113.082 42.2369 112.765 41.9482 112.588C41.6676 112.412 41.2587 112.324 40.7213 112.324H39.6026V114.886Z" fill="white"/>
<path d="M48.9463 119.216C48.4492 119.216 47.9841 119.128 47.5511 118.951C47.1181 118.775 46.7412 118.514 46.4203 118.169C46.1077 117.825 45.8591 117.4 45.6747 116.894C45.4902 116.389 45.3979 115.812 45.3979 115.162C45.3979 114.521 45.4902 113.947 45.6747 113.442C45.8671 112.929 46.1237 112.496 46.4444 112.143C46.7732 111.79 47.1542 111.522 47.5872 111.337C48.0282 111.153 48.4973 111.061 48.9945 111.061C49.4917 111.061 49.9328 111.161 50.3176 111.361C50.7026 111.562 51.0194 111.794 51.2679 112.059L50.5221 112.961C50.3137 112.753 50.0891 112.588 49.8485 112.468C49.608 112.34 49.3353 112.275 49.0306 112.275C48.7099 112.275 48.4131 112.344 48.1405 112.48C47.8759 112.608 47.6433 112.797 47.4429 113.045C47.2503 113.286 47.098 113.583 46.9857 113.935C46.8815 114.288 46.8294 114.685 46.8294 115.126C46.8294 116.024 47.0218 116.73 47.4068 117.243C47.7997 117.748 48.329 118.001 48.9945 118.001C49.3473 118.001 49.6601 117.929 49.9328 117.784C50.2054 117.632 50.454 117.436 50.6784 117.195L51.4243 118.073C51.1035 118.442 50.7346 118.727 50.3176 118.927C49.9087 119.12 49.4515 119.216 48.9463 119.216Z" fill="white"/>
<path d="M53.2186 119.072V111.205H57.9578V112.384H54.614V114.393H57.4407V115.571H54.614V117.893H58.0782V119.072H53.2186Z" fill="white"/>
<path d="M60.1721 119.072V111.205H61.5675V119.072H60.1721Z" fill="white"/>
<path d="M64.0481 119.072V111.205H66.7065C67.1154 111.205 67.4963 111.245 67.8492 111.325C68.202 111.406 68.5067 111.538 68.7633 111.722C69.02 111.899 69.2205 112.135 69.3648 112.432C69.5171 112.729 69.5933 113.098 69.5933 113.539C69.5933 114.14 69.449 114.625 69.1603 114.994C68.8795 115.363 68.5027 115.628 68.0297 115.788L69.9061 119.072H68.3423L66.6463 115.993H65.4435V119.072H64.0481ZM65.4435 114.886H66.5621C67.0994 114.886 67.5083 114.774 67.789 114.549C68.0777 114.324 68.2221 113.988 68.2221 113.539C68.2221 113.082 68.0777 112.765 67.789 112.588C67.5083 112.412 67.0994 112.324 66.5621 112.324H65.4435V114.886Z" fill="white"/>
<path d="M74.7031 119.216C74.1898 119.216 73.7207 119.124 73.2958 118.939C72.8707 118.747 72.5058 118.474 72.2011 118.121C71.8964 117.761 71.6598 117.327 71.4915 116.822C71.323 116.317 71.2389 115.744 71.2389 115.102C71.2389 114.469 71.323 113.903 71.4915 113.406C71.6598 112.901 71.8964 112.476 72.2011 112.131C72.5058 111.786 72.8707 111.522 73.2958 111.337C73.7207 111.153 74.1898 111.061 74.7031 111.061C75.2163 111.061 75.6854 111.153 76.1105 111.337C76.5354 111.522 76.9003 111.786 77.205 112.131C77.5178 112.476 77.7583 112.901 77.9267 113.406C78.0952 113.903 78.1793 114.469 78.1793 115.102C78.1793 115.744 78.0952 116.317 77.9267 116.822C77.7583 117.327 77.5178 117.761 77.205 118.121C76.9003 118.474 76.5354 118.747 76.1105 118.939C75.6854 119.124 75.2163 119.216 74.7031 119.216ZM74.7031 118.001C75.0158 118.001 75.2965 117.933 75.5451 117.797C75.7936 117.66 76.0061 117.468 76.1826 117.219C76.359 116.963 76.4953 116.658 76.5916 116.305C76.6878 115.944 76.7359 115.543 76.7359 115.102C76.7359 114.22 76.5514 113.53 76.1826 113.033C75.8218 112.528 75.3286 112.275 74.7031 112.275C74.0775 112.275 73.5804 112.528 73.2115 113.033C72.8506 113.53 72.6702 114.22 72.6702 115.102C72.6702 115.543 72.7184 115.944 72.8145 116.305C72.9108 116.658 73.0471 116.963 73.2236 117.219C73.4 117.468 73.6125 117.66 73.861 117.797C74.1096 117.933 74.3903 118.001 74.7031 118.001Z" fill="white"/>
<path d="M83.1232 119.072V111.205H85.2281C86.4311 111.205 87.3693 111.53 88.0428 112.179C88.7165 112.829 89.0532 113.803 89.0532 115.102C89.0532 115.752 88.965 116.325 88.7886 116.822C88.6202 117.32 88.3716 117.737 88.0428 118.073C87.7221 118.402 87.3292 118.651 86.8641 118.819C86.407 118.988 85.8858 119.072 85.3003 119.072H83.1232ZM84.5185 117.941H85.132C85.9338 117.941 86.5473 117.712 86.9724 117.256C87.4054 116.79 87.6219 116.073 87.6219 115.102C87.6219 114.14 87.4054 113.438 86.9724 112.997C86.5393 112.556 85.9259 112.336 85.132 112.336H84.5185V117.941Z" fill="white"/>
<path d="M91.1222 119.072V111.205H92.5174V119.072H91.1222Z" fill="white"/>
<path d="M96.6098 114.886L96.3333 115.848H98.342L98.0654 114.886C97.9371 114.469 97.8128 114.04 97.6924 113.599C97.5803 113.158 97.468 112.721 97.3557 112.288H97.3076C97.1953 112.729 97.083 113.17 96.9707 113.611C96.8585 114.044 96.7382 114.469 96.6098 114.886ZM93.9756 119.072L96.5377 111.205H98.1737L100.736 119.072H99.2682L98.6548 116.943H96.0085L95.3951 119.072H93.9756Z" fill="white"/>
<path d="M102.187 119.072V111.205H103.762L105.158 115.054C105.246 115.303 105.33 115.559 105.41 115.824C105.49 116.081 105.575 116.337 105.663 116.594H105.711C105.799 116.337 105.879 116.081 105.952 115.824C106.032 115.559 106.116 115.303 106.204 115.054L107.563 111.205H109.151V119.072H107.864V115.475C107.864 115.291 107.868 115.09 107.876 114.874C107.892 114.657 107.908 114.441 107.924 114.224C107.94 114 107.96 113.783 107.984 113.575C108.008 113.358 108.028 113.158 108.045 112.973H107.996L107.359 114.802L106.072 118.338H105.242L103.943 114.802L103.317 112.973H103.269C103.285 113.158 103.301 113.358 103.317 113.575C103.341 113.783 103.361 114 103.377 114.224C103.401 114.441 103.417 114.657 103.426 114.874C103.442 115.09 103.45 115.291 103.45 115.475V119.072H102.187Z" fill="white"/>
</g>
<path d="M113.242 114.886L112.966 115.848H114.974L114.698 114.886C114.57 114.469 114.445 114.04 114.325 113.599C114.213 113.158 114.1 112.721 113.988 112.288H113.94C113.828 112.729 113.715 113.17 113.603 113.611C113.491 114.044 113.371 114.469 113.242 114.886ZM110.608 119.072L113.17 111.205H114.806L117.368 119.072H115.901L115.287 116.943H112.641L112.027 119.072H110.608Z" fill="white"/>
<path d="M118.819 119.072V111.205H120.25L122.704 115.632L123.51 117.304H123.558C123.526 116.895 123.486 116.458 123.438 115.993C123.398 115.519 123.378 115.062 123.378 114.621V111.205H124.713V119.072H123.281L120.828 114.645L120.022 112.973H119.974C120.006 113.39 120.042 113.827 120.082 114.284C120.13 114.741 120.154 115.191 120.154 115.632V119.072H118.819Z" fill="white"/>
<path d="M128.782 119.072V112.384H126.508V111.205H132.45V112.384H130.177V119.072H128.782Z" fill="white"/>
<path d="M134.241 119.072V111.205H138.981V112.384H135.637V114.393H138.463V115.571H135.637V117.893H139.101V119.072H134.241Z" fill="white"/>
</g>
<defs>
<filter id="filter0_i_201_22" x="104.588" y="133.434" width="26.5342" height="34.3745" filterUnits="userSpaceOnUse" color-interpolation-filters="sRGB">
<feFlood flood-opacity="0" result="BackgroundImageFix"/>
<feBlend mode="normal" in="SourceGraphic" in2="BackgroundImageFix" result="shape"/>
<feColorMatrix in="SourceAlpha" type="matrix" values="0 0 0 0 0 0 0 0 0 0 0 0 0 0 0 0 0 0 127 0" result="hardAlpha"/>
<feOffset dx="-15.6832" dy="23.5248"/>
<feGaussianBlur stdDeviation="27.4456"/>
<feComposite in2="hardAlpha" operator="arithmetic" k2="-1" k3="1"/>
<feColorMatrix type="matrix" values="0 0 0 0 0.117647 0 0 0 0 0.403922 0 0 0 0 0.603922 0 0 0 0.16 0"/>
<feBlend mode="normal" in2="shape" result="effect1_innerShadow_201_22"/>
</filter>
<filter id="filter1_i_201_22" x="87.2432" y="134.338" width="30.3148" height="41.6108" filterUnits="userSpaceOnUse" color-interpolation-filters="sRGB">
<feFlood flood-opacity="0" result="BackgroundImageFix"/>
<feBlend mode="normal" in="SourceGraphic" in2="BackgroundImageFix" result="shape"/>
<feColorMatrix in="SourceAlpha" type="matrix" values="0 0 0 0 0 0 0 0 0 0 0 0 0 0 0 0 0 0 127 0" result="hardAlpha"/>
<feOffset dx="-15.6832" dy="23.5248"/>
<feGaussianBlur stdDeviation="27.4456"/>
<feComposite in2="hardAlpha" operator="arithmetic" k2="-1" k3="1"/>
<feColorMatrix type="matrix" values="0 0 0 0 0.117647 0 0 0 0 0.403922 0 0 0 0 0.603922 0 0 0 0.16 0"/>
<feBlend mode="normal" in2="shape" result="effect1_innerShadow_201_22"/>
</filter>
<filter id="filter2_i_201_22" x="7.23828" y="5.0293" width="148.298" height="177.842" filterUnits="userSpaceOnUse" color-interpolation-filters="sRGB">
<feFlood flood-opacity="0" result="BackgroundImageFix"/>
<feBlend mode="normal" in="SourceGraphic" in2="BackgroundImageFix" result="shape"/>
<feColorMatrix in="SourceAlpha" type="matrix" values="0 0 0 0 0 0 0 0 0 0 0 0 0 0 0 0 0 0 127 0" result="hardAlpha"/>
<feOffset dy="7.84162"/>
<feGaussianBlur stdDeviation="3.92081"/>
<feComposite in2="hardAlpha" operator="arithmetic" k2="-1" k3="1"/>
<feColorMatrix type="matrix" values="0 0 0 0 0 0 0 0 0 0 0 0 0 0 0 0 0 0 0.05 0"/>
<feBlend mode="normal" in2="shape" result="effect1_innerShadow_201_22"/>
</filter>
<linearGradient id="paint0_linear_201_22" x1="237.372" y1="-51.0348" x2="74.1535" y2="105.854" gradientUnits="userSpaceOnUse">
<stop stop-color="#9AF2FE"/>
<stop offset="1" stop-color="#3A72BF"/>
</linearGradient>
<linearGradient id="paint1_linear_201_22" x1="32.5575" y1="77.3699" x2="149.176" y2="61.6162" gradientUnits="userSpaceOnUse">
<stop stop-color="#00489D"/>
<stop offset="1" stop-color="#6DC3F2"/>
</linearGradient>
<linearGradient id="paint2_linear_201_22" x1="155.537" y1="-27.0719" x2="-50.1821" y2="122.131" gradientUnits="userSpaceOnUse">
<stop stop-color="#40B0F0"/>
<stop offset="1" stop-color="#0F619B"/>
</linearGradient>
<linearGradient id="paint3_linear_201_22" x1="118.576" y1="-17.4776" x2="174.819" y2="17.2887" gradientUnits="userSpaceOnUse">
<stop stop-color="#50A9E1"/>
<stop offset="1" stop-color="#6FC8FF"/>
</linearGradient>
<linearGradient id="paint4_linear_201_22" x1="84.5905" y1="2.36748" x2="-69.6874" y2="-61.5099" gradientUnits="userSpaceOnUse">
<stop stop-color="#9CD5F0"/>
<stop offset="1" stop-color="#C9FFFF"/>
</linearGradient>
<linearGradient id="paint5_linear_201_22" x1="57.7788" y1="1.86017" x2="133.29" y2="-89.6858" gradientUnits="userSpaceOnUse">
<stop stop-color="#74C1EB"/>
<stop offset="1" stop-color="#88D5FF"/>
</linearGradient>
<linearGradient id="paint6_linear_201_22" x1="-9.82124" y1="-88.1488" x2="130.07" y2="97.6593" gradientUnits="userSpaceOnUse">
<stop stop-color="#5FBAE9"/>
<stop offset="1" stop-color="#88E3FF"/>
</linearGradient>
<linearGradient id="paint7_linear_201_22" x1="110.716" y1="46.4506" x2="173.408" y2="-59.9038" gradientUnits="userSpaceOnUse">
<stop stop-color="#3A9AD4"/>
<stop offset="1" stop-color="#4EAEE8"/>
</linearGradient>
<linearGradient id="paint8_linear_201_22" x1="-36.386" y1="-71.0454" x2="30.2752" y2="31.3312" gradientUnits="userSpaceOnUse">
<stop stop-color="#83D2F3"/>
<stop offset="1" stop-color="#CCFFFF"/>
</linearGradient>
<linearGradient id="paint9_linear_201_22" x1="217.416" y1="110.469" x2="92.8114" y2="128.328" gradientUnits="userSpaceOnUse">
<stop stop-color="#2585BF"/>
<stop offset="1" stop-color="#54B4EE"/>
</linearGradient>
<linearGradient id="paint10_linear_201_22" x1="78.3188" y1="108.27" x2="-70.0075" y2="153.406" gradientUnits="userSpaceOnUse">
<stop stop-color="#5FB3DF"/>
<stop offset="1" stop-color="#B4FFFF"/>
</linearGradient>
<linearGradient id="paint11_linear_201_22" x1="31.966" y1="152.837" x2="77.6771" y2="39.7066" gradientUnits="userSpaceOnUse">
<stop stop-color="#4AAADD"/>
<stop offset="1" stop-color="#99F9FF"/>
</linearGradient>
<radialGradient id="paint12_radial_201_22" cx="0" cy="0" r="1" gradientUnits="userSpaceOnUse" gradientTransform="translate(64.6035 61.7787) rotate(180) scale(111.519 113.781)">
<stop stop-color="#82D9F4"/>
<stop offset="0.3299" stop-color="#52899A"/>
<stop offset="0.6578" stop-color="#263F47"/>
<stop offset="0.8877" stop-color="#0B1214"/>
<stop offset="1"/>
</radialGradient>
<radialGradient id="paint13_radial_201_22" cx="0" cy="0" r="1" gradientUnits="userSpaceOnUse" gradientTransform="translate(34.0548 120.24) rotate(180) scale(103.499 105.203)">
<stop stop-color="#82D9F4"/>
<stop offset="0.1287" stop-color="#68AEC4"/>
<stop offset="0.3029" stop-color="#497A89"/>
<stop offset="0.4713" stop-color="#2F4E58"/>
<stop offset="0.6294" stop-color="#1B2C32"/>
<stop offset="0.7747" stop-color="#0C1416"/>
<stop offset="0.9028" stop-color="#030506"/>
<stop offset="1"/>
</radialGradient>
<radialGradient id="paint14_radial_201_22" cx="0" cy="0" r="1" gradientUnits="userSpaceOnUse" gradientTransform="translate(26.602 -25.5595) rotate(180) scale(103.5 105.203)">
<stop stop-color="#82D9F4"/>
<stop offset="0.1287" stop-color="#68AEC4"/>
<stop offset="0.3029" stop-color="#497A89"/>
<stop offset="0.4713" stop-color="#2F4E58"/>
<stop offset="0.6294" stop-color="#1B2C32"/>
<stop offset="0.7747" stop-color="#0C1416"/>
<stop offset="0.9028" stop-color="#030506"/>
<stop offset="1"/>
</radialGradient>
<radialGradient id="paint15_radial_201_22" cx="0" cy="0" r="1" gradientUnits="userSpaceOnUse" gradientTransform="translate(55.3514 180.443) rotate(180) scale(103.495 105.198)">
<stop stop-color="#82D9F4"/>
<stop offset="0.1287" stop-color="#68AEC4"/>
<stop offset="0.3029" stop-color="#497A89"/>
<stop offset="0.4713" stop-color="#2F4E58"/>
<stop offset="0.6294" stop-color="#1B2C32"/>
<stop offset="0.7747" stop-color="#0C1416"/>
<stop offset="0.9028" stop-color="#030506"/>
<stop offset="1"/>
</radialGradient>
<linearGradient id="paint16_linear_201_22" x1="160.662" y1="3.21166" x2="3.54913" y2="139.423" gradientUnits="userSpaceOnUse">
<stop stop-color="white"/>
<stop offset="1" stop-color="white"/>
</linearGradient>
<linearGradient id="paint17_linear_201_22" x1="226.972" y1="77.8243" x2="7.42034" y2="207.316" gradientUnits="userSpaceOnUse">
<stop stop-color="#0F4A72"/>
<stop offset="1" stop-color="#0A6DB3"/>
</linearGradient>
</defs>
</svg>
