<svg width="573" height="286" viewBox="0 0 573 286" fill="none" xmlns="http://www.w3.org/2000/svg">
<path d="M155.34 33.9518C155.34 33.9518 155.001 26.9716 159.237 19.1799C163.473 11.3685 171.134 6.90333 177.337 5.82546C183.541 4.7476 188.761 3.57321 191.201 0.927713C192.507 -0.511225 194.172 -0.26455 194.134 1.68383C194.095 3.02624 193.603 6.52616 193.094 9.81695C192.583 13.1256 191.013 21.0711 187.513 26.48C182.274 34.6132 175.296 36.524 169.243 37.1282C163.303 37.7145 158.234 35.5194 155.34 33.9518Z" fill="white"/>
<path d="M185.282 41.9526C176.127 40.9105 172.799 44.9967 161.848 44.5231C149.382 43.994 140.531 30.5448 122.45 30.5645C110.515 30.5645 85.0935 43.4452 88.706 84.4701C91.9414 121.201 106.958 146.377 131.415 145.828C143.368 145.488 145.126 142.14 152.618 142.46C160.826 142.821 162.832 146.886 174.009 146.282C188.194 145.526 209.814 115.982 211.723 88.4419C214.295 51.5032 195.344 43.1056 185.263 41.9508L185.282 41.9526ZM112.691 54.3579C97.0679 72.0631 99.5061 96.3105 99.5061 96.3105C99.5061 96.3105 93.2856 70.1898 107.073 51.3906C111.82 44.902 115.338 43.8813 116.737 45.2059C118.798 47.1543 116.625 49.9142 112.691 54.3579Z" fill="white"/>
<path d="M463.412 268.826H457.946V263.36C457.946 262.489 457.605 262.112 456.734 262.112H453.69C452.82 262.112 452.518 262.489 452.518 263.36V268.826H447.089C446.219 268.826 445.841 269.11 445.841 269.998V273.044C445.841 273.913 446.219 274.254 447.089 274.254H452.518V279.683C452.518 280.553 452.802 280.931 453.69 280.931H456.734C457.605 280.931 457.946 280.553 457.946 279.683V274.254H463.412C464.281 274.254 464.66 273.913 464.66 273.044V269.998C464.66 269.128 464.281 268.826 463.412 268.826ZM432.223 280.023H424.034V258.499C424.034 257.629 423.75 257.25 422.861 257.25H418.341C417.47 257.25 417.129 257.629 417.129 258.499V284.411C417.129 285.244 417.413 285.66 418.169 285.66H432.205C433.073 285.66 433.452 285.319 433.452 284.448V281.195C433.452 280.326 433.073 280.023 432.205 280.023H432.223ZM409.564 280.023H401.374V258.499C401.374 257.629 401.09 257.25 400.201 257.25H395.681C394.81 257.25 394.471 257.629 394.471 258.499V284.411C394.471 285.244 394.755 285.66 395.511 285.66H409.545C410.415 285.66 410.794 285.319 410.794 284.448V281.195C410.794 280.326 410.415 280.023 409.545 280.023H409.564ZM384.068 257.25H379.415C378.544 257.25 378.205 257.629 378.205 258.499V284.411C378.205 285.281 378.544 285.66 379.415 285.66H384.068C384.938 285.66 385.24 285.281 385.24 284.411V258.499C385.24 257.629 384.938 257.25 384.068 257.25ZM370.468 266.159C370.468 263.796 369.598 261.222 368.066 259.785C366.402 258.235 363.697 257.194 359.613 257.194H350.59C349.719 257.194 349.379 257.572 349.379 258.442V284.354C349.379 285.224 349.719 285.603 350.59 285.603H355.11C355.981 285.603 356.283 285.224 356.283 284.354V275.125H359.423L363.091 284.354C363.338 284.94 363.508 285.603 364.303 285.603H369.163C370.091 285.603 370.62 285.092 370.336 284.354L365.891 274.085C369.485 272.76 370.468 269.185 370.468 266.159ZM359.745 269.696H356.265V262.83H359.745C361.938 262.83 363.622 263.928 363.64 266.254C363.64 268.466 362.392 269.677 359.745 269.677V269.696ZM558.057 266.159C558.057 263.796 557.188 261.222 555.656 259.785C553.992 258.235 551.286 257.194 547.201 257.194H538.18C537.309 257.194 536.968 257.572 536.968 258.442V284.354C536.968 285.224 537.309 285.603 538.18 285.603H542.698C543.569 285.603 543.871 285.224 543.871 284.354V275.125H547.012L550.681 284.354C550.926 284.94 551.098 285.603 551.892 285.603H556.752C557.679 285.603 558.209 285.092 557.924 284.354L553.481 274.085C557.073 272.76 558.057 269.185 558.057 266.159ZM547.333 269.696H543.853V262.83H547.333C549.527 262.83 551.21 263.928 551.23 266.254C551.23 268.466 549.981 269.677 547.333 269.677V269.696ZM351.65 167.56C345.388 167.56 340.074 169.509 335.668 172.44V139.339H314.559V143.445C314.559 147.076 316.999 147.435 318.456 147.624C320.12 147.871 321.235 148.021 321.235 151.861V220.822C321.235 223.148 320.629 224.018 318.928 224.245C317.433 224.453 314.956 224.775 314.956 228.501V232.057H335.668V226.666C339.922 230.411 347.319 233.419 355.092 232.775C369.428 231.603 380.872 222.335 382.139 203.439C383.633 181.102 371.584 167.523 351.65 167.541V167.56ZM352.822 222.921C347.942 223.811 339.223 222.335 335.668 217.095V181.197C338.295 179.041 342.646 177.073 346.997 176.809C357.475 176.183 364.965 183.712 366.384 194.739C368.161 208.471 364.303 220.84 352.822 222.941V222.921ZM539.258 191.92C530.915 189.462 521.345 187.893 521.383 181.556C521.422 176.128 527.001 173.575 533.545 173.575C544.25 173.575 548.563 179.703 550.417 182.956C551.967 185.68 552.006 187.494 554.823 187.494H557.018V167.503H552.233C551.74 169.963 549.679 170.322 547.673 169.981C545.782 169.659 539.447 167.503 531.541 167.503C518.887 167.503 508.352 174.179 508.352 186.284C508.352 198.389 521.118 201.605 530.576 204.651C538.689 207.261 547.787 209.077 547.787 216.963C547.787 223.225 541.243 225.55 533.981 225.456C525.621 225.343 518.281 220.576 515.614 212.348C515.085 210.721 513.648 209.568 511.927 209.568H507.708V231.698H513.686C513.686 230.278 515.312 228.691 517.865 229.522C521.572 230.752 525.923 232.87 534.794 232.87C546.029 232.87 561.406 228.577 561.406 212.727C561.406 196.877 546.672 194.115 539.295 191.94L539.258 191.92ZM489.513 262.678H491.689C494.999 262.678 495.491 263.928 495.491 265.687C495.491 268.012 494.223 268.693 491.689 268.693H489.513V262.678ZM493.069 280.232H489.513V273.8H493.069C495.376 273.8 496.871 274.953 496.871 276.978C496.871 279.002 495.471 280.232 493.069 280.232ZM499.463 270.699C501.411 269.526 502.451 267.029 502.299 264.343C502.11 260.75 500.313 257.232 491.689 257.232H483.84C482.969 257.232 482.628 257.609 482.628 258.48V284.393C482.628 285.262 482.969 285.641 483.84 285.641H493.069C501.638 285.641 503.774 281.706 503.774 277.62C503.774 273.289 502.394 271.889 499.463 270.679V270.699ZM523.426 258.442C523.181 257.609 522.764 257.194 521.874 257.194H517.355C516.485 257.194 516.068 257.609 515.804 258.442L508.237 284.354C507.992 285.149 508.277 285.603 509.165 285.603H513.382C514.252 285.603 514.631 285.149 514.839 284.354L515.841 280.344H522.859L523.937 284.354C524.144 285.149 524.523 285.603 525.394 285.603H530.027C530.897 285.603 531.2 285.149 530.955 284.354L523.388 258.442H523.426ZM516.919 275.2L519.491 265.043L521.762 275.2H516.919ZM331.771 256.91C327.345 256.91 324.526 258.026 323.014 259.652C321.992 260.768 321.727 261.885 321.557 263.284C321.33 265.156 321.33 267.937 321.33 271.493C321.33 276.675 321.235 280.25 322.181 282.046C323.354 284.316 326.323 286 331.771 286C339.62 286 342.022 282.463 342.117 278.85C342.23 274.916 342.172 270.699 342.172 270.699C342.172 269.828 341.795 269.526 340.925 269.526H331.998C331.127 269.526 330.748 269.809 330.748 270.699V273.952C330.748 274.821 331.127 275.162 331.998 275.162H335.573V277.62C335.573 279.551 334.021 280.344 331.96 280.344C330.504 280.344 329.179 279.948 328.63 279.02C328.082 278.094 328.101 274.499 328.101 271.455C328.101 268.409 328.214 265.345 328.441 264.343C328.745 263.075 329.992 262.546 331.846 262.546C333.889 262.546 335.441 263.302 335.441 265.27C335.441 265.989 335.78 266.518 336.651 266.518H340.962C341.833 266.518 342.135 266.141 342.135 265.27V264.06C342.135 260.466 339.639 256.91 331.789 256.91H331.771ZM258.857 232.076V228.519C258.857 224.812 255.831 224.472 254.337 224.263C252.635 224.036 250.762 223.924 250.762 220.84V139.339H228.159V143.445C228.159 147.076 230.731 147.549 232.717 147.624C234.401 147.699 235.97 148.021 235.97 151.861V220.822C235.97 223.904 234.099 224.018 232.397 224.245C230.903 224.453 227.877 224.775 227.877 228.501V232.057H258.875L258.857 232.076ZM271.795 195.667C271.888 192.414 272.778 177.055 284.524 175.429C292.712 174.294 297.876 180.838 298.879 188.762L271.795 195.667ZM288.06 167.541C263.775 167.578 257.116 190.673 257.665 203.346C258.461 221.314 270.396 232.833 288.59 232.833C302.454 232.833 311.249 225.929 311.608 225.645L311.778 225.513L311.703 225.323C311.343 224.435 309.679 219.61 305.271 221.464C302.227 222.751 298.917 223.639 295.002 223.639C279.607 223.639 273.819 211.043 272.778 203.401L314.295 192.092C313.537 185.736 308.45 167.503 288.042 167.541H288.06ZM400.523 195.667C400.618 192.414 401.506 177.055 413.252 175.429C421.442 174.294 426.606 180.838 427.607 188.762L400.523 195.667ZM416.789 167.541C392.503 167.578 385.846 190.673 386.395 203.346C387.189 221.314 399.124 232.833 417.318 232.833C431.182 232.833 439.978 225.929 440.338 225.645L440.508 225.513L440.431 225.323C440.071 224.435 438.407 219.61 434.001 221.464C430.955 222.751 427.645 223.639 423.73 223.639C408.335 223.639 402.547 211.043 401.506 203.401L443.023 192.092C442.266 185.736 437.177 167.503 416.77 167.541H416.789ZM459.611 195.667C459.705 192.414 460.594 177.055 472.339 175.429C480.53 174.294 485.692 180.838 486.695 188.762L459.611 195.667ZM475.877 167.541C451.59 167.578 444.933 190.673 445.482 203.346C446.276 221.314 458.211 232.833 476.406 232.833C490.27 232.833 499.064 225.929 499.423 225.645L499.595 225.513L499.518 225.323C499.159 224.435 497.495 219.61 493.088 221.464C490.043 222.751 486.732 223.639 482.818 223.639C467.422 223.639 461.634 211.043 460.594 203.401L502.11 192.092C501.354 185.736 496.265 167.503 475.857 167.541H475.877Z" fill="white"/>
<path d="M229.162 199.128C229.162 214.618 221.899 232.85 198.218 232.775C193.471 232.775 189.537 231.678 185.829 230.108L185.717 230.071V229.957C184.941 225.929 185.225 222.808 190.123 223.961C191.372 224.245 193.471 224.51 194.758 224.51C210.268 224.51 213.746 209.039 213.482 198.749C213.294 191.468 210.835 176.469 194.758 176.469C190.559 176.469 185.963 178.114 182.728 180.743L182.748 245.958C182.748 249.042 183.352 249.156 185.036 249.383C186.53 249.59 189.008 249.912 189.008 253.637V257.194H161.752V253.6C161.752 249.892 164.231 249.553 165.724 249.344C167.427 249.117 168.012 249.004 168.012 245.921V180.024C168.012 176.374 166.898 176.11 166.01 175.883L165.479 175.768C164.117 175.484 161.866 175.012 161.866 171.854V167.503H182.085V173.48C185.812 170.681 191.108 167.56 199.146 167.56C216.074 167.56 229.124 178.927 229.124 199.147L229.162 199.128ZM131.584 167.542C123.526 167.542 118.25 170.662 114.525 173.461V167.483H94.3045V171.834C94.3045 175.012 96.5746 175.466 97.917 175.749L98.4479 175.863C99.3363 176.09 100.452 176.355 100.452 180.005V223.432C88.4987 219.328 84.2051 211.213 73.1781 179.967L53.7731 119.139L42.3689 122.299C41.7218 122.478 41.1173 122.786 40.591 123.203C40.0646 123.62 39.6272 124.138 39.3044 124.727C38.9817 125.316 38.7802 125.963 38.7118 126.631C38.6435 127.299 38.7097 127.974 38.9065 128.616L39.8718 131.755L12.18 210.382C8.54957 220.558 5.44649 221.636 3.38551 222.335C1.87329 222.866 0 223.507 0 227.499V232.076H27.2932V227.499C27.2932 223.262 25.3448 222.354 23.3393 221.786C21.5232 221.294 20.692 221.049 20.692 218.609C20.692 216.397 22.5635 210.911 23.3196 208.698L23.3965 208.471L25.7417 201.435L26.555 198.976H63.3415L66.6144 206.258C74.9745 225.438 88.4218 231.168 100.47 232.491V245.903C100.47 248.984 99.8653 249.099 98.1815 249.326C96.689 249.533 94.2115 249.855 94.2115 253.582V257.137H121.465V253.6C121.465 249.892 118.988 249.553 117.494 249.344C115.792 249.117 115.206 249.004 115.206 245.921L115.188 180.706C118.421 178.056 123.017 176.43 127.216 176.43C143.312 176.43 145.77 191.429 145.94 198.711C146.204 209 142.726 224.472 127.216 224.472C125.929 224.472 123.83 224.208 122.581 223.924C117.683 222.771 117.399 225.91 118.157 229.919V230.033L118.269 230.071C121.977 231.622 125.911 232.718 130.657 232.738C154.339 232.813 161.602 214.58 161.602 199.09C161.602 178.87 148.551 167.503 131.622 167.503L131.586 167.541L131.584 167.542ZM30.5089 187.911C30.7359 187.267 44.7123 147.567 45.0913 146.509C45.1485 146.698 45.2235 146.886 45.2235 146.886C49.8712 160.595 54.6189 174.271 59.4663 187.911H30.5089ZM504.947 149.535C501.845 149.535 499.443 151.88 499.443 154.869C499.442 155.562 499.577 156.249 499.842 156.89C500.107 157.53 500.496 158.113 500.986 158.603C501.476 159.093 502.058 159.482 502.699 159.746C503.34 160.011 504.026 160.147 504.72 160.146L505.837 160.031C505.837 162.718 504.891 165.991 502.469 168.826L502.072 169.299L504.021 171.266L504.493 170.794C508.901 166.388 511.131 161.885 511.131 157.441C511.131 153.639 509.185 149.553 504.947 149.553M573 172.269C573 175.257 570.655 177.604 567.591 177.604C564.526 177.604 562.162 175.257 562.162 172.27C562.162 169.282 564.565 166.992 567.591 166.992C570.617 166.992 573 169.335 573 172.269ZM563.525 172.269C563.525 174.616 565.264 176.487 567.646 176.487C570.031 176.487 571.658 174.616 571.658 172.308C571.658 170 569.954 168.071 567.609 168.071C565.264 168.071 563.525 169.963 563.525 172.29V172.269ZM566.778 175.03H565.548V169.754C566.02 169.659 566.701 169.603 567.571 169.603C568.574 169.603 569.009 169.754 569.405 169.981C569.69 170.208 569.917 170.624 569.917 171.135C569.917 171.722 569.463 172.156 568.819 172.365V172.42C569.33 172.61 569.615 173.007 569.784 173.707C569.936 174.501 570.049 174.823 570.163 175.03H568.839C568.687 174.843 568.574 174.351 568.422 173.743C568.328 173.159 568.006 172.912 567.326 172.912H566.738V175.03H566.778ZM566.815 172.043H567.402C568.083 172.043 568.631 171.816 568.631 171.268C568.631 170.794 568.272 170.472 567.514 170.472C567.192 170.472 566.965 170.511 566.833 170.529V172.043H566.815Z" fill="white"/>
</svg>
