<svg width="198" height="59" viewBox="0 0 198 59" fill="none" xmlns="http://www.w3.org/2000/svg">
<path fill-rule="evenodd" clip-rule="evenodd" d="M193.022 28.9809C191.26 28.9846 189.827 27.5709 189.824 25.8185C189.824 25.8111 189.824 25.8037 189.824 25.7964C189.824 24.0476 191.241 22.5971 193.04 22.5971C194.802 22.5934 196.234 24.0072 196.238 25.7596C196.238 25.7669 196.238 25.7743 196.238 25.7816C196.242 27.5488 194.798 28.9809 193.022 28.9809ZM193.044 22.9137C191.463 22.9027 190.172 24.1618 190.16 25.7375C190.16 25.7559 190.16 25.7816 190.16 25.8001C190.16 27.3868 191.393 28.6643 193.025 28.6643C194.606 28.6753 195.898 27.4052 195.909 25.8369C195.909 25.8185 195.909 25.8 195.909 25.7816C195.931 24.2207 194.684 22.9358 193.118 22.9137C193.085 22.9137 193.066 22.9137 193.044 22.9137ZM193.747 26.1056L194.654 27.3684H193.891L193.081 26.2124H192.378V27.3684H191.734V24.0256H193.233C194.014 24.0256 194.524 24.4268 194.524 25.0895C194.528 25.6381 194.213 25.9768 193.747 26.1056ZM193.21 24.5962H192.374V25.6528H193.21C193.629 25.6528 193.873 25.4503 193.873 25.1227C193.873 24.784 193.621 24.5962 193.21 24.5962ZM153.183 13.6547C151.384 13.6547 149.922 15.1052 149.922 16.8945C149.922 18.6837 151.381 20.1379 153.18 20.1379C154.978 20.1379 156.44 18.6837 156.44 16.8945C156.44 15.1052 154.982 13.651 153.183 13.6547ZM155.43 22.6376H150.885C150.7 22.6376 150.555 22.7849 150.555 22.969V42.7056C150.555 42.8933 150.7 43.0369 150.885 43.0369H155.434C155.619 43.0369 155.767 42.8897 155.767 42.7056V22.9726C155.767 22.7886 155.619 22.6376 155.43 22.6376ZM165.542 22.656V22.0339C165.542 20.1931 166.253 19.3721 167.841 19.3721C168.785 19.3721 169.547 19.5599 170.406 19.847C170.58 19.9059 170.769 19.8102 170.828 19.6409C170.839 19.6041 170.846 19.5672 170.843 19.5304V15.7201C170.843 15.5765 170.743 15.4476 170.606 15.4034C169.381 15.0316 168.104 14.8475 166.823 14.8623C162.626 14.8623 160.401 17.2111 160.401 21.662V22.6192H158.213C158.028 22.6192 157.884 22.7665 157.88 22.9469V26.8566C157.88 27.0407 158.028 27.188 158.213 27.188H160.401V42.7056C160.401 42.886 160.545 43.0332 160.73 43.0332H165.279C165.465 43.0332 165.609 42.886 165.609 42.7019V27.188H169.854L176.362 42.7019C175.625 44.3291 174.899 44.6531 173.907 44.6531C173.104 44.6531 172.26 44.4138 171.398 43.9426C171.32 43.8984 171.224 43.891 171.135 43.9205C171.05 43.9536 170.972 44.0162 170.939 44.1009L169.399 47.4621C169.325 47.6204 169.388 47.8082 169.54 47.8928C171.15 48.758 172.605 49.1298 174.396 49.1298C177.753 49.1298 179.611 47.5762 181.247 43.3867L189.143 23.1089C189.213 22.9395 189.131 22.7481 188.961 22.6781C188.92 22.6634 188.88 22.656 188.835 22.656H184.101C183.961 22.656 183.835 22.7444 183.79 22.8806L178.938 36.6605L173.622 22.8732C173.574 22.7444 173.449 22.656 173.312 22.656H165.542ZM148.109 22.6376H143.108V17.5461C143.108 17.3657 142.96 17.2184 142.779 17.2184H142.775H138.226C138.044 17.2184 137.896 17.3657 137.896 17.5461V22.6339H135.705C135.524 22.6339 135.376 22.7812 135.376 22.9616V22.9653V26.853C135.376 27.037 135.524 27.1843 135.705 27.1843H137.896V37.2422C137.896 41.3103 139.928 43.3646 143.941 43.3646C145.573 43.3646 146.924 43.0332 148.197 42.3153C148.305 42.2564 148.368 42.146 148.368 42.0245V38.3246C148.371 38.1442 148.227 37.9932 148.042 37.9932C147.986 37.9932 147.935 38.0043 147.886 38.0301C147.013 38.4682 146.165 38.667 145.214 38.667C143.752 38.667 143.104 38.0116 143.104 36.5354V27.1917H148.105C148.286 27.1917 148.434 27.0481 148.438 26.8677C148.438 26.864 148.438 26.864 148.438 26.8603V22.9726C148.438 22.7886 148.294 22.6376 148.109 22.6376ZM124.127 22.2216C117.998 22.2216 113.197 26.9155 113.197 32.9091C113.197 38.8363 117.968 43.4787 124.053 43.4787C130.201 43.4787 135.02 38.7995 135.02 32.8354C135.017 26.8861 130.231 22.2216 124.127 22.2216ZM124.127 38.8989C120.866 38.8989 118.408 36.2924 118.408 32.8354C118.408 29.3674 120.785 26.853 124.053 26.853C127.333 26.853 129.805 29.4595 129.805 32.9164C129.801 36.3807 127.418 38.8989 124.127 38.8989ZM102.2 22.2216C99.6348 22.2216 97.5361 23.223 95.8038 25.281V22.9726C95.8038 22.7886 95.6558 22.645 95.4744 22.6413H90.9254C90.7403 22.6413 90.5959 22.7886 90.5959 22.9726V48.6844C90.5959 48.8648 90.744 49.012 90.9254 49.012H95.4744C95.6558 49.012 95.8038 48.8648 95.8038 48.6844V40.5703C97.5361 42.5031 99.6385 43.4456 102.2 43.4456C106.96 43.4456 111.775 39.8009 111.775 32.8354C111.775 25.87 106.96 22.2216 102.2 22.2216ZM106.49 32.8354C106.49 36.3807 104.291 38.8584 101.149 38.8584C98.0358 38.8584 95.6928 36.2703 95.6928 32.8354C95.6928 29.4006 98.0358 26.8125 101.149 26.8125C104.239 26.8125 106.494 29.3454 106.49 32.8354ZM80.1172 27.2064C75.0389 25.9989 74.1394 25.1521 74.1394 23.3776C74.1394 21.6952 75.7273 20.5686 78.0888 20.5686C80.3763 20.5686 82.649 21.4227 85.029 23.1899C85.1771 23.3003 85.388 23.2672 85.4991 23.1199L87.979 19.6409C88.079 19.501 88.0494 19.3022 87.9161 19.1954C85.0845 16.9313 81.8939 15.8342 78.1629 15.8342C72.6774 15.8342 68.8464 19.107 68.8464 23.7899C68.8464 28.8115 72.1518 30.5897 77.8631 31.9629C82.7193 33.0747 83.5447 34.0062 83.5447 35.6776C83.5447 37.522 81.8865 38.6706 79.2141 38.6706C76.2529 38.6706 73.8322 37.6766 71.1265 35.3499C71.0598 35.291 70.971 35.2652 70.8822 35.2689C70.7933 35.2763 70.7082 35.3205 70.6527 35.3867L67.8729 38.678C67.7545 38.8142 67.7693 39.0204 67.9099 39.1382C70.9747 41.8993 74.9685 43.4235 79.103 43.4087C85.0105 43.4087 88.8304 40.1948 88.8304 35.2284C88.8304 31.0278 86.306 28.7048 80.1172 27.2064ZM29.4152 0.375488C13.1734 0.375488 0 13.4743 0 29.6325C0 45.7907 13.1734 58.8895 29.4152 58.8895C45.657 58.8895 58.8304 45.787 58.8304 29.6325C58.8304 13.478 45.6644 0.375488 29.4152 0.375488ZM42.9105 42.573C42.3849 43.4308 41.256 43.707 40.3936 43.1842L40.3899 43.1805C33.4793 38.9836 24.7921 38.0374 14.5503 40.3605C13.562 40.585 12.5811 39.9739 12.3553 38.9909C12.1295 38.008 12.744 37.0324 13.7323 36.8078C24.9328 34.2565 34.549 35.3536 42.2998 40.0696C43.1622 40.5924 43.4361 41.7152 42.9105 42.573ZM46.5046 34.6062C45.8421 35.6812 44.4318 36.0126 43.3547 35.3573C35.4448 30.5234 23.393 29.1281 14.0395 31.9482C12.8069 32.239 11.5669 31.4806 11.2745 30.251C11.008 29.1318 11.6225 27.9832 12.707 27.5819C23.393 24.3569 36.67 25.9215 45.7495 31.4696C46.8304 32.1286 47.1672 33.5349 46.5046 34.6062C46.5083 34.6099 46.5083 34.6099 46.5046 34.6062ZM46.8192 26.3118C37.3399 20.7085 21.694 20.1968 12.644 22.9321C11.1968 23.3923 9.6496 22.5934 9.18692 21.1577C8.72424 19.7219 9.52745 18.1793 10.971 17.7191C10.9932 17.7118 11.0228 17.7044 11.045 17.697C21.4312 14.5567 38.7094 15.1678 49.6212 21.6068C50.9278 22.3799 51.3572 24.055 50.5836 25.3546C49.8063 26.6542 48.1222 27.0812 46.8155 26.3118" fill="white"/>
</svg>
