<svg width="260" height="48" viewBox="0 0 260 48" fill="none" xmlns="http://www.w3.org/2000/svg">
<path fill-rule="evenodd" clip-rule="evenodd" d="M33.5168 38.8738C25.4657 38.8738 18.5935 31.7862 18.5935 24.0555C18.5935 16.3534 25.3218 9.12499 33.4591 9.12499C38.8081 9.12499 42.6597 11.6367 45.7946 15.5718H49.7335C48.5545 13.5064 47.2895 11.6092 45.3631 10.1297C42.0561 7.53445 37.7717 6 33.5168 6C23.3093 6 15 14.177 15 24.028C15 33.9065 23.4249 42 33.5746 42C37.7152 42 41.7696 40.5216 45.0189 38.0374C47.0609 36.4469 48.498 34.3814 49.8786 32.2599H45.9397C42.833 36.1951 38.8659 38.8738 33.5168 38.8738ZM74.3468 20.0368C71.8746 16.9392 68.5098 14.986 64.341 14.986C56.8651 14.986 50.7121 20.8756 50.7121 28.1315C50.7121 35.3861 56.8946 41.3306 64.341 41.3306C68.6831 41.3306 71.7012 39.5718 74.3468 36.3347V40.7436H77.5961V15.5993H74.3468V20.0368ZM64.1688 38.4276C58.4461 38.4276 53.9318 33.5999 53.9318 28.1589C53.9318 22.7442 58.4178 17.889 64.1688 17.889C69.8904 17.889 74.3468 22.7454 74.3468 28.1589C74.3468 33.5999 69.8608 38.4276 64.1688 38.4276ZM81.535 40.7436H85.0153V6.72427H81.535V40.7436ZM98.1549 36.7523L89.3563 15.5993H85.9054L96.4584 40.7436H99.9658L110.49 15.5993H107.097L98.1549 36.7523ZM111.928 40.7436H115.407V15.5993H111.928V40.7436ZM111.928 12.3621H115.407V6.72427H111.928V12.3621ZM130.388 14.9848C127.109 14.9848 124.781 16.66 122.624 18.8925V15.5993H119.403V40.7436H122.825V25.4217C122.796 21.3756 126.246 17.8878 130.444 17.8878C135.705 17.8878 138.351 22.3253 138.351 26.9025V40.7448H141.57V26.9025C141.571 20.3721 137.634 14.9848 130.388 14.9848ZM173.862 6.72427L158.048 26.2319V6.72427H154.626V40.7436H158.048V31.3948L162.534 25.9813L173.948 40.7436H178.292L164.718 23.3014L178.292 6.72427H173.862ZM179.555 40.7436H182.95V6.72427H179.555V40.7436ZM211.041 21.934C208.683 17.6635 203.967 14.9848 198.992 14.9848C191.575 14.9848 185.305 20.9854 185.305 28.1851C185.305 35.4398 191.632 41.3294 199.052 41.3294C202.587 41.3294 206.068 39.962 208.625 37.5899C210.179 36.1665 211.099 34.3802 211.931 32.5105H208.281C206.439 35.9994 203.19 38.4264 198.991 38.4264C196.434 38.4264 193.932 37.4217 192.035 35.719C190.078 33.9901 189.216 31.8674 188.841 29.3569H212.738C212.739 26.7342 212.364 24.2225 211.041 21.934ZM188.958 26.455C189.995 21.7395 193.817 17.8878 199.052 17.8878C203.451 17.8878 208.167 20.5117 209.202 26.455H188.958ZM215.269 40.7436H218.689V15.5993H215.269V40.7436ZM215.269 12.4743H218.689V6.72427H215.269V12.4743ZM233.729 14.9848C230.391 14.9848 228.063 16.66 225.877 18.8925V15.5993H222.6V40.7436H226.05V25.4217C226.022 21.3481 229.559 17.8878 233.784 17.8878C239.019 17.8878 241.78 22.3253 241.78 26.9025V40.7448H245V26.9025C245 20.3721 241.002 14.9848 233.729 14.9848Z" fill="white"/>
</svg>
