<svg width="264" height="59" viewBox="0 0 264 59" fill="none" xmlns="http://www.w3.org/2000/svg">
<path opacity="0.99" fill-rule="evenodd" clip-rule="evenodd" d="M2.47847 0C22.9671 0 43.4558 0 63.9445 0C66.2744 1.17739 66.9628 2.99493 66.0099 5.45263C56.096 22.6367 46.1821 39.8207 36.2683 57.0048C34.4748 58.9111 32.5471 59.0763 30.4852 57.5005C20.2355 39.9746 10.0738 22.405 0 4.79171C0 4.02062 0 3.24955 0 2.47847C0.440617 1.26677 1.26677 0.440617 2.47847 0ZM33.0463 10.2443C36.2303 15.3705 39.3146 20.5753 42.2992 25.8587C36.24 25.9963 30.1815 25.9689 24.1238 25.7761C27.1731 20.6357 30.1473 15.4585 33.0463 10.2443Z" fill="#FEFFFE"/>
<path opacity="0.98" fill-rule="evenodd" clip-rule="evenodd" d="M167.214 9.25295C178.359 8.9735 185.107 14.2609 187.455 25.1152C188.329 30.6792 187.503 35.9666 184.976 40.9774C182.115 45.6749 177.956 48.5112 172.501 49.4868C166.859 50.5755 161.627 49.5841 156.804 46.5126C151.633 42.1873 149.099 36.6247 149.204 29.8242C149.133 23.0856 151.612 17.5229 156.639 13.1359C159.815 10.8581 163.34 9.56379 167.214 9.25295ZM168.205 17.6797C172.077 18.1069 174.583 20.1997 175.723 23.9585C176.802 28.0695 176.692 32.1453 175.393 36.1856C173.268 41.0606 169.77 42.4651 164.901 40.399C162.493 38.4777 161.089 35.9718 160.687 32.881C160.007 28.8091 160.613 24.9537 162.505 21.3148C163.847 19.1997 165.747 17.9879 168.205 17.6797Z" fill="#FEFFFE"/>
<path opacity="0.981" fill-rule="evenodd" clip-rule="evenodd" d="M209.017 9.2529C214.523 8.89428 219.369 10.464 223.558 13.962C227.646 18.2375 229.628 23.3597 229.506 29.3285C229.665 34.91 227.986 39.8394 224.466 44.1167C220.461 48.0789 215.613 50.0067 209.926 49.8998C199.873 49.5393 193.705 44.4721 191.42 34.6985C190.072 27.7028 191.505 21.369 195.716 15.6969C199.307 11.7947 203.742 9.64666 209.017 9.2529ZM210.009 17.6797C212.337 17.7562 214.237 18.6926 215.709 20.4886C217.512 23.2377 218.366 26.2669 218.27 29.5763C218.411 33.0355 217.502 36.1749 215.544 38.9945C212.281 42.1257 208.893 42.2633 205.382 39.4076C203.13 36.6002 202.084 33.3782 202.243 29.7416C202.121 26.3742 202.975 23.2898 204.804 20.4886C206.169 18.8292 207.904 17.8928 210.009 17.6797Z" fill="#FEFFFE"/>
<path opacity="0.978" fill-rule="evenodd" clip-rule="evenodd" d="M81.2937 9.41813C83.5043 9.35516 85.7074 9.43778 87.9029 9.66598C91.3726 10.1611 93.2454 12.1439 93.5208 15.6143C93.3891 17.0493 93.1137 18.4538 92.6947 19.8277C89.9249 18.8051 87.0609 18.1992 84.1026 18.0102C82.7654 18.0318 81.4987 18.3347 80.3023 18.9189C78.6984 20.4293 78.8086 21.8062 80.6328 23.0497C83.1263 24.1929 85.6598 25.2395 88.2334 26.1891C95.9335 29.7759 98.1089 35.4764 94.76 43.2905C92.4233 46.6517 89.2013 48.662 85.094 49.3215C79.2883 50.3695 73.6704 49.7636 68.2404 47.5039C68.1481 47.3841 68.093 47.2465 68.0752 47.0909C68.6986 44.2947 69.3595 41.5131 70.058 38.7467C71.9236 39.4783 73.8512 40.0841 75.8411 40.5642C78.3798 41.0984 80.9133 41.0984 83.4417 40.5642C85.2549 39.8288 85.8333 38.5345 85.1766 36.6813C84.8186 36.3232 84.4607 35.9653 84.1026 35.6073C81.0928 34.2547 78.0634 32.9329 75.0149 31.6417C68.4015 27.9118 66.7216 22.597 69.9754 15.6969C71.9082 12.8978 74.5243 11.0527 77.8238 10.1617C79.0005 9.89914 80.1571 9.65129 81.2937 9.41813Z" fill="#FEFFFE"/>
<path opacity="0.979" fill-rule="evenodd" clip-rule="evenodd" d="M135.655 9.41803C137.473 9.39051 139.291 9.41806 141.107 9.50064C146.358 10.3503 148.258 13.352 146.808 18.5057C146.74 18.9183 146.547 19.2488 146.229 19.4971C142.379 17.9934 138.468 17.8005 134.498 18.9188C130.766 20.4568 128.646 23.2383 128.137 27.263C127.434 31.4792 128.508 35.1417 131.359 38.2509C133.691 40.1115 136.362 41.0203 139.372 40.9772C141.772 40.906 144.112 40.5205 146.395 39.8206C146.829 42.6181 147.324 45.3994 147.882 48.1648C146.236 48.8379 144.528 49.2784 142.76 49.4866C137.803 50.1679 132.956 49.7272 128.219 48.1648C121.476 45.218 117.703 40.0683 116.901 32.7156C116.19 19.303 122.441 11.5371 135.655 9.41803Z" fill="#FEFFFE"/>
<path opacity="0.981" fill-rule="evenodd" clip-rule="evenodd" d="M242.89 9.58344C245.372 9.57437 247.85 9.65698 250.325 9.83128C253.314 9.99969 256.067 10.8809 258.587 12.475C262.009 15.2531 263.028 18.7505 261.644 22.9672C261.194 24.0058 260.56 24.9146 259.743 25.6935C258.62 26.595 257.409 27.3661 256.108 28.0067C261.298 29.6708 263.749 33.2232 263.461 38.6641C262.873 42.9445 260.588 45.9462 256.604 47.6692C253.889 48.6968 251.08 49.3027 248.177 49.4868C242.931 49.861 237.698 49.7234 232.48 49.0737C232.48 36.1857 232.48 23.2976 232.48 10.4096C235.967 10.0229 239.436 9.74749 242.89 9.58344ZM244.212 17.3493C245.885 17.2598 247.538 17.3974 249.169 17.7624C251.498 18.8136 252.133 20.4935 251.069 22.8019C249.927 24.1301 248.466 24.8186 246.69 24.8673C245.479 24.9499 244.268 24.9774 243.055 24.9499C243.055 22.4715 243.055 19.993 243.055 17.5145C243.478 17.5644 243.863 17.5092 244.212 17.3493ZM243.055 32.5506C245.182 32.4232 247.275 32.616 249.334 33.1289C252.32 34.5228 253.063 36.6984 251.564 39.6555C250.542 40.8419 249.246 41.5304 247.682 41.7209C246.14 41.8035 244.598 41.831 243.055 41.8035C243.055 38.7192 243.055 35.635 243.055 32.5506Z" fill="#FEFFFE"/>
<path opacity="0.974" fill-rule="evenodd" clip-rule="evenodd" d="M101.287 9.91385C103.811 9.86851 106.29 10.1714 108.722 10.8226C110.391 11.4452 111.41 12.6293 111.779 14.3751C112.021 25.9932 112.103 37.6145 112.027 49.2389C108.447 49.2389 104.867 49.2389 101.287 49.2389C101.287 36.1306 101.287 23.0221 101.287 9.91385Z" fill="#FEFFFE"/>
</svg>
